<?xml version="1.0" encoding="utf-8"?>
<!-- Generator: Adobe Illustrator 23.0.1, SVG Export Plug-In . SVG Version: 6.00 Build 0)  -->
<svg version="1.1" id="Layer_1" xmlns="http://www.w3.org/2000/svg" xmlns:xlink="http://www.w3.org/1999/xlink" x="0px" y="0px"
	 viewBox="0 0 1537.5 1355" style="enable-background:new 0 0 1537.5 1355;" xml:space="preserve">
<style type="text/css">
	.st0{opacity:0.62;fill:url(#Subtraction_13_1_);enable-background:new    ;}
	.st1{opacity:0.84;fill:url(#Subtraction_10_1_);enable-background:new    ;}
	.st2{opacity:0.45;fill:url(#Path_376_1_);enable-background:new    ;}
	.st3{fill:url(#Path_377_1_);}
	.st4{fill:url(#Path_706_1_);}
	.st5{fill:url(#Path_707_1_);}
</style>
<g id="Group_345" transform="translate(866.5 -3555)">
	
		<linearGradient id="Subtraction_13_1_" gradientUnits="userSpaceOnUse" x1="-864.7749" y1="4909.7905" x2="-864.7631" y2="4910.0767" gradientTransform="matrix(-1537.504 0 0 1585.0011 -1329665 -7778350.5)">
		<stop  offset="0" style="stop-color:#3FD8F5"/>
		<stop  offset="1" style="stop-color:#FFFFFF"/>
	</linearGradient>
	<path id="Subtraction_13" class="st0" d="M-866.8,4910h1537v-660.3l0.4,0h0.1h0.1v-570.4c-4.3-0.2-8.7-0.3-13-0.3
		c-33,0-65.7,5.6-96.7,16.8c-15,5.4-29.5,12.1-43.4,19.9c-13.8,7.8-26.8,16.7-39.1,26.6c-12.2,9.9-23.7,20.8-34.1,32.5
		c-10.5,11.8-20,24.4-28.4,37.8c-8.5,13.4-15.8,27.6-21.9,42.2c-6.2,14.9-11.1,30.3-14.7,46c-70.3-53.6-170.8-40.1-224.4,30.2
		c-10,13.1-17.9,27.6-23.4,43.1c-19.6-8-39.9-13.9-60.7-17.8c-42.8-8-86.7-8.4-129.7-1.2c-19,3.2-37.7,8.1-55.8,14.6
		c-16.7,6-32.8,13.6-48,22.8c-13.9,8.3-26.7,18.3-38.2,29.6c-11.4-21.5-28.4-39.5-49.2-52.1c-10.6-6.4-21.9-11.4-33.8-14.8
		c-23-6.5-47.3-7-70.5-1.4c-20.4,4.9-39.5,14.5-55.6,27.9c-7.9,6.6-15,14.1-21.2,22.3c-19.3-21.7-40.6-41.7-63.4-59.7
		c-33.1-26-69.2-48.2-107.3-66c-9.7-4.6-19.8-8.9-29.8-13c-10.1-4.1-20.5-7.9-30.9-11.4c-10.4-3.5-21.2-6.9-31.8-9.8
		c-10.8-3-21.8-5.8-32.7-8.2c-11.1-2.4-22.4-4.6-33.6-6.5c-11.3-1.9-22.9-3.4-34.3-4.7c-11.5-1.3-23.3-2.2-35-2.9
		c-11.8-0.6-23.8-1-35.6-1v209h-1L-866.8,4910L-866.8,4910z"/>
	<g id="Component_85_1" transform="translate(-865 3781.218)">
		
			<linearGradient id="Subtraction_10_1_" gradientUnits="userSpaceOnUse" x1="-0.2568" y1="1130.1628" x2="-0.2416" y2="1129.5289" gradientTransform="matrix(1537.5 0 0 -1398.0002 1142.5 1579885.5)">
			<stop  offset="0" style="stop-color:#3FD8F5"/>
			<stop  offset="1" style="stop-color:#FFFFFF"/>
		</linearGradient>
		<path id="Subtraction_10" class="st1" d="M1537.2,1128.8L0.2,1129V694.7l-0.4,0l-0.1,0V124.3c4.3-0.2,8.7-0.3,13-0.3
			c33,0,65.7,5.6,96.7,16.8c15,5.4,29.5,12.1,43.4,19.9c13.8,7.8,26.8,16.7,39.1,26.6c12.2,9.9,23.7,20.8,34.1,32.5
			c10.5,11.8,20,24.4,28.4,37.8c8.5,13.4,15.8,27.6,21.9,42.2c6.2,14.9,11.1,30.3,14.7,46c70.3-53.6,170.8-40.1,224.4,30.2
			c10,13.1,17.9,27.6,23.4,43.1c19.6-8,39.9-13.9,60.7-17.8c42.8-8,86.7-8.4,129.7-1.2c19,3.2,37.7,8.1,55.8,14.6
			c16.7,6,32.8,13.6,48,22.8c13.9,8.3,26.7,18.3,38.2,29.6c11.4-21.5,28.4-39.5,49.2-52.1c10.6-6.4,21.9-11.4,33.8-14.8
			c23-6.5,47.3-7,70.5-1.4c20.4,4.9,39.5,14.5,55.6,27.9c7.9,6.6,15,14.1,21.2,22.3c19.3-21.7,40.6-41.7,63.4-59.7
			c33.1-26,69.1-48.2,107.3-65.9c9.7-4.6,19.8-8.9,29.8-13c10.1-4.1,20.5-7.9,30.9-11.4c10.4-3.5,21.2-6.9,31.8-9.8
			c10.8-3,21.8-5.8,32.7-8.2c11.1-2.4,22.4-4.6,33.6-6.5c11.3-1.9,22.9-3.4,34.3-4.7c11.5-1.3,23.3-2.2,35-2.9
			c11.8-0.6,23.8-1,35.6-1v209h1V1128.8z"/>
		
			<linearGradient id="Path_376_1_" gradientUnits="userSpaceOnUse" x1="2.1016" y1="1135.1805" x2="3.1016" y2="1135.1805" gradientTransform="matrix(23.0993 -71.0919 -73.5932 -23.912 84887.1406 27792.1582)">
			<stop  offset="0" style="stop-color:#FFFFFF;stop-opacity:0"/>
			<stop  offset="1" style="stop-color:#FFFFFF"/>
		</linearGradient>
		<path id="Path_376" class="st2" d="M1368.9,450.8c-15.4,47.4,58.2,71.3,73.6,23.9C1457.9,427.4,1384.3,403.4,1368.9,450.8z"/>
		
			<linearGradient id="Path_377_1_" gradientUnits="userSpaceOnUse" x1="6.73" y1="1129.3944" x2="7.73" y2="1129.3944" gradientTransform="matrix(-50.9894 -45.9111 -47.529 52.7863 54153.1797 -58970.1406)">
			<stop  offset="0" style="stop-color:#FFFFFF;stop-opacity:0"/>
			<stop  offset="1" style="stop-color:#FFFFFF"/>
		</linearGradient>
		<path id="Path_377" class="st3" d="M81.7,340.9c34,30.6,81.6-22.2,47.5-52.8C95.3,257.6,47.7,310.3,81.7,340.9z"/>
		
			<linearGradient id="Path_706_1_" gradientUnits="userSpaceOnUse" x1="-0.2244" y1="1112.7517" x2="0.7756" y2="1112.7517" gradientTransform="matrix(-19.3972 21.5428 22.3018 20.0806 -24616.627 -21765.1055)">
			<stop  offset="0" style="stop-color:#FFFFFF;stop-opacity:0"/>
			<stop  offset="1" style="stop-color:#FFFFFF"/>
		</linearGradient>
		<path id="Path_706" class="st4" d="M205.6,595.6c12.9-14.3-9.4-34.5-22.3-20.1C170.3,589.9,192.6,610,205.6,595.6z"/>
		
			<linearGradient id="Path_707_1_" gradientUnits="userSpaceOnUse" x1="-17.0257" y1="1133.5824" x2="-16.0257" y2="1133.5824" gradientTransform="matrix(26.0548 12.7078 13.1555 -26.9728 -13199.5605 31447.5723)">
			<stop  offset="0" style="stop-color:#FFFFFF;stop-opacity:0"/>
			<stop  offset="1" style="stop-color:#FFFFFF"/>
		</linearGradient>
		<path id="Path_707" class="st5" d="M1289.3,648.1c-17.4-8.5-30.5,18.5-13.2,27C1293.5,683.6,1306.7,656.6,1289.3,648.1z"/>
	</g>
</g>
</svg>
