<?xml version="1.0" encoding="utf-8"?>
<!-- Generator: Adobe Illustrator 23.0.1, SVG Export Plug-In . SVG Version: 6.00 Build 0)  -->
<svg version="1.1" id="Component_86_1" xmlns="http://www.w3.org/2000/svg" xmlns:xlink="http://www.w3.org/1999/xlink" x="0px"
	 y="0px" viewBox="0 0 1539 1247.4" style="enable-background:new 0 0 1539 1247.4;" xml:space="preserve">
<style type="text/css">
	.st0{opacity:0.62;fill:url(#SVGID_1_);enable-background:new    ;}
	.st1{opacity:0.84;fill:url(#SVGID_2_);enable-background:new    ;}
	.st2{opacity:0.45;fill:url(#Path_376_1_);enable-background:new    ;}
	.st3{fill:url(#Path_377_1_);}
	.st4{fill:url(#Path_706_1_);}
	.st5{fill:url(#Path_707_1_);}
</style>
<linearGradient id="SVGID_1_" gradientUnits="userSpaceOnUse" x1="745.4174" y1="1191.6664" x2="763.4028" y2="755.2209" gradientTransform="matrix(1 0 0 -1 0 1248)">
	<stop  offset="0" style="stop-color:#3FD8F5"/>
	<stop  offset="1" style="stop-color:#FFFFFF"/>
</linearGradient>
<path class="st0" d="M1537,1247.4V570.7h0.4h0.1h0.1V0.3c-4.3-0.2-8.7-0.3-13-0.3c-33,0-65.7,5.6-96.7,16.8
	c-15,5.4-29.5,12.1-43.4,19.9c-13.8,7.8-26.8,16.7-39.1,26.6c-12.2,9.9-23.7,20.8-34.1,32.5c-10.5,11.8-20,24.4-28.4,37.8
	c-8.5,13.4-15.8,27.6-21.9,42.2c-6.2,14.9-11.1,30.3-14.7,46c-70.3-53.6-170.8-40.1-224.4,30.2c-10,13.1-17.9,27.6-23.4,43.1
	c-19.6-8-39.9-13.9-60.7-17.8c-42.8-8-86.7-8.4-129.7-1.2c-19,3.2-37.7,8.1-55.8,14.6c-16.7,6-32.8,13.6-48,22.8
	c-13.9,8.3-26.7,18.3-38.2,29.6c-11.4-21.5-28.4-39.5-49.2-52.1c-10.6-6.4-21.9-11.4-33.8-14.8c-23-6.5-47.3-7-70.5-1.4
	c-20.4,4.9-39.5,14.5-55.6,27.9c-7.9,6.6-15,14.1-21.2,22.3c-19.3-21.7-40.6-41.7-63.4-59.7c-33.1-26-69.2-48.2-107.3-66
	c-9.7-4.6-19.8-8.9-29.8-13c-10.1-4.1-20.5-7.9-30.9-11.4s-21.2-6.9-31.8-9.8c-10.8-3-21.8-5.8-32.7-8.2
	c-11.1-2.4-22.4-4.6-33.6-6.5C95,148.5,83.4,147,72,145.7c-11.5-1.3-23.3-2.2-35-2.9c-11.8-0.6-23.8-1-35.6-1v209H0v896.4h1537
	V1247.4z"/>
<linearGradient id="SVGID_2_" gradientUnits="userSpaceOnUse" x1="753.2029" y1="-204.7258" x2="774.1566" y2="667.3499" gradientTransform="matrix(1 0 0 -1 0 1248)">
	<stop  offset="0" style="stop-color:#FFFFFF"/>
	<stop  offset="0.3585" style="stop-color:#FDFFFF;stop-opacity:0.8925"/>
	<stop  offset="0.5039" style="stop-color:#F6FDFF;stop-opacity:0.8488"/>
	<stop  offset="0.6106" style="stop-color:#EAFBFE;stop-opacity:0.8168"/>
	<stop  offset="0.6984" style="stop-color:#D8F7FD;stop-opacity:0.7905"/>
	<stop  offset="0.7747" style="stop-color:#C1F2FC;stop-opacity:0.7676"/>
	<stop  offset="0.8429" style="stop-color:#A5EDFA;stop-opacity:0.7471"/>
	<stop  offset="0.905" style="stop-color:#84E6F9;stop-opacity:0.7285"/>
	<stop  offset="0.9607" style="stop-color:#5EDEF7;stop-opacity:0.7118"/>
	<stop  offset="1" style="stop-color:#3FD8F5;stop-opacity:0.7"/>
</linearGradient>
<path class="st1" d="M2,796.9v450.5h1537V577.2h-1v-209c-11.9,0-23.8,0.3-35.6,1c-11.7,0.6-23.5,1.6-35,2.9s-23,2.8-34.3,4.7
	c-11.2,1.8-22.5,4-33.6,6.5c-11,2.4-22,5.2-32.7,8.2s-21.4,6.3-31.8,9.8s-20.8,7.4-30.9,11.4c-10,4-20.1,8.4-29.8,13
	c-38.2,17.8-74.2,39.9-107.3,65.9c-22.9,18-44.1,38-63.4,59.7c-6.2-8.2-13.3-15.7-21.2-22.3c-16.2-13.5-35.2-23-55.6-27.9
	c-23.2-5.6-47.5-5.1-70.5,1.4c-11.9,3.4-23.3,8.3-33.8,14.8c-20.8,12.6-37.8,30.6-49.2,52.1c-11.5-11.3-24.3-21.3-38.2-29.6
	c-15.2-9.2-31.3-16.8-48-22.8c-18.1-6.5-36.8-11.4-55.8-14.6c-43-7.3-86.9-6.9-129.7,1.2c-20.8,3.9-41.1,9.9-60.7,17.8
	c-5.5-15.5-13.5-30.1-23.4-43.1c-53.6-70.3-154.1-83.8-224.4-30.2c-3.6-15.7-8.5-31.1-14.7-46c-6.1-14.7-13.4-28.8-21.9-42.2
	c-8.4-13.3-17.9-26-28.4-37.8s-21.9-22.6-34.1-32.5c-12.3-9.9-25.4-18.8-39.1-26.6c-13.9-7.8-28.4-14.5-43.4-19.9
	c-31-11.2-63.7-16.8-96.7-16.8c-4.3,0-8.7,0.1-13,0.3V797h0.1L2,796.9z"/>
<linearGradient id="Path_376_1_" gradientUnits="userSpaceOnUse" x1="932.3566" y1="-201.4765" x2="933.357" y2="-201.4765" gradientTransform="matrix(23.0993 -71.0919 73.5932 23.912 -5313.5386 71701.3125)">
	<stop  offset="0" style="stop-color:#FFFFFF;stop-opacity:0"/>
	<stop  offset="1" style="stop-color:#FFFFFF"/>
</linearGradient>
<path id="Path_376" class="st2" d="M1370.7,553.1c-15.4,47.4,58.2,71.3,73.6,23.9C1459.6,529.6,1386.1,505.6,1370.7,553.1z"/>
<linearGradient id="Path_377_1_" gradientUnits="userSpaceOnUse" x1="944.3315" y1="-189.5049" x2="945.3316" y2="-189.5049" gradientTransform="matrix(-50.9894 -45.9111 47.529 -52.7863 57290.6406 33791.7109)">
	<stop  offset="0" style="stop-color:#FFFFFF;stop-opacity:0"/>
	<stop  offset="1" style="stop-color:#FFFFFF"/>
</linearGradient>
<path id="Path_377" class="st3" d="M83.5,443.1c34,30.6,81.6-22.2,47.5-52.8C97,359.8,49.5,412.5,83.5,443.1z"/>
<linearGradient id="Path_706_1_" gradientUnits="userSpaceOnUse" x1="932.9111" y1="-150.1622" x2="933.9111" y2="-150.1622" gradientTransform="matrix(-19.3972 21.5428 -22.3018 -20.0806 14952.8516 -22435.8184)">
	<stop  offset="0" style="stop-color:#FFFFFF;stop-opacity:0"/>
	<stop  offset="1" style="stop-color:#FFFFFF"/>
</linearGradient>
<path id="Path_706" class="st4" d="M207.3,697.9c12.9-14.3-9.4-34.5-22.3-20.1C172.1,692.1,194.4,712.2,207.3,697.9z"/>
<linearGradient id="Path_707_1_" gradientUnits="userSpaceOnUse" x1="889.4886" y1="-193.2328" x2="890.4883" y2="-193.2328" gradientTransform="matrix(26.0548 12.7078 -13.1555 26.9728 -24446.0918 -5333.8892)">
	<stop  offset="0" style="stop-color:#FFFFFF;stop-opacity:0"/>
	<stop  offset="1" style="stop-color:#FFFFFF"/>
</linearGradient>
<path id="Path_707" class="st5" d="M1291.1,750.4c-17.4-8.5-30.5,18.5-13.2,27C1295.3,785.8,1308.5,758.8,1291.1,750.4z"/>
</svg>
