<svg xmlns="http://www.w3.org/2000/svg" xmlns:xlink="http://www.w3.org/1999/xlink" width="778.26" height="542.837" viewBox="0 0 778.26 542.837">
  <defs>
    <linearGradient id="linear-gradient" x1="1.005" y1="0.509" x2="-0.528" y2="0.492" gradientUnits="objectBoundingBox">
      <stop offset="0.004" stop-color="#ed8014"/>
      <stop offset="0.154" stop-color="#f08917"/>
      <stop offset="0.402" stop-color="#faa221"/>
      <stop offset="0.488" stop-color="#fead25"/>
      <stop offset="1" stop-color="#fae3af"/>
    </linearGradient>
    <linearGradient id="linear-gradient-2" x1="1.464" y1="0.867" x2="0.128" y2="0.093" xlink:href="#linear-gradient"/>
    <linearGradient id="linear-gradient-3" x1="-0.064" y1="0.394" x2="0.71" y2="0.539" gradientUnits="objectBoundingBox">
      <stop offset="0" stop-color="#3fd8f5"/>
      <stop offset="0.186" stop-color="#3fcef5"/>
      <stop offset="0.488" stop-color="#3fb6f5"/>
      <stop offset="1" stop-color="#2b9efc"/>
    </linearGradient>
    <linearGradient id="linear-gradient-4" x1="0.012" y1="0.042" x2="0.822" y2="0.802" xlink:href="#linear-gradient-3"/>
    <linearGradient id="linear-gradient-5" x1="0.241" y1="-0.094" x2="0.551" y2="0.617" xlink:href="#linear-gradient-3"/>
    <linearGradient id="linear-gradient-6" x1="0.929" y1="1.006" x2="0.217" y2="0.166" gradientUnits="objectBoundingBox">
      <stop offset="0" stop-color="#fff"/>
      <stop offset="0.216" stop-color="#fff" stop-opacity="0.761"/>
      <stop offset="0.604" stop-color="#fff" stop-opacity="0.357"/>
      <stop offset="0.874" stop-color="#fff" stop-opacity="0.098"/>
      <stop offset="1" stop-color="#fff" stop-opacity="0"/>
    </linearGradient>
    <linearGradient id="linear-gradient-7" x1="0.596" y1="0.81" x2="0.125" y2="0.054" gradientUnits="objectBoundingBox">
      <stop offset="0" stop-color="#afaeae"/>
      <stop offset="1" stop-color="#d3d2d2"/>
    </linearGradient>
  </defs>
  <g id="Group_344" data-name="Group 344" transform="translate(-649 -161.163)">
    <ellipse id="Ellipse_368" data-name="Ellipse 368" cx="339" cy="47.5" rx="339" ry="47.5" transform="translate(745 609)" fill="#a3a3a3" opacity="0.29"/>
    <g id="Group_138" data-name="Group 138" transform="translate(67.16 -30.699)">
      <path id="Path_1957" data-name="Path 1957" d="M1171.171,191.862l29.724,66.411-49.15,11.5Z" fill="url(#linear-gradient)"/>
      <path id="Path_1958" data-name="Path 1958" d="M1171.2,191.9l-57.423,44.682,38,33.228Z" fill="url(#linear-gradient-2)"/>
    </g>
    <g id="Group_147" data-name="Group 147" transform="translate(67.789 -22.453)">
      <path id="Path_1768" data-name="Path 1768" d="M644.955,479.035l-29.3,44.776-34.442-52.834,29.3-44.776Z" fill="url(#linear-gradient-3)"/>
      <path id="Path_1769" data-name="Path 1769" d="M644.955,479.035l52.794-8.741L663.307,417.46,610.514,426.2Z" fill="url(#linear-gradient-4)"/>
      <path id="Path_1770" data-name="Path 1770" d="M615.653,523.811l29.3-44.776,52.794-8.741L665,509.787Z" fill="url(#linear-gradient-5)"/>
    </g>
    <g id="Group_156" data-name="Group 156" transform="translate(1941.97 -1177.521)">
      <circle id="Ellipse_303" data-name="Ellipse 303" cx="8.388" cy="8.388" r="8.388" transform="translate(-970.516 1650.183)" fill="url(#linear-gradient-6)"/>
      <path id="Path_2920" data-name="Path 2920" d="M-657.849,1649.805l-.6-1.806c1.034-1.7-.814-1.735-1.768-1.253q1.934-8.289,3.866-16.578c-.882-5.213-1.617-10.457-2.695-15.63a46.527,46.527,0,0,0-3.079-10.527c-1.933-4.058-5.712-6.36-10.072-7.438-7.666-1.894-15.357-3.688-23.032-5.523-1.994,6.35-12.185,9.212-19.274,8.386-7.144-.833-11.817-3.8-12.762-8.119l-5.781.949a10.863,10.863,0,0,1-1.581.676c-5.132,1.311-10.339,2.373-15.392,3.935a15.956,15.956,0,0,0-11.452,17.538c2,15.652,4.272,31.27,6.478,46.9a29.288,29.288,0,0,0,1.49,7.295c2.541,6,7.627,8.089,13.816,8.084l14.51.022c8.246-.046,24.178.948,32.423.9,3.324.813-1.858-1.343-.4-4.409,1.415-2.98,2.663-6.041,3.924-9.092,1.222-2.958,2.577-3.4,5.7-1.759,6.1-.5,12.2-1.057,18.315-1.433.858-.053,1.771.783,2.658,1.207q.6-3.876,1.189-7.753c.608,1.106,1.766,1.819,1.117.247-.149-.359.765-1.455.6-1.806-.056-.12.757-1.13.6-1.2.345-.365,1.42-.89,1.806-1.2C-656.958,1650.171-658.19,1649.977-657.849,1649.805Zm-94.983-43.368-2.73-.192v-2.773l2.73.152Zm12.482,54.074-3.525-3.3,3.682-2.005-3.557-2.265,3.349-3.108.546.486-1.888,2.268c.676.893,1.868,1.777,1.817,2.582-.059.919-1.225,1.768-1.843,2.562l1.943,2.3Zm-.254-25.88-2.992-8.247,8.826,2.379Zm44.806-28.82c-1.519,1.275-3.074,1.37-4.4-.174-1.228-1.435-1.649-3.012.156-4.423,1.361-1.471,2.779-1.388,4.239-.155a.807.807,0,0,1,.351.35q0,2.025,0,4.049A.827.827,0,0,1-695.8,1605.811Zm4.754,19.721c.739.907,1.375,1.689,2.012,2.47-3.077-.991-4.237-2.631-1.153-4.786-2.689-2.841-2.689-2.841,1.171-5.013-.656.859-1.311,1.719-2.049,2.685C-688.243,1622.455-688.614,1624.055-691.044,1625.532Z" fill="#26254a"/>
      <path id="Path_2921" data-name="Path 2921" d="M-673.144,1619.812l3.27,41.62,7.427,6.672Z" fill="#1d1a36"/>
      <path id="Path_2922" data-name="Path 2922" d="M-572.613,1645.863q2.463-13.125,4.931-26.249c.677-3.583.138-4.289-3.552-4.291q-32.017-.016-64.034,0c-5.5,0-11.008.028-16.512.043a10.281,10.281,0,0,1-.032,1.8q-3.442,18.036-6.926,36.065c-1.056,5.474-2.2,10.932-3.181,16.419-.781,4.356-.044,5.127,4.452,5.132q4.662,0,9.325-.007a17.359,17.359,0,0,1,3.115-.568q30.91-.051,61.821,0a16.84,16.84,0,0,1,3.108.586,2.488,2.488,0,0,1-.1.493c-.023.057-.169.092-.259.092q-10.981,0-21.962,0-28.579,0-57.16.027c-1.231,0-3.056-.714-3.038,1.686l13.809.292,33.222-.1,17.39.085h19.468c1.7-8.745,3.268-16.836,4.838-24.927Zm-40.009-5.292c-.623,1.7-1.593,3.082-1.527,4.416.136,2.718-1.745,2.478-3.288,2.674-1.866.236-3.559-.247-3.561-2.541C-621,1641.361-615.657,1638.737-612.622,1640.571Z" fill="url(#linear-gradient-7)"/>
      <path id="Path_2923" data-name="Path 2923" d="M-780.607,1828.307l5.372-.018a5.576,5.576,0,0,0,.572-1.371c1.037-8.182,2.006-16.374,3.065-24.553,1.979-15.274,4.061-30.534,5.951-45.818.253-2.044,1.06-2.841,2.909-2.977,1.263-8.39,2.646-16.766,3.711-25.181.3-2.412,1.012-3.209,3.469-3.186,11.527.107,23.057.032,34.586.021l6.03-.461a5.817,5.817,0,0,0,4.815-5.3c.538-3.878-1.821-5.752-4.776-7.283l-15.03-.076c-11.133.007-22.268-.09-33.4.092-2.881.047-3.452-.91-3.446-3.577.081-35.405.023-70.81.1-106.216.008-3.9-.009-7.6-3.217-10.419-6.823-.673-9.5,1.715-9.511,8.469q-.043,22.722-.1,45.445.006,3.3.011,6.6,0,8.444-.008,16.885.05,27.688.1,55.377l8.215.7c-.817,9.072-1.589,18-2.434,26.923-.687,7.254-1.462,14.5-2.2,21.75l-1.27,13.83q-.012.918-.025,1.836-.3,3.6-.608,7.192Z" fill="#84888f"/>
      <path id="Path_2924" data-name="Path 2924" d="M-769.9,1591.979c3.208,2.818,3.225,6.521,3.217,10.419-.076,35.406-.018,70.811-.1,106.216-.006,2.667.565,3.624,3.446,3.577,11.13-.182,22.265-.085,33.4-.092-7.514-2.838-10.269-8.37-9.81-16.209.374-6.38.063-12.8.055-19.2-6.189.005-11.275-2.085-13.816-8.084a29.279,29.279,0,0,1-1.49-7.295c-2.206-15.625-4.478-31.243-6.478-46.9a15.956,15.956,0,0,1,11.452-17.538c5.053-1.562,10.26-2.624,15.392-3.935a10.863,10.863,0,0,0,1.581-.676,7.576,7.576,0,0,0-1.913-.524q-16.735-.043-33.472,0A8.927,8.927,0,0,0-769.9,1591.979Z" fill="#aeb2b7"/>
      <path id="Path_2925" data-name="Path 2925" d="M-598.2,1677.368l-17.389-.085c6.341,2.1,10.1,6.6,12.688,12.651,6.577,15.364,13.431,30.611,20.215,45.886q13.895,31.287,27.848,62.547a1.309,1.309,0,0,1,.568.084l9.051-3.427q-2.348-6.561-4.694-13.124a16.535,16.535,0,0,0-.47-1.7q-3.44-8.751-6.908-17.491-7.486-18.978-14.971-37.957l-2.786-7.184c-3.751-9.477-7.59-18.92-11.223-28.442C-588.48,1683.319-592.261,1679.3-598.2,1677.368Z" fill="#fead25"/>
      <path id="Path_2926" data-name="Path 2926" d="M-700.071,1577.1c2.44-2.848,4.278-5.956,4.271-9.863a17.939,17.939,0,0,0-4.071-.9c-4.873.053-9.743.4-14.615.436-1.277.01-3.361-.333-3.7-1.11a58.707,58.707,0,0,1-2.65-8.837,1.751,1.751,0,0,1,.593-1.532c3.672-2.031,4.848-5.589,5.744-9.624,6.165,3.213,11.914,2.591,17.4-1.11l.6-.275-.331.542c.389,2.667.683,5.352,1.2,7.994.34,1.736-.511,2.311-1.926,2.608,0,.211.007.423.011.634.808.059.668.734,1.476.793.747,0-.108,2.823.64,2.819a36.669,36.669,0,0,1,2.721-5.213c3.912-5.286,3.479-8.858-1.668-13.047.983-6.769-1.149-10.7-6.907-12.743-6.9-2.445-13.782.24-17.59,6.866-7.338-2.267-11.411.012-13.144,7.588a35.947,35.947,0,0,0,.242,17.543c.872,3.241,2.632,5.743,6.252,6.607.742.178,1.177,1.645,1.753,2.518,2.483,6.084,7.148,9.227,13.538,10.043C-706.592,1579.847-703.1,1579.327-700.071,1577.1Zm-22.194-19c.189,1.207.374,2.583.624,3.948.43,2.354-.648,3.1-2.842,2.807a6.417,6.417,0,0,1-5.23-8.2c.753-2.238,2.339-3.268,4.61-2.828C-722.986,1554.241-721.22,1555.17-722.265,1558.1Zm18.4,10.921c-2.842,3.157-5.86,2.524-8.121-1.63Z" fill="#d9441f"/>
      <path id="Path_2927" data-name="Path 2927" d="M-710.224,1579.836c-6.39-.816-11.055-3.959-13.538-10.043-.285,6.887-.682,13.773-.748,20.663a4.862,4.862,0,0,0,2.187,3.484c6.923,4.008,14,4.2,21.08.246,2.373-1.324,3.389-3.158,2.723-5.944-.485-2.027-.633-4.135-.931-6.206C-703.485,1583.474-707.019,1582.459-710.224,1579.836Z" fill="#fe9f81"/>
      <path id="Path_2928" data-name="Path 2928" d="M-648.142,1674.773q-4.663,0-9.325.007c-4.5-.005-5.233-.776-4.452-5.132.982-5.487,2.125-10.945,3.181-16.419q3.478-18.029,6.926-36.065a10.281,10.281,0,0,0,.032-1.8c-.776.965-1.987,1.825-2.25,2.914-.948,3.921-1.576,7.919-2.324,11.889q-2.049,8.8-4.1,17.589-.287,2.182-.574,4.366-.768,5-1.535,10.006c-.194,1.181-.426,2.358-.576,3.544-.345,2.725-.65,5.454-.972,8.182.18.213.362.425.544.637l-.974-.167-4.335.259-13.905-.016h-4.957c1.214-3.144,2.313-5.987,3.411-8.831q.4-1.692.791-3.382c-3.121-1.643-4.476-1.2-5.7,1.759-1.261,3.051-2.509,6.112-3.924,9.092-1.456,3.066.673,5.824,30.543,3.884-.018-2.4,1.807-1.684,3.038-1.686q28.58-.053,57.16-.027,10.981,0,21.962,0c.09,0,.236-.035.259-.092a2.484,2.484,0,0,0,.1-.494Z" fill="#707070"/>
      <path id="Path_2929" data-name="Path 2929" d="M-533.215,1822.823l-28.554.251q-.011,2.6-.022,5.208l47.081-.02q-.013-2.711-.027-5.422Z" fill="#fae3af"/>
      <path id="Path_2930" data-name="Path 2930" d="M-528.9,1814.976q-1.883,3.335-3.763,6.669a16.8,16.8,0,0,0,3.071.606c4.838.065,9.678.029,14.518.03-1.94-4.9-6.063-6.977-10.786-8.1C-526.757,1813.962-527.88,1814.686-528.9,1814.976Z" fill="#fae3af"/>
      <path id="Path_2931" data-name="Path 2931" d="M-710.224,1579.836c3.205,2.623,6.739,3.638,10.773,2.2q-.311-2.466-.62-4.932C-703.1,1579.327-706.592,1579.847-710.224,1579.836Z" fill="#eb735e"/>
      <path id="Path_2932" data-name="Path 2932" d="M-515.073,1822.281c-4.84,0-9.68.035-14.518-.03a16.8,16.8,0,0,1-3.071-.606q-.277.589-.553,1.179l18.478.016Z" fill="#22262c"/>
      <path id="Path_2933" data-name="Path 2933" d="M-728.309,1796.988q-1,10.586-1.994,21.172c-.313,3.38-.583,6.763-.873,10.145l5.4-.589q6.1-50.17,12.2-100.377h4.781q.221-.994.442-1.985l-6.587-.59q-3.017.231-6.031.462-1.248,12.109-2.495,24.22l-1.181,10.822-.078,1.828q-.556,5.106-1.114,10.213-.043.92-.085,1.839l-1.494,13.934q-.106.847-.212,1.695Z" fill="#868990"/>
      <path id="Path_2934" data-name="Path 2934" d="M-655.982,1797c1.018,6.8,2.057,13.595,3.044,20.4.526,3.623.963,7.259,1.442,10.889l5.139-.585c-.6-4.033-1.26-8.058-1.772-12.1-1.09-8.59-2.051-17.2-3.156-25.784-1.309-10.164-2.753-20.31-4.049-30.476-.3-2.366-.814-4.938,2.2-6.312.363-.166.416-1.352.36-2.044-.433-5.361-.929-10.717-1.405-16.073q-2.7-5.06-5.407-10.12l-6.151-.022c1.115,8.4,2.205,16.8,3.349,25.192q2.706,19.856,5.469,39.7Z" fill="#868990"/>
      <path id="Path_2935" data-name="Path 2935" d="M-708.795,1727.339h-4.782q-6.1,50.225-12.2,100.377l2.246-.033q2.358-15.367,4.721-30.735.459-3.576.914-7.152.235-1.209.47-2.419l1.845-12.653.508-2.432,1.393-10.192.42-1.847q.695-5.4,1.388-10.8Q-710.333,1738.4-708.795,1727.339Z" fill="#afb3b8"/>
      <path id="Path_2936" data-name="Path 2936" d="M-613.125,1822.85q-.042,2.727-.085,5.454l46.953,0q.065-2.724.128-5.447l-.223.048h-16.775v-.6h16.7a1.469,1.469,0,0,0-.018-.537c-1.331-1.56-2.411-3.5-4.051-4.6-2.829-1.9-5.764-4.431-9.618-2.123a56.888,56.888,0,0,0-3.713,5.755,3.3,3.3,0,0,1-3.491,2.075C-595.921,1822.812-604.523,1822.851-613.125,1822.85Z" fill="#fae3af"/>
      <path id="Path_2937" data-name="Path 2937" d="M-654.184,1734.908c.476,5.357.972,10.713,1.405,16.074.056.692,0,1.878-.36,2.044-3.009,1.374-2.5,3.946-2.2,6.312,1.3,10.166,2.74,20.312,4.049,30.476,1.1,8.588,2.066,17.194,3.156,25.784.512,4.045,1.177,8.07,1.772,12.1l2.427,0q-1.112-13.11-2.215-26.221c-.123-1.491-.119-2.993-.175-4.489q-.324-3.612-.65-7.224c-.592-5.451-1.223-10.9-1.767-16.353-.8-8.05-1.606-16.1-2.281-24.162-.261-3.122-.174-6.272-.245-9.41Z" fill="#afb3b8"/>
      <path id="Path_2938" data-name="Path 2938" d="M-772.757,1828.3c.883-6.8,1.744-13.6,2.658-20.4.491-3.646,1.075-7.279,1.616-10.918l1.107-7.214.126-1.845q1.095-6.939,2.192-13.876.054-.866.1-1.732l1.286-10.215.93-8.529c-1.849.136-2.656.933-2.909,2.977-1.89,15.284-3.972,30.544-5.951,45.818-1.059,8.179-2.028,16.371-3.065,24.553a5.576,5.576,0,0,1-.572,1.371Z" fill="#afb3b8"/>
      <path id="Path_2939" data-name="Path 2939" d="M-662.615,1677.088l-37.828-.515-24.736.138c-.641,6.277-1.281,12.554-1.954,19.14h4.169c18.648,0,37.3-.046,55.944.032,5.593.023,10.451,1.753,13.2,7.171.947,1.867,1.859,3.752,2.765,5.639q14.558,30.33,29.1,60.667c2.5,5.234,4.813,10.563,7.374,15.77,2.022,4.111,4.291,8.1,6.45,12.143q5.2-1.939,10.4-3.875l-1.038-3.624q-3.3-8.437-6.61-16.874l-12.864-33.064-5.715-14.5q-1.52-3.9-3.038-7.792-.958-2.711-1.918-5.422c-2.143-5.134-4.231-10.292-6.446-15.4-2.322-5.347-3.252-11.445-7.946-15.537a57.947,57.947,0,0,0-5.5-3.812Z" fill="#fead25"/>
      <path id="Path_2940" data-name="Path 2940" d="M-608.133,1797.276c-2.159-4.045-4.428-8.035-6.45-12.146-2.561-5.207-4.87-10.536-7.374-15.77q-14.522-30.348-29.1-60.667c-.906-1.887-1.818-3.772-2.765-5.639-2.747-5.418-7.6-7.148-13.2-7.171-18.648-.078-37.3-.031-55.944-.032h-4.169c.673-6.586,1.313-12.863,1.954-19.14l-14.51-.022c.008,6.4.319,12.821-.055,19.2-.459,7.839,2.3,13.371,9.81,16.209l15.03.075c15.517-.028,31.035-.089,46.552-.005a4.142,4.142,0,0,1,2.974,1.78c2.083,3.522,3.882,7.212,5.787,10.84q2.7,5.06,5.407,10.12,1.461,2.466,2.921,4.936,7.362,13.881,14.723,27.762l15.884,29.376,2.609,4.246,9.593-3.559Q-608.3,1797.469-608.133,1797.276Z" fill="#ed8014"/>
      <path id="Path_2941" data-name="Path 2941" d="M-668.875,1674.582l4.334-.259.431-.471c.321-2.727.626-5.456.971-8.181.15-1.186.382-2.363.576-3.544-.887-.424-1.8-1.26-2.658-1.207-6.112.376-12.212.933-18.315,1.433q-.4,1.69-.791,3.382c.018,1.081.115,2.168.039,3.243-.223,3.131.711,4.032,3.82,3.649.317-.039.672.228,1.009.352C-675.474,1670.492-672.258,1673.087-668.875,1674.582Z" fill="#fe9f81"/>
      <path id="Path_2942" data-name="Path 2942" d="M-743.875,1657.214l3.525,3.3.524-.481-1.943-2.3c.618-.794,1.784-1.643,1.843-2.562.051-.805-1.141-1.689-1.817-2.582l1.888-2.268-.546-.486-3.349,3.108,3.557,2.265Z" fill="#f0f0f0"/>
      <path id="Path_2943" data-name="Path 2943" d="M-689.032,1628c-.637-.781-1.273-1.563-2.012-2.47,2.43-1.477,2.8-3.077-.019-4.644.738-.966,1.393-1.826,2.049-2.685-3.86,2.172-3.86,2.172-1.171,5.013C-693.269,1625.371-692.109,1627.011-689.032,1628Z" fill="#f0f0f0"/>
      <path id="Path_2944" data-name="Path 2944" d="M-648.806,1677.38a57.947,57.947,0,0,1,5.5,3.812c4.694,4.092,5.624,10.19,7.946,15.537,2.215,5.1,4.3,10.261,6.447,15.4l6.063.071,4.776.027c2.714-.7,4.536.209,5.422,2.935a22.118,22.118,0,0,0,1.1,2.4q1.9,3.591,3.806,7.181l7.78,14.449,9.015,16.878c1.229,2.158,2.512,4.288,3.678,6.479q7.233,13.59,14.41,27.21,1.494,2.756,2.989,5.511l.316.478.279.662q1.87,3.263,3.743,6.524a1.761,1.761,0,0,1,.383.033l10.326-4.591q-13.926-31.272-27.848-62.547c-6.784-15.275-13.638-30.522-20.215-45.886-2.589-6.047-6.347-10.55-12.688-12.651Z" fill="#ed8014"/>
      <path id="Path_2945" data-name="Path 2945" d="M-612.622,1640.571c-3.035-1.834-8.38.79-8.376,4.549,0,2.294,1.7,2.777,3.561,2.541,1.543-.2,3.424.044,3.288-2.674C-614.215,1643.653-613.245,1642.267-612.622,1640.571Z" fill="#26254a"/>
      <path id="Path_2946" data-name="Path 2946" d="M-648.142,1674.773l68.044.016a16.929,16.929,0,0,0-3.108-.585q-30.91-.051-61.821,0A17.359,17.359,0,0,0-648.142,1674.773Z" fill="#707070"/>
      <path id="Path_2947" data-name="Path 2947" d="M-659.591,1724.789c-1.9-3.628-3.7-7.318-5.787-10.84a4.142,4.142,0,0,0-2.974-1.78c-15.517-.084-31.035-.023-46.552.005,2.956,1.532,5.315,3.406,4.777,7.284a5.817,5.817,0,0,1-4.815,5.3l6.588.59,42.611-.586Z" fill="#afb3b8"/>
      <path id="Path_2948" data-name="Path 2948" d="M-540.924,1807.164q-2.146-6.069-4.291-12.139l-9.049,3.425a1.332,1.332,0,0,0-.569-.083l-10.326,4.591,4.312,7.426c1.214-.017,2.43-.07,3.643-.047-1.213-.023-2.429.03-3.644.048q-.461,6.345-.922,12.69l28.555-.251q.277-.589.552-1.179l3.763-6.669C-533.878,1813.865-537.349,1810.434-540.924,1807.164Z" fill="#fe9f81"/>
      <path id="Path_2949" data-name="Path 2949" d="M-703.865,1569.022l-8.121-1.63C-709.725,1571.546-706.707,1572.179-703.865,1569.022Z" fill="#f0f0f0"/>
      <path id="Path_2950" data-name="Path 2950" d="M-696.821,1544.826l.331-.542-.6.275C-697,1544.647-696.913,1544.737-696.821,1544.826Z" fill="#f59898"/>
      <path id="Path_2951" data-name="Path 2951" d="M-679.459,1672.979c-.337-.124-.692-.391-1.009-.352-3.109.383-4.043-.518-3.82-3.649.076-1.075-.021-2.162-.039-3.243-1.1,2.844-2.2,5.687-3.411,8.831h4.958Q-681.118,1673.773-679.459,1672.979Z" fill="#eb735e"/>
      <path id="Path_2952" data-name="Path 2952" d="M-679.459,1672.979q-1.659.8-3.321,1.588l13.9.015C-672.258,1673.087-675.474,1670.492-679.459,1672.979Z" fill="#1d1a36"/>
      <path id="Path_2953" data-name="Path 2953" d="M-664.541,1674.323l.974.167c-.182-.212-.364-.424-.544-.637Z" fill="#f59898"/>
      <path id="Path_2954" data-name="Path 2954" d="M-714.7,1562.6c.159.167.318.335.475.5l.57-.446q-.293-.3-.584-.593Z" fill="#3f424a"/>
      <path id="Path_2955" data-name="Path 2955" d="M-701.117,1562.807l-.633-.634Z" fill="#3f424a"/>
      <path id="Path_2956" data-name="Path 2956" d="M-566.352,1822.909l-.077-.6h-16.7v.6Z" fill="#22262c"/>
      <path id="Path_2957" data-name="Path 2957" d="M-592.787,1807.077l-.575-.425.005,0-3.006-10.252q-.686-1.5-1.37-3-5.2,1.938-10.4,3.876c-.109.132-.216.263-.321.4q3.031,6.579,6.065,13.158l-6.066-13.158-9.592,3.559,5.5,9.743q-.289,5.938-.581,11.878c8.6,0,17.2-.038,25.806.036a3.3,3.3,0,0,0,3.49-2.075,56.888,56.888,0,0,1,3.713-5.755C-585.081,1813.573-589.038,1810.489-592.787,1807.077Z" fill="#fe9f81"/>
      <path id="Path_2958" data-name="Path 2958" d="M-569.88,1795.261a.652.652,0,0,0,.317.478Z" fill="#f0f0f0"/>
      <path id="Path_2959" data-name="Path 2959" d="M-592.787,1807.077l-.6-.445Q-593.089,1806.856-592.787,1807.077Z" fill="#f79a9a"/>
      <path id="Path_2960" data-name="Path 2960" d="M-720.241,1555.293c3.672-2.031,4.848-5.589,5.744-9.624,6.165,3.213,11.914,2.591,17.4-1.112.091.09.182.18.274.269.389,2.667.683,5.352,1.2,7.994.017.085.018.156.029.236.309,1.96,1.08,7.62.315,11.239h0l-.522,2.945a17.928,17.928,0,0,0-4.071-.9c-4.873.053-9.743.4-14.615.436-1.277.01-3.361-.333-3.7-1.11a58.707,58.707,0,0,1-2.65-8.837A1.751,1.751,0,0,1-720.241,1555.293Z" fill="#fe9f81"/>
      <rect id="Rectangle_366" data-name="Rectangle 366" width="3.237" height="3.237" rx="1.53" transform="translate(-713.485 1552.349)" fill="#020202"/>
      <circle id="Ellipse_304" data-name="Ellipse 304" cx="0.429" cy="0.429" r="0.429" transform="translate(-712.978 1552.793)" fill="#fff"/>
      <rect id="Rectangle_367" data-name="Rectangle 367" width="3.237" height="3.237" rx="1.53" transform="translate(-701.156 1553.652)" fill="#020202"/>
      <circle id="Ellipse_305" data-name="Ellipse 305" cx="0.429" cy="0.429" r="0.429" transform="translate(-700.65 1554.095)" fill="#fff"/>
      <path id="Path_2961" data-name="Path 2961" d="M-704.033,1555.9l1.129,5.281-2.622,1.056Z" fill="#eb735e"/>
      <path id="Path_2962" data-name="Path 2962" d="M-726.086,1554.423l9.411-.731a5.158,5.158,0,0,1,5.141-4.879,5.16,5.16,0,0,1,5.154,5.131,2.658,2.658,0,0,1,2.264.1,5.159,5.159,0,0,1,5.105-4.472,5.161,5.161,0,0,1,5.155,5.155,5.161,5.161,0,0,1-5.155,5.155,5.16,5.16,0,0,1-5.155-5.155c0-.012,0-.024,0-.036a2.018,2.018,0,0,0-2.274.02,5.16,5.16,0,0,1-5.095,4.407,5.158,5.158,0,0,1-5.138-4.827l-9.367.727Zm27.075,4.862a4.557,4.557,0,0,0,4.552-4.553,4.558,4.558,0,0,0-4.552-4.553,4.558,4.558,0,0,0-4.553,4.553A4.558,4.558,0,0,0-699.011,1559.285Zm-12.523-.764a4.558,4.558,0,0,0,4.553-4.553,4.558,4.558,0,0,0-4.553-4.553,4.558,4.558,0,0,0-4.553,4.553A4.559,4.559,0,0,0-711.534,1558.521Z" fill="#fff"/>
      <path id="Path_2963" data-name="Path 2963" d="M-722.265,1558.1c1.045-2.931-.721-3.86-2.838-4.27-2.271-.44-3.857.59-4.61,2.828a6.417,6.417,0,0,0,5.23,8.2c2.194.3,3.272-.453,2.842-2.807C-721.891,1560.684-722.076,1559.308-722.265,1558.1Z" fill="#fe9f81"/>
      <circle id="Ellipse_306" data-name="Ellipse 306" cx="4.817" cy="4.817" r="4.817" transform="translate(-702.402 1598.629)" fill="#f0f0f0"/>
      <circle id="Ellipse_307" data-name="Ellipse 307" cx="4.817" cy="4.817" r="4.817" transform="translate(-757.191 1600.435)" fill="#f0f0f0"/>
      <circle id="Ellipse_308" data-name="Ellipse 308" cx="3.01" cy="3.01" r="3.01" transform="translate(-675.911 1638.365)" fill="#f0f0f0"/>
      <path id="Path_2964" data-name="Path 2964" d="M-745.34,1625.947l12.232,2.183-6.55,8.867Z" fill="#f0f0f0"/>
      <path id="Path_2965" data-name="Path 2965" d="M-676.475,1609.878l4.881-4.48,1.641,5.644Z" fill="#f0f0f0"/>
      <path id="Path_2966" data-name="Path 2966" d="M-687.738,1661.841l-43.837-6.326-1.712-22.259,7.7,17.122Z" fill="#1d1a36"/>
      <rect id="Rectangle_368" data-name="Rectangle 368" width="28.187" height="6.849" rx="3.424" transform="matrix(0.955, -0.295, 0.295, 0.955, -622.509, 1798.499)" fill="#ed8014"/>
      <rect id="Rectangle_369" data-name="Rectangle 369" width="28.187" height="6.849" rx="3.424" transform="translate(-569.296 1800.625) rotate(-22.218)" fill="#ed8014"/>
      <path id="Path_2967" data-name="Path 2967" d="M-787.473,1525.014a15,15,0,0,1-3.058-9.634c-.021-1.527-.285-3.05-.438-4.575a61.7,61.7,0,0,0-4.312-5.749,13.415,13.415,0,0,1-3.724-10.644,15,15,0,0,0-1.774-8.814c-4.277-5.063-8.756-10-9.466-17.235a32.335,32.335,0,0,0-.819-5.462c-1.053-3.8-1.571-8.074-3.639-11.176-5.028-7.539-13.018-9.424-21.368-6.153-3.551,1.391-7.147,2.691-10.794,3.764-4.878,1.436-7.711,4.591-8.274,9.9-.205,1.932-.239,3.885-.448,5.818a8.475,8.475,0,0,1-.679,2.9c-1.635,3.195-3.247,6.422-5.142,9.447-4.691,7.489-7.983,15.222-5,24.421a7.2,7.2,0,0,1,.159,1.526l18.724-5.261a8.36,8.36,0,0,0,5.585,2.17h19.986a8.241,8.241,0,0,0,4.258-1.194c1.137.263,2.27.54,3.389.87,2.434.719,4.759,1.94,7.223,2.43,8.136,1.618,11.277,7.5,12.55,15.308,1.263,7.747,2.738,15.456,4.185,23.169a13.866,13.866,0,0,0,1.144,2.738l2.61-3.435C-784.369,1534.933-785.411,1529.941-787.473,1525.014Z" fill="#201f35"/>
      <path id="Path_2968" data-name="Path 2968" d="M-821.384,1505.964l-21.462.458V1486.2H-824l-.131,7Z" fill="#fe9f81"/>
      <rect id="Rectangle_370" data-name="Rectangle 370" width="5.05" height="9.181" rx="2.133" transform="translate(-849.975 1472.315)" fill="#fe9f81"/>
      <path id="Path_2969" data-name="Path 2969" d="M-841.578,1486.876c2.785,3.6,5.5,8.049,9.928,8.049a13.3,13.3,0,0,0,7.538-2.388l.113-6.062h-18.847Z" fill="#eb735e"/>
      <ellipse id="Ellipse_309" data-name="Ellipse 309" cx="15.242" cy="18.234" rx="15.242" ry="18.234" transform="translate(-846.893 1455.798)" fill="#fe9f81"/>
      <path id="Path_2970" data-name="Path 2970" d="M-784.921,1799.917q4.461,8.658,8.912,17.32c.5.988.9,2.031,1.345,3.048-3.6-1.827-8.023-2.878-10.613-5.647a38.569,38.569,0,0,1-9.771-19.3c-3.573-17.516-8.8-34.692-13.279-52.027-1.685-6.524-3.15-13.1-4.715-19.66l17.836-.1c.274,3.251.466,6.512.838,9.752q1.728,15.016,3.579,30.02c.521,4.212,1.2,8.405,1.808,12.607.216,2.83.264,5.685.685,8.483.689,4.584,1.62,9.131,2.449,13.693Z" fill="#fe9f81"/>
      <path id="Path_2971" data-name="Path 2971" d="M-765.711,1825.99c1.709,1.479,4.484,2.191,3.848,5.354l-17.884.173-5.469-2.844-3.59-4.248-5.666-7.14-1.079.539-.622,14.162c-.456-.332-1.278-.631-1.313-1-.663-7.008-1.3-14.021-1.761-21.044-.083-1.256.614-2.564.951-3.849q.617-1.309,1.234-2.62c4.033,4.784,8.1,9.544,12.091,14.361,3.03,3.656,6.684,5.7,11.571,4.878Z" fill="#704685"/>
      <path id="Path_2972" data-name="Path 2972" d="M-773.4,1822.709c-4.887.818-8.541-1.222-11.571-4.878-3.994-4.817-8.058-9.577-12.091-14.361l-1.761-10.207c-2.265-8.787-4.5-17.581-6.8-26.359q-5.472-20.871-11-41.729a7.728,7.728,0,0,1-.1-1.529l3.681.006c1.565,6.555,3.03,13.136,4.715,19.66,4.476,17.335,9.706,34.511,13.279,52.027a38.569,38.569,0,0,0,9.771,19.3c2.59,2.769,7.016,3.82,10.613,5.647Q-774.031,1821.5-773.4,1822.709Z" fill="#eb735e"/>
      <path id="Path_2973" data-name="Path 2973" d="M-785.791,1563.02q-1.594,2.05-3.189,4.1l-9.911,2.649-9.819,1.923q-8.455,2.394-16.912,4.786c-3,.843-6.012,1.656-9.019,2.483a10.784,10.784,0,0,1,1.845-1.2c3.889-1.542,7.8-3.036,11.709-4.517a63.207,63.207,0,0,1,6.062-2.159c7.3-1.934,14.666-3.657,21.949-5.663,3.289-.905,6.194-2.613,7.728-5.947l.107,2.293a4.028,4.028,0,0,1-.044.61Z" fill="#eb735e"/>
      <path id="Path_2974" data-name="Path 2974" d="M-814.086,1723.641l-4.574-.005-40.724.018-16.733.015c-.25-.083-9.15-3.456-9.4-3.539.222-3.262,10.716-71.215,11.777-84.481.714-8.924,2.5-17.814,4.307-26.652,1.46-7.135,4.91-15.219,6.789-22.3.241-.084-.033.857-.514.8q25.57.1,51.142.162a15.894,15.894,0,0,0,3.263-.684q2.064,15.1,4.129,30.2,2.963,21.5,5.963,42.993c.629,4.45,1.438,8.884,2.164,13.325,1.178,9.241,2.332,18.484,3.543,27.722.839,6.4,1.846,12.778,2.552,19.182.11,1.005-.983,2.095-1.519,3.145Z" fill="#fae3af"/>
      <path id="Path_2975" data-name="Path 2975" d="M-868.607,1503.087l23.329-6.239.205.191c-1.293,4.853.343,8.949,3.706,12.271a64.038,64.038,0,0,0,7.9,6.223c4.7,3.365,9.5,6.6,14.252,9.9l.747,2.442c-.1.768-.2,1.537-.323,2.466-1.6,0-3.018.061-4.427-.016-1.767-.1-2.47.622-2.057,2.366l-.063,3.269c-4.172,1.427-7.664,3.623-9.391,7.968-.67,1.687-1.465,3.206-3.657,3.607-4.7.86-9.344,1.971-14.012,2.979q-1.686-10.241-3.374-20.482l-.764.049q-1.126,10.792-2.252,21.584l-17.8-.174.6-9.939c.589-6.044,1.267-12.081,1.729-18.135.232-3.044.071-6.118.088-9.178C-873.705,1509.825-871.478,1506.3-868.607,1503.087Zm2.083,21.746c-1.2,1.68-2.6,2.833-2.406,3.557a3.884,3.884,0,0,0,2.707,2.361c.747.089,2.4-1.5,2.368-2.287C-863.9,1527.453-865.22,1526.493-866.524,1524.833Zm29.254,2.409c-1.751-1.114-2.951-2.445-3.722-2.231-1.077.3-1.833,1.752-2.727,2.711.919.83,1.863,2.344,2.748,2.31C-839.939,1529.993-838.959,1528.6-837.27,1527.242Zm-6.709-19.556c-1.736-1.2-2.794-2.5-3.67-2.382a3.391,3.391,0,0,0-2.205,2.523,3.284,3.284,0,0,0,2.287,2.356C-846.656,1510.236-845.667,1508.938-843.979,1507.686Zm-15.159,40.083c-1.682-1.246-2.678-2.555-3.564-2.485-.956.075-1.81,1.441-2.708,2.244.836.855,1.588,2.261,2.533,2.405C-861.995,1550.067-860.908,1548.862-859.138,1547.769Zm-7.96-43.384c-1.029,1.847-2.141,2.944-1.967,3.77.2.927,1.552,1.609,2.4,2.4.8-.879,2.164-1.721,2.226-2.65C-864.377,1507.048-865.723,1506.1-867.1,1504.385Z" fill="#82508f"/>
      <path id="Path_2976" data-name="Path 2976" d="M-862.959,1723.68l13.466-.016c-.755,8.119-1.527,16.235-2.257,24.356-.493,5.487-.888,10.984-1.392,16.471-.746,8.121-1.587,16.234-2.313,24.357-.4,4.477-.648,8.968-.965,13.452-.115,4.689-.256,9.378-.338,14.068-.077,4.364-1.771,5.981-6.271,5.883.826-7.29,2.261-14.573,2.34-21.871.125-11.546-.689-23.1-1.049-34.655C-862.176,1751.711-862.554,1737.695-862.959,1723.68Z" fill="#fe9f81"/>
      <path id="Path_2977" data-name="Path 2977" d="M-852.4,1550.509c4.668-1.008,9.317-2.119,14.012-2.979,2.192-.4,2.987-1.92,3.657-3.607,1.727-4.345,5.219-6.541,9.391-7.968l10.5,1.9-.038,1.484-6.991.406,5.127,2.172-7.845,5.069q-1.4.906-2.8,1.814c-2.637,1.869-5.041,4.305-7.955,5.5-10.283,4.23-20.7,8.136-31.15,11.956-4.6,1.684-8.247.427-11.2-3.2q.549-5.789,1.1-11.578l17.8.173Z" fill="#fe9f81"/>
      <path id="Path_2978" data-name="Path 2978" d="M-862.959,1723.68c.4,14.015.783,28.031,1.221,42.045.36,11.554,1.174,23.109,1.049,34.655-.079,7.3-1.514,14.581-2.34,21.871-3.947-.45-5.525-2.823-4.823-7.071.708-4.292,1.321-8.6,1.975-12.9-.057-1.023-.146-2.044-.167-3.067-.237-11.362-.4-22.726-.709-34.086-.333-12.164-.789-24.326-1.235-36.487-.06-1.624-.374-3.239-.57-4.857q2.5-.174,4.995-.353Z" fill="#eb735e"/>
      <path id="Path_2979" data-name="Path 2979" d="M-865.877,1802.279c-.654,4.3-1.267,8.609-1.975,12.9-.7,4.248.876,6.621,4.823,7.071,4.5.1,6.194-1.519,6.271-5.883.082-4.69.223-9.379.338-14.068.179,6.647.423,13.292.485,19.938a13.439,13.439,0,0,1-.967,4.481c-1.724,4.85-6.1,6.79-10.85,4.683a5.348,5.348,0,0,1-2.515-2.83,9.263,9.263,0,0,1-.579-4.816C-869.33,1816.567-867.558,1809.432-865.877,1802.279Z" fill="#704685"/>
      <path id="Path_2980" data-name="Path 2980" d="M-853.113,1587.756l-9.748-.825a26.512,26.512,0,0,1,.221-5.19c1.1-4.633,2.459-9.2,3.715-13.8l7.512-3.776a10.73,10.73,0,0,1,.705,3.108c-.534,6.75-1.2,13.49-1.823,20.233Zm-2.072-2.231c1.11-1.673,2.4-2.767,2.349-3.8-.041-.88-1.617-1.688-2.514-2.529-.881.963-2.294,1.84-2.467,2.917C-857.945,1582.91-856.458,1583.966-855.185,1585.525Z" fill="#704685"/>
      <path id="Path_2981" data-name="Path 2981" d="M-851.413,1564.165l-7.512,3.776c-3.43,1.245-6.778,3.152-10.308,3.587-5.77.711-8.636-2.556-8.455-8.465,2.956,3.623,6.6,4.88,11.2,3.2,10.446-3.82,20.867-7.726,31.15-11.956,2.914-1.2,5.318-3.635,7.955-5.5-.857,3.217-3.228,5.028-6.019,6.421Q-842.4,1559.712-851.413,1564.165Z" fill="#eb735e"/>
      <path id="Path_2982" data-name="Path 2982" d="M-851.413,1564.165q9.009-4.47,18.014-8.945c2.791-1.393,5.162-3.2,6.019-6.421q1.4-.907,2.8-1.814l7.845-5.068c2.135-.019,4.273-.117,6.4-.033,1.754.068,2.664-.408,2.541-2.381-.14-2.228-.046-4.471-.053-6.708.868-3.253-1.706-2.205-3.174-2.54.2-3.663-.816-4.267-5.366-3.187l-.408-13.4c-.506-5.532-.977-11.075-4.608-15.69,2.456.557,4.94,1.016,7.362,1.7,2.557.718,5,1.94,7.589,2.43,8.547,1.618,11.846,7.495,13.184,15.308,1.327,7.747,2.877,15.456,4.4,23.168a13.453,13.453,0,0,0,1.2,2.738q-.045,2.713-.09,5.427l-11.037,1.446-.033-1.391c2.691-2.2,2.689-3.312-.01-5.559a11.476,11.476,0,0,1,.319-1.8c2.518-7.339.2-13.726-3.977-19.735a49.03,49.03,0,0,0,2.109,8.505c1.622,4.6.477,8.562-2.3,12.316-.958,1.294-1.676,2.765-2.5,4.156-.565.848-1.465,1.634-1.633,2.554-.529,2.913-.784,5.876-1.146,8.819-5.851,2.66-11.675,5.383-17.583,7.912a3.928,3.928,0,0,1-3.292-.252,42.029,42.029,0,0,1-4.589-4.451l-.887.108c.2,1.384.373,2.775.624,4.151.217,1.193,1.387,2.638-.947,3.012-.528-1.913-1.474-3.609-3.745-2.778-2,.733-2.244,2.389-.956,4.147,1.079,3.019,2.137,6.047,3.291,9.037.064.165.924.022,1.414.022,3.007-.827,6.017-1.64,9.019-2.483q8.46-2.379,16.912-4.786c.3,3.556.739,7.109.852,10.672a20.691,20.691,0,0,1-.893,4.616,10.614,10.614,0,0,1-2.625.684c-13.719-.019-27.437-.1-41.155-.161.623-6.743,1.289-13.483,1.823-20.233A10.73,10.73,0,0,0-851.413,1564.165ZM-808.556,1513c1.239-1.709,2.542-2.726,2.443-3.581-.107-.932-1.516-2.383-2.353-2.381a3.429,3.429,0,0,0-2.476,2.3C-811.068,1510.191-809.769,1511.253-808.556,1513Zm12.572,14.223c1.162-1.769,2.423-2.852,2.28-3.7a3.419,3.419,0,0,0-2.482-2.274,3.425,3.425,0,0,0-2.373,2.4C-798.646,1524.515-797.3,1525.515-795.984,1527.227Zm-23.845,55.237c-1.7-1.328-2.674-2.682-3.534-2.611-.928.077-1.744,1.489-2.609,2.319.867.824,1.626,2.073,2.636,2.328C-822.617,1584.682-821.559,1583.528-819.829,1582.464Z" fill="#82508f"/>
      <path id="Path_2983" data-name="Path 2983" d="M-817.578,1513.717q-1.942-7.8-3.884-15.592l.062-.151c3.63,4.617,4.1,10.16,4.607,15.692Z" fill="#abafbb"/>
      <path id="Path_2984" data-name="Path 2984" d="M-834.641,1578.964c-.49,0-1.35.143-1.414-.022-1.154-2.99-2.212-6.018-3.291-9.037l4.7-1.369c2.334-.374,1.164-1.819.947-3.012-.251-1.376-.42-2.767-.624-4.151l.887-.108a42.029,42.029,0,0,0,4.589,4.451,3.928,3.928,0,0,0,3.292.252c5.908-2.529,11.732-5.252,17.583-7.911,5.292-1.967,5.292-1.967,4.708-6.691l4.468-1.177,11.037-1.446q1.2,5.365,2.41,10.734c-1.534,3.335-4.439,5.043-7.728,5.948-7.283,2.006-14.645,3.729-21.949,5.663a63.207,63.207,0,0,0-6.062,2.159c-3.912,1.481-7.82,2.975-11.709,4.517A10.784,10.784,0,0,0-834.641,1578.964Z" fill="#fe9f81"/>
      <path id="Path_2985" data-name="Path 2985" d="M-807.845,1532.8c.007,2.237-.087,4.48.053,6.708.123,1.973-.787,2.449-2.541,2.381-2.132-.084-4.27.014-6.4.033l-5.127-2.173,6.991-.406.038-1.484-10.5-1.9.063-3.268Z" fill="#d6dadf"/>
      <path id="Path_2986" data-name="Path 2986" d="M-852.4,1550.509l-6.39,1.15q1.127-10.791,2.252-21.583l.764-.049Q-854.083,1540.269-852.4,1550.509Z" fill="#704685"/>
      <path id="Path_2987" data-name="Path 2987" d="M-845.073,1497.039c.233.581.709,1.183.66,1.739a11.5,11.5,0,0,0,4.164,10.131c3.4,2.877,7.337,5.119,10.957,7.752,3.443,2.5,6.778,5.156,10.161,7.743q-.041.513-.082,1.024c-4.756-3.291-9.549-6.53-14.252-9.9a64.038,64.038,0,0,1-7.9-6.223C-844.73,1505.988-846.366,1501.892-845.073,1497.039Z" fill="#b3b7bb"/>
      <path id="Path_2988" data-name="Path 2988" d="M-807.845,1532.8l-17.428-.108c-.413-1.745.29-2.463,2.057-2.367,1.409.077,2.825.016,4.427.016.121-.929.222-1.7.323-2.466l2.314-.01c.573,3.238,3.008,2.486,5.134,2.4C-809.551,1530.59-806.977,1529.542-807.845,1532.8Z" fill="#96a82d"/>
      <path id="Path_2989" data-name="Path 2989" d="M-866.524,1524.833c1.3,1.66,2.629,2.62,2.669,3.631.031.789-1.621,2.376-2.368,2.287a3.884,3.884,0,0,1-2.707-2.361C-869.125,1527.666-867.726,1526.513-866.524,1524.833Z" fill="#e9d1ed"/>
      <path id="Path_2990" data-name="Path 2990" d="M-837.27,1527.242c-1.689,1.358-2.669,2.751-3.7,2.79-.885.034-1.829-1.48-2.748-2.31.894-.959,1.65-2.412,2.727-2.711C-840.221,1524.8-839.021,1526.128-837.27,1527.242Z" fill="#e9d1ed"/>
      <path id="Path_2991" data-name="Path 2991" d="M-843.979,1507.686c-1.688,1.252-2.677,2.55-3.588,2.5a3.284,3.284,0,0,1-2.287-2.356,3.391,3.391,0,0,1,2.205-2.523C-846.773,1505.19-845.715,1506.485-843.979,1507.686Z" fill="#e9d1ed"/>
      <path id="Path_2992" data-name="Path 2992" d="M-842.924,1493.8l14.1,11.07,5.292-9.126,2.075,2.381q1.941,7.8,3.884,15.592v12.1l-1.553-1.41c-3.383-2.586-6.718-5.238-10.161-7.742-3.62-2.633-7.553-4.875-10.957-7.752a11.5,11.5,0,0,1-4.164-10.131c.049-.556-.427-1.158-.66-1.739l-.205-.191Z" fill="#704685"/>
      <path id="Path_2993" data-name="Path 2993" d="M-859.138,1547.769c-1.77,1.093-2.857,2.3-3.739,2.164-.945-.144-1.7-1.55-2.533-2.405.9-.8,1.752-2.169,2.708-2.244C-861.816,1545.214-860.82,1546.523-859.138,1547.769Z" fill="#e9d1ed"/>
      <path id="Path_2994" data-name="Path 2994" d="M-867.1,1504.385c1.375,1.715,2.721,2.663,2.663,3.518-.062.929-1.428,1.771-2.226,2.65-.852-.789-2.209-1.471-2.4-2.4C-869.239,1507.329-868.127,1506.232-867.1,1504.385Z" fill="#e9d1ed"/>
      <path id="Path_2995" data-name="Path 2995" d="M-816.152,1527.86l-2.314.01-.747-2.442q.041-.511.082-1.024c.442.4.884.8,1.553,1.409v-12.1l.785-.051.408,13.4C-816.307,1527.332-816.23,1527.6-816.152,1527.86Z" fill="#c3c6c8"/>
      <path id="Path_2996" data-name="Path 2996" d="M-855.185,1585.525c-1.273-1.559-2.76-2.615-2.632-3.411.173-1.077,1.586-1.954,2.467-2.917.9.841,2.473,1.649,2.514,2.529C-852.788,1582.758-854.075,1583.852-855.185,1585.525Z" fill="#e9d1ed"/>
      <path id="Path_2997" data-name="Path 2997" d="M-798.795,1550.189l-4.467,1.177c-2.782-.679-1.282-3.124-1.93-4.683.828-1.391,1.546-2.862,2.5-4.156,2.778-3.754,3.923-7.715,2.3-12.316a49.03,49.03,0,0,1-2.109-8.505c4.181,6.009,6.495,12.4,3.977,19.735a11.468,11.468,0,0,0-.319,1.8l-3.1,2.8,3.106,2.76Z" fill="#704685"/>
      <path id="Path_2998" data-name="Path 2998" d="M-808.556,1513c-1.213-1.751-2.512-2.813-2.386-3.664a3.429,3.429,0,0,1,2.476-2.3c.837,0,2.246,1.449,2.353,2.381C-806.014,1510.278-807.317,1511.3-808.556,1513Z" fill="#e9d1ed"/>
      <path id="Path_2999" data-name="Path 2999" d="M-798.828,1548.8l-3.106-2.76,3.1-2.8C-796.139,1545.486-796.137,1546.6-798.828,1548.8Z" fill="#e9d1ed"/>
      <path id="Path_3000" data-name="Path 3000" d="M-795.984,1527.227c-1.312-1.712-2.662-2.712-2.575-3.565a3.425,3.425,0,0,1,2.373-2.4,3.419,3.419,0,0,1,2.482,2.274C-793.561,1524.375-794.822,1525.458-795.984,1527.227Z" fill="#e9d1ed"/>
      <path id="Path_3001" data-name="Path 3001" d="M-819.829,1582.464c-1.73,1.064-2.788,2.218-3.507,2.036-1.01-.255-1.769-1.5-2.636-2.328.865-.83,1.681-2.242,2.609-2.319C-822.5,1579.782-821.524,1581.136-819.829,1582.464Z" fill="#e9d1ed"/>
      <path id="Path_3002" data-name="Path 3002" d="M-816.152,1527.86c-.078-.264-.155-.528-.233-.792,4.55-1.08,5.566-.476,5.366,3.187C-813.144,1530.346-815.579,1531.1-816.152,1527.86Z" fill="#fda300"/>
      <path id="Path_3003" data-name="Path 3003" d="M-834.645,1568.536l-4.7,1.369c-1.288-1.758-1.047-3.414.956-4.147C-836.119,1564.927-835.173,1566.623-834.645,1568.536Z" fill="#e9d1ed"/>
      <path id="Path_3004" data-name="Path 3004" d="M-866.385,1498.664a24.677,24.677,0,0,1-.053,5.92,12.775,12.775,0,0,0-.263,1.777,6.2,6.2,0,0,0,.567,2.551,11.718,11.718,0,0,0,2.25,3.465c1.434,1.529,3.353,2.79,3.94,4.8.195.665.225,1.372.453,2.027.711,2.039,3.037,2.964,4.478,4.572a9.856,9.856,0,0,1,1.517,2.447,24.391,24.391,0,0,1,2.282,10.418c-.01,1.822-.077,3.981,1.394,5.055a5.209,5.209,0,0,0,2.627.737,3.214,3.214,0,0,0,2.192-.313,2.792,2.792,0,0,0,.794-1.032,11.215,11.215,0,0,0,1.1-6.892c-.32-1.98-1.171-3.855-1.383-5.85-.323-3.044.867-6.087.613-9.137-.421-5.067-4.745-9.5-4.031-14.537.254-1.786,1.135-3.425,1.517-5.188a9.556,9.556,0,0,0-.743-6.157,20.707,20.707,0,0,1-6.882,2.127c-.807.086-1.621.072-2.431.117C-859.88,1495.763-863.163,1497.449-866.385,1498.664Z" fill="#201f35"/>
      <path id="Path_3005" data-name="Path 3005" d="M-830.448,1460.394c-1.626,1.86-4.272,2.286-5.2,4.83a19.582,19.582,0,0,0-.53,2.35,6.914,6.914,0,0,1-2.433,4.03c-1.677,1.222-3.933,1.21-5.158,3.138a7.088,7.088,0,0,0-.623,4.884,39.027,39.027,0,0,0,1.443,4.77c1.337,4.234,1.662,8.878,1.928,13.443a13.579,13.579,0,0,1-.064,3.137c-.2,1.141-.692,2.157-1,3.257a14.261,14.261,0,0,0,.235,7.546,36.81,36.81,0,0,0,2.876,6.719c-.86-1.974-2.483-3.166-3.568-4.943a15.064,15.064,0,0,1-1.784-6.976c-.126-2.485.06-4.978.021-7.467-.154-9.992-3.9-19.652-3.107-29.592a21.522,21.522,0,0,1,.917-4.95,15.1,15.1,0,0,1,7.267-8.631c2.383-1.264,6.435-2.965,9.05-2.359C-827.815,1454.129-829.052,1458.8-830.448,1460.394Z" fill="#201f35"/>
      <path id="Path_3006" data-name="Path 3006" d="M-826.252,1457.775c.617.552,1.449.92,1.808,1.666a8.491,8.491,0,0,0,.524,1.4c.541.749,1.771.7,2.324,1.437a6.25,6.25,0,0,1,.463,1.014c.552,1.114,1.933,1.459,3.03,2.044a6.162,6.162,0,0,1,2.944,3.542,10.955,10.955,0,0,0,.571-5.417,10.654,10.654,0,0,0-2.08-3.819,9.434,9.434,0,0,0-2.37-2.447,9.816,9.816,0,0,0-2.139-.918,10.568,10.568,0,0,0-4.2-.8,2.03,2.03,0,0,1-.851-.024,3.673,3.673,0,0,1-.553-.316c-.91-.511-1.113-.069-.766.712A5.593,5.593,0,0,0-826.252,1457.775Z" fill="#201f35"/>
      <rect id="Rectangle_371" data-name="Rectangle 371" width="4.635" height="10.042" rx="1.958" transform="translate(-840.609 1570.313) rotate(-17.529)" fill="#f79b9b"/>
      <rect id="Rectangle_372" data-name="Rectangle 372" width="3.257" height="3.257" rx="1.629" transform="translate(-834.792 1470.365)" fill="#020202"/>
      <path id="Path_3007" data-name="Path 3007" d="M-824.688,1482.755s-5.032,4.543-7.635-1.259" fill="#fff"/>
      <rect id="Rectangle_373" data-name="Rectangle 373" width="3.257" height="3.257" rx="1.629" transform="translate(-822.388 1471.676)" fill="#020202"/>
      <circle id="Ellipse_310" data-name="Ellipse 310" cx="0.432" cy="0.432" r="0.432" transform="translate(-821.879 1472.122)" fill="#fff"/>
      <path id="Path_3008" data-name="Path 3008" d="M-825.806,1474.492l.749,3.5-1.74.7Z" fill="#d88787"/>
      <circle id="Ellipse_311" data-name="Ellipse 311" cx="0.432" cy="0.432" r="0.432" transform="translate(-834.296 1470.588)" fill="#fff"/>
      <path id="Path_3009" data-name="Path 3009" d="M-1113.733,1801.245c-.558-.446-1.316-.788-1.614-1.368-.277-.535-.061-1.325-.061-2,0-31.18-.124-62.361.116-93.54a59.159,59.159,0,0,1,2.562-16.513c7.386-24.317,15.076-48.544,22.867-72.735,1.58-4.906.9-9.749.987-14.64l36.218-5.71c0,1.647-.114,3.3.014,4.94.233,2.962-.064,6.194,1.034,8.823,6.355,15.224,5.119,29.94-3.945,43.345-11.5,17-23.97,33.349-35.97,50.015a4.138,4.138,0,0,0-.738,2.74,133.821,133.821,0,0,1,.437,36.677c-1.529,12.287-4.479,24.39-6.448,36.632-1.236,7.677-1.81,15.46-2.68,23.2Z" fill="#4f93e0"/>
      <path id="Path_3010" data-name="Path 3010" d="M-1099.44,1485.893a8.984,8.984,0,0,1,4.251-8.9,36.332,36.332,0,0,1,3.232-1.934c3.57-1.924,5.131-4.727,4.368-8.865a15.1,15.1,0,0,1,.085-5.187,6.558,6.558,0,0,1,8.044-5.619,8.378,8.378,0,0,0,8.956-3.289,17.236,17.236,0,0,1,3.14-2.991c5.873-4.517,12.77-2.268,14.86,4.8.136.462.258.927.406,1.464,1.927.166,3.85.2,5.721.52,4.633.805,7.745,3.806,9.877,7.84,1.335,2.525,2.743,3.6,4.717,5.505a4.111,4.111,0,0,1,1.5,3.586c-.244,3.344-2.685,5.875-2.216,9.451.743,5.655,5.292,8.028,8.97,11.611a13.548,13.548,0,0,1,4.024,8.725c.238,3.62-.869,7.726,1.383,10.57,2.548,3.217,7.967,2.8,10.564,5.972,2.725,3.332.784,8.465,2.282,12.5,1.074,2.891,3.768,4.843,5.4,7.456a11.632,11.632,0,0,1,.164,11.817,11.632,11.632,0,0,1-10.41,5.594c-1.318-.07-2.736-.348-3.887.3-1.759.986-1.931,3.56-3.482,4.848-1.347,1.118-3.6,1.161-4.363,2.739-.441.916-.17,2-.289,3.013a5.231,5.231,0,0,1-3.167,3.888,14.663,14.663,0,0,1-5.111,1.025,1.45,1.45,0,0,0-1.414-1.13c-.128,3.359-3.8,5.271-6.931,6.482-2.184.843-5.03,1.541-6.561-.231a5.728,5.728,0,0,1-.973-2.013c-1.781-5.384-3.586-10.984-2.909-16.615.539-4.482,2.64-8.89,1.822-13.329-.849-4.607-4.7-8.234-5.522-12.846a30.182,30.182,0,0,1-.221-4.785,32.808,32.808,0,0,0-5.061-16.877c-1.732-2.733-3.978-5.615-3.471-8.811.525-3.31,4.34-6.615,6.561-8.958a69.381,69.381,0,0,0,4.761-6.364c3.029-.442,5.986-2.3,6.352-6.5a6.717,6.717,0,0,0-1.463-4.876c-.914-.89-3.072-.5-5.427-.763-4.318-1.8-6.911-5.9-7.274-11.69-4.282,1.514-7.62.165-10.719-2.778-1.245,5.873-4.914,8.848-11.2,9.138,0,5.515.031,10.824-.012,16.132-.027,3.356.79,6.739,3.315,8.677,3.879,2.978,4.136,6.442,3.165,10.6-.329,1.405-.415,2.866-.612,4.3-2.173-.851-4.618-1.329-6.445-2.656-1.929-1.4-3.526-2.327-6.009-1.7-3.264.828-7.322-.907-7.6-4.041-.457-5.147-2.788-9.308-4.989-13.654Z" fill="#201f35"/>
      <path id="Path_3011" data-name="Path 3011" d="M-1074.213,1509.095c.2-1.435.284-2.9.613-4.3.971-4.156.714-7.62-3.165-10.6-2.525-1.938-3.342-5.321-3.315-8.677.043-5.308.012-10.617.012-16.132,6.29-.29,9.959-3.265,11.2-9.138,3.1,2.943,6.437,4.292,10.719,2.778.363,5.792,2.956,9.9,7.274,11.69,2.355.261,4.513-.127,5.427.763a6.717,6.717,0,0,1,1.463,4.876c-.366,4.2-3.323,6.058-6.352,6.5a69.381,69.381,0,0,1-4.761,6.364c-1.97,2.079-4.119,3.917-3.354,7.2.794,3.41,3.2,5.123,6.372,6.011q.381,1.718.77,3.436l-23.488,3.217Q-1074.5,1511.09-1074.213,1509.095Zm1.269-18.794-.373,1.109c1.5.631,3.007,1.746,4.505,1.737,1.19-.007,2.371-1.39,3.556-2.162l-.513-.684Z" fill="#f79a9b"/>
      <path id="Path_3012" data-name="Path 3012" d="M-1125.886,1488.128c-10.557-4.283-21.316-5.356-32.352-2.042-.278.083-.557.165-.84.231-6.424,1.509-7.607.737-6.957-5.8.352-3.533,1.844-6.952,2.821-10.423-.129.941-.24,1.884-.392,2.821-.464,2.846-1.076,5.677-1.345,8.54-.092.974.664,2.027,1.032,3.044.995-.495,2.348-.734,2.919-1.532,2.058-2.876,3.852-5.941,5.746-8.934l5.481-12.969c1.087-4.1,2.321-8.18,3.161-12.334.221-1.091-.78-2.429-1.221-3.654.991.632,2.249,1.056,2.926,1.93,3.955,5.1,7.312,10.763,11.777,15.353,3.891,4,8.979,6.839,13.538,10.19Z" fill="#639164"/>
      <path id="Path_3013" data-name="Path 3013" d="M-1125.886,1488.128l6.294-15.579c.376-.642.751-1.285,1.288-2.2,4.789,2.413,9.552,4.651,14.15,7.187,3.156,1.74,2.411,4.85,2.04,7.7l-2.94,4.6c-1.119,1.088-2.127,2.919-3.383,3.109-2.564.387-3.389,2-4.212,3.917-.4.932-.812,1.86-1.218,2.79-1.719-.56-2.979-.01-4.34,1.209-3.867,3.465-7.911,6.732-11.886,10.076-1.139-2.015-2.376-3.984-3.348-6.077-.246-.531.353-1.454.563-2.2a5.86,5.86,0,0,1,1.4.685c1.807,1.6,6.49.127,7.123-2.265l.141-.161c.518-.636,1.574-1.4,1.461-1.888a62.881,62.881,0,0,0-2.024-6.175l2.21-2.9Z" fill="#487548"/>
      <path id="Path_3014" data-name="Path 3014" d="M-1141.773,1823.221c.277-2.543,1.909-3.894,4.142-4.73,4.68-1.752,9.464-3.024,13.639-6.217,2.062-1.577,4.035-3.292,6.122-4.841a17.771,17.771,0,0,1,4.114-1.7c.413.249.955.4,1.219.762,4.051,5.5,9.075,5.5,14.627,2.658.536.787,1.512,1.562,1.534,2.364.109,3.923-.035,7.854-.09,11.782Z" fill="#26254a"/>
      <path id="Path_3015" data-name="Path 3015" d="M-1155.254,1474.033c-1.894,2.993-3.688,6.058-5.746,8.934-.571.8-1.924,1.037-2.919,1.532-.368-1.017-1.124-2.07-1.032-3.044.269-2.863.881-5.694,1.345-8.54.152-.937.263-1.88.392-2.821l-.017.024,1.157-2.946-.012.025.616-1.762-.015.029q.586-1.47,1.172-2.941l-.015.025.588-1.193-.013.028.623-1.472-.017.034.589-1.2-.017.032.591-1.2-.016.027.626-1.468-.016.03.609-1.186-.017.031.547-.648-.019.028.617-1.176-.017.022,1.162-1.781-.015.024.632-1.167-.022.028.567-.639-.018.035.679-1.429q2.43-1.617,4.856-3.234c.437,1.225,1.438,2.563,1.217,3.654-.84,4.154-2.074,8.229-3.162,12.332-4.079-1.38-6.578-.144-8.315,4.111C-1159.868,1469.531-1159,1472.244-1155.254,1474.033Z" fill="#487548"/>
      <path id="Path_3016" data-name="Path 3016" d="M-1110.2,1565.16c1-3.1,1.679-6.355,3.087-9.258,2.184-4.5,4.867-8.767,7.339-13.132l2.292,1.807.016.018,1.166,1.744-.018-.017,1.2.647q.279,6.328.558,12.657Z" fill="#ed8014"/>
      <path id="Path_3017" data-name="Path 3017" d="M-1097.909,1809.154c-5.553,2.844-10.577,2.841-14.628-2.658-.264-.358-.806-.513-1.219-.762q.012-2.245.023-4.489l12.779-.142,3.009.192Z" fill="#f79a9b"/>
      <path id="Path_3018" data-name="Path 3018" d="M-1130.093,1510.939c3.975-3.344,8.019-6.611,11.886-10.076,1.361-1.219,2.621-1.769,4.34-1.21-2.643,3.712-4.957,7.55-4.756,12.356H-1130C-1130.033,1511.652-1130.063,1511.3-1130.093,1510.939Z" fill="#f79a9b"/>
      <path id="Path_3019" data-name="Path 3019" d="M-1124.353,1501.086c-.633,2.392-5.316,3.861-7.123,2.265a5.86,5.86,0,0,0-1.4-.685,8.39,8.39,0,0,1-.541-2.79,4.392,4.392,0,0,1,1.39-2.387,53.167,53.167,0,0,1,5.021-3.9,8,8,0,0,1,2.233-.724,62.881,62.881,0,0,1,2.024,6.175c.113.491-.943,1.252-1.461,1.888-.1-.114-.193-.228-.289-.343-.046.065-.143.163-.127.189A2.475,2.475,0,0,0-1124.353,1501.086Z" fill="#f79a9b"/>
      <path id="Path_3020" data-name="Path 3020" d="M-1154.508,1451.458l-1.162,1.781Z" fill="#5064f9"/>
      <path id="Path_3021" data-name="Path 3021" d="M-1156.781,1454.982l-.609,1.186Z" fill="#5064f9"/>
      <path id="Path_3022" data-name="Path 3022" d="M-1153.891,1450.315l-.632,1.167Z" fill="#5064f9"/>
      <path id="Path_3023" data-name="Path 3023" d="M-1155.653,1453.217l-.617,1.176Z" fill="#5064f9"/>
      <path id="Path_3024" data-name="Path 3024" d="M-1152.685,1448.31l-.679,1.429Z" fill="#5064f9"/>
      <path id="Path_3025" data-name="Path 3025" d="M-1157.374,1456.138l-.626,1.468Q-1157.688,1456.872-1157.374,1456.138Z" fill="#5064f9"/>
      <path id="Path_3026" data-name="Path 3026" d="M-1159.13,1459.911l-.623,1.472Z" fill="#5064f9"/>
      <path id="Path_3027" data-name="Path 3027" d="M-1159.74,1461.355l-.588,1.193Z" fill="#5064f9"/>
      <path id="Path_3028" data-name="Path 3028" d="M-1156.251,1454.365l-.547.648Z" fill="#5064f9"/>
      <path id="Path_3029" data-name="Path 3029" d="M-1157.984,1457.579l-.591,1.2Z" fill="#5064f9"/>
      <path id="Path_3030" data-name="Path 3030" d="M-1153.346,1449.7l-.567.639Z" fill="#5064f9"/>
      <path id="Path_3031" data-name="Path 3031" d="M-1158.558,1458.744l-.589,1.2Z" fill="#5064f9"/>
      <path id="Path_3032" data-name="Path 3032" d="M-1012.116,1747.015c-5.356-4.134-10.69-8.3-16.073-12.394-7.545-5.745-15.048-11.547-22.72-17.117a33.052,33.052,0,0,1-9.944-11.545c-3.383-6.421-6.576-12.941-9.85-19.419a2.224,2.224,0,0,1,.183-.839q9.452-12.792,18.941-25.556c1.025-1.378,2.137-2.69,3.6-4.528.52,1.939.848,3.029,1.1,4.136,3.108,13.51,6.187,27.026,9.356,40.521a3.188,3.188,0,0,0,1.658,1.975,82.143,82.143,0,0,1,22.209,12.933,158.639,158.639,0,0,1,15.966,14.689c6.028,6.356,11.454,13.28,17.254,19.857,4.724,5.357,9.617,10.565,14.434,15.839l-7.546,8.29c-1.189,1.206-2.114.521-3.2-.293-4.21-3.171-8.48-6.261-12.728-9.381q-6.285-4.941-12.568-9.884Z" fill="#4f93e0"/>
      <path id="Path_3033" data-name="Path 3033" d="M-966,1765.567c-4.817-5.274-9.71-10.482-14.434-15.839-5.8-6.577-11.226-13.5-17.254-19.857a158.639,158.639,0,0,0-15.966-14.689,82.143,82.143,0,0,0-22.209-12.933,3.188,3.188,0,0,1-1.658-1.975c-3.169-13.495-6.248-27.011-9.356-40.521-.255-1.107-.583-2.2-1.1-4.136-1.466,1.838-2.578,3.15-3.6,4.528q-9.493,12.762-18.941,25.556a2.224,2.224,0,0,0-.183.839c-4.481,5.91-8.974,11.812-13.413,17.754a2.6,2.6,0,0,0-.221,1.654c1.6,15.815-1.066,31.256-3.882,46.715-2.807,15.416-5.317,30.885-7.94,46.334-.191,1.123-.023,2.437-1.787,2.3l-3.008-.193c.87-7.735,1.444-15.518,2.68-23.2,1.969-12.242,4.919-24.345,6.448-36.632a133.821,133.821,0,0,0-.437-36.677,4.138,4.138,0,0,1,.738-2.74c12-16.666,24.472-33.011,35.97-50.015,9.064-13.405,10.3-28.121,3.945-43.345-1.1-2.629-.8-5.861-1.034-8.823-.128-1.637-.017-3.293-.014-4.94l.7-.338,6.275-.842c1.606,5.854,2.689,11.918,4.936,17.514,3.593,8.947,4.262,17.735,1.191,26.877a10.023,10.023,0,0,0-.3,4.77q4.583,25.416,9.412,50.789a4.862,4.862,0,0,0,1.982,2.805c5.254,3.423,10.61,6.689,15.931,10.008,2.467,2.181,4.914,4.384,7.415,6.525.539.461,2.477,2.48,2.955,3.03,4.074,4.694,8.194,9.348,12.3,14.013a18.636,18.636,0,0,0,1.293,1.883c7.81,8.912,15.654,17.793,23.439,26.727a36.8,36.8,0,0,1,2.626,3.9Z" fill="#3078bf"/>
      <path id="Path_3034" data-name="Path 3034" d="M-1010.705,1649.063c-2.483-1.954-4.286-4.9-6.881-6.688-3.37-2.327-3.981-5.615-4.233-9.241-.04-.567-.625-4.742-.705-5.367a.023.023,0,0,1,.015-.023c5.491-2.4,7.83-1.6,11.177-1a.038.038,0,0,1,.021.012,53.419,53.419,0,0,0,3.834,4.448c3.437,3.265,4.169,7.062,3.153,11.595-.594,2.646-.305,5.479-.716,8.182a3.54,3.54,0,0,1-.419,1.149,1.194,1.194,0,0,1-2.183-.225,4.959,4.959,0,0,1-.184-.885c-.2-1.845.442-3.94-1.948-4.868a.044.044,0,0,0-.059.048l.418,2.064A.808.808,0,0,1-1010.705,1649.063Z" fill="#f79a9b"/>
      <path id="Path_3035" data-name="Path 3035" d="M-1040.89,1566.405c-1.009,3.7-1.68,7.548-3.116,11.08-1.71,4.209-.613,8.146.228,12.15.414,1.972-.118,3.17-1.9,3.921l-6.275.842c-.237-5.481-.3-10.978-.758-16.441-.547-6.49-1.611-12.937-2.134-19.429-.507-6.281-.611-12.594-.892-18.892l0,.005a36.6,36.6,0,0,1,1.458-4.926c.405-.916,1.345-2.068,2.179-2.19a3.411,3.411,0,0,1,2.743,1.433,65.8,65.8,0,0,1,3.083,6.556c0,.387.005.773.007,1.16,1.687,6.9,3.406,13.794,5.033,20.708A26.762,26.762,0,0,1-1040.89,1566.405Z" fill="#ed8014"/>
      <path id="Path_3036" data-name="Path 3036" d="M-1080.713,1543.648l1.282-.171Z" fill="#4e62fb"/>
      <path id="Path_3037" data-name="Path 3037" d="M-1096.3,1546.339l-1.166-1.744Z" fill="#909dfc"/>
      <path id="Path_3038" data-name="Path 3038" d="M-1095.119,1546.969l-1.2-.647Z" fill="#909dfc"/>
      <path id="Path_3039" data-name="Path 3039" d="M-1089.886,1542.271q-.291-.03-.58-.063c-.016-.184-.027-.368-.036-.553Z" fill="#d8dcde"/>
      <path id="Path_3040" data-name="Path 3040" d="M-1091.307,1541.058l.842.635Z" fill="#d8dcde"/>
      <path id="Path_3041" data-name="Path 3041" d="M-1155.254,1474.033c-3.745-1.789-4.614-4.5-2.835-8.86,1.737-4.255,4.236-5.491,8.315-4.111Q-1152.513,1467.549-1155.254,1474.033Z" fill="#f9f9f9"/>
      <path id="Path_3042" data-name="Path 3042" d="M-1124.353,1501.086a2.475,2.475,0,0,1-.275-.315c-.016-.026.081-.124.127-.189.1.115.193.229.289.343Z" fill="#3f434a"/>
      <path id="Path_3043" data-name="Path 3043" d="M-950.573,1770.932l4.424,5.047a26.65,26.65,0,0,1-2.117,3.058c-6.955,7.611-13.972,15.166-20.931,22.775-2.4,2.625-4.689,5.353-7.029,8.034a8.08,8.08,0,0,1,.05-8.253c2.567-4.83,4.261-9.887,3.742-15.471l2.836-1.659-2.067-.374.011-.606,3.217-.637,0-.53-3.15-.62a3.871,3.871,0,0,1,1.633-4.75c6.83.238,11.461-2.566,13.115-9.485,1.259.551,2.558,1.029,3.764,1.678A22.667,22.667,0,0,1-950.573,1770.932Z" fill="#26254a"/>
      <path id="Path_3044" data-name="Path 3044" d="M-976.226,1809.846c2.34-2.681,4.628-5.409,7.029-8.034,6.959-7.609,13.976-15.164,20.931-22.775a26.65,26.65,0,0,0,2.117-3.058c2,1.555,1.5,3.279.2,4.913-1.411,1.778-2.962,3.444-4.452,5.159q-10.142,11.063-20.284,22.124a28.657,28.657,0,0,1-2.368,2.526C-974.436,1811.886-975.5,1811.368-976.226,1809.846Z" fill="#c0bdd9"/>
      <path id="Path_3045" data-name="Path 3045" d="M-969.951,1776.946l-3.591-3.089q3.773-4.145,7.546-8.29l3.5-3.171,5.661,5.064C-958.49,1774.38-963.121,1777.184-969.951,1776.946Z" fill="#f79a9b"/>
      <g id="Group_153" data-name="Group 153">
        <path id="Path_3046" data-name="Path 3046" d="M-1096.3,1546.339l-.008-.011-.011-.006Z" fill="#fead25"/>
        <path id="Path_3047" data-name="Path 3047" d="M-1010.913,1620.8l-6.123-48.921-10.777-48.321c-2.116-9.218-9.056-14.415-18.568-13.987-1.642.074-3.282.2-4.923.3l-23.49,3.217c-6.25,4.988-12.514,9.96-18.744,14.973-2.4,1.931-4.723,3.957-7.081,5.94a3.19,3.19,0,0,1,1.246,1.553,3.187,3.187,0,0,0-1.247-1.553l-15.935,12.561c-.7-11.746-1.384-23.147-2.067-34.549H-1130a14.322,14.322,0,0,0-.544,2.174q-1.169,12.688-2.28,25.381c-.582,6.538-1.23,13.07-1.726,19.614-.585,7.741,5.7,12.679,12.969,10.2,3.829-1.307,7.594-2.8,11.388-4.215,1-3.1,1.679-6.355,3.087-9.258,2.184-4.5,4.867-8.767,7.339-13.132h0l2.292,1.807.016.018,1.158,1.733,1.186.641.558,12.657c1.089,2.422,2.3,4.8,3.219,7.285a12.5,12.5,0,0,1,.944,4.9c-.5,8.108-1.178,16.206-1.862,24.3-.219,2.586.682,4.119,3.384,4.337l36.218-5.71.7-.337c-.237-5.482-.3-10.979-.758-16.442-.547-6.49-1.611-12.937-2.134-19.429-.506-6.279-.611-12.591-.892-18.889h0a36.471,36.471,0,0,1,1.457-4.925c.405-.916,1.345-2.068,2.179-2.19a3.411,3.411,0,0,1,2.743,1.433,65.8,65.8,0,0,1,3.083,6.556h0c0,.387.005.773.007,1.16h0c1.687,6.9,3.406,13.794,5.033,20.708a26.762,26.762,0,0,1,.344,4.023l6.952,14.979,10.641,46.437.771-.069.023.069,3.739-.406,8.89-.8Zm-79.552-78.59h0c-.015-.18-.027-.36-.035-.541l.036.027h0l-.019-.019-.018-.019.592.592-.022-.006.043.03Zm4.328.78a25.725,25.725,0,0,0,10.919-1.672A25.725,25.725,0,0,1-1086.137,1542.988Zm7.744.074-1.038.415-1.282.171,1.282-.171,1.038-.415,11.764-3.274Zm13.509-3.619-.071.014.071-.014a5.276,5.276,0,0,0,.49.473A5.276,5.276,0,0,1-1064.884,1539.443Zm8.145-.138c-.017-.1-.028-.194-.036-.3.008.1.019.2.036.3l.738.247Z" fill="#fead25"/>
      </g>
      <path id="Path_3048" data-name="Path 3048" d="M-1059.83,1509.766c-.8,2.541,1.046,5.483-.116,7.881a9.17,9.17,0,0,1-1.461,1.9,14.144,14.144,0,0,0-2.308,14.4,3.358,3.358,0,0,0,.925,1.4c1.124.884,2.778.258,3.964-.541a17.089,17.089,0,0,0,5.649-6.376c1.285-2.515,2.409-5.758,5.188-6.265.913-.166,1.858.021,2.777-.108a6.4,6.4,0,0,0,3.769-2.418c3.138-3.679,4.5-8.994,8.639-11.487a19.928,19.928,0,0,0-10.343-4.363c-2.759-.309-3.772-.995-5.937-2.589-1.388-1.022-3.406-1.892-4.724-.283-1.114,1.361-.971,3.215-2.387,4.658C-1057.494,1506.889-1059.239,1507.9-1059.83,1509.766Z" fill="#201f35"/>
      <path id="Path_3049" data-name="Path 3049" d="M-1084.936,1509.387c-.745,1.715-2.224,3.221-2.2,5.091a10.662,10.662,0,0,0,.8,2.953,9.091,9.091,0,0,1,.061,5.216,1.721,1.721,0,0,0-.04,1.372,1.573,1.573,0,0,0,1.108.546,12.708,12.708,0,0,0,3.841.315,4.29,4.29,0,0,0,3.224-1.885c.48-.817.58-1.825,1.11-2.612.8-1.193,2.363-1.584,3.481-2.488,2.112-1.706,2.267-4.949,1.376-7.514a12.761,12.761,0,0,0-8.046-7.686c-1.209-.4-4.465-1.447-4.983.357-.205.71.663,2.107.752,2.886A6.754,6.754,0,0,1-1084.936,1509.387Z" fill="#201f35"/>
      <rect id="Rectangle_374" data-name="Rectangle 374" width="4.069" height="4.069" rx="1.923" transform="translate(-1076.412 1473.914)" fill="#020202"/>
      <circle id="Ellipse_312" data-name="Ellipse 312" cx="0.54" cy="0.54" r="0.54" transform="translate(-1075.776 1474.472)" fill="#fff"/>
      <rect id="Rectangle_375" data-name="Rectangle 375" width="4.069" height="4.069" rx="1.923" transform="translate(-1062.95 1475.365)" fill="#020202"/>
      <circle id="Ellipse_313" data-name="Ellipse 313" cx="0.54" cy="0.54" r="0.54" transform="translate(-1062.314 1475.924)" fill="#fff"/>
      <path id="Path_3050" data-name="Path 3050" d="M-1063.323,1490.742s-7.861,7.1-11.927-1.966" fill="#fff"/>
      <path id="Path_3051" data-name="Path 3051" d="M-1070.084,1477.586l-3.565,5.411,2.723,2.426Z" fill="#d88787"/>
      <path id="Rectangle_376" data-name="Rectangle 376" d="M0,0H45.314a0,0,0,0,1,0,0V.844A1.658,1.658,0,0,1,43.656,2.5H1.461A1.461,1.461,0,0,1,0,1.041V0A0,0,0,0,1,0,0Z" transform="translate(-1141.773 1823.221)" fill="#c0bdd9"/>
      <path id="Path_3052" data-name="Path 3052" d="M-992.558,1488.451c-7.4,3.82-8.481,11-9.838,18.146-2.932,15.43-6.022,30.831-9.047,46.243q-.379,3.257-.758,6.513l-.034-.042c3.944-2.208,7.946-4.321,11.792-6.688,1-.613,1.5-2.022,2.234-3.065q-.026-4.1-.051-8.2l-3.758-8.179c2.128,0,3.788.276,5.321-.048,6.36-1.345,9.889,1.784,12.058,7.273l1.362,2.287,1.693,1.953c.724-.258.653,1.074,1.377.816.092.675,1.086-.232,1.038.433a8.657,8.657,0,0,1-.54,1.853l1.751,2.815c.674.039-.271,1.292.4,1.332-.187,1.554,1.819,2.425.958,3.353-3.427,3.694-6.943,7.552-12.683,7.4l-.156.771q.414,22.433.812,44.865c.03,1.788-.125,3.57,2.05,4.289,8.746-.026,17.492-.116,26.237-.039,2.8.025,3.974-.986,3.9-3.84-.086-3.379.136-6.766.224-10.15-.014-.978-.059-1.958-.038-2.935q.532-25.009,1.079-50.019l-6.587-.836c-2.389.5-4.46.243-6.033-1.975a7.043,7.043,0,0,0-2.719-2.352c-2.48-1.084-2.347-2.26-.451-3.72,1.722-1.326,3.488-2.6,5.235-3.889-.89-.627-1.465-.71-1.879-.491-2.848,1.51-5.635,3.136-8.507,4.6-.638.324-.98-.375-1.758-.327.02-.6-.764-.946-.456-1.233,2.213-2.065,4.236-4.7,6.886-5.85,4.893-2.116,10.168-3.54,15.285-.1a4.813,4.813,0,0,0,1.57.385c.245-7.334.581-14.667.694-22,.053-3.4-.329-6.806-.514-10.21l-3.385-1.884v31.1l-1.08-.023V1494.89c-.9-1.077-1.87-2.1-2.668-3.243-2.072-2.975-4.066-6.005-6.091-9.014Zm11.767,88.356c0-2.4.05-4.807-.018-7.208-.044-1.6.449-2.422,2.222-2.39,4.149.076,8.3.05,12.451.015,1.862-.017,2.471.93,2.455,2.659-.041,4.587.029,9.175-.03,13.762a3.6,3.6,0,0,1-3.872,3.918q-4.747.118-9.5-.006c-2.422-.065-3.869-1.162-3.732-3.87C-980.7,1581.4-980.792,1579.1-980.791,1576.807Z" fill="#d44a7a"/>
      <path id="Path_3053" data-name="Path 3053" d="M-981.409,1504.776l-3.654,32.435-4.362-1.141Z" fill="#b8426d"/>
      <path id="Path_3054" data-name="Path 3054" d="M-908.726,1811.714c2.661-.742,1.255-2.871,1.356-4.367.115-1.7-.413-3.435-.414-5.156q-.043-94.862-.034-189.723l-5.306-.367c-7.481.074-14.963.23-22.44.107a3.587,3.587,0,0,1-2.5-2.413c-.388-3.653-.329-7.354-.435-11.037l-3.5.037c-.01,4.046-.056,8.093-.017,12.138.029,3.021.96,5.3,4.521,5.648a55.387,55.387,0,0,1,6.388,1.241c3.036.664,5.224,2.217,5.467,5.6.453,6.288.951,12.575,1.291,18.87.506,9.349.893,18.7,1.328,28.057q.658,14.193,1.313,28.386.66,14.357,1.313,28.713.652,14.193,1.312,28.386c.44,9.572.943,19.14,1.292,28.715.326,8.938.487,17.882.72,26.823Z" fill="#181532"/>
      <path id="Path_3055" data-name="Path 3055" d="M-883,1561.983q-.054-1.616-.109-3.233l-.519-3.33q-.941-5.913-1.882-11.827c-2.211-14.2-4.463-28.393-6.614-42.6-1.107-7.311-4.808-11.595-12-13.282-5.826-1.366-11.688-2.577-17.534-3.857-2.1,5.153-6.49,7.955-10.916,10.761a36.219,36.219,0,0,0-3.655,3.019v29.611h-.461v-29.62l-3.281.768c-.061,1.192-.187,2.385-.171,3.576q.216,16.534.474,33.067c1.325.443,2.63.962,3.978,1.316q15.094,3.954,30.2,7.854c2.4.047,4.9-.294,7.165.288,1.346.346,3.153,2.04,3.311,3.308.612,4.909.645,9.89.893,14.845l.157.676A13.611,13.611,0,0,0-883,1561.983Z" fill="#d44a7a"/>
      <path id="Path_3056" data-name="Path 3056" d="M-961.016,1451.7c.185-3.242.369-6.484.544-9.554,5.3.392,10.271.8,15.243,1.111,2.561.162,4.467.89,4.633,3.9.039.706.363,1.823.843,2.008,2.706,1.049,3.213,3.227,3.406,6.154,1.026-3.688,2.057-7.064,6.707-4.85.717-3.38,1.876-6.737,2.049-10.145.253-4.968-2.518-8.117-7.244-9.623a7.781,7.781,0,0,1-3.193-1.938c-3.664-3.882-8.841-3.937-12.744-.3a5.6,5.6,0,0,1-4.159,1.26c-5.043-.845-8.607,2.552-7.769,7.555a4.681,4.681,0,0,1-.8,3.342c-3.112,3.852-2.754,7.672,1.276,11.067Z" fill="#d9441f"/>
      <path id="Path_3057" data-name="Path 3057" d="M-915.211,1508.472l4.517,37.137,6.849,1.991Z" fill="#b8426d"/>
      <path id="Path_3058" data-name="Path 3058" d="M-905.19,1839.491c-.4-1.776-.824-3.549-1.207-5.329-.79-3.675-1.56-7.353-2.339-11.029l-4.443-4.534c-5.257-1.69-9.652-.592-12.965,4.007-.493,3.325-.917,6.662-1.5,9.971-.415,2.345-1.049,4.653-1.585,6.977Zm-16.443-11.441c2.851-2.312,5.817-2.293,8.349,0Zm8.631-2.613h-8.6C-918.819,1823.291-916.546,1823.244-913,1825.437Z" fill="#639164"/>
      <path id="Path_3059" data-name="Path 3059" d="M-913.124,1612.1l5.306.368c.819-1.192,2.326-2.369,2.351-3.576.273-13.368.316-26.741.422-40.113l-2.2-2.927-5.927-2.541q0,1.974-.01,3.947l-.009,18.963Q-913.157,1599.16-913.124,1612.1Z" fill="#b8426d"/>
      <path id="Path_3060" data-name="Path 3060" d="M-932.87,1473.538q-.3,4.4-.593,8.794-3.255,8.032-6.509,16.059l3.28-.768q.231.009.462.009a36.219,36.219,0,0,1,3.655-3.019c4.426-2.806,8.818-5.608,10.916-10.761C-922.273,1478.31-925.562,1475.283-932.87,1473.538Z" fill="#fc89ac"/>
      <path id="Path_3061" data-name="Path 3061" d="M-956.521,1481.116q.111-2.2.222-4.4.21-1.666.423-3.334c-5.088,1.594-10.074,3.318-11.751,9.246,2.025,3.009,4.019,6.039,6.091,9.014.8,1.145,1.773,2.166,2.666,3.244l1.082.806,3.385,1.884-2.112-15.671.042.06Z" fill="#fc89ac"/>
      <path id="Path_3062" data-name="Path 3062" d="M-1026.12,1841.49l.04.688.325.593a11.5,11.5,0,0,0,2.732.687q24.312.036,48.624-.025l2.248-3.233-53.73.054Q-1026,1840.872-1026.12,1841.49Z" fill="#487548"/>
      <path id="Path_3063" data-name="Path 3063" d="M-905.19,1839.491l-24.041.063q.185,1.6.37,3.2c1.9.222,3.8.6,5.7.636,4.751.093,9.509.14,14.256-.036,1.359-.051,2.687-.928,4.03-1.426Z" fill="#487548"/>
      <path id="Path_3064" data-name="Path 3064" d="M-913.179,1818.6l4.443,4.534q.008-5.712.013-11.42l-8.35-.341-10.494.28q.333,1.134.667,2.268c3.378.445,6.75.949,10.137,1.314C-914.647,1815.463-913.378,1816.416-913.179,1818.6Z" fill="#e67a67"/>
      <path id="Path_3065" data-name="Path 3065" d="M-955.876,1473.387q-.212,1.667-.423,3.334l10.965-1.747-10.4-2.855Z" fill="#e67a67"/>
      <path id="Path_3066" data-name="Path 3066" d="M-951.251,1624.974c2.589-.677,3.6.591,3.833,3q1.992,20.349,4.04,40.693,2.845,28.319,5.714,56.636,2.415,24.094,4.79,48.192c1,9.985,2.054,19.964,3.012,29.952.119,1.246-.318,2.535-.295,3.8.035,1.906-.83,4.45,2.589,4.406l10.495-.279c-.232-8.941-.393-17.885-.719-26.823-.349-9.575-.852-19.143-1.292-28.715q-.652-14.193-1.312-28.386-.66-14.357-1.313-28.713-.652-14.193-1.313-28.386c-.435-9.353-.822-18.708-1.328-28.057-.34-6.3-.838-12.582-1.291-18.87-.243-3.383-2.431-4.936-5.467-5.6a55.387,55.387,0,0,0-6.388-1.241c-3.561-.347-4.492-2.627-4.521-5.648-.039-4.045.007-8.092.016-12.138a.6.6,0,0,1,0-.373l-11.215-.014a.793.793,0,0,1,0,.375c.006,3.171.035,6.342.014,9.513-.025,3.789-1.767,5.5-5.639,5.5q-13.777.018-27.554-.009-.244,7.364-.49,14.725-1.886,54.99-3.779,109.981c-.447,12.872-.961,25.742-1.445,38.613-.553,10.3-1.121,20.607-1.643,30.912-.076,1.494-.849,3.45,1.795,3.66q3.645-.161,7.29-.317c.476-4.857.857-9.725,1.449-14.567,1.2-9.785,2.576-19.549,3.756-29.336,1.206-10.009,2.2-20.044,3.4-30.052,1.427-11.833,3.044-23.643,4.469-35.476,1.206-10.009,2.186-20.046,3.394-30.055,1.427-11.834,3.1-23.638,4.461-35.478C-962.8,1628.312-959.32,1624.956-951.251,1624.974Z" fill="#26254a"/>
      <path id="Path_3067" data-name="Path 3067" d="M-972.151,1840.2c.089-4.855.245-9.711.2-14.564-.007-.743-.964-1.476-1.481-2.212l-8.01,2.178c-1.545-.428-3.269-.555-4.6-1.349-2.54-1.52-4.852-3.419-7.259-5.16-1.825.714-4.771.186-4.08,3.686l.606.663.612.609.363.962-.917-.346-.568-.75-.66-.652c-1.736-.939-2.027-.82-2.1.853q.13.489.263.976l-.884-.425-1.529,1.522q.284.376.569.752l.663.647.981,1.158-.369.356-1.234-1.04c-.17-.2-.341-.4-.513-.608l-.652-.65c-.651-.049-1.614-.4-1.908-.1-4.3,4.407-10.137,5.553-15.611,7.459a7.857,7.857,0,0,0-5.617,6.09Zm-26.644-13.389-.351-1,.9.382.216.95Z" fill="#639164"/>
      <path id="Path_3068" data-name="Path 3068" d="M-981.446,1825.6l8.01-2.178q.3-5.883.6-11.765l-11.83-.3q-3.645.157-7.29.317.021,1.12.041,2.239c3.647.467,7.313.823,10.934,1.444,1.922.33,3.223,1.48,2.31,3.729C-979.562,1821.277-980.52,1823.433-981.446,1825.6Z" fill="#e67a67"/>
      <path id="Path_3069" data-name="Path 3069" d="M-981.446,1825.6c.926-2.169,1.884-4.325,2.771-6.51.913-2.249-.388-3.4-2.31-3.729-3.621-.621-7.287-.977-10.934-1.444q-.69,2.586-1.381,5.174c2.407,1.741,4.719,3.64,7.259,5.16C-984.715,1825.047-982.991,1825.174-981.446,1825.6Z" fill="#ffa082"/>
      <path id="Path_3070" data-name="Path 3070" d="M-992.65,1567.754l3.215-4.341.156-.771-8.538-9.187.011-.011a57.233,57.233,0,0,0,3.572,7.061c1.131,1.664,1.413,2.908-.125,4.223-5.11,4.369-8.919,7.9-16.513,4.441,2.1,5.036,5.959,6.45,12.9,4.73Z" fill="#e67a67"/>
      <path id="Path_3071" data-name="Path 3071" d="M-997.977,1573.9c-6.936,1.72-10.79.306-12.9-4.73a11.493,11.493,0,0,1-1.363-9.858l.034.042c-3.474,2.523-2.419,5.863-1.556,9.1a30.446,30.446,0,0,0,1.6,3.875,11,11,0,0,0,11.43,3.4C-999.718,1575.465-998.888,1574.526-997.977,1573.9Z" fill="#fc89ac"/>
      <path id="Path_3072" data-name="Path 3072" d="M-905.488,1544.2q-15.1-3.921-30.2-7.854c-1.348-.354-2.653-.873-3.978-1.316l-14.913-5.24a4.819,4.819,0,0,1-1.571-.385c-5.117-3.442-10.392-2.018-15.285.1-2.65,1.146-4.673,3.785-6.886,5.85-.2.184-.175.6-.138,1.041a.769.769,0,0,0,.741.7,3.416,3.416,0,0,0,1.611-.184c2.872-1.46,5.659-3.086,8.507-4.6a1.017,1.017,0,0,1,.144-.062.767.767,0,0,1,.632,1.366c-1.384,1.016-2.771,2.028-4.132,3.076-1.9,1.46-2.029,2.636.451,3.72a7.043,7.043,0,0,1,2.719,2.352c1.573,2.218,3.644,2.477,6.033,1.975a24.4,24.4,0,0,1,17.358-1.542c3.729,1.087,7.249,2.884,10.878,4.324q14.047,5.575,28.11,11.117Z" fill="#ffa082"/>
      <path id="Path_3073" data-name="Path 3073" d="M-954.583,1529.794l14.914,5.24q-.243-16.533-.474-33.067c-.016-1.191.11-2.384.171-3.576q3.254-8.028,6.509-16.059c-3.227,1.195-6.367,2.857-9.7,3.482a15.446,15.446,0,0,1-13.351-3.9l2.112,15.671c.185,3.4.567,6.81.514,10.21C-954,1515.127-954.338,1522.46-954.583,1529.794Z" fill="#fff"/>
      <rect id="Rectangle_377" data-name="Rectangle 377" width="14.986" height="31.547" rx="2.128" transform="translate(-975.556 1553.019) rotate(150)" fill="#26254a"/>
      <path id="Path_3074" data-name="Path 3074" d="M-1012.26,1559.4a11.472,11.472,0,0,0,1.35,9.711.232.232,0,0,0,.1.087c7.552,3.405,11.354-.113,16.449-4.47,1.538-1.315,1.256-2.559.125-4.223a57.289,57.289,0,0,1-3.572-7.06l-.153-.269.142.279,8.475,9.119a.221.221,0,0,0,.156.07c5.685.11,9.182-3.726,12.59-7.4.691-.745.578-2.236.6-3.6a1,1,0,0,0-.937-1.026l-.5-.03a1.1,1.1,0,0,0-.886.366l-4.229,4.735-1.179-.843,4-7.085a.175.175,0,0,0,.016-.038,8.453,8.453,0,0,0,.534-1.833h0a1.422,1.422,0,0,0-1.9-1.435l-.451.16a.2.2,0,0,0-.1.088c-1.7,2.934-3.386,5.88-6.6,7.224l-.8-1.006,6.445-9.226-1.864-1.5-8.222,8.879a.212.212,0,0,1-.362-.193c.55-2.114,1.454-4.182,2.2-6.307a12.79,12.79,0,0,0,.4-1.44,1.169,1.169,0,0,0-1.869-1.162c-.347.269-.682.55-1,.85-1.149,1.086-2.12,2.361-3.167,3.557a.183.183,0,0,0-.04.071l-1.7,5.083a.155.155,0,0,1-.024.048c-.723,1.041-1.229,2.434-2.218,3.043-3.82,2.351-7.794,4.452-11.713,6.643A.216.216,0,0,0-1012.26,1559.4Z" fill="#ffa082"/>
      <path id="Path_3075" data-name="Path 3075" d="M-980.791,1576.807c0,2.294.092,4.592-.025,6.88-.137,2.708,1.31,3.8,3.732,3.87q4.747.129,9.5.006a3.6,3.6,0,0,0,3.872-3.918c.059-4.587-.011-9.175.03-13.762.016-1.729-.593-2.676-2.455-2.659-4.151.035-8.3.061-12.451-.015-1.773-.032-2.266.787-2.222,2.39C-980.741,1572-980.791,1574.4-980.791,1576.807Z" fill="#fc89ac"/>
      <path id="Path_3076" data-name="Path 3076" d="M-905.41,1558.647q-14.057-5.557-28.11-11.117c-3.629-1.44-7.149-3.237-10.878-4.324a24.4,24.4,0,0,0-17.358,1.542l6.587.836,1.31,0c4.734-1.06,8.613,1.136,12.505,3.285l2.032,1.349,26.151,13.1,5.927,2.541q.971-3.267,1.942-6.534Z" fill="#e67a67"/>
      <path id="Path_3077" data-name="Path 3077" d="M-953.86,1545.582l-1.309,0q-.542,25.009-1.079,50.019c-.021.977.024,1.957.038,2.935l2.991.245a.789.789,0,0,0,0-.374Q-953.539,1572-953.86,1545.582Z" fill="#d1d8de"/>
      <path id="Path_3078" data-name="Path 3078" d="M-953.219,1598.783l-2.991-.245c-.088,3.384-.31,6.771-.224,10.15.072,2.854-1.1,3.865-3.9,3.84-8.745-.077-17.491.013-26.237.039q.089.61.175,1.223,13.777.006,27.554.008c3.872-.005,5.614-1.713,5.639-5.5C-953.184,1605.125-953.213,1601.954-953.219,1598.783Z" fill="#181532"/>
      <path id="Path_3079" data-name="Path 3079" d="M-957.788,1495.7l-1.082-.806q0,15.942,0,31.887l1.08.023Z" fill="#fc89ac"/>
      <path id="Path_3080" data-name="Path 3080" d="M-996.974,1545.851c-.589-1.016-1.855-3.173-2.444-4.191.018,2.732,1.192,5.164,1.209,7.9Z" fill="#d48686"/>
      <path id="Path_3081" data-name="Path 3081" d="M-893.963,1563.321l-1.374,7.579c1.256.3,2.5.7,3.77.88,6.067.845,10.128-3.825,8.568-9.8A13.611,13.611,0,0,1-893.963,1563.321Z" fill="#b8426d"/>
      <path id="Path_3082" data-name="Path 3082" d="M-913.171,1563.311l-26.151-13.1q.357,21.75.715,43.5c.028,1.681.07,3.363.106,5.044.106,3.683.047,7.384.435,11.037a3.587,3.587,0,0,0,2.5,2.413c7.477.123,14.959-.033,22.44-.107q-.033-12.94-.066-25.88a19.756,19.756,0,0,1-4.188,1.307c-2.481.217-4.994.071-7.494.059-3.956-.02-5.2-1.16-5.309-5.226-.108-3.909.081-7.828-.062-11.736-.092-2.515,1-1.94,3.6-1.848,4.559.162-7.869,30.246,13.451,17.705C-913.187,1585.167-913.174,1564.627-913.171,1563.311Z" fill="#d44a7a"/>
      <path id="Path_3083" data-name="Path 3083" d="M-938.5,1598.758c-.036-1.681-.078-3.363-.106-5.044q-.36-21.749-.715-43.5l-2.033-1.349q-.324,24.777-.649,49.555a.6.6,0,0,0,0,.373Z" fill="#d1d8de"/>
      <path id="Path_3084" data-name="Path 3084" d="M-894.12,1562.645h0c-.248-4.955-.281-9.936-.893-14.845-.158-1.268-1.965-2.962-3.311-3.308-2.264-.582-4.764-.241-7.165-.288q.041,7.221.079,14.443l.108.67q-.972,3.268-1.942,6.535,1.1,1.462,2.2,2.927l7.193,2,2.516.124,1.374-7.579C-894.015,1563.1-894.068,1562.87-894.12,1562.645Z" fill="#fc89ac"/>
      <path id="Path_3085" data-name="Path 3085" d="M-936.23,1497.632q-.231,0-.462-.009,0,14.809,0,29.62h.461Z" fill="#fc89ac"/>
      <path id="Path_3086" data-name="Path 3086" d="M-956.521,1481.116l.048.854Z" fill="#fefefe"/>
      <path id="Path_3087" data-name="Path 3087" d="M-926.9,1813.92q.378,4.342.755,8.686c3.314-4.6,7.709-5.7,12.966-4.007-.2-2.183-1.468-3.136-3.584-3.365C-920.15,1814.869-923.522,1814.365-926.9,1813.92Z" fill="#ffa082"/>
      <path id="Path_3088" data-name="Path 3088" d="M-921.633,1828.05h8.349C-915.816,1825.757-918.782,1825.738-921.633,1828.05Z" fill="#487548"/>
      <path id="Path_3089" data-name="Path 3089" d="M-913,1825.437c-3.544-2.193-5.817-2.146-8.6,0Z" fill="#487548"/>
      <path id="Path_3090" data-name="Path 3090" d="M-917.312,1567.26c-4.564-.01-9.133.09-13.693-.072-2.6-.092-3.461.924-3.369,3.439.143,3.907-.046,7.826.063,11.736.113,4.066,1.353,5.206,5.309,5.226,2.5.012,5.013.157,7.494-.059a19.77,19.77,0,0,0,4.188-1.307Q-917.317,1576.741-917.312,1567.26Z" fill="#fc89ac"/>
      <path id="Path_3091" data-name="Path 3091" d="M-984.67,1811.363l11.83.3c.62-1.09,1.68-2.137,1.793-3.278,1.088-10.952,1.9-21.932,3.016-32.881,1.8-17.7,3.749-35.389,5.646-53.082q3.16-29.461,6.333-58.923c1.2-11.286,2.328-22.581,3.568-33.863a31.277,31.277,0,0,1,1.234-4.658c-8.07-.018-11.555,3.338-12.487,11.425-1.365,11.84-3.034,23.644-4.461,35.478-1.208,10.009-2.188,20.046-3.394,30.055-1.425,11.833-3.042,23.643-4.469,35.476-1.208,10.008-2.2,20.043-3.4,30.052-1.18,9.787-2.559,19.551-3.756,29.336C-983.813,1801.638-984.194,1806.506-984.67,1811.363Z" fill="#181532"/>
      <path id="Path_3092" data-name="Path 3092" d="M-942,1598.422q.324-24.777.649-49.555c-3.891-2.149-7.77-4.345-12.5-3.285q.32,26.414.64,52.827Z" fill="#fff"/>
      <path id="Path_3093" data-name="Path 3093" d="M-1000.661,1824.669l.884.425q-.132-.487-.263-.976C-1000.246,1824.3-1000.454,1824.485-1000.661,1824.669Z" fill="#487548"/>
      <path id="Path_3094" data-name="Path 3094" d="M-1000.958,1827.59l-.663-.647q-.285-.376-.569-.752l-.555.615.652.65c.171.2.343.4.513.608h0l1.235,1.04.369-.356Z" fill="#487548"/>
      <path id="Path_3095" data-name="Path 3095" d="M-995.8,1825.013l-.363-.961-.611-.61h0l-.608-.663-.563.486.66.652h0l.568.75h0Z" fill="#487548"/>
      <path id="Path_3096" data-name="Path 3096" d="M-998.243,1826.19h0l-.9-.382.351,1,.767.329Q-998.134,1826.664-998.243,1826.19Z" fill="#487548"/>
      <path id="Path_3097" data-name="Path 3097" d="M-997.817,1553.455l-.142-.279.153.269Z" fill="#d48686"/>
      <g id="Group_154" data-name="Group 154">
        <path id="Path_3098" data-name="Path 3098" d="M-956.515,1481.91l.041.033v.027Z" fill="#ffa082"/>
        <path id="Path_3099" data-name="Path 3099" d="M-961.016,1451.7c.185-3.242.369-6.484.544-9.554,5.3.392,10.271.8,15.243,1.111,2.561.162,4.467.89,4.633,3.9.039.706.363,1.823.843,2.009,2.706,1.048,3.213,3.226,3.406,6.153,1.026-3.688,2.057-7.064,6.707-4.85,1.672,5.244,1.248,6.447-3.215,9.47-.476.322-1.13.933-1.1,1.368.287,4.081.7,8.154,1.084,12.228q-.3,4.4-.593,8.791c-3.227,1.2-6.367,2.86-9.7,3.485a15.432,15.432,0,0,1-13.31-3.871l-.047-.827q.111-2.2.224-4.4l10.963-1.747-8.493-2.333a7.9,7.9,0,0,1-7.188-7.839v-13.011c0-.032,0-.062.005-.094Z" fill="#ffa082"/>
      </g>
      <rect id="Rectangle_378" data-name="Rectangle 378" width="2.823" height="2.823" rx="1.334" transform="translate(-944.877 1454.735) rotate(-180)" fill="#020202"/>
      <circle id="Ellipse_314" data-name="Ellipse 314" cx="0.374" cy="0.374" r="0.374" transform="translate(-946.067 1452.299)" fill="#fff"/>
      <path id="Path_3100" data-name="Path 3100" d="M-953.634,1462.651s4.361,3.937,6.617-1.091" fill="#fff"/>
      <rect id="Rectangle_379" data-name="Rectangle 379" width="2.823" height="2.823" rx="1.334" transform="translate(-955.628 1455.871) rotate(-180)" fill="#020202"/>
      <circle id="Ellipse_315" data-name="Ellipse 315" cx="0.374" cy="0.374" r="0.374" transform="translate(-956.818 1453.435)" fill="#fff"/>
      <path id="Path_3101" data-name="Path 3101" d="M-952.665,1455.489l-.649,3.036,1.508.607Z" fill="#e67a67"/>
      <path id="Path_3102" data-name="Path 3102" d="M-862.847,1581.879s0,1-2.024,9.171l0,.013c-8.649,17.739-15.269,35.432-19.316,54.571-3.608,17.061-6.235,34.313-9.342,51.472-1.077,5.951-2.3,11.877-3.44,17.817-.2,1.053-.347,2.117-.52,3.184l5.789,1.381,6.185.642c.741-3.184,1.6-6.346,2.2-9.555,2.334-12.49,4.491-25.013,6.9-37.49,2.517-13.062,4.849-26.172,8.016-39.1,2.131-8.7,5.313-17.185,8.51-25.62,1.574-4.153,5.394-9.926,9.194-11.622,5.913-2.639,42.853-2.866,42.853-2.866v-12C-832.847,1587.879-862.847,1581.879-862.847,1581.879Z" fill="#f9d285"/>
      <g id="Group_155" data-name="Group 155">
        <path id="Path_3103" data-name="Path 3103" d="M-934.835,1430.7a7.781,7.781,0,0,1-3.193-1.938c-3.664-3.882-8.841-3.937-12.744-.3a5.6,5.6,0,0,1-4.159,1.26c-3.8-.637-6.761,1.138-7.629,4.194a7.089,7.089,0,0,1,5.629-1.194,5.6,5.6,0,0,0,4.159-1.26c3.9-3.634,9.08-3.579,12.744.3a7.781,7.781,0,0,0,3.193,1.938c4.726,1.506,7.5,4.655,7.244,9.623a34.763,34.763,0,0,1-1.218,6.692,8.371,8.371,0,0,1,1.169.453c.717-3.38,1.876-6.737,2.049-10.145C-927.338,1435.359-930.109,1432.21-934.835,1430.7Z" fill="#993319"/>
      </g>
      <path id="Path_3104" data-name="Path 3104" d="M-730.009,1549.125c1.733-7.576,5.806-9.855,13.144-7.588,3.808-6.626,10.686-9.311,17.59-6.866a11.207,11.207,0,0,1,5.128,3.341c-.133-4.728-2.413-7.671-7.128-9.341-6.9-2.445-13.782.24-17.59,6.866-7.338-2.267-11.411.012-13.144,7.588a35.947,35.947,0,0,0,.242,17.543,11.386,11.386,0,0,0,1.392,3.26A36.258,36.258,0,0,1-730.009,1549.125Z" fill="#993319"/>
      <rect id="Rectangle_380" data-name="Rectangle 380" width="5.727" height="19.247" rx="2.863" transform="matrix(0.918, 0.396, -0.396, 0.918, -687.136, 1659.181)" fill="#1d1a36"/>
    </g>
  </g>
</svg>
