<svg xmlns="http://www.w3.org/2000/svg" width="1537.001" height="253.057" viewBox="0 0 1537.001 253.057">
  <g id="Group_345" data-name="Group 345" transform="translate(0 -2332.945)">
    <path id="Subtraction_15" data-name="Subtraction 15" d="M-604,320.533h0l-491,0V112.463c11.588-.618,23.363-.931,35-.931,11.86,0,23.85.325,35.637.966,11.673.635,23.455,1.6,35.019,2.859,11.47,1.252,23.021,2.83,34.33,4.691,11.222,1.846,22.517,4.021,33.57,6.465,10.959,2.422,21.973,5.173,32.737,8.176,10.69,2.983,21.4,6.29,31.835,9.83,10.373,3.518,20.756,7.361,30.859,11.422,10.055,4.043,20.085,8.4,29.812,12.956a549.137,549.137,0,0,1,107.343,65.951A484.612,484.612,0,0,1-604,320.531Z" transform="translate(1095 2223)" fill="#54b7e9"/>
    <path id="Subtraction_18" data-name="Subtraction 18" d="M-69,324H-1606V227.937c61.874-21.239,129.619-39.936,201.353-55.572,20.917-4.559,42.462-8.918,64.037-12.955,21.685-4.059,43.987-7.9,66.285-11.422,22.421-3.541,45.428-6.848,68.381-9.83,23.117-3,46.777-5.755,70.322-8.177,23.739-2.443,48-4.618,72.109-6.464,24.332-1.864,49.142-3.442,73.743-4.692,24.834-1.261,50.143-2.223,75.222-2.858,25.325-.641,51.079-.967,76.548-.967s51.222.325,76.548.967c25.1.636,50.4,1.6,75.222,2.858,24.608,1.25,49.419,2.829,73.742,4.692,24.075,1.843,48.336,4.018,72.11,6.464,23.551,2.424,47.211,5.175,70.322,8.177,22.959,2.983,45.965,6.29,68.38,9.83,22.327,3.525,44.629,7.368,66.286,11.422,21.546,4.032,43.092,8.39,64.037,12.955C-199.232,188.084-131.15,206.9-69,228.281V324Z" transform="translate(1606 2262)" fill="#c3f5ff"/>
    <path id="Subtraction_17" data-name="Subtraction 17" d="M-1152.559,1008H-1606a606.3,606.3,0,0,1,106.174-107.207,687.021,687.021,0,0,1,134.307-82.518c12.185-5.7,24.734-11.159,37.3-16.21,12.627-5.076,25.618-9.885,38.611-14.292,13.053-4.428,26.454-8.566,39.83-12.3,13.468-3.758,27.25-7.2,40.962-10.231,13.836-3.058,27.968-5.779,42-8.087,4.7-.773,9.494-1.517,14.253-2.211V1008Z" transform="translate(2689.559 1578)" fill="#3ebaf4"/>
  </g>
</svg>
