<svg xmlns="http://www.w3.org/2000/svg" width="18.537" height="12.976" viewBox="0 0 18.537 12.976">
  <path id="ic_supervisor_account_24px" d="M15.439,11.488a2.317,2.317,0,1,0-2.317-2.317A2.31,2.31,0,0,0,15.439,11.488Zm-6.951-.927A2.781,2.781,0,1,0,5.707,7.781,2.769,2.769,0,0,0,8.488,10.561Zm6.951,2.781c-1.7,0-5.1.853-5.1,2.549v2.085h10.2V15.89C20.537,14.194,17.135,13.342,15.439,13.342Zm-6.951-.927C6.328,12.415,2,13.5,2,15.659v2.317H8.488V15.89a3.653,3.653,0,0,1,2.2-3.216A11.385,11.385,0,0,0,8.488,12.415Z" transform="translate(-2 -5)" fill="#2c9be6"/>
</svg>
