<svg id="Layer_1" data-name="Layer 1" xmlns="http://www.w3.org/2000/svg" xmlns:xlink="http://www.w3.org/1999/xlink" viewBox="0 0 1489.89 515.49"><defs><style>.cls-1{fill:none;}.cls-2{clip-path:url(#clip-path);}.cls-3{opacity:0.46;fill:url(#linear-gradient);}.cls-3,.cls-36,.cls-37,.cls-4{isolation:isolate;}.cls-4{opacity:0.56;fill:url(#linear-gradient-2);}.cls-5{fill:url(#radial-gradient);}.cls-6{fill:#fae3af;}.cls-7{fill:#f9d285;}.cls-8{fill:#f99b9b;}.cls-9{fill:#26254a;}.cls-10{fill:#381c00;}.cls-11{fill:#ffa082;}.cls-12{fill:#1d1a36;}.cls-13{fill:#3f4ec9;}.cls-14{fill:#ed8014;}.cls-15{fill:#6b6e74;}.cls-16{fill:#fead25;}.cls-17{fill:url(#linear-gradient-3);}.cls-18{fill:#e67a67;}.cls-19{fill:#3078bf;}.cls-20{fill:#f0f0f0;}.cls-21{fill:#232120;}.cls-22{fill:#121315;}.cls-23{fill:#d48586;}.cls-24{fill:#b3b7bb;}.cls-25{fill:#21252b;}.cls-26{fill:#83868d;}.cls-27{fill:#020202;}.cls-28{fill:#fff;}.cls-29{fill:#868990;}.cls-30{fill:#3fb6f5;}.cls-31,.cls-37{fill:#2b9efc;}.cls-32{fill:#61656d;}.cls-33{fill:#30343a;}.cls-34{fill:#868a91;}.cls-35{fill:#2f3339;}.cls-37{font-size:89px;font-family:SegoeUI, Segoe UI;}</style><clipPath id="clip-path" transform="translate(-46.11 -378.51)"><rect class="cls-1" width="1536" height="894"/></clipPath><linearGradient id="linear-gradient" x1="718.12" y1="498.38" x2="716.67" y2="495.36" gradientTransform="matrix(756.86, 0, 0, -339.17, -541927.49, 169519.67)" gradientUnits="userSpaceOnUse"><stop offset="0" stop-color="#3fd8f5"/><stop offset="0.37" stop-color="#3fd8f5" stop-opacity="0.59"/><stop offset="0.68" stop-color="#3fd8f5" stop-opacity="0.27"/><stop offset="0.89" stop-color="#3fd8f5" stop-opacity="0.08"/><stop offset="1" stop-color="#3fd8f5" stop-opacity="0"/></linearGradient><linearGradient id="linear-gradient-2" x1="716.63" y1="498.13" x2="717.13" y2="497.5" gradientTransform="matrix(432.21, 0, 0, -289.68, -308503.56, 144969.14)" gradientUnits="userSpaceOnUse"><stop offset="0" stop-color="#2b9efc" stop-opacity="0.68"/><stop offset="0.14" stop-color="#2ea7fa" stop-opacity="0.57"/><stop offset="0.56" stop-color="#37c1f7" stop-opacity="0.26"/><stop offset="0.85" stop-color="#3cd1f5" stop-opacity="0.08"/><stop offset="1" stop-color="#3fd8f5" stop-opacity="0"/></linearGradient><radialGradient id="radial-gradient" cx="722.93" cy="493.45" r="1.03" gradientTransform="translate(-22957.24 128321.45) rotate(-113.95) scale(150.85)" gradientUnits="userSpaceOnUse"><stop offset="0.26" stop-color="#fff" stop-opacity="0"/><stop offset="0.32" stop-color="#fff" stop-opacity="0.04"/><stop offset="0.42" stop-color="#fff" stop-opacity="0.14"/><stop offset="0.56" stop-color="#fff" stop-opacity="0.31"/><stop offset="0.72" stop-color="#fff" stop-opacity="0.53"/><stop offset="0.9" stop-color="#fff" stop-opacity="0.82"/><stop offset="1" stop-color="#fff"/></radialGradient><linearGradient id="linear-gradient-3" x1="712.33" y1="502.59" x2="712.59" y2="501.21" gradientTransform="matrix(120.21, 0, 0, -78.27, -85306.49, 39842.2)" gradientUnits="userSpaceOnUse"><stop offset="0" stop-color="#b3b3b3"/><stop offset="0.97" stop-color="#6e6e6e"/></linearGradient></defs><title>bg-forgot-password</title><g class="cls-2"><g id="Forgot_Password_Page" data-name="Forgot Password Page"><g id="Group_174" data-name="Group 174"><path id="Path_2594" data-name="Path 2594" class="cls-3" d="M1535.43,556.1s-153-19-205.22,90-221.86,160-346.1,155.45C809.56,795.1,778.57,894,778.57,894h756.86Z" transform="translate(-46.11 -378.51)"/><path id="Path_2595" data-name="Path 2595" class="cls-4" d="M1536,603.72s-111.71-16.24-149.87,76.86-59.42,132.34-147.31,132.34c-83.51,0-135,79.39-135,79.39H1536Z" transform="translate(-46.11 -378.51)"/><circle id="Ellipse_299" data-name="Ellipse 299" class="cls-5" cx="1316.23" cy="403.73" r="75.42"/></g><g id="Group_176" data-name="Group 176"><rect id="Rectangle_390" data-name="Rectangle 390" class="cls-6" x="90.26" y="286.46" width="241.8" height="161.24" rx="34"/><path id="Path_3457" data-name="Path 3457" class="cls-7" d="M357.74,667.49a32.62,32.62,0,0,1,2.19,11.76v95.17a33.15,33.15,0,0,1-33,33H151.16a32.84,32.84,0,0,1-12.6-2.52,33.16,33.16,0,0,0,30.86,21.27H345.14a33.13,33.13,0,0,0,33-33V698A33.15,33.15,0,0,0,357.74,667.49Z" transform="translate(-46.11 -378.51)"/><path id="Path_3458" data-name="Path 3458" class="cls-8" d="M184.75,498.32l-1.47.07.72-.83C184.25,497.82,190.23,497.21,184.75,498.32Z" transform="translate(-46.11 -378.51)"/><path id="Path_3459" data-name="Path 3459" class="cls-9" d="M157.83,508.9c2.33-1,4.63-2.12,7-3,5.61-2.2,11.26-4.33,16.89-6.49a5,5,0,0,1,1.2.59,52.15,52.15,0,0,0,14.76,9.5,36,36,0,0,0,17.17,3.16,26.2,26.2,0,0,0,19.63-10.54c1.39-1.84,2.68-3.76,4-5.64,6.21,1.16,12.44,2.19,18.62,3.52a10,10,0,0,1,7.59,6.76c1.39,3.67,3.19,7.18,4.81,10.76L274.67,530l-3.29,1-12.05,3.73c-2.36-3.81-4.67-7.66-7.15-11.4-.53-.82-1.67-1.23-2.54-1.83l-.28.45q3.82,6.84,7.64,13.67l1.43,2.93c1.83,6.59,2.13,13.1-1,19.43l-1.32,2.35v0l-.47.49,0,0-.5.94h0a3.68,3.68,0,0,0-1.22.53,9.5,9.5,0,0,1-6.89,2.75,4.71,4.71,0,0,0-1.37.41l0,.37,9.42,2c.17,2.92.29,5.85.51,8.77.38,5,.81,10,1.26,15s3.05,9.15,5.26,13.46c-5.7-.42-11.42-.71-17.1-1.32-4.92-.52-9.79-1.53-14.7-2.07s-9.67-1.77-14.59-2.21c-4.46-.4-8.87-1.3-13.3-2,.14-.83.22-1.68.42-2.5,1.29-5.32,2.61-10.63,3.92-15.94,1.19-.08,2-.64,1.46-1.85-.2-.4-1.43-.3-2.19-.42a21,21,0,0,0-2.94.48c-6.66,2-12.91.06-16.47-5.84A37.39,37.39,0,0,1,183,562.1c-2.12-7.57-4-15.23-5.9-22.86-.32-1.27-.54-2.56-2.3-2.15s-.89,1.64-.72,2.62c.4,2.27.77,4.55,1.27,6.81.33,1.46,0,2-1.61,2.22-5.18.78-10.32,1.81-15.47,2.74l-.43,0c-1.1-5.41-2.19-10.83-3.33-16.24-.07-.36-.5-.66-.76-1l-.68-2.77a10.32,10.32,0,0,0,.22-2.07,81.75,81.75,0,0,1-.77-8.64c.11-4.3,2.27-7.9,4.77-11.28v.09C157.5,509.34,157.67,509.12,157.83,508.9ZM233,543.26c.21.31.56,1.16.8,1.13a2.22,2.22,0,0,0,1.53-.93,8.35,8.35,0,0,0,.83-2.85c.06-.47-.4-1-.63-1.51-.48.26-1.2.4-1.4.81a26,26,0,0,0-1.13,3.36Zm34.14-24.16c-.85-1.25-1.66-2.52-2.56-3.72a1.06,1.06,0,0,0-1,0c-.3.26-.64.87-.52,1.12a25.4,25.4,0,0,0,2.06,3.53c.16.23.86.24,1.24.13s.44-.54.8-1ZM229.75,587c-.6-.73-1-1.39-1.14-1.34a45.58,45.58,0,0,0-4.38,1.7,2,2,0,0,0,.07,1.16,4.48,4.48,0,0,0,2.09.08,28.68,28.68,0,0,0,3.36-1.59Zm-33.48-59c-.24-.31-.52-1-1-1.17-.31-.1-1.09.44-1.3.87a9,9,0,0,0-.86,2.82c-.06.45.43,1,.67,1.47.48-.26,1.19-.4,1.4-.81a21.11,21.11,0,0,0,1.07-3.17Zm10.29,34.65c-.85-1.23-1.68-2.5-2.61-3.68-.13-.16-.81.13-1.24.22.38,1.17.73,2.36,1.15,3.52a1.55,1.55,0,0,0,1.94,1c.27-.08.41-.57.76-1.11Zm42.58,39a38.5,38.5,0,0,0,3.67-1.61c.3-.16.44-1,.33-1.37a1.23,1.23,0,0,0-1.09-.57,25,25,0,0,0-3.64,1.48c-.26.13-.41.86-.29,1.2s.62.56,1,.88Zm-6.35-98.62a29.7,29.7,0,0,0-1.4,3.64,4.42,4.42,0,0,0,.34,2.06c0,.06,1.07,0,1.14-.17a43.31,43.31,0,0,0,1.3-4.48c0-.16-.63-.49-1.38-1ZM247.6,568c-.78,1-1.42,1.53-1.33,1.71a39.92,39.92,0,0,0,2.44,4,5.93,5.93,0,0,0,1.19-.64c-.64-1.54-1.36-3.05-2.3-5.07Zm8.67-66.65c-.82-.63-1.42-1.39-1.76-1.28-.57.17-1,.9-1.45,1.38.48.4.93,1.07,1.42,1.1s1-.61,1.79-1.2ZM252,547.08c-.8-.65-1.37-1.42-1.71-1.33-.58.16-1,.86-1.5,1.34.46.42.89,1.11,1.39,1.17s1-.6,1.82-1.17Zm-7.88,36.7c-.82-.6-1.43-1.33-1.76-1.22-.56.18-1,.9-1.41,1.4.48.4.93,1.08,1.43,1.11s.94-.66,1.74-1.29ZM169,516.17c-.84-.62-1.43-1.36-1.8-1.26-.56.16-1,.89-1.42,1.38.47.4.92,1.08,1.42,1.12S168.22,516.77,169,516.17Zm41.06,30.16c.55-.86,1.19-1.42,1.13-1.88s-.79-.89-1.23-1.33c-.46.5-1.17.94-1.28,1.5-.07.38.71.92,1.38,1.71ZM262.49,530c.61-.9,1.27-1.46,1.22-1.94a1.75,1.75,0,0,0-1.31-1.17c-.4,0-1.12.79-1.15,1.26s.63,1,1.24,1.85Zm-37.58-4.45c.66-.87,1.35-1.38,1.31-1.82s-.72-1-1.12-1.45c-.48.43-1.23.8-1.34,1.3s.57,1,1.15,2Zm-57.59,13.34c-.85-.67-1.35-1.36-1.79-1.32s-1,.73-1.44,1.13c.43.48.79,1.24,1.29,1.35s1-.57,1.94-1.16Zm62.6,25.4c-.86-.66-1.37-1.35-1.86-1.33a1.76,1.76,0,0,0-1.24,1.21c0,.41.71,1.19,1.17,1.24s1-.56,1.93-1.12Zm-34.83-52.13c-.82-.61-1.33-1.27-1.8-1.25s-.94.71-1.41,1.11c.46.48.86,1.22,1.41,1.36.38.1,1-.62,1.8-1.22Z" transform="translate(-46.11 -378.51)"/><path id="Path_3460" data-name="Path 3460" class="cls-10" d="M184,497.56c-2.44-.72-4.92-1.32-7.31-2.18-3.45-1.25-5-4-5.31-7.51-1.21-15.67-.07-31.12,5.14-46.05,2.59-7.41,6.4-14.05,13.29-18.49,13.57-8.75,32.5-4.21,40.39,9.86,4.6,8.21,6.85,17.25,8.06,26.45,1,7.36,1.23,14.82,1.51,22.24.19,5.13-2.08,7.93-7.07,9.22-3.63.94-7.3,2.35-11.08.54-.48-2.09-1-4.18-1.43-6.27l-.9-4.66a12.89,12.89,0,0,1,1.3-1.26c4.28-3.1,7.27-7.27,7.83-12.43.59-5.41.13-10.93.13-16.5l-6.82-1,.14-1c2.34.26,3.14,0,5.82.31-1.15-4.55-.8-8.65-1.93-13.14-5.75-.76-8.63-.06-11.63,3.54-2.55,3.06-4.66,6.49-7,9.76l0,0-.75.51h0c-3.34,3.64-7.56,4.53-12.36,3.63-.33,3.93-.64,7.61-1,11.6a63.75,63.75,0,0,0-1.74-7.69,5.28,5.28,0,0,0-6.5-3.48c-2.57.75-4,3.44-3.55,6.5.73,4.37,3,7.38,7.46,8.5A2.63,2.63,0,0,1,191,471a18.32,18.32,0,0,0,.66,2.7,65.74,65.74,0,0,0,10.81,23.34c-5.75.26-10.83.48-15.91.75A7.12,7.12,0,0,1,184,497.56Z" transform="translate(-46.11 -378.51)"/><path id="Path_3461" data-name="Path 3461" class="cls-11" d="M207.17,449c2.3-3.27,4.41-6.7,7-9.76,3-3.6,5.88-4.3,11.63-3.54,1.14,4.48,2.81,8.9,2.85,13.84-2.69-.3-4.41-.76-6.74-1l-.14.95,6.82,1c0,5.57.46,11.09-.13,16.5-.56,5.15-3.55,9.33-7.83,12.43a11.89,11.89,0,0,0-1.3,1.26c-2.31.46-4.61,1-6.94,1.38-3.63.59-6.93-.78-10.28-1.85l-.17-.1.18.1c.62.53,1.17,1.4,1.88,1.56,5.39,1.26,10.82,2.4,16.23,3.57.48,2.09.95,4.18,1.43,6.27.62,3,3.13,3,5.35,3.45,2.55.53,5.11,1,7.66,1.53a23,23,0,0,1-16.82,12.95c-9.32,1.85-17.77-.83-25.54-5.93-2.58-1.7-5.05-3.56-7.57-5.35a10.42,10.42,0,0,1,1.91-.46c5.07-.27,10.15-.49,15.9-.75a65.75,65.75,0,0,1-10.81-23.34,19.3,19.3,0,0,1-.65-2.7,2.63,2.63,0,0,0-2.31-2.45c-4.43-1.12-6.74-4.13-7.46-8.5-.51-3,1-5.74,3.55-6.49a5.27,5.27,0,0,1,6.5,3.48,61.06,61.06,0,0,1,1.73,7.69c.34-4,.65-7.68,1-11.6,4.8.9,9,0,12.36-3.63.26.3.56.9.79.88,2.2-.23,4.39-.55,6.58-.85a4.14,4.14,0,0,0-2.7-1C209.77,448.63,208.47,448.87,207.17,449Zm2.67,8c0,.64,1.15,1.78,1.63,1.7a2.69,2.69,0,0,0,1.9-1.7c.1-.64-3.57-.7-3.53,0Zm17.54,0c-1.29-.92-2-1.81-2.72-1.82s-1.83,1.12-1.75,1.55a2.81,2.81,0,0,0,1.69,1.95c.62.12,1.46-.83,2.78-1.68Zm-37.85,5.45c.68-3.33-.43-6.2-2.21-6.79a2.41,2.41,0,0,0-3.19,1.25h0c4.72-1.46,4.32,2.41,5.41,5.53Zm2.95,3.56c-1.23-.9-1.94-1.82-2.56-1.76a2.51,2.51,0,0,0-1.66,1.69c-.09.42.93,1.53,1.5,1.56s1.41-.72,2.72-1.49Zm17.74,4.2c2.8.53,5.64-.62,7.55,1.94a4.48,4.48,0,0,0-2-2.7,5,5,0,0,0-5.53.77Zm6.94-9,1.36,3.46-3.19,1.1.19.68a13.2,13.2,0,0,0,3.66-.92c.49-.28.69-1.78.41-2.47s-1.34-1.06-2.43-1.85Z" transform="translate(-46.11 -378.51)"/><path id="Path_3462" data-name="Path 3462" class="cls-12" d="M153.78,534.23c.26.33.69.62.77,1q1.69,8.1,3.33,16.24l-7,1.41c-1-5.16-1.58-10.41-3-15.45a29.8,29.8,0,0,1,1.19-19.3c2.11-2.53,4.18-5.09,6.35-7.56a7.07,7.07,0,0,1,1.93-1.09c-2.5,3.38-4.67,7-4.78,11.28-.07,2.87.54,5.76.78,8.64a11,11,0,0,1-.22,2.07c-.44-.53-.78-1.25-1.34-1.53s-1.15.13-1.75.22a17,17,0,0,0,1.52,3.47C151.89,534.1,153,534,153.78,534.23Z" transform="translate(-46.11 -378.51)"/><path id="Path_3463" data-name="Path 3463" class="cls-12" d="M184.69,498.3c2.52,1.78,5,3.64,7.58,5.34,7.77,5.11,16.22,7.79,25.53,5.94a23,23,0,0,0,16.83-13l3.86-.18c-1.33,1.88-2.63,3.8-4,5.64a26.2,26.2,0,0,1-19.62,10.54,36,36,0,0,1-17.17-3.16,52.34,52.34,0,0,1-14.77-9.5,4.78,4.78,0,0,0-1.2-.59l1.57-1,1.47-.07Z" transform="translate(-46.11 -378.51)"/><path id="Path_3464" data-name="Path 3464" class="cls-13" d="M157.83,508.9l-.5.66Z" transform="translate(-46.11 -378.51)"/><path id="Path_3465" data-name="Path 3465" class="cls-14" d="M337.16,753l-3.75-14.84c-.06-.28-.12-.56-.17-.83l-.79-2.44-.17-.81-.51-1.59c-6.22-20.7-11.77-41.57-15.25-63.25h-2.75c-32.48,0-65,0-97.45.05-6.57,0-12.79-.91-18.49-4.35-4.36-3.14-8.23-6.71-10.51-11.77,1.4-.3,2.77-.27,3.78-.86,5.74-3.34,11.38-6.83,17.06-10.27l1.34-.32c1.34,2.18,3.64,2.85,5.84,3.61,9.1,3.15,18.61,3.72,28.08,3.81,24.27.24,48.54.05,72.81.1a15,15,0,0,1,14.67,13.08c.89,6.4.64,12.94,1.1,19.41a118.47,118.47,0,0,0,1.66,14.91c1.61,8,3.7,15.92,5.7,23.85,5.34,21.27,10.77,42.5,16.09,63.77.91,3.66,1.42,7.4,2.12,11.11L349.2,797a10.9,10.9,0,0,1-1.06-2.17q-5.17-20.15-10.27-40.31c-.2-.39-.41-.77-.62-1.16A.73.73,0,0,0,337.16,753Z" transform="translate(-46.11 -378.51)"/><path id="Path_3466" data-name="Path 3466" class="cls-12" d="M208.16,642.07c-5.67,3.44-11.32,6.93-17,10.27-1,.59-2.38.56-3.79.86,2.29,5.06,6.16,8.63,10.51,11.77l-21.84,0c.62-4.09,1.67-8.17,1.78-12.27.24-8.58-2-16.77-5-24.73-1.49-4-3.39-7.77-5.06-11.67a11,11,0,0,1-.5-2,14.33,14.33,0,0,0,9.28,2.42l4,10,.8-.18,1.27-9.77,17.26.14.42,6.19C200.67,630.31,202.66,636.93,208.16,642.07Zm-16.83-18.52-3.75,2.64c.45.38,1.11,1.17,1.32,1.07,1.34-.68,2.58-1.55,3.86-2.35Zm-5.71,17.34c-.59.91-1.21,1.46-1.16,1.93a1.77,1.77,0,0,0,1.18,1.25c.47,0,1.38-.74,1.34-1.09,0-.59-.69-1.13-1.36-2.09Z" transform="translate(-46.11 -378.51)"/><path id="Path_3467" data-name="Path 3467" class="cls-15" d="M332.45,734.92c.26.82.53,1.63.79,2.44C333,736.55,332.71,735.74,332.45,734.92Z" transform="translate(-46.11 -378.51)"/><path id="Path_3468" data-name="Path 3468" class="cls-15" d="M331.77,732.52l.51,1.59Z" transform="translate(-46.11 -378.51)"/><path id="Path_3469" data-name="Path 3469" class="cls-16" d="M357.58,795.4c-.7-3.71-1.21-7.46-2.12-11.11-5.32-21.27-10.75-42.51-16.1-63.77-2-7.93-4.08-15.85-5.7-23.86A116.63,116.63,0,0,1,332,681.75c-.47-6.46-.22-13-1.1-19.41a15,15,0,0,0-14.67-13.07c-24.27,0-48.55.14-72.82-.1-9.46-.09-19-.67-28.08-3.81-2.2-.76-4.5-1.43-5.83-3.62,3.89-2.36,7.71-4.87,11.7-7.07a95.47,95.47,0,0,1,40.82-12l12.23-.49h13c7.81-.13,15.63-.35,23.44-.37q29.2-.09,58.42,0a15.5,15.5,0,0,1,2.44.39c1.74.49,3.49.95,5.22,1.46,4,1.19,7.07,3.82,10.06,6.56l1.5,2.26a67.62,67.62,0,0,1,2.89,6.24c3.13,8.76,6.13,17.57,9.18,26.36a22.55,22.55,0,0,0,.52,2.47q11.88,35.84,23.8,71.66c.1.29.25.56.38.85q2.28,6.78,4.55,13.56,3.67,11.22,7.34,22.44c.29.87.45,1.78.67,2.68l-15.35,7.4-1.35.09a15.07,15.07,0,0,0-.6-2.47c-4.19-9.56-8.23-19.2-12.69-28.64-4.86-10.3-10.35-20.3-15.15-30.62-3.72-8-7.12-16.15-10.1-24.44-7.15-19.9-11.5-40.52-15.56-61.23a20.23,20.23,0,0,0-10.64-14.7C353.33,622.61,342,622,338,622.84c2.54,1.38,5.9,2.69,8.64,4.81,3.75,2.9,6.8,6.5,7.27,11.65.36,4.06,1,8.1,1.5,12.15l2.16,17.88c.38,3.3.76,6.61,1.15,9.91q2.21,18.66,4.42,37.31c.9,7.52,1.86,15,2.79,22.55.16,1.67.26,3.35.48,5,.41,3,.89,6,1.35,9,.32,3.46.58,6.92,1,10.37.84,7.36,1.82,14.7,2.6,22.06.26,2.53.1,5.1.12,7.66l-13.44,2.33Z" transform="translate(-46.11 -378.51)"/><path id="Path_3470" data-name="Path 3470" class="cls-17" d="M371.54,622.2a15.64,15.64,0,0,0-2.45-.4q-29.2,0-58.41,0c-7.82,0-15.63.25-23.45.38.17-.91.34-1.82.5-2.73H391.5a3.73,3.73,0,0,0-2-.44H310.13c-6.36,0-12.72,0-19.09,0-2.51,0-3.38-1.17-2.93-3.68.71-3.95,1.36-7.91,2.1-11.85,2.11-11.21,4.21-22.43,6.4-33.63,1.66-8.54,3.45-17.05,5.19-25.58,5.42-.06,10.83-.17,16.25-.17q34.67,0,69.33,0h.93c5.12,0,10.24,0,15.36.07,3.08,0,4.19,1.33,3.64,4.2q-6.39,33.42-12.81,66.83c-.19,1-.7,1.86-1,2.81a2.18,2.18,0,0,0,.07,1.29c.84,2,.33,2.88-1.85,3l-3,.11-1.78,0ZM344.32,585a7,7,0,0,0,1.64-.28c1.64-.56,3.33-1,2-3.5-.73-1.36.17-2.64,1.44-3.55a11.13,11.13,0,0,0,1.54-1.68,8.15,8.15,0,0,0-2.37-1.2c-3.1-.43-6.32,1.55-8.06,4.78C338.91,582.52,340.38,585,344.32,585Z" transform="translate(-46.11 -378.51)"/><path id="Path_3471" data-name="Path 3471" class="cls-18" d="M355.72,823.15c-3.84-3.42-3.51-8-3.71-12.55a49.32,49.32,0,0,0-1-5.9L349.21,797l8.36-1.62.49.1c.72,4.4,1.61,8.79,2.1,13.21.35,3.14,2.1,4.95,4.5,6.59,4.12,2.82,8.85,4,13.52,5.36-1.05.89-2.09,2.51-3.17,2.54C368.59,823.39,362.15,823.2,355.72,823.15Z" transform="translate(-46.11 -378.51)"/><path id="Path_3472" data-name="Path 3472" class="cls-15" d="M337.26,753.38l.61,1.15Z" transform="translate(-46.11 -378.51)"/><path id="Path_3473" data-name="Path 3473" class="cls-11" d="M422.3,786.14l15.35-7.4c3.44,7.68,6.84,15.39,10.4,23,.51,1.1,1.76,1.85,2.67,2.77,1.85,1,3.68,2.07,5.54,3.07.94.5,1.93.9,2.89,1.34-.42.8-.84,1.6-1.25,2.42l-4.35,8.8c-5.26.06-9.68-2.32-14.05-4.86a13,13,0,0,1-5.28-5.64c-3.48-7-7.2-13.86-10.8-20.8C423,788,422.67,787.05,422.3,786.14Z" transform="translate(-46.11 -378.51)"/><path id="Path_3474" data-name="Path 3474" class="cls-18" d="M199.78,616.86l-17.27-.13-6,0a14.33,14.33,0,0,1-9.28-2.42v0l-.49-.45c-3.33-3-4-7.16-5.12-11.17-1.6-7.4-3.18-14.81-4.83-22.2-1.13-5-2.37-10-3.56-15.08-.52-2.56-1-5.13-1.54-7.7-.15-.75-.21-1.52-.31-2.27l7-1.06c2.47,12.16,5.05,24.29,7.37,36.48,1.57,8.29,5.82,14.22,14.17,16.21a151.66,151.66,0,0,0,17.1,2.56c7.64.91,15.31,1.58,23,2.42,9.48,1,19,2.15,28.45,3.21a18.39,18.39,0,0,1,9.08,3.47h-5.13c-2.34-.38-4.67-1-7-1.1-3.71-.25-7.44-.24-11.16-.3Q217,617.08,199.78,616.86Z" transform="translate(-46.11 -378.51)"/><path id="Path_3475" data-name="Path 3475" class="cls-13" d="M166.7,613.87l.49.45Z" transform="translate(-46.11 -378.51)"/><path id="Path_3476" data-name="Path 3476" class="cls-19" d="M408.27,823.34H413c-.05.87-.1,1.57-.14,2.28a8.86,8.86,0,0,1-2.15.57q-29.14,0-58.29,0c-.39,0-.77-.06-1.16-.09-1.13-2-.77-2.82,1.43-3,1-.06,2,0,3,0,6.43.05,12.87.23,19.29.05,1.08,0,2.11-1.66,3.17-2.55,1.63-3.2,3.24-6.42,4.91-9.61a19,19,0,0,1,1.52-2.15c5.26,1.85,10.53,3.68,15.76,5.61.47.17.71.94,1.06,1.44L399,821.52l-1.2,1.58c.3.15.43.26.56.26Z" transform="translate(-46.11 -378.51)"/><path id="Path_3477" data-name="Path 3477" class="cls-19" d="M426.27,826.13c-1.14-2-.78-2.81,1.4-3,1-.07,2-.07,2.95-.1,5.76.08,11.52,0,17.27.31,2.8.15,4.54-.8,5.66-3.23l4.35-8.8c.41-.81.84-1.61,1.25-2.42,5.22,1.76,10.44,3.54,15.67,5.28,1,.35,1.8.8,1.55,2.07L474,821.53l-1.36,1.81H488c-.05.88-.08,1.59-.12,2.3a8.56,8.56,0,0,1-2.17.56q-29.13,0-58.28,0C427,826.21,426.65,826.15,426.27,826.13Z" transform="translate(-46.11 -378.51)"/><path id="Path_3478" data-name="Path 3478" class="cls-12" d="M158.35,554.4l-7,1.05c-.17-.86-.33-1.72-.5-2.58l7-1.41.43,0c0,.91,0,1.83,0,2.75Z" transform="translate(-46.11 -378.51)"/><path id="Path_3479" data-name="Path 3479" class="cls-11" d="M474,821.53c.8-1.75,1.6-3.49,2.39-5.24,1.64.63,3.25,1.32,4.91,1.89,2.35.8,2.54,2.32,1.58,4.3-1.1-.16-2.2-.36-3.3-.47C477.7,821.83,475.84,821.68,474,821.53Z" transform="translate(-46.11 -378.51)"/><path id="Path_3480" data-name="Path 3480" class="cls-18" d="M474,821.53c1.86.16,3.72.3,5.58.48,1.1.12,2.2.31,3.3.47l-.06.86H472.62Z" transform="translate(-46.11 -378.51)"/><path id="Path_3481" data-name="Path 3481" class="cls-11" d="M257.49,618.75a18.2,18.2,0,0,0-9.08-3.47c-9.49-1.07-19-2.18-28.45-3.22-7.66-.84-15.33-1.51-23-2.42a149.74,149.74,0,0,1-17.1-2.56c-8.35-2-12.6-7.92-14.17-16.21-2.31-12.18-4.9-24.32-7.36-36.47l0-.15,15.52-2.66c1.2-.21,2.25-.42,2.56,1.32.75,4.18,1.63,8.35,2.45,12.53l.38,1.37q2.52,12.59,5,25.15l-4,2.15.25.65h4.34l17.61,2.6c4.43.68,8.84,1.58,13.3,2,4.92.44,9.69,1.67,14.59,2.21s9.78,1.55,14.7,2.07c5.68.6,11.4.89,17.1,1.32a17.87,17.87,0,0,0,2.07,0c4.51-.4,9-.81,13.52-1.27a7.87,7.87,0,0,1,7,2.2,16.56,16.56,0,0,0,2,1.52c-.06.67-.12,1.35-.2,2-.33,2.76-.67,5.53-1,8.29l-.59,0-.52-.37-.23.3.73.4-.06.71-3.2,0-3.26-1.65-.47-.47-.86-.71-.15.28,1,.42.47.47,1.38,1.68-3.25-.06c-1.71-1-3.37-2.07-5.15-2.88-.55-.25-1.46.27-2.2.44l-6.89,2.51Zm25.13-2.56.47.47.18.1-.19-.1-.46-.46-.47-.47-.47-.47-.46-.46-.46-.47-.47-.47-.47-.46-.46-.47-.47-.46-.46-.47-.19-.11.19.11.47.46.46.47.47.47.46.46.47.47.47.46.46.47.47.46Z" transform="translate(-46.11 -378.51)"/><path id="Path_3482" data-name="Path 3482" class="cls-12" d="M184.27,592q-2.52-12.57-5-25.14c.36.12.77.43,1.07.35a2.63,2.63,0,0,0,1.45-.89,1.38,1.38,0,0,0-.29-1.37,2.66,2.66,0,0,0-1.67-.13c-.34.05-.63.43-.94.66-.82-4.18-1.7-8.34-2.45-12.53-.31-1.74-1.36-1.52-2.57-1.32q-7.76,1.35-15.52,2.66c0-.92,0-1.84,0-2.75,5.15-.94,10.29-2,15.47-2.75,1.6-.24,1.94-.75,1.61-2.22-.5-2.25-.86-4.54-1.27-6.81-.17-1-1-2.21.72-2.62s2,.89,2.3,2.16c1.93,7.63,3.78,15.28,5.9,22.86a37.11,37.11,0,0,0,3.67,9.17c3.55,5.9,9.8,7.89,16.46,5.84a21,21,0,0,1,2.94-.48l.73,2.27c-1.31,5.31-2.63,10.63-3.92,16-.2.82-.28,1.66-.42,2.5l-17.61-2.6C184.68,593.83,184.47,592.89,184.27,592Zm4.61-4.21,3.9-2.93c-.49-.35-1.16-1.1-1.44-1a40.59,40.59,0,0,0-3.77,2.19Z" transform="translate(-46.11 -378.51)"/><path id="Path_3483" data-name="Path 3483" class="cls-18" d="M287.93,601.55c-2.4-.71-4.8-1.44-7.21-2.11-1.85-.52-4-.51-5.5-1.55a12.46,12.46,0,0,1-4.12-5.08c-4.45-10.76-8.64-21.63-12.94-32.46-.2-.5-.48-1-.73-1.45V558c3.12-6.34,2.83-12.85,1-19.44h.92l6,17.28,10.7,30.69a9.15,9.15,0,0,0,5.62,5.81c2.46.91,5,1.62,7.51,2.43Z" transform="translate(-46.11 -378.51)"/><path id="Path_3484" data-name="Path 3484" class="cls-12" d="M259.34,538.59h-.91L257,535.65l2.33-.89,12-3.73,3.29-1c.8,1.19,1.73,2.4-.43,3.2Z" transform="translate(-46.11 -378.51)"/><path id="Path_3485" data-name="Path 3485" class="cls-12" d="M259.33,534.76l-2.33.89L249.36,522l.28-.45c.86.6,2,1,2.54,1.83C254.65,527.1,257,531,259.33,534.76Z" transform="translate(-46.11 -378.51)"/><path id="Path_3486" data-name="Path 3486" class="cls-12" d="M255.18,561.74l0,6-9.42-2,0-.37a5,5,0,0,1,1.37-.41,9.44,9.44,0,0,0,6.89-2.75A4.26,4.26,0,0,1,255.18,561.74Z" transform="translate(-46.11 -378.51)"/><path id="Path_3487" data-name="Path 3487" class="cls-12" d="M233,543.27a24.56,24.56,0,0,1,1.13-3.36c.2-.4.92-.55,1.4-.81.23.51.69,1,.63,1.51a8.64,8.64,0,0,1-.83,2.86,2.21,2.21,0,0,1-1.53.92C233.6,544.43,233.25,543.57,233,543.27Z" transform="translate(-46.11 -378.51)"/><path id="Path_3488" data-name="Path 3488" class="cls-12" d="M267.18,519.11c-.36.49-.53.95-.81,1s-1.08.1-1.24-.14a27.57,27.57,0,0,1-2.06-3.53c-.12-.24.23-.86.52-1.11a1,1,0,0,1,1,0C265.52,516.59,266.34,517.85,267.18,519.11Z" transform="translate(-46.11 -378.51)"/><path id="Path_3489" data-name="Path 3489" class="cls-12" d="M229.75,587.05a28.74,28.74,0,0,1-3.36,1.6,4.48,4.48,0,0,1-2.09-.08,2,2,0,0,1-.07-1.16,43.16,43.16,0,0,1,4.38-1.71C228.76,585.66,229.15,586.32,229.75,587.05Z" transform="translate(-46.11 -378.51)"/><path id="Path_3490" data-name="Path 3490" class="cls-12" d="M196.27,528.06a22.42,22.42,0,0,1-1.07,3.18c-.22.4-.92.54-1.41.8-.24-.49-.72-1-.66-1.47a9,9,0,0,1,.86-2.82c.21-.43,1-1,1.3-.86S196,527.74,196.27,528.06Z" transform="translate(-46.11 -378.51)"/><path id="Path_3491" data-name="Path 3491" class="cls-12" d="M206.56,562.7c-.35.54-.49,1-.76,1.11a1.78,1.78,0,0,1-1.24-.15,1.73,1.73,0,0,1-.7-.9c-.42-1.16-.77-2.35-1.15-3.52.43-.09,1.11-.38,1.23-.22C204.88,560.2,205.71,561.47,206.56,562.7Z" transform="translate(-46.11 -378.51)"/><path id="Path_3492" data-name="Path 3492" class="cls-12" d="M249.14,601.69c-.4-.32-.9-.53-1-.87s0-1.08.29-1.2a24,24,0,0,1,3.64-1.49,1.25,1.25,0,0,1,1.09.57c.11.42,0,1.21-.33,1.37C251.61,600.67,250.39,601.21,249.14,601.69Z" transform="translate(-46.11 -378.51)"/><path id="Path_3493" data-name="Path 3493" class="cls-12" d="M242.79,503.06c.75.56,1.41.88,1.38,1.05a42.6,42.6,0,0,1-1.3,4.48c-.07.18-1.12.23-1.14.17a4.42,4.42,0,0,1-.34-2.06A29.7,29.7,0,0,1,242.79,503.06Z" transform="translate(-46.11 -378.51)"/><path id="Path_3494" data-name="Path 3494" class="cls-12" d="M153.78,534.23c-.77-.19-1.89-.13-2.24-.62a16.68,16.68,0,0,1-1.52-3.46c.6-.1,1.3-.44,1.74-.22s.9,1,1.35,1.53C153.33,532.38,153.56,533.31,153.78,534.23Z" transform="translate(-46.11 -378.51)"/><path id="Path_3495" data-name="Path 3495" class="cls-12" d="M247.6,568c.94,2,1.66,3.53,2.3,5.07a6.21,6.21,0,0,1-1.19.64,40,40,0,0,1-2.45-4C246.17,569.55,246.81,569,247.6,568Z" transform="translate(-46.11 -378.51)"/><path id="Path_3496" data-name="Path 3496" class="cls-20" d="M256.27,501.36c-.82.59-1.33,1.24-1.79,1.21s-.95-.71-1.42-1.1c.47-.49.88-1.22,1.45-1.39C254.85,500,255.45,500.74,256.27,501.36Z" transform="translate(-46.11 -378.51)"/><path id="Path_3497" data-name="Path 3497" class="cls-20" d="M252,547.08c-.83.58-1.36,1.23-1.81,1.18s-.93-.75-1.39-1.17c.49-.48.91-1.18,1.49-1.34C250.6,545.66,251.18,546.44,252,547.08Z" transform="translate(-46.11 -378.51)"/><path id="Path_3498" data-name="Path 3498" class="cls-20" d="M244.09,583.78c-.8.63-1.29,1.32-1.74,1.29s-.95-.72-1.42-1.12c.46-.49.84-1.21,1.4-1.4C242.66,582.45,243.27,583.18,244.09,583.78Z" transform="translate(-46.11 -378.51)"/><path id="Path_3499" data-name="Path 3499" class="cls-20" d="M169,516.17c-.83.61-1.33,1.27-1.79,1.24s-1-.72-1.43-1.12c.47-.49.87-1.22,1.43-1.38C167.61,514.81,168.21,515.55,169,516.17Z" transform="translate(-46.11 -378.51)"/><path id="Path_3500" data-name="Path 3500" class="cls-20" d="M210.1,546.33c-.67-.79-1.45-1.33-1.38-1.7.12-.56.83-1,1.28-1.5.44.44,1.17.84,1.23,1.32S210.65,545.47,210.1,546.33Z" transform="translate(-46.11 -378.51)"/><path id="Path_3501" data-name="Path 3501" class="cls-20" d="M206.82,578.92l-.72-2.27c.76.13,2,0,2.18.43C208.86,578.28,208,578.84,206.82,578.92Z" transform="translate(-46.11 -378.51)"/><path id="Path_3502" data-name="Path 3502" class="cls-20" d="M262.49,530c-.61-.86-1.27-1.37-1.24-1.85s.76-1.27,1.16-1.26a1.74,1.74,0,0,1,1.3,1.17C263.77,528.53,263.1,529.09,262.49,530Z" transform="translate(-46.11 -378.51)"/><path id="Path_3503" data-name="Path 3503" class="cls-20" d="M224.91,525.55c-.58-.94-1.23-1.53-1.14-2s.86-.87,1.33-1.3c.4.48,1.09.94,1.13,1.45S225.58,524.68,224.91,525.55Z" transform="translate(-46.11 -378.51)"/><path id="Path_3504" data-name="Path 3504" class="cls-20" d="M167.32,538.89c-.92.59-1.51,1.25-1.93,1.16s-.87-.87-1.29-1.35c.47-.4.93-1.09,1.43-1.13S166.47,538.22,167.32,538.89Z" transform="translate(-46.11 -378.51)"/><path id="Path_3505" data-name="Path 3505" class="cls-20" d="M229.92,564.29c-.89.56-1.44,1.18-1.92,1.12s-1.21-.83-1.18-1.23a1.77,1.77,0,0,1,1.25-1.22C228.55,563,229.06,563.64,229.92,564.29Z" transform="translate(-46.11 -378.51)"/><path id="Path_3506" data-name="Path 3506" class="cls-20" d="M195.09,512.17c-.83.59-1.42,1.31-1.8,1.21-.55-.14-.94-.87-1.41-1.36.47-.4.93-1.08,1.42-1.11S194.28,511.56,195.09,512.17Z" transform="translate(-46.11 -378.51)"/><path id="Path_3507" data-name="Path 3507" class="cls-13" d="M257.43,558v.88l-1.32,1.47Z" transform="translate(-46.11 -378.51)"/><path id="Path_3508" data-name="Path 3508" class="cls-13" d="M255.67,560.82c-.17.31-.34.62-.5.93Z" transform="translate(-46.11 -378.51)"/><path id="Path_3509" data-name="Path 3509" class="cls-13" d="M256.12,560.35l-.48.48Z" transform="translate(-46.11 -378.51)"/><path id="Path_3510" data-name="Path 3510" class="cls-11" d="M259.34,538.58l14.89-5.37q4,11.73,7.9,23.46c2.2,6.51,4.5,13,6.53,19.55.62,2,2.36,2.26,3.6,3.3l-3.05,15.28c-2.5-.8-5-1.52-7.5-2.43a9.15,9.15,0,0,1-5.63-5.8q-5.35-15.35-10.7-30.7Q262.37,547.23,259.34,538.58Z" transform="translate(-46.11 -378.51)"/><path id="Path_3511" data-name="Path 3511" class="cls-21" d="M289.21,594.8l3.05-15.27,6.2-32.43c.35-1.84,1.1-3.22,3.34-2.86-1.74,8.53-3.53,17-5.19,25.58-2.19,11.2-4.29,22.42-6.4,33.63-.74,3.94-1.38,7.9-2.1,11.85-.45,2.51.42,3.67,2.93,3.68,6.37,0,12.73,0,19.09,0h79.38a3.82,3.82,0,0,1,2,.43H287.73l-.7-.56-1.47-1.14c.33-2.76.67-5.53,1-8.29.08-.67.14-1.35.2-2l1.17-5.87Q288.58,598.17,289.21,594.8Z" transform="translate(-46.11 -378.51)"/><path id="Path_3512" data-name="Path 3512" class="cls-18" d="M220.19,485.37c-5.41-1.17-10.84-2.3-16.23-3.57-.71-.17-1.26-1-1.88-1.56h0c3.34,1.07,6.65,2.43,10.28,1.85,2.33-.38,4.63-.92,6.94-1.39Z" transform="translate(-46.11 -378.51)"/><path id="Path_3513" data-name="Path 3513" class="cls-22" d="M207.17,449c1.3-.16,2.6-.4,3.91-.44a4.24,4.24,0,0,1,2.7,1c-2.2.3-4.39.63-6.59.85-.23,0-.52-.57-.79-.88h0l.75-.51Z" transform="translate(-46.11 -378.51)"/><path id="Path_3514" data-name="Path 3514" class="cls-8" d="M207.2,449l-.75.51Z" transform="translate(-46.11 -378.51)"/><path id="Path_3515" data-name="Path 3515" class="cls-18" d="M189.53,462.47c-1.09-3.12-.69-7-5.41-5.53a2.43,2.43,0,0,1,3.19-1.26h0C189.1,456.27,190.22,459.14,189.53,462.47Z" transform="translate(-46.11 -378.51)"/><path id="Path_3516" data-name="Path 3516" class="cls-10" d="M210.22,470.24a4.94,4.94,0,0,1,5.53-.76,4.43,4.43,0,0,1,2,2.69C215.86,469.61,213,470.76,210.22,470.24Z" transform="translate(-46.11 -378.51)"/><path id="Path_3517" data-name="Path 3517" class="cls-18" d="M217.16,461.19c1.09.79,2.14,1.16,2.42,1.85s.08,2.19-.4,2.47a13.2,13.2,0,0,1-3.66.92l-.19-.68,3.19-1.09Z" transform="translate(-46.11 -378.51)"/><path id="Path_3518" data-name="Path 3518" class="cls-23" d="M202.07,480.24l-.18-.1.18.11Z" transform="translate(-46.11 -378.51)"/><path id="Path_3519" data-name="Path 3519" class="cls-9" d="M199.78,616.86l34.4.49c3.72,0,7.45,0,11.16.29,2.35.16,4.68.73,7,1.11-1.15,0-2.3.1-3.45.12s-2.15-.18-2.17,1.55.92,1.8,2.21,1.8c4.39,0,8.77.06,13.16.1,0,.12-.06.24-.08.36a95.19,95.19,0,0,0-40.82,12c-4,2.19-7.8,4.7-11.7,7.07l-1.34.33c-5.5-5.15-7.49-11.76-8-19C200.06,621,199.92,618.93,199.78,616.86Zm16.05,11.07-3.23-3.85c-.4.36-1.19.95-1.14,1a38.73,38.73,0,0,0,2.67,3.84,15.37,15.37,0,0,0,1.7-1Zm24.57-5.82c-.84-.57-1.39-1.21-1.84-1.16s-.89.79-1.33,1.22c.48.46.91,1.17,1.47,1.3.36.08.91-.7,1.7-1.36Z" transform="translate(-46.11 -378.51)"/><path id="Path_3520" data-name="Path 3520" class="cls-12" d="M176.46,616.7l6,0-1.26,9.77-.8.19Z" transform="translate(-46.11 -378.51)"/><path id="Path_3521" data-name="Path 3521" class="cls-12" d="M191.33,623.55l1.43,1.35c-1.28.81-2.52,1.68-3.86,2.36-.21.1-.87-.69-1.32-1.07Z" transform="translate(-46.11 -378.51)"/><path id="Path_3522" data-name="Path 3522" class="cls-24" d="M185.62,640.89c.67,1,1.31,1.5,1.36,2.09,0,.35-.87,1.1-1.34,1.08a1.74,1.74,0,0,1-1.18-1.24C184.41,642.34,185,641.8,185.62,640.89Z" transform="translate(-46.11 -378.51)"/><path id="Path_3523" data-name="Path 3523" class="cls-14" d="M417,788.74c-.65-.58-1.56-1-1.92-1.77-5.22-10.35-10.36-20.73-15.53-31.1-.41-.83-.88-1.62-1.32-2.43l-8.16-15.8c-1.5-2.8-3-5.6-4.49-8.38-10-18.4-19.16-37.18-24.07-57.7-.6-2.53-2.06-2.43-3.9-2.22l-2.16-17.88c-.5-4.05-1.13-8.09-1.5-12.15-.46-5.15-3.51-8.75-7.26-11.65-2.74-2.12-6.1-3.43-8.64-4.81,3.95-.83,15.28-.23,18.16,1.29a20.23,20.23,0,0,1,10.65,14.7c4,20.7,8.41,41.33,15.55,61.22,3,8.29,6.38,16.45,10.1,24.44,4.8,10.32,10.29,20.32,15.16,30.62,4.46,9.44,8.5,19.08,12.68,28.64a13.28,13.28,0,0,1,.6,2.47Z" transform="translate(-46.11 -378.51)"/><path id="Path_3524" data-name="Path 3524" class="cls-11" d="M371.5,793.17c.33,2.28.3,4.7,1.12,6.8.67,1.72,2.35,3,3.58,4.56,1.76,1,3.51,2,5.3,3,1,.53,2.07.92,3.12,1.38a19,19,0,0,0-1.53,2.15c-1.67,3.19-3.28,6.4-4.91,9.61-4.67-1.36-9.4-2.53-13.52-5.35-2.4-1.65-4.15-3.46-4.5-6.59-.49-4.43-1.38-8.81-2.1-13.21Z" transform="translate(-46.11 -378.51)"/><path id="Path_3525" data-name="Path 3525" class="cls-18" d="M417,788.74l4-2.51,1.35-.09c.37.91.67,1.85,1.12,2.72,3.6,6.93,7.33,13.81,10.8,20.8a13,13,0,0,0,5.29,5.64c4.37,2.54,8.78,4.91,14,4.86-1.12,2.42-2.86,3.38-5.66,3.23-5.74-.31-11.51-.24-17.26-.32-3-2.21-3.78-5.23-3.83-8.88-.05-3.23-1.09-6.44-1.69-9.66-1.76-3.58-3.5-7.18-5.3-10.74C418.93,792.08,417.93,790.42,417,788.74Z" transform="translate(-46.11 -378.51)"/><path id="Path_3526" data-name="Path 3526" class="cls-21" d="M262.1,622.32c-4.39,0-8.77-.1-13.16-.1-1.29,0-2.22-.07-2.21-1.8s1.09-1.53,2.17-1.55,2.3-.08,3.45-.12h5.14l4.84.06H272l4.61-.07,3.26.06,1.87,0,3.2,0,2.14.14.7.56c-.17.91-.33,1.82-.5,2.73l-13,0c-3.11-.14-6.22-.32-9.33-.38A14.14,14.14,0,0,0,262.1,622.32Z" transform="translate(-46.11 -378.51)"/><path id="Path_3527" data-name="Path 3527" class="cls-25" d="M262.1,622.31a14.88,14.88,0,0,1,2.82-.5c3.11.06,6.22.24,9.33.38l-12.23.49C262,622.55,262.07,622.43,262.1,622.31Z" transform="translate(-46.11 -378.51)"/><path id="Path_3528" data-name="Path 3528" class="cls-21" d="M344.32,585c-3.94,0-5.4-2.49-3.82-5.43,1.74-3.23,5-5.21,8.06-4.78a8.4,8.4,0,0,1,2.37,1.2,10.74,10.74,0,0,1-1.54,1.69c-1.27.91-2.17,2.19-1.44,3.55,1.34,2.5-.35,2.94-2,3.5A7.59,7.59,0,0,1,344.32,585Z" transform="translate(-46.11 -378.51)"/><path id="Path_3529" data-name="Path 3529" class="cls-11" d="M399,821.52l2.41-5.58c1.84.78,3.66,1.6,5.52,2.33s2.46,1.92,1.37,3.73Z" transform="translate(-46.11 -378.51)"/><path id="Path_3530" data-name="Path 3530" class="cls-18" d="M399,821.53l9.3.48c0,.44,0,.89-.05,1.33l-9.89,0c-.13,0-.26-.11-.56-.26Z" transform="translate(-46.11 -378.51)"/><path id="Path_3531" data-name="Path 3531" class="cls-12" d="M272,618.81h-9.62l6.89-2.51Z" transform="translate(-46.11 -378.51)"/><path id="Path_3532" data-name="Path 3532" class="cls-26" d="M272,618.81l-2.73-2.51c.74-.17,1.64-.69,2.19-.44,1.79.81,3.45,1.9,5.16,2.88Z" transform="translate(-46.11 -378.51)"/><path id="Path_3533" data-name="Path 3533" class="cls-23" d="M184.27,592c.2.93.4,1.86.61,2.8h-4.34l-.26-.65Z" transform="translate(-46.11 -378.51)"/><path id="Path_3534" data-name="Path 3534" class="cls-24" d="M178.86,565.44c.31-.23.6-.61.94-.66a2.66,2.66,0,0,1,1.67.13,1.38,1.38,0,0,1,.29,1.37,2.56,2.56,0,0,1-1.45.88c-.3.09-.71-.22-1.07-.35C179.11,566.36,179,565.9,178.86,565.44Z" transform="translate(-46.11 -378.51)"/><path id="Path_3535" data-name="Path 3535" class="cls-26" d="M281.69,618.78l-1.87,0-1.38-1.68v0Z" transform="translate(-46.11 -378.51)"/><path id="Path_3536" data-name="Path 3536" class="cls-26" d="M287,618.88l-2.14-.13L285,618a1.3,1.3,0,0,0,0-.34l.59,0Z" transform="translate(-46.11 -378.51)"/><path id="Path_3537" data-name="Path 3537" class="cls-23" d="M285,617.7a1.3,1.3,0,0,1,0,.34l-.73-.4a2.37,2.37,0,0,1,.23-.3A4.8,4.8,0,0,1,285,617.7Z" transform="translate(-46.11 -378.51)"/><path id="Path_3538" data-name="Path 3538" class="cls-26" d="M278,616.65l-1-.42.15-.28.85.71Z" transform="translate(-46.11 -378.51)"/><path id="Path_3539" data-name="Path 3539" class="cls-23" d="M283.08,616.67l.19.09-.18-.1Z" transform="translate(-46.11 -378.51)"/><path id="Path_3540" data-name="Path 3540" class="cls-26" d="M278.44,617.12l-.47-.47h0l.47.48Z" transform="translate(-46.11 -378.51)"/><path id="Path_3541" data-name="Path 3541" class="cls-23" d="M278.43,612l.46.46h0l-.46-.46Z" transform="translate(-46.11 -378.51)"/><path id="Path_3542" data-name="Path 3542" class="cls-23" d="M278.89,612.47l.47.47h0Z" transform="translate(-46.11 -378.51)"/><path id="Path_3543" data-name="Path 3543" class="cls-23" d="M279.36,612.94l.46.46h0l-.46-.46Z" transform="translate(-46.11 -378.51)"/><path id="Path_3544" data-name="Path 3544" class="cls-23" d="M280.29,613.87l-.46-.47h0l.46.47Z" transform="translate(-46.11 -378.51)"/><path id="Path_3545" data-name="Path 3545" class="cls-23" d="M278.43,612l-.19-.1.18.11Z" transform="translate(-46.11 -378.51)"/><path id="Path_3546" data-name="Path 3546" class="cls-23" d="M280.76,614.34l.46.46h0l-.47-.46Z" transform="translate(-46.11 -378.51)"/><path id="Path_3547" data-name="Path 3547" class="cls-23" d="M281.69,615.26l-.47-.47h0l.46.47Z" transform="translate(-46.11 -378.51)"/><path id="Path_3548" data-name="Path 3548" class="cls-23" d="M282.15,615.73l.47.47h0l-.47-.46Z" transform="translate(-46.11 -378.51)"/><path id="Path_3549" data-name="Path 3549" class="cls-23" d="M282.16,615.73l-.47-.47h0l.47.46Z" transform="translate(-46.11 -378.51)"/><path id="Path_3550" data-name="Path 3550" class="cls-23" d="M283.09,616.66l-.47-.47h0l.46.47Z" transform="translate(-46.11 -378.51)"/><path id="Path_3551" data-name="Path 3551" class="cls-23" d="M280.29,613.87l.47.47h0l-.47-.47Z" transform="translate(-46.11 -378.51)"/><path id="Path_3552" data-name="Path 3552" class="cls-12" d="M188.88,587.75l-1.3-1.72a38.14,38.14,0,0,1,3.77-2.19c.27-.12.94.63,1.43,1Z" transform="translate(-46.11 -378.51)"/><path id="Path_3553" data-name="Path 3553" class="cls-12" d="M215.83,627.93a13.91,13.91,0,0,1-1.7,1,36.52,36.52,0,0,1-2.67-3.84c-.05-.08.74-.67,1.14-1Z" transform="translate(-46.11 -378.51)"/><path id="Path_3554" data-name="Path 3554" class="cls-20" d="M240.4,622.11c-.78.66-1.34,1.44-1.7,1.36-.56-.13-1-.84-1.47-1.3.44-.44.84-1.15,1.33-1.22S239.56,621.54,240.4,622.11Z" transform="translate(-46.11 -378.51)"/><rect id="Rectangle_391" data-name="Rectangle 391" class="cls-27" x="163.27" y="75.77" width="4.47" height="4.47" rx="1.81"/><circle id="Ellipse_346" data-name="Ellipse 346" class="cls-28" cx="164.56" cy="76.98" r="0.59"/><rect id="Rectangle_392" data-name="Rectangle 392" class="cls-27" x="176.65" y="76.21" width="4.47" height="4.47" rx="1.81"/><circle id="Ellipse_347" data-name="Ellipse 347" class="cls-28" cx="177.94" cy="77.41" r="0.59"/><rect id="Rectangle_393" data-name="Rectangle 393" class="cls-12" x="141.48" y="84.76" width="5.56" height="5.56" rx="2.25"/><path id="Path_3555" data-name="Path 3555" class="cls-7" d="M347.55,790.15c-5.31-21.27-10.75-42.51-16.09-63.77-2-7.93-4.08-15.85-5.7-23.86a118.47,118.47,0,0,1-1.66-14.91c-.46-6.47-.21-13-1.1-19.41a14.8,14.8,0,0,0-.69-2.85H183.63a41.08,41.08,0,0,0,6.3,5.48c5.7,3.43,11.92,4.36,18.49,4.35,32.48-.1,65,0,97.45,0h2.74c3.49,21.68,9,42.55,15.26,63.25l.51,1.59.16.81c.27.81.53,1.62.79,2.44.06.27.12.55.17.83q1.88,7.43,3.76,14.84a.88.88,0,0,1,.1.35c.21.38.41.77.61,1.15q5.13,20.16,10.27,40.31a11.52,11.52,0,0,0,1.07,2.17l8.36-1.61C349,797.55,348.47,793.8,347.55,790.15Z" transform="translate(-46.11 -378.51)"/><g id="Group_175" data-name="Group 175"><path id="Path_3556" data-name="Path 3556" class="cls-29" d="M89.37,825.75c2.44.21,4.88.54,7.32.59,3.74.08,7.49,0,11.24-.07.22-.18.41-.45.66-.52,6-1.68,9.73-5.44,10.94-11.62,1.58-8.1,3.2-16.2,4.77-24.3.67-3.44,1.28-6.9,1.93-10.42H82.93c0,12.57,0,25.13,0,37.7C82.94,821,85.48,824.25,89.37,825.75Z" transform="translate(-46.11 -378.51)"/><path id="Path_3557" data-name="Path 3557" class="cls-30" d="M91.87,661.77c3.45-4.41,3.48-9.39,2.22-14.48-2.51-10.19-8.3-18.39-15.88-25.41-4.8-4.45-10.16-8-16.58-9.7-3.22-.83-6.52-1.1-9.65.42a18,18,0,0,0-2.71,2c.58.55,1.21,1.07,1.74,1.67,3.54,4,7,8.09,10.58,12.12,2.69,3.06,5.43,6.08,8.13,9.14q5.52,6.28,11,12.6c2,2.27,3.9,4.57,5.91,6.8,1.54,1.71,3.18,3.33,4.78,5Z" transform="translate(-46.11 -378.51)"/><path id="Path_3558" data-name="Path 3558" class="cls-31" d="M91.42,661.88c-1.6-1.66-3.24-3.28-4.78-5-2-2.23-3.94-4.53-5.91-6.8l-11-12.6c-2.7-3.06-5.44-6.08-8.13-9.14-3.54-4-7-8.09-10.58-12.12-.53-.6-1.16-1.12-1.74-1.68-2.83,2.9-3.41,6.53-3.08,10.32.75,8.41,4.6,15.52,9.63,22.07,5.58,7.27,12.27,13.18,21,16.44,4.82,1.8,9.65,2.26,14.23-.85Z" transform="translate(-46.11 -378.51)"/><path id="Path_3559" data-name="Path 3559" class="cls-31" d="M100.45,608.11c5.1-.67,8.08-4.08,10.26-8.27,4.48-8.63,5.24-17.91,4.41-27.4a45.64,45.64,0,0,0-5.36-18.5c-1.74-3.14-3.78-6.15-7.07-7.79-1.67-.83-3.67-1-5.52-1.43.21,3.26.47,6.53.63,9.8.35,7.08.66,14.17,1,21.25.21,4.67.45,9.34.63,14,.24,6.07.44,12.14.66,18.22Z" transform="translate(-46.11 -378.51)"/><path id="Path_3560" data-name="Path 3560" class="cls-30" d="M100.08,608c-.22-6.07-.41-12.15-.66-18.22-.18-4.67-.42-9.34-.63-14-.33-7.08-.63-14.17-1-21.25-.16-3.27-.41-6.53-.62-9.8-4.09.16-6.7,2.67-8.9,5.72a31.53,31.53,0,0,0-5.17,13c-2,11.3-1.36,22.34,3.37,32.94,1.78,4,4,7.7,7.91,10a28.29,28.29,0,0,0,5,1.83Z" transform="translate(-46.11 -378.51)"/><path id="Path_3561" data-name="Path 3561" class="cls-30" d="M141.27,589.42c-3.68-.67-6.48,1.09-9,3.39a27.3,27.3,0,0,0-6.7,10c-4.35,10.43-5.88,21.14-2.76,32.2a27.91,27.91,0,0,0,2.39,5.46,10.77,10.77,0,0,0,5.37,4.94l1.31.36.6,0c.23-2,.38-4,.69-6.06q1.76-11.26,3.58-22.52Q139,603.29,141.27,589.42Z" transform="translate(-46.11 -378.51)"/><path id="Path_3562" data-name="Path 3562" class="cls-31" d="M141.27,589.42l-4.53,27.73q-1.81,11.26-3.58,22.52c-.31,2-.46,4-.69,6.07,3.33.46,6-.94,8.35-3.07a31.13,31.13,0,0,0,8.37-13.62c3-9,4.14-18.25,1.76-27.64-.93-3.7-2.28-7.26-5.31-9.76A22,22,0,0,0,141.27,589.42Z" transform="translate(-46.11 -378.51)"/><path id="Path_3563" data-name="Path 3563" class="cls-30" d="M66.07,699.07c-2.82,1.44-4,4-4.5,6.9-1,5.23.23,10.19,2.18,15,3.44,8.46,8.65,15.54,16.61,20.29,4,2.37,8.23,3.51,12.79,1.51.15-.2.31-.39.47-.58a5.59,5.59,0,0,0-.38-.87c-2.18-3.39-4.35-6.78-6.56-10.15q-10-15.25-20-30.49A8.94,8.94,0,0,1,66.07,699.07Z" transform="translate(-46.11 -378.51)"/><path id="Path_3564" data-name="Path 3564" class="cls-31" d="M66.07,699.07a8.26,8.26,0,0,0,.65,1.6q10,15.26,20,30.49,3.31,5.05,6.56,10.15a5.7,5.7,0,0,1,.38.88l.47-.08c4-3.86,4.36-8.7,3.39-13.67-2.41-12.35-8.71-22.15-19.73-28.56a12.57,12.57,0,0,0-9.31-1.75A16.57,16.57,0,0,0,66.07,699.07Z" transform="translate(-46.11 -378.51)"/><path id="Path_3565" data-name="Path 3565" class="cls-30" d="M169.46,643.81c-2.5-2.34-5.47-2.27-8.5-1.57a28.08,28.08,0,0,0-12.77,7.31c-6.21,5.77-10.95,12.49-12.61,21-.74,3.81-.52,7.54,2.26,10.66H138c3.79-4.46,7.56-8.94,11.36-13.39,5.86-6.85,11.75-13.68,17.6-20.55C167.86,646.19,168.62,645,169.46,643.81Z" transform="translate(-46.11 -378.51)"/><path id="Path_3566" data-name="Path 3566" class="cls-30" d="M166,707.77a7.58,7.58,0,0,0-6.2-3.51,23.69,23.69,0,0,0-12.8,2.67,41.55,41.55,0,0,0-18.54,16.94,23.38,23.38,0,0,0-1.72,3.82,11.86,11.86,0,0,0,.47,9.85l.41.14a5.54,5.54,0,0,1,.82-1Q136,730.82,143.52,725c4.65-3.62,9.28-7.27,13.95-10.87C160.27,712,163.13,709.88,166,707.77Z" transform="translate(-46.11 -378.51)"/><path id="Path_3567" data-name="Path 3567" class="cls-32" d="M82.93,779.4h43.3c-.65,3.52-1.26,7-1.93,10.43-1.58,8.1-3.19,16.2-4.77,24.3-1.21,6.18-5,9.94-10.94,11.63-.25.07-.44.34-.66.51,4.75-.06,9.51-.11,14.27-.2a13.68,13.68,0,0,0,1.89-.28c4.46-1.72,6.76-5,6.76-9.76q0-17.62,0-35.24V779c.51-.05,1-.12,1.52-.21a2.43,2.43,0,0,0,2-2.56,2.37,2.37,0,0,0-2.14-2.59h0c-1.44-.14-2.9,0-4.36-.05a1.23,1.23,0,0,0,.07.32c1.86,3.31.94,4.9-2.85,4.9H84.8a10.43,10.43,0,0,0-2,.4A.37.37,0,0,0,82.93,779.4Z" transform="translate(-46.11 -378.51)"/><path id="Path_3568" data-name="Path 3568" class="cls-31" d="M169.46,643.81c-.84,1.16-1.6,2.38-2.53,3.46-5.85,6.87-11.74,13.7-17.6,20.56q-5.7,6.67-11.35,13.38l.75.67a11.76,11.76,0,0,0,10.77-.13c12.15-5.78,19.91-15.21,22.63-28.45C172.83,649.88,172.48,646.37,169.46,643.81Z" transform="translate(-46.11 -378.51)"/><path id="Path_3569" data-name="Path 3569" class="cls-31" d="M166,707.77c-2.84,2.11-5.7,4.18-8.5,6.34-4.67,3.6-9.29,7.25-13.95,10.86q-7.54,5.88-15.11,11.73a5.78,5.78,0,0,0-.81,1l.32.67a12,12,0,0,0,10.87,2.08c12.67-3.26,22-10.72,27.38-22.77a11,11,0,0,0,.32-9.09A6.09,6.09,0,0,0,166,707.77Z" transform="translate(-46.11 -378.51)"/><path id="Path_3570" data-name="Path 3570" class="cls-33" d="M94.08,742.1l-.47.08-.47.58c3.9,5.93,7.82,11.84,11.68,17.8a5.15,5.15,0,0,1,.74,2.38c.2,3.54.3,7.1.43,10.64h1.22L104.39,705q-1.06-26-2.07-52.09-.91-22.39-1.87-44.8l-.37-.11-.74.16q1.29,32.22,2.57,64.45l-.36.23-9.68-11.07-.45.11-.39.66c3.37,3.85,6.77,7.69,10.1,11.58a3.8,3.8,0,0,1,.89,2.12q1.71,40.57,3.32,81.17a2.22,2.22,0,0,1-.31,1.35Z" transform="translate(-46.11 -378.51)"/><path id="Path_3571" data-name="Path 3571" class="cls-34" d="M107.21,773.58H106l-22.31,0a17.89,17.89,0,0,0-1.94,0,2.87,2.87,0,0,0-2.67,2.58,2.75,2.75,0,0,0,2.5,2.7l1.26.24a10.12,10.12,0,0,1,2-.4q20.16,0,40.32,0c3.8,0,4.72-1.58,2.85-4.9a1.55,1.55,0,0,1-.06-.31l-16.77,0-1.15,0Z" transform="translate(-46.11 -378.51)"/><path id="Path_3572" data-name="Path 3572" class="cls-35" d="M110,773.57l1.15,0q.94-5.81,1.87-11.61c.68-4.21,1.3-8.42,2-12.61a3.25,3.25,0,0,1,1.15-1.79c3.88-3.1,7.8-6.14,11.71-9.19l-.32-.67-.42-.14-11.67,9c.42-2.68.77-5,1.15-7.4q3-18.76,6.08-37.52a4.35,4.35,0,0,1,.93-2q7.5-8.92,15.07-17.78l-.76-.67h-.13l-14.17,16.59-.32-.1c.37-2.38.71-4.77,1.1-7.16q3.51-21.78,7-43.58a10.53,10.53,0,0,1,.37-1.21l-1.31-.35-9.78,60.82q-3.33,20.67-6.69,41.33C112.7,756.22,111.36,764.9,110,773.57Z" transform="translate(-46.11 -378.51)"/></g><g id="_" data-name=" " class="cls-36"><text class="cls-37" transform="translate(59.51 85.13) rotate(-22.25)">?</text></g></g></g></g></svg>