<svg id="Layer_1" data-name="Layer 1" xmlns="http://www.w3.org/2000/svg" xmlns:xlink="http://www.w3.org/1999/xlink" viewBox="0 0 1398.43 329.38"><defs><style>.cls-1,.cls-42{fill:none;}.cls-2{clip-path:url(#clip-path);}.cls-3{fill:#639164;}.cls-4{fill:#61656d;}.cls-5{fill:#487548;}.cls-6{fill:#4e5157;}.cls-7{fill:#315631;}.cls-8{fill:#7e8187;}.cls-9{fill:#6e7176;}.cls-10{fill:#808389;}.cls-11{fill:#71747a;}.cls-12{fill:#23272d;}.cls-13{fill:#d44a7a;}.cls-14{fill:#61656c;}.cls-15{fill:#ffa082;}.cls-16{fill:#afb3b8;}.cls-17{fill:#84888f;}.cls-18{fill:#b8426d;}.cls-19{fill:#3f4249;}.cls-20{fill:#33363b;}.cls-21{fill:#313337;}.cls-22{fill:url(#linear-gradient);}.cls-23{fill:#704685;}.cls-24{fill:#82508f;}.cls-25{fill:#2b9efc;}.cls-26{fill:#3fd8f5;}.cls-27{fill:#26254a;}.cls-28{fill:#fc89ac;}.cls-29{fill:#4554d5;}.cls-30{fill:#fae3af;}.cls-31{fill:#f9d285;}.cls-32{fill:#e67a67;}.cls-33{fill:#0d0f11;}.cls-34{fill:#f49595;}.cls-35{fill:#e5e5e5;}.cls-36{fill:#e08a8a;}.cls-37{fill:#fff;}.cls-38,.cls-39{isolation:isolate;}.cls-39{font-size:10px;fill:#3fb6f5;font-family:Arial-BoldMT, Arial;font-weight:700;}.cls-40{letter-spacing:-0.02em;}.cls-41{letter-spacing:-0.07em;}.cls-42{stroke:#3fb6f5;stroke-miterlimit:10;}</style><clipPath id="clip-path" transform="translate(-82 -520)"><rect class="cls-1" width="1536" height="894"/></clipPath><linearGradient id="linear-gradient" x1="710.38" y1="503.6" x2="711.24" y2="502.45" gradientTransform="matrix(94.16, 0, 0, -61.58, -66623.13, 31610.35)" gradientUnits="userSpaceOnUse"><stop offset="0" stop-color="#bdbdbd"/><stop offset="1" stop-color="#7c7b7b"/></linearGradient></defs><title>bg-logout</title><g class="cls-2"><g id="Log_Out_Page" data-name="Log Out Page"><g id="Group_180" data-name="Group 180"><path id="Path_3612" data-name="Path 3612" class="cls-3" d="M1311.18,702.46c-4.37-1.2-7.58-4.1-10.51-7.34-4.69-5.18-8-11.28-10.88-17.56a7.9,7.9,0,0,1-.27-.95l1.34.27a35.19,35.19,0,0,0,15.48-.63,74,74,0,0,0,8-2.55,12.37,12.37,0,0,0,3-1.7c.44-.32,1-1.09.92-1.41a2.36,2.36,0,0,0-1.44-1.31,94,94,0,0,0-9.56-1.5c-5.66-.5-11.35-.81-17-1.08a8.82,8.82,0,0,1-6.77-3.71,17.84,17.84,0,0,1-3.66-9.56,33.7,33.7,0,0,1,1.61-14.37c1.64-4.72,5.07-7.6,9.59-9.21,6.49-2.32,13.19-2.34,20-1.76a5.73,5.73,0,0,1,4.7,3,204.63,204.63,0,0,0,16.14,21.69c1.8,2.08,3.65,4.16,6.2,5.38.4.19,1.08.39,1.3.2a1.55,1.55,0,0,0,.44-1.36,39.39,39.39,0,0,0-2.17-6.7c-3.13-6.36-6.48-12.61-9.74-18.9a3.15,3.15,0,0,1-.41-1.43c2.51.36,5.06.58,7.55,1.12,8.25,1.76,16,5.06,23.75,8.28,1.94.81,3.82,1.75,5.76,2.55a1.64,1.64,0,0,1,1.17,1.85c-.13,4.6-.3,9.2-.21,13.79.1,5.07.2,10.16,1.52,15.11a5.69,5.69,0,0,0,.76,1.94c.43.58,1.2,1.4,1.71,1.33a2.62,2.62,0,0,0,1.66-1.56,16.56,16.56,0,0,0,.82-4.35,98.55,98.55,0,0,0-1.39-18.16c-.28-2-.61-4-1-6.08a28.09,28.09,0,0,1,8,3.93,48.37,48.37,0,0,1,11.68,10.7,17.78,17.78,0,0,1,2.56,18c-2.47,6.45-7.21,11.08-12.66,15.08-1,.74-2.13,1.36-3.2,2a1.57,1.57,0,0,1-.32-.4c-2.3-6.12-6.62-10.75-11.47-14.84-7.42-6.28-15.75-11.23-24.36-15.71a328.08,328.08,0,0,0-32.29-14.41c-1.54-.6-3.12-1.11-4.68-1.66l-.14.31c.2.14.41.27.62.39,6.68,3,13.41,6,20,9.15,4.44,2.14,8.73,4.6,13,7a136.5,136.5,0,0,1,21.63,14.64,50.8,50.8,0,0,1,10.83,12c2.75,4.44,4.52,9.09,2.13,14.33l-2.71,3.68c-2.32,1.26-4.6,2.64-7,3.76a48.32,48.32,0,0,1-5.29,1.78l-3.48.51c-2.68.26-5.36.74-8,.74a113.77,113.77,0,0,1-12.92-.56,43.63,43.63,0,0,1-9.21-2.25c-2.39-.83-3.23-2.33-1.73-4.66a2.91,2.91,0,0,0,.18-.35l4.17-3.94a59.74,59.74,0,0,1,4.9-3.64,39.67,39.67,0,0,1,4.86-2.15c4.79-.72,9.58-1.41,14.37-2.16a38.86,38.86,0,0,0,5.11-1c.94-.27,2.34-.72,2-2a3.21,3.21,0,0,0-2.2-1.67,44.79,44.79,0,0,0-7.11-.93c-2.57-.1-5.22,0-7.55,1.22-3.88,2.08-7.66,4.34-11.48,6.52l-6.58,2.61c-.47.06-1,.09-1.42.18C1316.9,702.54,1314.07,703.13,1311.18,702.46Z" transform="translate(-82 -520)"/><path id="Path_3613" data-name="Path 3613" class="cls-3" d="M1406.6,710.56c-4.87-3.15-9.09-6.92-11.22-12.48-2.05-5.36-1.07-10.31,2.69-14.65a38.37,38.37,0,0,1,10.58-8.73c1.06-.58,2.21-1,3.46-1.55-.42,3-.95,5.71-1.15,8.48-.28,3.83-.34,7.67-.42,11.52a4.22,4.22,0,0,0,.55,2,1.84,1.84,0,0,0,1.23.94,1.74,1.74,0,0,0,1.25-1,10.38,10.38,0,0,0,.89-3.13q.51-6.81.81-13.61c.1-2.23-.08-4.47,0-6.7a1.72,1.72,0,0,1,.7-1.28c7.64-3.52,15.36-6.82,23.65-8.55a9,9,0,0,1,1.15-.22c1.09-.09,2.18-.14,3.56-.22-.36.65-.63,1.11-.87,1.6q-4.05,8.1-8.06,16.21a7.37,7.37,0,0,0-.6,2.4c-.12,1.22.49,1.67,1.44,1a22.82,22.82,0,0,0,4.5-3.94c4.47-5.78,8.74-11.71,13.12-17.55a2.75,2.75,0,0,1,1.62-1.11c5-.61,10-.73,14.85.67,5.5,1.57,8.81,5,9.68,10.82.7,4.59.87,9.07-1.47,13.3-1.41,2.56-3.38,4.2-6.53,4.33-4.81.19-9.61.58-14.41,1a41,41,0,0,0-5,.86,8.85,8.85,0,0,0-1.92,1.14,24.69,24.69,0,0,0,3.28,2.15c5.82,2.52,11.84,3.7,18.17,2.48a6.81,6.81,0,0,1,1,0c-1,2-1.87,3.8-2.83,5.6a44,44,0,0,1-7.09,9.73c-4,4.25-8.75,5.24-14.26,3.58a33.77,33.77,0,0,1-9.4-4.59,18.21,18.21,0,0,0-13.89-2.83,8.41,8.41,0,0,0-2.24.68c-.42.19-1,.68-1,1a1.54,1.54,0,0,0,.91,1.09,36.19,36.19,0,0,0,4.56,1.14c3.45.59,6.94.91,10.35,1.65,4.71,1,8.1,4.19,11.17,7.66,1.1,1.25.82,2.55-.76,3.19a28.8,28.8,0,0,1-6.25,1.85,50.68,50.68,0,0,1-21.47-1,31.9,31.9,0,0,1-5.78-2.44,9.31,9.31,0,0,1-4.42-4.85c-.28-.69-.65-1.33-1-2a17.92,17.92,0,0,1,.35-3.8,22.31,22.31,0,0,1,5.76-9.1,86.84,86.84,0,0,1,16.42-12.64A235.82,235.82,0,0,1,1459.17,677c.68-.31,1.36-.65,2-1a.74.74,0,0,0-.77-.08c-2,.78-4,1.51-5.94,2.37-6.06,2.67-12.13,5.3-18.13,8.11a99.28,99.28,0,0,0-19,11.55c-3.84,3-7.36,6.28-9.72,10.62Q1407.14,709.54,1406.6,710.56Z" transform="translate(-82 -520)"/><path id="Path_3614" data-name="Path 3614" class="cls-4" d="M1417.08,839.88l-.51,4.2-.41,1.27h-56.24c-.39,0-.78-.06-1.17-.08a7,7,0,0,1,1.26-.38c1.2-.12,2.4-.19,3.8-.29-.12-1.59-.23-3-.32-4.42-.19-2.77-.34-5.55-.56-8.32-.32-3.94-.69-7.87-1-11.8-.2-2.43-.37-4.85-.58-7.27-.32-3.68-.66-7.35-1-11h61.76c-.47,3.73-.93,7.46-1.43,11.19q-1.64,12.16-3.3,24.32C1417.26,838.14,1417.18,839,1417.08,839.88Z" transform="translate(-82 -520)"/><path id="Path_3615" data-name="Path 3615" class="cls-5" d="M1355.84,715.57a49,49,0,0,0,5.29-1.78c2.4-1.12,4.68-2.49,7-3.76a11.77,11.77,0,0,1,1.2,6.85c-.59,4.71-2.83,8.65-5.6,12.36-.42-.3-.83-.61-1.25-.9a57,57,0,0,0-6.6-4.41,47.68,47.68,0,0,0-13.86-4.14c-4.89-.78-9.81-1.42-14.74-1.85-5.12-.44-10.27-.55-15.41-.8a7.86,7.86,0,0,0-1.28.16,43.2,43.2,0,0,0,5.08.61c3.94.35,7.91.5,11.82,1.12,5.45.86,10.88,1.9,16.25,3.18a39.32,39.32,0,0,1,13.58,5.66c3.1,2.16,5.9,4.63,5.65,9-.34,3-2.23,5-4.38,6.76a41.11,41.11,0,0,1-16.07,7.68,26.05,26.05,0,0,1-4.37.89,14.81,14.81,0,0,1-3.87-.3c-1-.2-1.34-1.2-.81-2.48,1.73-4.21,4-8,8.22-10.2,2.66-1.42,5.38-2.72,8-4.23.74-.42,1.76-1.54,1.61-2.05-.34-1.16-1.65-.62-2.51-.49a14.82,14.82,0,0,0-10.38,6,27,27,0,0,1-6.3,6.62c-3,2.08-6.07,3.66-9.76,2.26a28.76,28.76,0,0,1-6.2-3c-2.68-1.86-5.1-4.11-7.61-6.21a7.33,7.33,0,0,1-.76-.91c1.33-.39,2.54-.69,3.71-1.1a26.73,26.73,0,0,0,10.78-6.77,10.11,10.11,0,0,0,1.23-2.32,8.23,8.23,0,0,0-2.57-.19c-4.85,1.27-9.69,2.59-14.5,4a6.72,6.72,0,0,1-7.32-2.2,17.57,17.57,0,0,1-4.47-14.3c.24-2.42,1.77-4.25,3.6-5.75a29.17,29.17,0,0,1,13-5.69,6.82,6.82,0,0,1,1.27.56c2.74,1.85,5.46,3.74,8.19,5.61a2.31,2.31,0,0,1-.18.35c-1.5,2.34-.66,3.83,1.73,4.66a43.63,43.63,0,0,0,9.21,2.25,111.4,111.4,0,0,0,12.92.56c2.68,0,5.36-.48,8-.74a19.09,19.09,0,0,0,2,2.67c.75.73,1.51.44,1.66-.61A11.57,11.57,0,0,0,1355.84,715.57Z" transform="translate(-82 -520)"/><path id="Path_3616" data-name="Path 3616" class="cls-4" d="M1388.9,754.14h10.6l27,0h10c-.48,6.25-1,12.4-1.43,18.71h-8.93l-2,0-63.2,0c-1.19,0-1.59-.4-1.73-1.52-.35-2.63-.81-5.23-1.22-7.85-.47-3.09-.93-6.19-1.4-9.28l19-.06c1.13,0,2.26,0,3.4,0h9.88Z" transform="translate(-82 -520)"/><path id="Path_3617" data-name="Path 3617" class="cls-4" d="M1425.42,777.57q-1.55,11.31-3.08,22.61l-62,0h-.28l-.24-4.22H1421c1.47,0,1.51-.06,1.1-1.58h-62.3c-.09-.69-.2-1.37-.25-2.06-.13-1.52-.2-3-.34-4.56q-.35-4-.72-7.92c-.09-.87.18-1.23,1.14-1.23,5.6,0,11.19-.15,16.78-.25l13.75-.26c3.63-.08,7.25-.2,10.87-.25C1409.16,777.74,1417.29,777.67,1425.42,777.57Z" transform="translate(-82 -520)"/><path id="Path_3618" data-name="Path 3618" class="cls-6" d="M1359.82,796l.25,4.22c-3.52,0-7,0-10.55,0a5.71,5.71,0,0,0-1.5.48L1344.23,773h-9c-.48-6.32-1-12.49-1.45-18.78h22.86c.46,3.09.92,6.18,1.4,9.27.4,2.62.87,5.23,1.21,7.86.15,1.12.55,1.52,1.74,1.52q31.59-.06,63.2,0l2,0-.74,4.7q-12.2.13-24.39.28c-3.63,0-7.25.18-10.87.26l-13.76.26c-5.59.1-11.18.2-16.77.24-1,0-1.23.37-1.15,1.24q.39,4,.73,7.92c.13,1.51.21,3,.33,4.55.06.69.17,1.38.25,2.07h-11.56l.1,1.55h11.48Z" transform="translate(-82 -520)"/><path id="Path_3619" data-name="Path 3619" class="cls-6" d="M1360.34,801.76c.33,3.67.67,7.35,1,11,.21,2.42.38,4.85.58,7.27.34,3.94.7,7.87,1,11.8.22,2.77.37,5.55.56,8.33.1,1.41.21,2.82.32,4.42-1.4.1-2.6.16-3.8.29a7,7,0,0,0-1.26.37h-4.6l-.39-1.17-.51-4.2q-.86-6.51-1.7-13l-3.33-25.11,12.12,0Z" transform="translate(-82 -520)"/><path id="Path_3620" data-name="Path 3620" class="cls-5" d="M1388.89,754.14H1385l.15-2.88c.36-7.27.4-14.58-1.6-21.61a73.64,73.64,0,0,0-9.74-20.08,25.34,25.34,0,0,0-3-3.21c2.39-5.24.61-9.88-2.13-14.33a51,51,0,0,0-10.83-12,136.5,136.5,0,0,0-21.63-14.64c-4.31-2.4-8.6-4.86-13-7-6.61-3.18-13.34-6.11-20-9.15a5.44,5.44,0,0,1-.62-.39l.14-.31c1.56.55,3.14,1.06,4.68,1.66a331.52,331.52,0,0,1,32.29,14.41,131,131,0,0,1,24.36,15.71c4.85,4.1,9.17,8.72,11.47,14.84a1.53,1.53,0,0,0,.31.4,45.13,45.13,0,0,0,3.15,17.19c1.58,4.06,3.68,7.92,5.56,11.86a49.6,49.6,0,0,1,4.9,24.7C1389.35,750.93,1389.09,752.53,1388.89,754.14Z" transform="translate(-82 -520)"/><path id="Path_3621" data-name="Path 3621" class="cls-5" d="M1399.51,754.13h-3.1a38.39,38.39,0,0,1,4.4-22.78,71.62,71.62,0,0,0,4.18-9.7,30.75,30.75,0,0,0,1.62-11.09l1.08-2c2.37-4.34,5.88-7.62,9.72-10.62a99,99,0,0,1,19-11.55c6-2.81,12.07-5.44,18.12-8.11,2-.86,4-1.59,5.94-2.37a.78.78,0,0,1,.78.08c-.68.33-1.35.66-2,1a233.33,233.33,0,0,0-26.91,13.75,86.47,86.47,0,0,0-16.42,12.63,22.17,22.17,0,0,0-5.76,9.1,18.68,18.68,0,0,0-.36,3.8c0,.35-.12.76,0,1,.81,1.55-.21,2.44-1,3.6a79.1,79.1,0,0,0-4.4,7.42c-2.14,4.1-4.21,8.29-4.5,13C1399.6,745.56,1399.61,749.85,1399.51,754.13Z" transform="translate(-82 -520)"/><path id="Path_3622" data-name="Path 3622" class="cls-7" d="M1381.91,754.13H1379a24.13,24.13,0,0,0-6-9.26c-2.53-2.28-5-4.58-7.63-6.79a11.48,11.48,0,0,0-2.41-1.25c.26-4.33-2.54-6.8-5.64-9a39.56,39.56,0,0,0-13.59-5.66c-5.37-1.28-10.8-2.32-16.25-3.18-3.9-.61-7.88-.77-11.82-1.12a41.42,41.42,0,0,1-5.08-.61,6.88,6.88,0,0,1,1.28-.15c5.14.24,10.29.35,15.41.8,4.93.42,9.85,1.06,14.74,1.84a47.9,47.9,0,0,1,13.86,4.14,58.32,58.32,0,0,1,6.6,4.41c.42.29.83.6,1.25.9a8.35,8.35,0,0,0,.33,1.11,37.29,37.29,0,0,0,10.37,13.79A29.28,29.28,0,0,1,1381.91,754.13Z" transform="translate(-82 -520)"/><path id="Path_3623" data-name="Path 3623" class="cls-8" d="M1360.34,800.2l62,0-.24,1.59h-61.76v0C1360.34,801.23,1360.34,800.72,1360.34,800.2Z" transform="translate(-82 -520)"/><path id="Path_3624" data-name="Path 3624" class="cls-9" d="M1360.34,800.2v1.55l-12.12,0-.2-1.07a5,5,0,0,1,1.5-.48c3.51-.05,7,0,10.54,0Z" transform="translate(-82 -520)"/><path id="Path_3625" data-name="Path 3625" class="cls-5" d="M1327.74,699.25l6.83,0a40.53,40.53,0,0,0-4.86,2.15,58.23,58.23,0,0,0-4.91,3.64l-3.64-3.19Z" transform="translate(-82 -520)"/><path id="Path_3626" data-name="Path 3626" class="cls-10" d="M1359.8,794.39h62.3c.41,1.52.37,1.59-1.1,1.59h-61.18v0c0-.51,0-1,0-1.54Z" transform="translate(-82 -520)"/><path id="Path_3627" data-name="Path 3627" class="cls-11" d="M1359.8,794.41c0,.51,0,1,0,1.54h-11.48l-.1-1.54Z" transform="translate(-82 -520)"/></g><g id="Group_187" data-name="Group 187"><path id="Path_3632" data-name="Path 3632" class="cls-12" d="M235.78,572.3l-.46.06c-2.8-.64-5.78-1.06-6.18-4.8l-.75-4.46c.54-.58,1.07-1.17,1.64-1.72,2.91-2.83,2.64-5.07,2.33-9.26.76-1-.88-.32-.12-1.32l-.3-2.34c.3-1.34-1.09-1.9-.79-3.24-.6-.6.57-1.37,0-2-.27-.45,1-.15.72-.6l-.68-.38c-1.16-.43,1.46-2.17.3-2.59a44.66,44.66,0,0,1-16.53-8l-2-1.6c-1,5.79-1.77,11.38-6,15.72-2.22-2.28-4.19-2.8-5.8-1.66s-1.84,3.65-.62,6.06c1.3,2.56,3.62,3.47,6.66,3.87,0,5.28,0,10.51,0,15.73a3.73,3.73,0,0,1-2.55,3.53c-.81.34-1.64.63-2.46,1l-13.25,1c-2-2.34-2.26-4-1.09-8-4.9-.66-7-5.21-4.17-9.44,1.63-2.43,3.69-4.57,5.59-6.89a15.29,15.29,0,0,1-2.6-1c-2.58-1.5-2.77-5.1.08-7,3.65-2.42,5.57-5.92,7.55-9.55,6.11-11.22,21.93-16.71,33.11-11.49,4.88,2.27,8,6.07,8.46,11.55A14.18,14.18,0,0,0,241.65,544c1.21.92,2.3,2,1.7,3.46-.46,1.12-1.66,1.93-2.88,3.24.33.89.93,2.44,1.49,4,1.53,4.32.77,6.19-3.49,8.27C239.49,566.55,239.12,569.88,235.78,572.3Z" transform="translate(-82 -520)"/><path id="Path_3633" data-name="Path 3633" class="cls-13" d="M235.77,572.3c3.44-.1,6.88-.23,10.32-.3a12.82,12.82,0,0,1,2.14.3c1,6.06,1.9,12.13,3,18.16a38.39,38.39,0,0,0,1.9,5.53,43,43,0,0,0,1.69,4.24c3.67,7,3.68,13.86.4,21a36.93,36.93,0,0,0-3.38,10.66c-.87,7.15-1,14.38-1.47,21.59l-9.26-1.3-1.4-.39,0,0a4.51,4.51,0,0,0-1-.8q-13.78-5.28-27.6-10.5a3.28,3.28,0,0,1-2.41-2.51c-2.35-9.39-4.78-18.76-7.19-28.14-.7-2.74-1.43-5.47-2.15-8.2l-.43.1q.89,7.07,1.78,14.12l-21.6,3c-1.32-7.45-2.7-14.89-3.93-22.36-1.33-8.11,4-17.26,11.84-20.5l1.82-.78,13.25-1c.73,4.53,3.52,7.63,7.09,10.18,3.86,2.22,7.7,4.46,11.6,6.62a2,2,0,0,0,1.76-.07c3.1-3,6.1-6.06,9.14-9.11a16.37,16.37,0,0,0,3.6-9.51Z" transform="translate(-82 -520)"/><path id="Path_3634" data-name="Path 3634" class="cls-14" d="M358.11,849.32l-4.43,0V675.66H253l-61.51.05H181.11l-20.6,0-9,0-7.9-.07H98.78c-1.32,0-2.4,0-2.16,1.8a18.34,18.34,0,0,0-.39,2.76q0,84.56,0,169.1l-4.31,0q0-85.44,0-170.89a11.65,11.65,0,0,1,.14-1.31l4.16-.41-.06-1H91.92c-1.7,0-3.4,0-5.09,0-3,0-4.83-1.7-4.83-4.28s1.74-4.3,4.77-4.3q22.13,0,44.25,0c5.17,0,10.33,0,15.49,0a19.13,19.13,0,0,0,2.38-.31l8.88,0c7.18.12,14.37.25,21.56.34a10.58,10.58,0,0,0,1.94-.3l.48.1a9.88,9.88,0,0,0,1.7.28q24.12,0,48.22,0a9.76,9.76,0,0,0,1.86-.39l31.51,0a16.3,16.3,0,0,0,2.59.36c5.82-.1,11.63-.36,17.45-.37q31.77-.06,63.55,0l16.6.21c.09.19.14.45.29.57,1.68,1.33,2.81,2.88,1.88,5.13s-2.73,3.12-5.14,3c-1.3-.09-2.61,0-4.15,0Z" transform="translate(-82 -520)"/><path id="Path_3635" data-name="Path 3635" class="cls-15" d="M179.14,618.94l21.6-3c1.09,8.92,2.13,17.85,3.32,26.76.09.64,1.12,1.46,1.85,1.65,4.93,1.22,9.9,2.32,14.86,3.42,6.32,1.39,12.65,2.73,19,4.1l0,0,1.4.39,9.26,1.29c1.46-.1,2.92-.32,4.37-.28,3.45.09,7.16-1.77,10.25,1.24-.31,3.19-.61,6.37-1,9.55,0,.12-.49.2-.75.3h-2.7l-.42-.2c-1.84-1-3.66-2.07-5.53-3-.2-.1-.73.44-1.1.69l-3.64,1.86c-1.05.16-2.1.41-3.16.47-2,.11-4.06.12-6.08.17h-.85l-3.06-.2c-3.5-.42-7-.86-10.51-1.25-9.51-1.06-19.05-2-28.55-3.18a16.15,16.15,0,0,1-13.84-12.86c-.94-4.23-1.48-8.55-2.2-12.84l-.76-3.9,0-.06c-.14-1-.27-1.92-.41-2.89Z" transform="translate(-82 -520)"/><path id="Path_3636" data-name="Path 3636" class="cls-15" d="M329.72,554.86a17.46,17.46,0,0,1,1.06-4.27,2.35,2.35,0,0,1,1.8-1.12c.44,0,1,.8,1.34,1.36a3.52,3.52,0,0,1,.19,1.51c.1,3.07.55,3.47,3.34,2,3.26-1.69,6.35-3.72,9.52-5.58.59-.34,1.23-.6,1.84-.89l.64.44A14.39,14.39,0,0,1,348,552c-2.91,3.89-6,7.61-9,11.46-1.73,2.26-3.31,4.63-5,6.95-2.54,4.2-5.11,8.39-7.63,12.6-4,6.68-7.95,13.38-12,20a27.4,27.4,0,0,1-2.18,2.75l-27.35-.18a5.45,5.45,0,0,0-.77-.37q-5.87-1.79-11.74-3.55,3.66-9.57,7.34-19.14c7.48,2.46,15,4.86,22.43,7.42,1.62.56,2.57.49,3.69-1C310.28,583.28,328.86,561.54,329.72,554.86Z" transform="translate(-82 -520)"/><path id="Path_3637" data-name="Path 3637" class="cls-16" d="M181.27,666.86a11.36,11.36,0,0,1-1.94.3q-10.77-.15-21.56-.34l-1.26-4.06c-.2-.93-.34-1.87-.61-2.78q-3.42-11.82-6.88-23.63a6.49,6.49,0,0,1,2.62-7.7,4.36,4.36,0,0,0,.8-1.19H180c.28.84.55,1.69.82,2.53l0,.06c.13,1.3.25,2.6.38,3.9Z" transform="translate(-82 -520)"/><path id="Path_3638" data-name="Path 3638" class="cls-13" d="M279.77,582.55q-3.67,9.57-7.34,19.15l-14-4.07c-1.29-3.6-2.78-7.14-3.8-10.81-1.29-4.57-2.21-9.25-3.29-13.89Z" transform="translate(-82 -520)"/><path id="Path_3639" data-name="Path 3639" class="cls-17" d="M152.44,627.46a4.36,4.36,0,0,1-.8,1.19,6.5,6.5,0,0,0-2.62,7.7q3.48,11.8,6.88,23.63c.26.91.41,1.86.61,2.79l-8.76.13c-2.5-8.6-5.05-17.2-7.49-25.82-1.62-5.74,1.36-9.6,7.32-9.64C149.2,627.43,150.82,627.45,152.44,627.46Z" transform="translate(-82 -520)"/><path id="Path_3640" data-name="Path 3640" class="cls-18" d="M251.29,572.93c1.08,4.63,2,9.31,3.29,13.89,1,3.67,2.52,7.21,3.8,10.81L253.14,596a37.49,37.49,0,0,1-1.9-5.52c-1.12-6-2-12.1-3-18.16Z" transform="translate(-82 -520)"/><path id="Path_3641" data-name="Path 3641" class="cls-19" d="M147.75,662.9l8.76-.14,1.26,4.06-8.88-.05Z" transform="translate(-82 -520)"/><path id="Path_3642" data-name="Path 3642" class="cls-20" d="M91.92,675.71h4.21l.06,1-4.16.42C92,676.68,92,676.19,91.92,675.71Z" transform="translate(-82 -520)"/><path id="Path_3643" data-name="Path 3643" class="cls-17" d="M180.86,630c-.28-.85-.55-1.69-.82-2.54l.41-.35C180.58,628.07,180.72,629,180.86,630Z" transform="translate(-82 -520)"/><path id="Path_3644" data-name="Path 3644" class="cls-21" d="M358.11,849.32V675.68c1.54,0,2.85-.07,4.15,0,2.4.17,4.19-.68,5.14-3s-.2-3.8-1.88-5.14c-.15-.12-.2-.37-.29-.57l3.76-.22h0l1.09.39c2.86,0,5.71.06,8.57,0,4.31,0,8.62-.13,12.93-.2,3.83,0,7.67-.07,11.51-.07,3.43,0,5.08,1,5.64,3.45s-.46,3.89-3.55,5.49V847.38c0,.66,0,1.33,0,2Z" transform="translate(-82 -520)"/><path id="Path_3645" data-name="Path 3645" class="cls-22" d="M284.93,605.62l27.36.18,41.34.1h2c3.42,0,3.92.59,3.29,3.93q-4.7,24.85-9.4,49.69c-.46,2.41-1.33,4.78-.88,7.3H285.08c-5.81,0-11.63.28-17.44.38a16.16,16.16,0,0,1-2.59-.37c-.45-2.35,1.5-1.65,2.89-1.9-2-1-2.73-2.24-2.08-4.23a32.07,32.07,0,0,0,.66-3.9c2.45-12.74,4.87-25.48,7.41-38.2.85-4.28,2-8.5,3.05-12.75Zm62,59a.57.57,0,0,0,.12-.18c0-.05,0-.17,0-.17a12.15,12.15,0,0,0-1.48-.14H283.38c-.5,0-1,.05-1.5.08v.4h60.3Zm-33.41-28-.4-.58c0-1-.29-2.05.08-2.82s1.43-1.33,2.58-2.32c-1.13-.5-2-1.22-3-1.27-2.74-.15-5.57,2.3-6.16,5-.45,2.08.47,3.43,2.56,3.25a21,21,0,0,0,4.31-1.3Zm-36.83,28.16,0-.36h-7.33l0,.36Zm3.86.14v-.17h-1.23V665Z" transform="translate(-82 -520)"/><path id="Path_3646" data-name="Path 3646" class="cls-23" d="M369,666.81h0c-.45-.94-1.26-1.87-1.28-2.82-.11-5,0-9.92,0-14.88l24.72,0c0,4.79.06,9.57-.08,14.34,0,1.13-.78,2.24-1.19,3.36l-21.13.11Z" transform="translate(-82 -520)"/><path id="Path_3647" data-name="Path 3647" class="cls-24" d="M387.16,641.46h3.23l2.07.2v2.6H367.69V641.6l2.9-.15h7.32l1,0,2.45,0h5.82Z" transform="translate(-82 -520)"/><path id="Path_3648" data-name="Path 3648" class="cls-25" d="M381.34,641.47l-2.45,0q.42-6.15.85-12.3c.25-3.15.5-6.3.78-9.74l3.34.59C383,627.21,382.18,634.34,381.34,641.47Z" transform="translate(-82 -520)"/><path id="Path_3649" data-name="Path 3649" class="cls-25" d="M390.39,641.45h-2.64l3.53-19.06,3.84.93c-1,2.92-2,5.65-2.77,8.43-.53,1.83-.79,3.73-1.16,5.6C390.92,638.71,390.66,640.08,390.39,641.45Z" transform="translate(-82 -520)"/><path id="Path_3650" data-name="Path 3650" class="cls-25" d="M373.16,641.45h-2.58l-1.15-18H373c-.49,3.3.91,6.4-.13,9.86C372.17,635.8,373,638.73,373.16,641.45Z" transform="translate(-82 -520)"/><path id="Path_3651" data-name="Path 3651" class="cls-23" d="M367.69,644.25h24.77c0,.72,0,1.44,0,2.15h-24.8C367.67,645.68,367.68,645,367.69,644.25Z" transform="translate(-82 -520)"/><path id="Path_3652" data-name="Path 3652" class="cls-26" d="M377.91,641.45h-2.56c.19-2.64.52-5.28.54-7.93,0-2.85-.24-5.7-.39-8.85l3.85.63-.24,3.88Z" transform="translate(-82 -520)"/><path id="Path_3653" data-name="Path 3653" class="cls-26" d="M387.16,641.46h-2.85V629.34h2.85Z" transform="translate(-82 -520)"/><path id="Path_3654" data-name="Path 3654" class="cls-24" d="M367.67,646.39h24.8l0,1.39-24.9-.1Z" transform="translate(-82 -520)"/><path id="Path_3655" data-name="Path 3655" class="cls-23" d="M367.6,647.69l24.9.1c0,.43,0,.86-.07,1.29l-24.71,0Z" transform="translate(-82 -520)"/><path id="Path_3656" data-name="Path 3656" class="cls-4" d="M370,666.88l21.13-.11.37.28c-4.31.06-8.62.15-12.93.19-2.85,0-5.71,0-8.57,0Z" transform="translate(-82 -520)"/><path id="Path_3657" data-name="Path 3657" class="cls-21" d="M96.61,677.47c-.23-1.76.84-1.8,2.17-1.8q22.41,0,44.83,0c0,1-.05,1.92-.05,2.87v170.8H96.68q0-84.49,0-169C96.67,679.39,96.64,678.43,96.61,677.47Z" transform="translate(-82 -520)"/><path id="Path_3658" data-name="Path 3658" class="cls-17" d="M183.92,849c-2.7-1.61-3.77-4-3-6.66a5.82,5.82,0,0,1,5.77-4c8,0,16.09,0,24.14,0h2.62V747.9h-35.1c-4.15,0-6.38-1.55-7.52-5.47q-9.69-33.33-19.31-66.69h9q4.45,15.54,8.93,31.1c2.62,9.1,5.3,18.19,7.88,27.3.48,1.68,1.22,2.36,3.07,2.3,4.78-.15,9.57,0,14.36,0,3.55.56,7.08,1.59,10.63,1.63,15.72.17,31.44.07,47.16.06,1.05,2.29,1.9,4.6.37,7-.67.93-1.38,1.83-2.14,2.7H219.6v90.51h15.67l1.53,0,10.94.56c-.94,3,.32,5,3.12,6.06a5.7,5.7,0,0,1-3.47,4.13h-4.15l-4.61-4.86c-14.67,0-30.06,0-45.46.06-.56,0-1.18.74-1.66,1.25-1.07,1.13-2.07,2.33-3.1,3.51Z" transform="translate(-82 -520)"/><path id="Path_3659" data-name="Path 3659" class="cls-27" d="M236.8,838.24h-1.52q3.81-8.41,7.63-16.83c2.21-4.88,4.7-9.66,6.56-14.67,1.68-4.52,4-7.83,9.19-8.14a24,24,0,0,1,1.47,3.86,18.43,18.43,0,0,1-2.2,12.58,25.33,25.33,0,0,0-2.66,9.24q-.47,4.05-1.19,8.07c-.33,1.82-.18,3.35,1.63,4.3,2.19,2.68,4.46,5.29,6.53,8.05,1,1.3,2.15,2.74,1.24,4.63h-1.82l-10.8-4.49c-2.8-1.11-4.06-3-3.11-6.06,2.18-8.29,3.54-16.67,2.56-25.36Q243.55,825.84,236.8,838.24Z" transform="translate(-82 -520)"/><path id="Path_3660" data-name="Path 3660" class="cls-27" d="M293.34,842.22c2.51,1.7,5.06,3.34,7.49,5.14.5.36.57,1.3.83,2-4.84,0-9.67.06-14.51,0A12.06,12.06,0,0,1,285,849c-.76-1.27-2-2.46-2.2-3.82A104.69,104.69,0,0,0,277,823.42c-.37-.91-.86-1.77-1.58-3.23-1.13,10.2-2.18,19.69-3.22,29.18h-1.38q.68-19.79,1.36-39.57l2.05-3.89.57-.4h0l2.78-1.7c4.84,4.35,5.71,10,5.44,16.12a19.36,19.36,0,0,0,0,4.81c1,4.46,2.17,8.86,3.4,13.26a3.37,3.37,0,0,0,1.56,1.82c1.56.82,3.24,1.39,4.87,2.06Z" transform="translate(-82 -520)"/><path id="Path_3661" data-name="Path 3661" class="cls-4" d="M96.62,677.47c0,1,0,1.92,0,2.88q0,84.49,0,169h-.46q0-84.55,0-169.1A21.32,21.32,0,0,1,96.62,677.47Z" transform="translate(-82 -520)"/><path id="Path_3662" data-name="Path 3662" class="cls-18" d="M239.74,651.85c-6.32-1.37-12.65-2.71-19-4.1-5-1.1-9.93-2.2-14.86-3.42-.73-.19-1.76-1-1.85-1.65-1.19-8.91-2.23-17.84-3.32-26.76q-.88-7.06-1.78-14.12l.43-.1c.72,2.73,1.45,5.46,2.15,8.2,2.41,9.38,4.84,18.75,7.19,28.14a3.3,3.3,0,0,0,2.41,2.51c9.22,3.45,18.41,7,27.6,10.5A4.29,4.29,0,0,1,239.74,651.85Z" transform="translate(-82 -520)"/><path id="Path_3663" data-name="Path 3663" class="cls-28" d="M209.21,584.43c4.95-.59,9.89-1.19,14.84-1.76,2.55-.3,5.11-.54,7.66-.8-3,3-6,6.12-9.13,9.1a1.91,1.91,0,0,1-1.77.07C216.92,588.89,213.07,586.65,209.21,584.43Z" transform="translate(-82 -520)"/><path id="Path_3664" data-name="Path 3664" class="cls-29" d="M241.12,652.21l-1.4-.39Z" transform="translate(-82 -520)"/><path id="Path_3665" data-name="Path 3665" class="cls-30" d="M253,675.66c1.53,3,3.41,5.26,7,6.33,14.21,4.2,28.32,8.75,42.46,13.18a15.68,15.68,0,0,1,1.77.8l-6.43,6.2-7.88,7.65-19.53,19.07-.72.44L213,729.26a19.79,19.79,0,0,1-10.65-3.09C195,721.5,191.47,714.7,191.48,706q0-15.15,0-30.3Z" transform="translate(-82 -520)"/><path id="Path_3666" data-name="Path 3666" class="cls-31" d="M191.47,675.71q0,15.15,0,30.3c0,8.69,3.53,15.49,10.88,20.15a19.83,19.83,0,0,0,10.66,3.1q28.3.09,56.62.07l-8.23,8.37-8.87.36c-15.72,0-31.44.1-47.16-.07-3.55,0-7.08-1.06-10.63-1.63a2.52,2.52,0,0,0-.49-.43c-9.17-4.77-13.34-12.3-13.16-22.64.22-12.53,0-25.06,0-37.59Z" transform="translate(-82 -520)"/><path id="Path_3667" data-name="Path 3667" class="cls-16" d="M181.11,675.7c0,12.53.21,25.07,0,37.6-.18,10.34,4,17.87,13.16,22.64a2.86,2.86,0,0,1,.5.42c-4.79,0-9.59-.09-14.37.06-1.85.06-2.59-.62-3.07-2.3-2.58-9.11-5.26-18.2-7.88-27.3q-4.49-15.54-8.93-31.11Z" transform="translate(-82 -520)"/><path id="Path_3668" data-name="Path 3668" class="cls-13" d="M181.27,666.86q0-16.46,0-32.9l.19,0,.2,0c.72,4.29,1.26,8.61,2.2,12.84a16.15,16.15,0,0,0,13.84,12.86c9.5,1.21,19,2.12,28.55,3.18,3.51.39,7,.83,10.51,1.25l-1,.22c-2-.32-3.07.25-2.59,2.48l-33.11.07c-6.11,0-12.22.07-18.32.1Z" transform="translate(-82 -520)"/><path id="Path_3669" data-name="Path 3669" class="cls-27" d="M233.19,666.79c-.48-2.23.62-2.8,2.58-2.49h4.88l9.77,0,8.46-.09a.47.47,0,0,0,.34.2l.54,0,.4-.23.42.2h2.7c.27-.1.74-.17.76-.3.35-3.18.65-6.37,1-9.55,1.64-8.35,3.29-16.7,4.9-25.05q2.06-10.59,4-21.2c.33-1.77,1.26-2.58,3.06-2.34-1,4.25-2.2,8.47-3.06,12.75-2.54,12.72-4.95,25.46-7.41,38.2a34.11,34.11,0,0,1-.65,3.9c-.65,2,0,3.23,2.07,4.23-1.39.25-3.33-.44-2.89,1.9l-31.51,0A1,1,0,0,0,233.19,666.79Z" transform="translate(-82 -520)"/><path id="Path_3670" data-name="Path 3670" class="cls-17" d="M233.19,666.78a1.06,1.06,0,0,1,.35.09,9.17,9.17,0,0,1-1.86.38q-24.12,0-48.22,0a9.74,9.74,0,0,1-1.7-.29c6.1,0,12.21-.08,18.32-.1Z" transform="translate(-82 -520)"/><path id="Path_3671" data-name="Path 3671" class="cls-19" d="M249.89,663.66l.53.61-9.77,0c2,0,4.06-.06,6.08-.18C247.79,664.06,248.84,663.82,249.89,663.66Z" transform="translate(-82 -520)"/><path id="Path_3672" data-name="Path 3672" class="cls-17" d="M181.65,634h-.2l-.19,0-.38-3.89Z" transform="translate(-82 -520)"/><path id="Path_3673" data-name="Path 3673" class="cls-19" d="M239.8,664.28l-4,0,1-.22Z" transform="translate(-82 -520)"/><path id="Path_3674" data-name="Path 3674" class="cls-19" d="M263.28,664.3l-2.7,0Z" transform="translate(-82 -520)"/><path id="Path_3675" data-name="Path 3675" class="cls-32" d="M229.14,567.57c-4.9,0-12.4-1.67-15.73-3.74a19.86,19.86,0,0,0,15-.73C228.64,564.59,228.89,566.08,229.14,567.57Z" transform="translate(-82 -520)"/><path id="Path_3676" data-name="Path 3676" class="cls-14" d="M370,666.88v.32l-1.08-.39Z" transform="translate(-82 -520)"/><path id="Path_3677" data-name="Path 3677" class="cls-27" d="M313.52,636.65a21,21,0,0,1-4.31,1.3c-2.09.18-3-1.17-2.56-3.24.59-2.75,3.42-5.19,6.16-5.05.94.05,1.84.77,3,1.27-1.15,1-2.18,1.5-2.58,2.32s-.08,1.87-.08,2.82Z" transform="translate(-82 -520)"/><path id="Path_3678" data-name="Path 3678" class="cls-27" d="M342.18,664.64H281.89v-.4c.5,0,1-.08,1.5-.08h62.16a12.15,12.15,0,0,1,1.48.14s.05.12,0,.17a.59.59,0,0,1-.13.18Z" transform="translate(-82 -520)"/><path id="Path_3679" data-name="Path 3679" class="cls-27" d="M276.69,664.8h-7.34v-.35h7.33Z" transform="translate(-82 -520)"/><path id="Path_3680" data-name="Path 3680" class="cls-33" d="M342.18,664.64l4.75,0Z" transform="translate(-82 -520)"/><path id="Path_3681" data-name="Path 3681" class="cls-27" d="M280.55,664.94h-1.23l0-.16h1.24Z" transform="translate(-82 -520)"/><path id="Path_3682" data-name="Path 3682" class="cls-15" d="M270.37,728.89l19.52-19.06a5.18,5.18,0,0,1,.81,1.65c.49,6.42,1.06,12.84,1.32,19.27.31,7.56.31,15.13.49,22.7.11,5,.28,10,.45,15a4.33,4.33,0,0,0,.42,1.19,22.08,22.08,0,0,0-.42,3q0,16.68.06,33.36c0,5,.14,10,.22,15-1.74-3.54-3.94-6.93-5.12-10.65-1.82-5.71-2.85-11.66-4.37-17.47-2.86-11-5.84-22-8.74-33C272.34,749.73,270.26,739.48,270.37,728.89Z" transform="translate(-82 -520)"/><path id="Path_3683" data-name="Path 3683" class="cls-32" d="M270.37,728.89c-.11,10.59,2,20.84,4.65,31,2.9,11,5.88,22,8.74,33,1.51,5.81,2.55,11.76,4.36,17.47,1.18,3.72,3.38,7.11,5.12,10.65l0,20.84-.46,0c-1.62-.67-3.31-1.25-4.86-2.06a3.38,3.38,0,0,1-1.56-1.83c-1.23-4.39-2.42-8.8-3.4-13.25a18.89,18.89,0,0,1,0-4.81c.27-6.08-.61-11.77-5.45-16.12-.18-.92-.36-1.84-.55-2.75-1.46-6.2-2.83-12.42-4.42-18.58-.7-2.74-1.84-5.36-2.78-8a7.14,7.14,0,0,0-.07-1.53q-3.44-12.51-6.92-25l-1.4-10.19,8.23-8.37Z" transform="translate(-82 -520)"/><path id="Path_3684" data-name="Path 3684" class="cls-15" d="M297.78,702.18l6.42-6.2a12.58,12.58,0,0,1,8.62,8.71c1.87,6,.74,12-.64,17.85-2.57,11-6.83,21.43-11.4,31.73a5,5,0,0,1-.65.88c-.17-3.67-.52-7.33-.5-11A361.07,361.07,0,0,0,297.78,702.18Z" transform="translate(-82 -520)"/><path id="Path_3685" data-name="Path 3685" class="cls-32" d="M297.78,702.18a363.11,363.11,0,0,1,1.85,42c0,3.66.32,7.33.5,11l-6.75,14.46a4.11,4.11,0,0,1-.42-1.19c-.17-5-.34-10-.45-15-.18-7.57-.18-15.14-.49-22.7-.26-6.43-.83-12.85-1.32-19.27a5.32,5.32,0,0,0-.8-1.66Z" transform="translate(-82 -520)"/><path id="Path_3686" data-name="Path 3686" class="cls-34" d="M292.81,841.88l.46-.06a.68.68,0,0,1,.07.4Z" transform="translate(-82 -520)"/><path id="Path_3687" data-name="Path 3687" class="cls-16" d="M262.81,747.9l-12-.16a32.93,32.93,0,0,0,2.14-2.7c1.54-2.38.68-4.7-.37-7l8.87-.35Q262.1,742.8,262.81,747.9Z" transform="translate(-82 -520)"/><path id="Path_3688" data-name="Path 3688" class="cls-15" d="M258.66,798.61c3-6.15,5.95-12.29,8.86-18.46.87-1.85,1.53-3.8,2.28-5.71.94,2.67,2.08,5.3,2.79,8,1.58,6.17,3,12.39,4.41,18.58l-2.22,4.46v0l-.56.4-2.05,3.89c-3.13,5.24-6.22,10.5-9.4,15.72-2.3,3.75-4.7,7.44-7.07,11.16-1.81-.95-2-2.48-1.63-4.3q.72-4,1.19-8.07a25.38,25.38,0,0,1,2.66-9.25,18.42,18.42,0,0,0,2.2-12.58A24.23,24.23,0,0,0,258.66,798.61Z" transform="translate(-82 -520)"/><path id="Path_3689" data-name="Path 3689" class="cls-35" d="M274.23,805.9l.56-.4Z" transform="translate(-82 -520)"/><path id="Path_3690" data-name="Path 3690" class="cls-36" d="M202.08,545.82c.87-1.66,2-1,2.71,0a7.16,7.16,0,0,1,1.16,3.34c-1.39-1-1.13-3.83-3.82-3.24Z" transform="translate(-82 -520)"/><path id="Path_3691" data-name="Path 3691" class="cls-36" d="M202.13,545.88c-.16.1-.32.21-.49.3l-.12-.16.56-.2Z" transform="translate(-82 -520)"/><path id="Path_3692" data-name="Path 3692" class="cls-19" d="M259.22,664.38l.54,0Z" transform="translate(-82 -520)"/><path id="Path_3693" data-name="Path 3693" class="cls-15" d="M229.14,567.56c-4.9,0-12.4-1.66-15.73-3.73a19.86,19.86,0,0,0,15-.73c.55-.58,1.08-1.17,1.65-1.72,2.91-2.83,4.68-6.14,4.36-10.33l-.68-10.59-2.63-.88a44.42,44.42,0,0,1-16.17-7.93c-.64-.52-1.3-1-2-1.6-1,5.79-1.77,11.38-6,15.72-2.22-2.28-4.19-2.8-5.8-1.66s-1.84,3.66-.62,6.06c1.3,2.56,3.62,3.48,6.67,3.87,0,5.29,0,10.51,0,15.73a3.72,3.72,0,0,1-2.56,3.53c-.81.34-1.63.63-2.45,1,.73,4.53,3.51,7.63,7.08,10.18,4.95-.59,9.89-1.19,14.84-1.76,2.55-.3,5.11-.54,7.67-.8a16.37,16.37,0,0,0,3.6-9.51C232.52,571.71,229.54,571.3,229.14,567.56Zm-27-21.68c-.16.1-.32.21-.49.3l-.12-.16.56-.2c.87-1.67,2-1,2.71-.05a7.2,7.2,0,0,1,1.16,3.35c-1.39-1-1.13-3.82-3.82-3.24Z" transform="translate(-82 -520)"/><path id="Path_3694" data-name="Path 3694" class="cls-37" d="M218.4,554.77l8.39,1.68S219.2,562.21,218.4,554.77Z" transform="translate(-82 -520)"/><circle id="Ellipse_350" data-name="Ellipse 350" class="cls-12" cx="135.88" cy="24.13" r="2.21"/><circle id="Ellipse_351" data-name="Ellipse 351" class="cls-37" cx="134.8" cy="23.23" r="0.72"/><ellipse id="Ellipse_352" data-name="Ellipse 352" class="cls-12" cx="147.17" cy="25.44" rx="1.94" ry="2.21"/><circle id="Ellipse_353" data-name="Ellipse 353" class="cls-37" cx="146.35" cy="24.54" r="0.72"/><path id="Path_3695" data-name="Path 3695" class="cls-32" d="M225.61,545.82l0,.18c.25.89,1.35,4.7,2,5s-2.64.79-2.64.79" transform="translate(-82 -520)"/><g id="Thank_You_" data-name="Thank You " class="cls-38"><text class="cls-39" transform="translate(177.22 20.02)">Thank<tspan class="cls-40" x="29.45" y="0"> </tspan><tspan class="cls-41" x="32.05" y="0">Y</tspan><tspan x="37.97" y="0">ou</tspan></text></g><path id="Path_3696" data-name="Path 3696" class="cls-42" d="M262.43,559.78s15.33,0,20-12.13" transform="translate(-82 -520)"/></g></g></g></svg>