<?xml version="1.0" encoding="utf-8"?>
<!-- Generator: Adobe Illustrator 23.1.0, SVG Export Plug-In . SVG Version: 6.00 Build 0)  -->
<svg version="1.1" id="Layer_1" xmlns="http://www.w3.org/2000/svg" xmlns:xlink="http://www.w3.org/1999/xlink" x="0px" y="0px"
	 viewBox="0 0 1366 768" style="enable-background:new 0 0 1366 768;" xml:space="preserve">
<style type="text/css">
	.st0{fill:#F0FCFF;}
	.st1{opacity:0.68;fill:url(#Path_3105_1_);enable-background:new    ;}
	.st2{opacity:0.68;fill:url(#Path_3106_1_);enable-background:new    ;}
	.st3{opacity:0.68;fill:url(#Path_3107_1_);enable-background:new    ;}
	.st4{opacity:0.68;fill:url(#Path_3108_1_);enable-background:new    ;}
	.st5{opacity:0.68;fill:url(#Path_3109_1_);enable-background:new    ;}
	.st6{opacity:0.68;fill:url(#Path_3110_1_);enable-background:new    ;}
	.st7{opacity:0.68;fill:url(#Path_3111_1_);enable-background:new    ;}
	.st8{opacity:0.68;fill:url(#Path_3112_1_);enable-background:new    ;}
	.st9{fill:#90939A;}
	.st10{opacity:0.68;fill:url(#Path_3117_1_);enable-background:new    ;}
	.st11{opacity:0.68;fill:url(#Path_3118_1_);enable-background:new    ;}
	.st12{opacity:0.68;fill:url(#Path_3119_1_);enable-background:new    ;}
	.st13{opacity:0.68;fill:url(#Path_3120_1_);enable-background:new    ;}
	.st14{fill:#898D9C;}
	.st15{fill:#90949C;}
	.st16{fill:#93979D;}
	.st17{opacity:0.68;fill:url(#Path_3134_1_);enable-background:new    ;}
	.st18{opacity:0.68;fill:url(#Path_3135_1_);enable-background:new    ;}
	.st19{opacity:0.68;fill:url(#Path_3136_1_);enable-background:new    ;}
	.st20{fill:#888C93;}
	.st21{fill:#F1F2F2;}
	.st22{fill:#F3F3F3;}
	.st23{fill:#CCF1FF;}
	.st24{fill:url(#Path_3143_1_);}
	.st25{fill:url(#Path_3144_1_);}
	.st26{fill:url(#Path_3145_1_);}
	.st27{opacity:0.46;fill:url(#Path_3146_1_);enable-background:new    ;}
	.st28{fill:url(#Path_3147_1_);}
	.st29{opacity:0.26;fill:url(#Path_3148_1_);enable-background:new    ;}
	.st30{opacity:0.58;fill:url(#Path_3149_1_);enable-background:new    ;}
	.st31{fill:#639164;}
	.st32{fill:#D9441F;}
	.st33{fill:#FFA082;}
	.st34{fill:#FFFFFF;}
	.st35{fill:#E67A67;}
	.st36{fill:#4F93E0;}
	.st37{fill:#26254A;}
	.st38{fill:#C0BDD9;}
	.st39{fill:#487548;}
	.st40{fill:#D0D2D4;}
	.st41{fill:#F6F6FA;}
	.st42{fill:#CE858D;}
	.st43{fill:#DEE0E2;}
	.st44{fill:#3078BF;}
	.st45{fill:#404FCA;}
	.st46{fill:#3F4249;}
	.st47{fill:#F2F2F3;}
	.st48{fill:#1E1D1D;}
	.st49{fill:#993319;}
	.st50{fill:#D44A7A;}
	.st51{fill:#FEAD25;}
	.st52{fill:#441500;}
	.st53{fill:#ED8014;}
	.st54{fill:#FAE3AF;}
	.st55{fill:#F9D285;}
	.st56{fill:#B8426D;}
	.st57{fill:#C4C6C8;}
	.st58{fill:#FCFCFC;}
	.st59{fill:#D18486;}
	.st60{fill:#5063F9;}
	.st61{fill:#FA9C9C;}
	.st62{fill:url(#Ellipse_327_1_);}
	.st63{fill:url(#Ellipse_328_1_);}
	.st64{opacity:0.69;}
	.st65{fill:url(#Path_3258_1_);}
	.st66{opacity:0.26;}
	.st67{fill:url(#Path_3259_1_);}
	.st68{opacity:0.25;}
	.st69{fill:url(#Path_3260_1_);}
	.st70{opacity:0.33;}
	.st71{fill:url(#Path_3261_1_);}
	.st72{opacity:0.45;fill:url(#Path_3262_1_);enable-background:new    ;}
	.st73{opacity:0.45;fill:url(#Path_3263_1_);enable-background:new    ;}
	.st74{opacity:0.45;fill:url(#Path_3264_1_);enable-background:new    ;}
	.st75{opacity:0.63;fill:url(#Path_3265_1_);enable-background:new    ;}
	.st76{opacity:0.45;fill:url(#Path_3266_1_);enable-background:new    ;}
	.st77{fill:#B4B8BD;}
	.st78{fill:#D38587;}
	.st79{fill:#D7DADC;}
	.st80{fill:#82508F;}
	.st81{fill:#210549;}
	.st82{fill:#181532;}
	.st83{fill:#704685;}
	.st84{fill:#D9DCDE;}
	.st85{fill:#21252B;}
	.st86{fill:#D3D4D7;}
	.st87{fill:#FDFDFE;}
	.st88{fill:url(#Ellipse_333_1_);}
	.st89{fill:url(#Path_3304_1_);}
	.st90{fill:url(#Path_3305_1_);}
	.st91{fill:url(#Path_3306_1_);}
</style>
<g id="Group_168">
	<rect id="Rectangle_381" class="st0" width="1366" height="766.3"/>
	<g id="Group_157" transform="translate(552.841 567.726)">
		
			<linearGradient id="Path_3105_1_" gradientUnits="userSpaceOnUse" x1="-188.371" y1="213.4795" x2="-187.115" y2="214.0362" gradientTransform="matrix(34.0493 0 0 -76.893 6445.1274 16436.1016)">
			<stop  offset="0" style="stop-color:#2B9EFC"/>
			<stop  offset="1" style="stop-color:#3FD8F5"/>
		</linearGradient>
		<path id="Path_3105" class="st1" d="M47.3,27.1C46.1,21.8,44.5,16.4,44,11c-1.5-14.8,1.7-28.5,12.1-40c3.5-3.9,7.7-7.2,12.2-9.9
			c0.3,0.6,0.7,1.2,0.9,1.7C78.8-15.2,74.5,7.1,53.7,23c-1.9,1.4-3.8,2.8-5.7,4.1L47.3,27.1z"/>
		
			<linearGradient id="Path_3106_1_" gradientUnits="userSpaceOnUse" x1="-182.4896" y1="214.283" x2="-181.6683" y2="215.226" gradientTransform="matrix(57.002 0 0 -49.649 10452.333 10698.668)">
			<stop  offset="0" style="stop-color:#2B9EFC"/>
			<stop  offset="1" style="stop-color:#3FD8F5"/>
		</linearGradient>
		<path id="Path_3106" class="st2" d="M65.9,29.4c7.2-3.6,15-5.1,23.5-5.6c-0.7,3.2-1.1,6.1-2,9C82.7,48.4,72.1,58.5,56,63.5
			c-0.5,0.2-1,0.4-1.6,0.5l-3.6,0.9l-1,0.2l-11.6,1.4l1.7-7c4.4-12.2,11.8-22.1,23.5-28.8c0.4-0.3,0.8-0.6,1.1-0.9l0.1,0L65.9,29.4z
			"/>
		
			<linearGradient id="Path_3107_1_" gradientUnits="userSpaceOnUse" x1="-185.8378" y1="214.5009" x2="-185.3991" y2="214.8643" gradientTransform="matrix(39.2532 0 0 -47.4969 7306.3286 10229.0117)">
			<stop  offset="0" style="stop-color:#2B9EFC"/>
			<stop  offset="1" style="stop-color:#3FD8F5"/>
		</linearGradient>
		<path id="Path_3107" class="st3" d="M33.1,39.1c1.5,4.9,2.2,9.9,2,15c0,0.4-0.5,0.9-0.7,1.3l-1-0.1l-5.6-1l-0.9-0.2
			c-6.1-1.8-11.8-4.4-16.6-8.6c-1-1.1-2-2.2-3-3.3c-0.2-0.2-0.5-0.4-0.7-0.6l0,0L6.3,41c-2.9-4.1-4.4-8.8-5.7-13.5l-0.2-2.7
			c-0.1-3-0.2-6-0.3-9.1c0-0.8,0.3-1.2,1.2-1l1.2,0.2c10,2,18.7,6.1,25.1,14c0.4,0.5,0.7,1,1,1.4l1.1,1.5l2.1,3.7l1.2,2.7l0,0
			L33.1,39.1z"/>
		
			<linearGradient id="Path_3108_1_" gradientUnits="userSpaceOnUse" x1="-182.6266" y1="215.0734" x2="-182.3022" y2="215.5375" gradientTransform="matrix(53.195 0 0 -37.1479 9684.4971 8017.5381)">
			<stop  offset="0" style="stop-color:#2B9EFC"/>
			<stop  offset="1" style="stop-color:#3FD8F5"/>
		</linearGradient>
		<path id="Path_3108" class="st4" d="M-6,42.8c-4.8-0.5-9.6-0.5-14.2-1.4c-15.7-3.1-26.7-11.6-32-26.4c-0.4-1.1-0.6-2.2-0.9-3.4
			c18.6-2.9,34.9,3.3,43.9,21.1c1.5,3,2.5,6.3,3.7,9.4C-5.7,42.4-5.8,42.6-6,42.8z"/>
		
			<linearGradient id="Path_3109_1_" gradientUnits="userSpaceOnUse" x1="-182.5644" y1="215.0771" x2="-182.2486" y2="215.5633" gradientTransform="matrix(53.464 0 0 -34.6452 9725.6973 7444.1113)">
			<stop  offset="0" style="stop-color:#2B9EFC"/>
			<stop  offset="1" style="stop-color:#3FD8F5"/>
		</linearGradient>
		<path id="Path_3109" class="st5" d="M-10.8,6.6C-19.1,6-27.3,4.7-35,1.4C-44.8-2.8-52.5-9.1-57-18.7c-0.5-1.1-0.8-2.2-1.3-3.4
			c4.8-1,9.6-1.3,14.5-0.9c16.1,1.4,25.9,10.2,31.6,24.2c0.7,1.7,1.2,3.6,1.7,5.3L-10.8,6.6z"/>
		
			<linearGradient id="Path_3110_1_" gradientUnits="userSpaceOnUse" x1="-193.0509" y1="213.7059" x2="-191.9432" y2="214.1574" gradientTransform="matrix(24.8338 0 0 -61.066 4773.3784 13048.418)">
			<stop  offset="0" style="stop-color:#2B9EFC"/>
			<stop  offset="1" style="stop-color:#3FD8F5"/>
		</linearGradient>
		<path id="Path_3110" class="st6" d="M-3,1.7l-6.3-12.6L-9.8-14C-11.9-24-9.3-33-3.8-41.3c1.8-2.8,4.1-5.3,6.3-8.1
			c4.3,5.2,7.2,10.5,8.5,16.6c2.2,10.9-1.1,20.6-7.3,29.6C2.2-1,0.3,0.9-1.4,3L-3,1.7z"/>
		
			<linearGradient id="Path_3111_1_" gradientUnits="userSpaceOnUse" x1="-187.5242" y1="214.7244" x2="-186.5523" y2="215.5038" gradientTransform="matrix(34.7666 0 0 -43.391 6533.9194 9415.2529)">
			<stop  offset="0" style="stop-color:#2B9EFC"/>
			<stop  offset="1" style="stop-color:#3FD8F5"/>
		</linearGradient>
		<path id="Path_3111" class="st7" d="M17.9,103.6l-6.2,1.4l-0.9-0.1c0.3-3.8,0.6-7.6,0.9-11.3c0.4-1.6,0.8-3.1,1.1-4.7l3.6-7.8
			l0.7-1.1c2.3-3.1,5.1-5.7,8.3-7.9l0.9-0.4l7.5-2.9l0.9-0.3l2.4-0.4l1,0l3.5-0.3c0.1,1.3,0.3,2.5,0.3,3.7c0.1,8.5-2.3,16.1-8,22.7
			l-1.1,1.1l-9.1,6.2l-0.8,0.3l-4.2,1.6L17.9,103.6z"/>
		
			<linearGradient id="Path_3112_1_" gradientUnits="userSpaceOnUse" x1="-196.9472" y1="213.5653" x2="-195.5031" y2="214.0654" gradientTransform="matrix(20.905 0 0 -60.377 4131.063 12865.8496)">
			<stop  offset="0" style="stop-color:#2B9EFC"/>
			<stop  offset="1" style="stop-color:#3FD8F5"/>
		</linearGradient>
		<path id="Path_3112" class="st8" d="M34.3-28.1c-2.6-5.3-4.2-11.1-4.8-16.9c-1.1-13.6,4-25,13.9-34.5c0.2-0.2,0.5-0.3,0.7-0.4
			c0.7,2,1.5,3.8,2,5.7c4.4,16.2,1.3,30.9-9.5,44c-0.5,0.6-1,1.3-1.5,1.9L34.3-28.1z"/>
		<path id="Path_3113" class="st9" d="M36,118c1-5.7,3.2-10.8,7.7-15.1l3.3-3.6l0.1-1l-2,1.7l-6.1,7.3l-0.3-0.1
			c0.6-2.3,1.1-4.7,1.7-7c0.6-2.5,1.4-4.9,2-7.4c0.2-1.4,1.1-2.7,2.4-3.4c1.2-0.7,2.3-1.5,3.4-2.3c0.4-0.3,0.8-0.6,1.2-0.9
			c6.9-4.3,13.8-8.5,20.7-12.8c0-0.2,0-0.5-0.1-0.7c-1.7,0.9-3.5,1.7-5.1,2.7c-5.3,3.3-10.6,6.6-15.9,10l-5.3,3.7
			c0.8-3,1.5-6.1,2.4-9c1.5-5.1,3.2-10.1,4.8-15.1l-1,0.2c-2.5,8.1-5.1,16.2-7.4,24.4c-2.6,9.5-4.9,19-7.2,28.5L36,118z M43.6,89.2
			C43.6,89.2,43.6,89.2,43.6,89.2c-0.1,0.1-0.1,0.1-0.1,0.1L43.6,89.2z"/>
		<path id="Path_3114" class="st9" d="M30.7,117.7c0-0.1,0-0.2,0-0.4c1-7.1,2-14.3,3.1-21.4c0.1-0.6,0.1-1.2,0.1-1.8l-1.1,1.1
			c-0.8,6-1.6,12.1-2.4,18.1c-0.2,1.4-0.4,2.9-0.6,4.3L30.7,117.7z"/>
		<path id="Path_3115" class="st9" d="M18.7,116.9c0-4.5,0.1-9,0.1-13.5l-0.9,0.2c-0.1,4.4-0.1,8.7-0.2,13.2
			C18,116.8,18.3,116.9,18.7,116.9z"/>
		<path id="Path_3116" class="st9" d="M22.6,117.3c0.4-5.3,0.8-10.5,1.1-15.8l-0.8,0.3l-1.1,15.4C22.1,117.2,22.4,117.3,22.6,117.3z
			"/>
		
			<linearGradient id="Path_3117_1_" gradientUnits="userSpaceOnUse" x1="-183.6739" y1="216.5741" x2="-183.3439" y2="217.1756" gradientTransform="matrix(46.929 0 0 -25.8321 8614.8281 5661.9644)">
			<stop  offset="0" style="stop-color:#2B9EFC"/>
			<stop  offset="1" style="stop-color:#3FD8F5"/>
		</linearGradient>
		<path id="Path_3117" class="st10" d="M4.3,68.5c3.2,3.1,5.6,6.8,7.1,10.9c0.1,0.2,0.3,0.4,0.4,0.6l0,0l0,1.1l0.2,0.8l-5.8,0.8
			l-1,0.2c-4.2,0.2-8.3-0.2-12.4-1.2c-8.7-2.5-15.1-7.7-19.9-15c-1-1.5-1.8-3.2-3-5.2c3.9-0.3,7.4-0.8,10.8-0.8
			c7.9,0,15.3,1.6,21.7,6.5c0.1,0.1,0.3,0.1,0.5,0.1l0,0l0.1,0.4L4.3,68.5z"/>
		
			<linearGradient id="Path_3118_1_" gradientUnits="userSpaceOnUse" x1="-198.8667" y1="214.0287" x2="-197.9128" y2="214.3669" gradientTransform="matrix(18.7961 0 0 -53.005 3747.0037 11359.9365)">
			<stop  offset="0" style="stop-color:#2B9EFC"/>
			<stop  offset="1" style="stop-color:#3FD8F5"/>
		</linearGradient>
		<path id="Path_3118" class="st11" d="M29.9,22.5C20.6,15.5,15.8,6.4,15.7-5c0-5.6,1-11.1,3.1-16.3c0.2-0.5,0.5-1.1,0.8-1.7
			c5.6,3.5,10.1,8.4,13,14.2c-0.1,1.3-0.2,2.6-0.3,3.9c-0.6,8.5-1.3,17-1.9,25.6C30.2,21.3,30,21.9,29.9,22.5z"/>
		
			<linearGradient id="Path_3119_1_" gradientUnits="userSpaceOnUse" x1="-191.6646" y1="216.3013" x2="-191.3424" y2="216.686" gradientTransform="matrix(25.381 0 0 -21.235 4828.8394 4552.3228)">
			<stop  offset="0" style="stop-color:#2B9EFC"/>
			<stop  offset="1" style="stop-color:#3FD8F5"/>
		</linearGradient>
		<path id="Path_3119" class="st12" d="M-24.2-32.2c-5.5-0.3-10.6-1.9-14.8-5.4c-4-3.4-6.3-7.6-7.5-12.8c5.7,0.1,10.8,1.4,15.3,4.7
			c3.5,2.7,6,6.5,6.9,10.7c0.2,0.7,0.4,1.4,0.5,2.2L-24.2-32.2z"/>
		
			<linearGradient id="Path_3120_1_" gradientUnits="userSpaceOnUse" x1="-259.1839" y1="214.6514" x2="-256.2963" y2="215.0973" gradientTransform="matrix(5.476 0 0 -35.521 1435.1947 7650.2046)">
			<stop  offset="0" style="stop-color:#2B9EFC"/>
			<stop  offset="1" style="stop-color:#3FD8F5"/>
		</linearGradient>
		<path id="Path_3120" class="st13" d="M33.5-6.6c3.9,10.4,2.7,20.5-1.4,30.5l-0.7,0L31,23.5c-0.1-0.6-0.1-1.3-0.1-1.9
			c0.4-4.5,0.8-8.9,1.2-13.4c0.4-4.4,0.7-8.7,1-13.1C33.2-5.4,33.3-6,33.5-6.6z"/>
		<path id="Path_3121" class="st9" d="M12,81.8c-0.1-0.3-0.1-0.5-0.2-0.8c0-0.4,0-0.7,0-1l0,0c0-3.2,0.1-6.5,0-9.7
			c-0.1-4.6-0.5-9.3-1.2-13.8c-0.6-3.9-2-7.6-3.1-11.4c-0.3-1.1-0.7-2.2-1-3.4c0.3,0.2,0.5,0.4,0.7,0.6c1,1.1,2,2.2,3,3.3
			c0.5,3.1,0.9,6.3,1.5,9.4c1.3,5.9,2.7,11.8,4.1,17.8c0.5,2.4,0.9,4.9,1.3,7.4l-0.7,1.1c-0.1-0.2-0.1-0.4-0.2-0.6
			c-1.1-5.7-2.2-11.3-3.2-17c-0.1-0.4-0.3-0.9-0.4-1.3c0.1,8.9,0.2,17.8,0.3,26.6c-0.4,1.6-0.8,3.1-1.1,4.7
			C11.9,89.7,11.9,85.7,12,81.8z"/>
		<path id="Path_3122" class="st14" d="M33-6.2c-0.1,0.6-0.2,1.1-0.3,1.7c-0.3,4.4-0.6,8.7-1,13.1c-0.4,4.5-0.8,8.9-1.2,13.4
			c0,0.6,0,1.3,0.1,1.9c-0.2,0.5-0.3,1-0.4,1.5c-0.2,2.2-0.4,4.3-0.5,6.5l-1.1-1.5c0.3-2.5,0.5-4.9,0.8-7.4c0.2-0.6,0.3-1.2,0.4-1.8
			c0.7-8.5,1.3-17,1.9-25.6c0.1-1.3,0.2-2.6,0.3-3.9c0.2-0.6,0.3-1.2,0.4-1.8c0.5-5.8,1-11.6,1.4-17.5l0.8-0.2
			c-0.5,6.3-1,12.6-1.6,18.9C33-8.1,33-7.1,33-6.2z"/>
		<path id="Path_3123" class="st15" d="M38.2,68.1l-1,0c1.4-7.2,2.7-14.5,4.4-21.6c1.4-6,3.2-12,4.8-17.9c0.1-0.4,0.3-0.7,0.4-1
			l0.7,0c-1.1,4.2-2.4,8.3-3.4,12.5c-1.5,6-2.8,12.1-4.1,18.1c0,0.4,0,0.8,0.1,1.2c-0.6,2.4-1.1,4.7-1.7,7
			C38.3,67,38.2,67.5,38.2,68.1z"/>
		<path id="Path_3124" class="st16" d="M5.3,82.7l1-0.2C6,90.8,5.9,99,5.5,107.2c-0.2,3.7-1.1,7.4-1.7,11.1
			c-0.1,0.4-0.3,0.7-0.7,0.9c-0.1-0.3-0.2-0.7-0.2-1.1c1.7-7.7,2.2-15.5,2.5-23.4C5.5,90.7,5.3,86.7,5.3,82.7z"/>
		<path id="Path_3125" class="st16" d="M4.3,68.5l-1.2-0.9c0-0.1,0-0.3-0.1-0.4l0,0c-0.4-1.9-0.6-3.9-1.2-5.8
			C0.1,54.9-2.5,48.7-6,42.8c0.2-0.2,0.3-0.4,0.5-0.6c3.3,5.1,5.8,10.6,7.4,16.4C2.9,61.8,3.6,65.2,4.3,68.5z"/>
		<path id="Path_3126" class="st15" d="M-24.7-31.8l0.4-0.6c4.7,5.3,8.9,10.9,12.5,16.9c0.5,0.7,1,1.3,1.5,1.9
			c0.2,1,0.4,2.1,0.5,3.1c-2.1-3.3-4-6.7-6.3-9.9C-18.8-24.3-21.8-28-24.7-31.8z"/>
		<path id="Path_3127" class="st16" d="M-11.3,7l0.4-0.1c1.3,1.5,2.5,3,3.6,4.7c2.4,3.9,4.5,7.9,6.8,11.9c0.3,0.5,0.6,0.9,0.9,1.3
			c0.1,0.9,0.1,1.8,0.2,2.7c-2.1-3.8-4.1-7.7-6.3-11.4c-1.6-2.8-3.5-5.4-5.2-8.2C-11.1,7.6-11.2,7.3-11.3,7z"/>
		<path id="Path_3128" class="st16" d="M10.8,105l0.9,0.1c-0.6,4.8-1.2,9.6-1.7,14.4l-0.7,0c-0.1-0.5-0.2-1-0.1-1.5
			C9.7,113.7,10.3,109.3,10.8,105z"/>
		<path id="Path_3129" class="st16" d="M-3.5,2.1l1.6,1.4c1.4,3.8,2.9,7.6,4.3,11.4l-1.2-0.2c-1.4-3.7-2.7-7.3-4.1-11
			C-3,3.2-3.3,2.6-3.5,2.1z"/>
		<path id="Path_3130" class="st15" d="M34.8,68.6l-0.9,0.3l-0.5-13.5l1,0.1C34.6,59.8,34.7,64.2,34.8,68.6z"/>
		<path id="Path_3131" class="st15" d="M30.8,24.3l0.7,0l1.4,13.9c-0.4-0.9-0.8-1.8-1.2-2.7c0-0.6,0-1.3,0-1.9
			C31.5,30.5,31.1,27.4,30.8,24.3z"/>
		<path id="Path_3132" class="st15" d="M33.1,39.1l-0.2-0.9L33.1,39.1z"/>
		<path id="Path_3133" class="st9" d="M6.3,41l0.3,0.7L6.3,41z"/>
		
			<linearGradient id="Path_3134_1_" gradientUnits="userSpaceOnUse" x1="-185.5508" y1="214.3863" x2="-184.6622" y2="215.239" gradientTransform="matrix(41.611 0 0 -43.3565 7797.1025 9309.0039)">
			<stop  offset="0" style="stop-color:#2B9EFC"/>
			<stop  offset="1" style="stop-color:#3FD8F5"/>
		</linearGradient>
		<path id="Path_3134" class="st17" d="M70.3,19.9c1.3-4.8,2.3-9.8,4-14.5C76.9-1.9,82-8.1,88.7-12.3c5.4-3.2,11.6-4.9,17.9-4.8
			c0.3,0,0.6,0.1,0.9,0.1c-0.1,3.8-0.9,7.7-2.2,11.3c-4.8,13.6-14.8,21.6-29.1,24.8c-1.7,0.4-3.5,0.7-5.2,1L70.3,19.9z"/>
		
			<linearGradient id="Path_3135_1_" gradientUnits="userSpaceOnUse" x1="-183.4689" y1="216.7684" x2="-182.8328" y2="218.1042" gradientTransform="matrix(49.492 0 0 -23.5575 9174.6318 5168.6929)">
			<stop  offset="0" style="stop-color:#2B9EFC"/>
			<stop  offset="1" style="stop-color:#3FD8F5"/>
		</linearGradient>
		<path id="Path_3135" class="st18" d="M70,73.4c0-0.2,0-0.5-0.1-0.7c2.3-3,4.3-6.3,7-9c8.3-8.4,18.6-11.4,30.5-9.7
			c2.2,0.3,4.4,0.8,6.8,1.3c-1.7,4.2-4.5,7.9-8.1,10.7c-6.2,5-13.5,7.3-21.5,7.7C79.8,74,74.9,73.5,70,73.4z"/>
		
			<linearGradient id="Path_3136_1_" gradientUnits="userSpaceOnUse" x1="-186.797" y1="218.9729" x2="-186.1712" y2="220.316" gradientTransform="matrix(35.723 0 0 -16.6436 6741.521 3731.9082)">
			<stop  offset="0" style="stop-color:#2B9EFC"/>
			<stop  offset="1" style="stop-color:#3FD8F5"/>
		</linearGradient>
		<path id="Path_3136" class="st19" d="M47,99.3l0.1-1v0l0.4-0.5C53.1,87.7,64,83.9,78.9,87.1c-1.2,2-2.5,3.9-3.9,5.7
			c-4.1,4.8-10.2,7.6-16.7,7.5C54.6,100.4,50.8,99.7,47,99.3z"/>
		<path id="Path_3137" class="st16" d="M69.8,20.3l0.7,0.2c-1.6,3-3.1,5.9-4.7,8.9l-1.2,0.4L69.8,20.3z"/>
		<path id="Path_3138" class="st20" d="M47.4,97.8L47,98.3L47.4,97.8z"/>
		<path id="Path_3139" class="st16" d="M27.8,54.4c-0.5,5.8-0.9,11.6-1.4,17.4l-0.9,0.4c0.5-6,0.9-12,1.4-18L27.8,54.4z"/>
		<path id="Path_3140" class="st21" d="M43.7,89.1c0,0,0,0.1-0.1,0.1c0,0-0.1,0-0.1,0L43.7,89.1L43.7,89.1z"/>
		<path id="Path_3141" class="st22" d="M11.8,79.9c0,0.3,0,0.7,0,1C11.9,80.6,11.8,80.3,11.8,79.9z"/>
		<path id="Path_3142" class="st22" d="M3,67.1c0,0.1,0,0.3,0.1,0.4L3,67.1z"/>
	</g>
	<ellipse id="Ellipse_316" class="st23" cx="368.7" cy="698.5" rx="262.2" ry="28.3"/>
	
		<linearGradient id="Path_3143_1_" gradientUnits="userSpaceOnUse" x1="378.181" y1="780.2133" x2="377.9619" y2="780.5942" gradientTransform="matrix(842.6015 0 0 -711.889 -318125.375 555974.3125)">
		<stop  offset="0" style="stop-color:#2B9EFC"/>
		<stop  offset="9.000000e-03" style="stop-color:#2B9EFB;stop-opacity:0.988"/>
		<stop  offset="0.383" style="stop-color:#33B6F9;stop-opacity:0.573"/>
		<stop  offset="0.683" style="stop-color:#39C8F6;stop-opacity:0.263"/>
		<stop  offset="0.895" style="stop-color:#3DD3F5;stop-opacity:7.500000e-02"/>
		<stop  offset="1" style="stop-color:#3FD8F5;stop-opacity:0"/>
	</linearGradient>
	<path id="Path_3143" class="st24" d="M138,608.2c0,0,211.5-5.4,221-116.2s107.2-91.1,148.8-138.7S523.9,236.4,648,217.4
		C810.8,192.6,739.8,25.8,729.8,0H0v611.6L138,608.2z"/>
	
		<linearGradient id="Path_3144_1_" gradientUnits="userSpaceOnUse" x1="377.4197" y1="780.2516" x2="377.9999" y2="780.8555" gradientTransform="matrix(993.34 0 0 -893.334 -375104.5313 697682.8125)">
		<stop  offset="0" style="stop-color:#3FD8F5"/>
		<stop  offset="0.368" style="stop-color:#3FD8F5;stop-opacity:0.588"/>
		<stop  offset="0.675" style="stop-color:#3FD8F5;stop-opacity:0.271"/>
		<stop  offset="0.892" style="stop-color:#3FD8F5;stop-opacity:7.500000e-02"/>
		<stop  offset="1" style="stop-color:#3FD8F5;stop-opacity:0"/>
	</linearGradient>
	<path id="Path_3144" class="st25" d="M0,767.4c0,0,50.8-151.2,240.9-162.5C454,592.4,483,476.8,483.4,406.4S543.7,228,700.8,197.9
		C888.6,162,888.6,0,888.6,0L0,1.5V767.4z"/>
	
		<linearGradient id="Path_3145_1_" gradientUnits="userSpaceOnUse" x1="377.3412" y1="780.0165" x2="378.2658" y2="781.2907" gradientTransform="matrix(931.043 0 0 -728.578 -351556.25 569008.4375)">
		<stop  offset="0" style="stop-color:#2B9EFC"/>
		<stop  offset="9.000000e-03" style="stop-color:#2B9EFB;stop-opacity:0.988"/>
		<stop  offset="0.383" style="stop-color:#33B6F9;stop-opacity:0.573"/>
		<stop  offset="0.683" style="stop-color:#39C8F6;stop-opacity:0.263"/>
		<stop  offset="0.895" style="stop-color:#3DD3F5;stop-opacity:7.500000e-02"/>
		<stop  offset="1" style="stop-color:#3FD8F5;stop-opacity:0"/>
	</linearGradient>
	<path id="Path_3145" class="st26" d="M2.1,625.9c0,0,115-14,189.9-121.7S214.1,305.5,363.6,275c149.5-30.5,211.6-1.1,270.1-57
		S633.7,17.2,832.8,0L0,2L2.1,625.9z"/>
	
		<linearGradient id="Path_3146_1_" gradientUnits="userSpaceOnUse" x1="378.4396" y1="781.1427" x2="377.7237" y2="780.6107" gradientTransform="matrix(951.21 0 0 -688.386 -359179.375 537618.4375)">
		<stop  offset="0" style="stop-color:#3FD8F5"/>
		<stop  offset="0.368" style="stop-color:#3FD8F5;stop-opacity:0.588"/>
		<stop  offset="0.675" style="stop-color:#3FD8F5;stop-opacity:0.271"/>
		<stop  offset="0.892" style="stop-color:#3FD8F5;stop-opacity:7.500000e-02"/>
		<stop  offset="1" style="stop-color:#3FD8F5;stop-opacity:0"/>
	</linearGradient>
	<path id="Path_3146" class="st27" d="M850.9,1.4c0,0-58.9,143.7-182.7,138.1c-123.8-5.6-173,27.3-180.9,93
		C480.9,285.1,504,400.8,354,439.2c-111.2,28.5-221.4-2.1-277.8,90.8C40.4,589,0,591.4,0,591.4V0L850.9,1.4z"/>
	
		<linearGradient id="Path_3147_1_" gradientUnits="userSpaceOnUse" x1="377.5248" y1="780.2869" x2="378.5569" y2="781.7141" gradientTransform="matrix(900.4 0 0 -609.625 -339973.2188 476106.125)">
		<stop  offset="0" style="stop-color:#0979CC"/>
		<stop  offset="0.23" style="stop-color:#2EA7E8"/>
		<stop  offset="0.347" style="stop-color:#3EBAF4"/>
		<stop  offset="0.653" style="stop-color:#228BDF"/>
		<stop  offset="0.695" style="stop-color:#2792E2"/>
		<stop  offset="0.885" style="stop-color:#3DB4F3"/>
	</linearGradient>
	<path id="Path_3147" class="st28" d="M805.4,0c0,0-102.6,101.4-212.2,96.5s-154.6,51.3-161.6,109.4c-5.6,46.6,14.8,149-118.1,183
		c-98.4,25.2-196.1-1.9-246,80.4C35.7,521.6,0,523.7,0,523.7V0H805.4z"/>
	
		<linearGradient id="Path_3148_1_" gradientUnits="userSpaceOnUse" x1="377.7179" y1="781.0328" x2="377.7007" y2="780.0876" gradientTransform="matrix(516.068 0 0 -546.656 -194694.8125 426989.8125)">
		<stop  offset="0" style="stop-color:#FFFFFF;stop-opacity:0.8"/>
		<stop  offset="4.200000e-02" style="stop-color:#FFFFFF;stop-opacity:0.761"/>
		<stop  offset="0.517" style="stop-color:#FFFFFF;stop-opacity:0.357"/>
		<stop  offset="0.846" style="stop-color:#FFFFFF;stop-opacity:9.800000e-02"/>
		<stop  offset="1" style="stop-color:#FFFFFF;stop-opacity:0"/>
	</linearGradient>
	<path id="Path_3148" class="st29" d="M428.7,138.5V120h-16v-14.9H366V120h-16v79.9h-49.7v-29.3h-43.1V91.2h-63.9V70.4h-18V53.7
		h-52.4v16.8h-18v89.7H49.2v-32.8H0.8v396c0,0,35.7-2.1,67.5-54.4c49.9-82.2,147.5-55.2,246-80.4c132.8-34,112.4-136.4,118.1-183
		c2.9-24,12.3-47.8,30.1-67L428.7,138.5z"/>
	
		<linearGradient id="Path_3149_1_" gradientUnits="userSpaceOnUse" x1="377.5344" y1="781.0497" x2="377.5515" y2="780.1252" gradientTransform="matrix(421.755 0 0 -458.894 -159013.1563 358522.75)">
		<stop  offset="0" style="stop-color:#FFFFFF;stop-opacity:0.8"/>
		<stop  offset="4.200000e-02" style="stop-color:#FFFFFF;stop-opacity:0.761"/>
		<stop  offset="0.517" style="stop-color:#FFFFFF;stop-opacity:0.357"/>
		<stop  offset="0.846" style="stop-color:#FFFFFF;stop-opacity:9.800000e-02"/>
		<stop  offset="1" style="stop-color:#FFFFFF;stop-opacity:0"/>
	</linearGradient>
	<path id="Path_3149" class="st30" d="M397.2,139.4h-60.5v62.3h-18.9l-59.7-45.6v45.6h-12.3v52.1h-31.2v39.1h-19.5v-20.8h-4.7v-20.2
		h-41.3v20.2h-4.7v41H112V192.8H28.8v319.6c11.9-7.8,26.2-20.9,39.7-43.3c49.9-82.2,147.5-55.2,246-80.4
		c47.2-12.1,75-32.8,91.5-56.5V118.2h-8.9L397.2,139.4z M98.7,276.7H42.1v-7.9h56.6V276.7z M98.7,259.7H42.1v-7.9h56.6V259.7z
		 M98.7,242.6H42.1v-7.9h56.6V242.6z M98.7,225.6H42.1v-7.9h56.6V225.6z M276.7,309.7h-9.4v-75.2h9.4V309.7z M300.5,309.7h-9.4
		v-75.2h9.4V309.7z M324.4,309.7H315v-75.2h9.4V309.7z M347,158.3h6.6v8.1H347V158.3z M353.8,190.1h-6.6v-8.1h6.6V190.1z
		 M353.8,178.2h-6.6v-8.1h6.6V178.2z M357.6,158.3h6.6v8.1h-6.6L357.6,158.3z M364.4,190.1h-6.6v-8.1h6.6V190.1z M364.4,178.2h-6.6
		v-8.1h6.6V178.2z M368.2,158.3h6.6v8.1h-6.6V158.3z M375,190.1h-6.6v-8.1h6.6V190.1z M375,178.2h-6.6v-8.1h6.6V178.2z M378.6,158.3
		h6.6v8.1h-6.6V158.3z M385.4,178.2h-6.6v-8.1h6.6L385.4,178.2z M395.8,166.4h-6.6v-8.1h6.6V166.4z"/>
	<g id="Group_159" transform="translate(271.305 268.577)">
		<path id="Path_3150" class="st31" d="M4,9.5c1.5,4.5,3,9,4.4,13.5l1.1,3l3.2,9.9c0.6,1.7,1.1,3.3,1.7,5c0.8,2,1,4.4,2.4,5.9
			c3.7,3.9,7.9,7.5,12,11.1l5.7,5.3L46.1,74l5,1.3c1.2,0.3,2.3,0.5,3.5,0.8c4.6,1.1,9.3,2.1,13.9,3.2c5.3,10.5,24.8,12.6,33.2,3.8
			c7.1,1.4,14.2,2.5,21.2,4.4c5,1.4,8.2,5.4,10.8,9.7c8.8,14.6,17.6,29.3,26.4,43.9c0.5,0.8,1,1.7,1.6,2.6c4.6-0.9,9-1.7,13.4-2.7
			c0.9-0.2,1.7-1.1,2.7-1.4c1.7-0.5,3.4-0.8,5.2-1c3.6-0.5,7.2-0.7,10.7-1.4c5.6-1,11.1-2.3,16.7-3.4c1.4-0.2,2.9,0.2,4.3,0.3
			l3.9,9.1c0.2,1.1,0.4,2.1,0.6,3.2c-5,1.6-10,3.2-15.1,4.8c-13.5,4.2-27,8.5-40.6,12.5c-3.3,1-6.7,1.5-10.1,1.5
			c-3.2,0-6.3-0.9-9.5-1.5c-4-5.9-7.9-11.8-11.9-17.7c-4.8-7.1-9.6-14.2-14.4-21.3c-1.2-2.2-1.5-5.1-4.8-6.4c-0.3,1.7-0.6,3-0.7,4.3
			c-0.4,4.5-0.8,9-1.2,13.6c-0.7,6.9-1.4,13.8-2.1,20.7c-0.4,4.1-0.8,8.1-1.2,12.2c-0.7,6.4-1.2,12.7-2.2,19.1
			c-1,6.6,0.5,13.8-3.9,19.8l-2.8,0c-0.4-0.1-0.7-0.1-1.1-0.2c-16.4-1.6-32.8-3.1-49.1-4.7c-6.4-0.6-12.8-1.1-19.2-1.6
			c-2.6-1.6-2.3-4-2-6.5c1.1-10,2.1-20.1,3.1-30.1c0.1-0.7,0-1.4,0-2.1l1.1-10.2c0.7-6.3,1.4-12.6,2.1-18.9
			c0.9-8.8,1.7-17.6,2.5-26.3c-0.4-2.5,0.8-5-1.2-7.4C24.4,87,14.1,74.1,3.9,61.1c-2.2-2.7-4.9-5.5-5.7-8.7
			c-2.9-10.7-5.1-21.5-7.4-32.3c-1.7-7.9-3.1-15.9-4.7-23.8l1.8-0.6l8.9-1.4c1.1,1.2,2.5,2.3,3.1,3.8C1.5,1.8,2.7,5.7,4,9.5z"/>
		<path id="Path_3151" class="st32" d="M103.5,51.3c-3.4-0.5-2,2.6-3.3,4.3c-1.1-2.3-2.5-4.2-3-6.2c-0.5-2.2-0.1-4.6-0.1-6.8
			c-6,0-11.8,0.1-17.5,0C75.3,42.5,75,43,74.5,47c-0.3,2.6-1.4,5.2-2.2,8c-2.4-0.8-0.1-5.4-4.2-4.2c-2.1-3.1-2.2-6.6-2-10.1
			c0.5-1.6,0.9-3.2,1.4-4.8c1.7-3.1,4.7-5.3,8.3-6.2c1-0.2,1.9-0.8,2.5-1.5c1.8-2.6,4.5-3.2,7.5-3.2l7,4c0.8,0.2,1.5,0.5,2.3,0.7
			c5,1,6.8,3.6,5.9,8.4C105.9,40.9,106.6,44.5,103.5,51.3z"/>
		<path id="Path_3152" class="st33" d="M218.6,134.8c0.9-0.8,1.8-1.6,2.6-2.5c1.7-2.1,3.2-4.2,4.9-6.3c1.4-1.7,2.8-3.3,4.3-4.9
			c0.4-0.4,0.9-1.1,1.8-0.8s0.7,1.5,0.6,2.1c-0.2,0.8-0.9,1.5-1.3,2.3c-0.7,1.5-1.2,3-2,4.9c4.6,0.5,8.1-0.5,11.5-1.7
			c1.7-0.6,3.5-1.2,5.3-1.6c0.7-0.1,1.8-0.2,2.2,0.6c0.4,0.8-0.7,1.7-1.3,2c-2.3,1.2-4.7,2.2-7.1,3.3l0.3,1.1c2.7-0.4,5.4-1,8.2-1.3
			c1-0.1,2.4-0.5,3.1,0.3s-1,2.1-2.4,2.5c-2.7,0.7-5.3,1.4-8,2.2l0,0.9c1.5,0.2,3,0.4,4.6,0.5c0.7,0,1.5-0.3,2.2-0.3
			c0.7,0.1,1.6-0.2,1.9,0.8s-0.6,1.4-1.2,1.6c-1,0.4-2.1,0.7-3.2,0.7c-1.3,0.1-2.7,0-4,0c0,0.3-0.1,0.5-0.1,0.8c1,0.2,2,0.5,3,0.8
			c0.7,0.2,1.5,0,1.9,1.1c0.4,1.1-1.4,1-2.2,1.1c-1.3,0.1-2.6,0.1-3.9,0l-12.9,0.1l-1.2,0c-1-0.1-2-0.3-3-0.6c-1-0.5-1.9-1-2.7-1.6
			c0-0.2,0-0.3,0-0.5l-0.4-0.6L218.6,134.8z"/>
		<path id="Path_3153" class="st34" d="M72.3,79.4c6.4,5.8,13.8,7.5,22.2,4.8c1.4-0.6,2.8-1.3,4.1-2.2l3,1.2
			c-8.4,8.8-27.9,6.7-33.2-3.8L72.3,79.4z"/>
		<path id="Path_3154" class="st35" d="M98,75c-5.1,2.1-10.3,2-15.6,0.8c1.5,0,3.1,0.1,4.6,0c4.5-0.3,7.1-3.1,9.4-6.4
			c0.5-0.6,1-1.2,1.5-1.8C97.9,70.1,98,72.6,98,75z"/>
		<path id="Path_3155" class="st34" d="M220.6,142.3c0,0.2,0,0.3,0,0.5l-2.1,0.6l-3.9-9.1l4,0.6c0.5,2.3,1.1,4.6,1.6,6.8
			L220.6,142.3z"/>
		<path id="Path_3156" class="st36" d="M19.8,403.4c-1.9,0-2.6-0.9-2.9-2.7C10.3,368.7,3.7,336.8-3,304.9c-0.9-4.1-0.7-8.4,0.7-12.4
			c10.7-29.3,21.5-58.5,32.2-87.8c1.4,0.1,2.8,0.3,4.2,0.4c14.6,1.4,29.2,2.8,43.8,4.1c6.9,0.6,13.9,1.2,20.8,1.8l0,0.2
			c-0.5,5.6-1.2,11.2-1.6,16.7c-0.5,5.3-0.7,10.7-1.2,16c-0.9,9.7-1.8,19.3-2.7,29c-0.8,8.6-1.5,17.2-2.2,25.8
			c-0.4,2.8-0.5,5.7-0.5,8.5c0.2,3.5,1,7,1.5,10.6c1.9,13.4,3.8,26.8,5.7,40.2c2.2,14.8,4.4,29.6,6.6,44.4l-3.9,0.5l-12.8,0.6
			c-2.1,0.1-1.9-1.6-2.2-2.8c-5.2-21.3-10.3-42.6-15.5-64c-3.2-13.5-7.1-26.8-7.1-40.8c0-14-1.1-28.1-1.7-42.1
			c-0.2-1.9-0.5-3.9-1-5.8l-0.6-0.5l0,0.1c-1.4-0.7-3.1-2.3-4.3-2c-1.8,0.6-3.2,1.9-4,3.5c-7.1,15.7-13.9,31.5-21,47.2
			c-2.3,5-3.6,10.1-3,15.5c0.8,7.2,1.5,14.3,2.2,21.5c0.4,4.3,0.8,8.7,1.2,13c0.7,7,1.4,14,2.1,21c0.5,4.7,0.8,9.4,1.3,14.1
			c0.7,7.2,1.4,14.3,2.1,21.5L19.8,403.4z"/>
		<path id="Path_3157" class="st37" d="M-12.2,428.8c0-3.4,1-4.8,4.4-5.6c4.9-1.2,10-1.7,13.5-5.9c1.3,1,2.4,2.5,3.8,2.7
			c0.9,0.1,2.1-1.6,3.1-2.6c0.1,0,0.3,0,0.4,0.1c4.1-1.3,6.7-4.4,9.7-7c0.7,0.8,1.4,1.7,2.1,2.5c1.9,2,4.2,2.5,6.2,1.3
			c1-0.7,1.9-1.4,2.8-2.2l5-0.4c0.2,0.8,0.3,1.7,0.4,2.5c0,4.7,0,9.4,0.1,14.1L-12.2,428.8z"/>
		<path id="Path_3158" class="st34" d="M98.7,211c-6.9-0.6-13.9-1.1-20.8-1.8c-14.6-1.3-29.2-2.7-43.8-4.1c-1.4-0.1-2.8-0.3-4.2-0.4
			c-0.2-1.1-0.4-2.2-0.7-3.2c6.4,0.5,12.8,1,19.2,1.6c16.4,1.5,32.8,3.1,49.1,4.7c0.4,0,0.7,0.1,1.1,0.2C98.7,209,98.7,210,98.7,211
			z"/>
		<path id="Path_3159" class="st38" d="M-12.2,428.8l51.4-0.5c0,0.9,0,1.7,0,2.6l-51.3,0C-12.2,430.2-12.2,429.5-12.2,428.8z"/>
		<path id="Path_3160" class="st33" d="M33.7,412.1c-0.9,0.8-1.8,1.5-2.8,2.2c-2,1.2-4.3,0.7-6.2-1.3c-0.7-0.8-1.4-1.6-2.1-2.5
			l-3-3.9c0-0.7,0.1-1.3,0.1-2c2.6,0.4,5.3,0.8,7.9,1.1C32.3,406.2,33.7,407.7,33.7,412.1z"/>
		<path id="Path_3161" class="st35" d="M33.7,412.1c0-4.4-1.4-5.8-6-6.4c-2.6-0.3-5.3-0.7-7.9-1.1c0-0.4-0.1-0.8-0.1-1.1l16.2-0.4
			l3.4,0.5l-0.7,8.1L33.7,412.1z"/>
		<path id="Path_3162" class="st38" d="M19.7,406.5l3,3.9c-3,2.7-5.7,5.7-9.7,7l-0.5-1.1l0,0l-0.6-0.6l0,0l-0.6-0.6l0.1,0.1
			l-0.6-0.6l0.1,0c-0.1-0.3-0.4-0.6-0.4-0.9c0.2-1.2,4.3-3.7,5.7-3.5l0.4,0.4l0.9,0.1l-0.2-0.6l-0.6-0.5L19.7,406.5z M15.9,415
			c-0.1-0.1-0.1-0.3-0.2-0.4c0,0-0.2,0-0.2,0.1c0,0.1,0,0.3,0,0.4L15.9,415z"/>
		<path id="Path_3163" class="st38" d="M12.6,417.4c-1.1,0.9-2.3,2.7-3.1,2.6c-1.4-0.2-2.6-1.7-3.8-2.7c1.5-1.3,2.8-3.1,5.2-2.5
			l-0.1,0c0,0.2,0,0.4,0,0.6l0.7,0l-0.1-0.1c0,0.2,0,0.4,0,0.6l0.6,0l0,0c0,0.2,0,0.4,0,0.6l0.6,0l0,0
			C12.5,416.7,12.5,417.1,12.6,417.4z"/>
		<path id="Path_3164" class="st39" d="M4.8,69.9c-2.5-3.1-5.1-6.1-7.5-9.4c-1.7-2.4-3.2-5-4.7-7.5l-1.8-8.4l-0.7-3.9
			c-0.3-1.6-0.6-3.2-0.9-4.9c-2-10.6-4.1-21.1-6-31.7c-0.4-2.3-1.7-4.7,0.3-6.9l2.7-0.9c1.5,7.9,3,15.9,4.7,23.8
			C-7,30.9-4.7,41.7-1.9,52.4c0.8,3.2,3.6,5.9,5.7,8.7c10.2,13,20.6,25.9,31,38.8c2,2.4,0.8,5,1.2,7.4l-4.1-4.4l-7.4-9.1L21,89.6
			L9.9,76.1L4.8,69.9z"/>
		<path id="Path_3165" class="st33" d="M-15.9-6.2c-0.6-1-1.2-2.1-1.8-3.1l-2.3-3.3c-0.8-1.6-1.7-3.3-2.5-4.9
			c-1.3-1.8-2.7-3.5-3.9-5.4c-0.9-1.3-2.7-5.1-1.9-5.6c0.9-0.6,3.1,2.8,4.4,3.7c0.2,0.2,0.3,0.4,0.5,0.6l-0.3-0.8
			c-0.8-1.6-1.6-3.2-2.2-4.9c-0.2-0.7-0.9-1.9,0.3-2.6c1.2-0.6,1.7,0.9,2.3,1.6c1.2,1.5,2.2,3.2,3.2,4.8l0.9-0.4
			c-0.6-2.2-1.2-4.5-1.8-6.7c-0.2-0.8-0.9-4.5,0.4-4.6c1.3-0.1,1.4,0.8,1.7,1.4c1.2,2.8,2.3,5.7,3.5,8.6l1.2-0.2
			c-0.2-2.4-0.5-4.7-0.6-7.1c0-0.9-0.6-2.2,0.6-2.7c1.1-0.6,2,1.3,2.3,2.2c0.9,2.7,1.4,5.5,2.1,8.3c0.3,0.8,0.7,1.6,1.1,2.4
			c0.8,0.9,1.4,2.3,2.4,2.6c2,0.7,2.6-1.2,3.2-2.5c0.2-0.7,0.6-1.3,1-1.9c0.7-0.6,1.2-1.9,2.4-1.4s0.4,1.8,0.2,2.6
			c-0.5,2.7-1.3,5.3-1.9,8c-0.9,1.6-1.9,3.2-2.8,4.9c-1.7,1.1-1.6,2.7-1,4.3l-7.4,2L-15.9-6.2z"/>
		<path id="Path_3166" class="st39" d="M174.4,165c-5.1,1.7-10.1,3.6-15.2,4.9c-6,1.6-12-1-15.3-6.1c3.2,0.5,6.3,1.5,9.5,1.5
			c3.4,0,6.8-0.5,10.1-1.5c13.6-4,27.1-8.3,40.6-12.5c5-1.6,10-3.2,15.1-4.8l0.3,0.7c-1.5,1.2-2.7,3-4.4,3.7
			C201.6,155.7,188,160.3,174.4,165z"/>
		<path id="Path_3167" class="st38" d="M66.7,430.9c0.3-0.8,0.6-1.5,0.9-2.3c5.9-0.1,11.9-0.5,17.8-0.2c6,0.5,11.9-1.1,16.8-4.5
			c1-0.7,2.3-1.2,3.4-1.9c3.3-2,6.6-4.1,9.9-6.2l3,2.5l-22.6,12.2c-3,0.3-6,0.8-9.1,0.9c-5.8,0.1-11.7,0.1-17.5,0
			C68.4,431.3,67.6,431.2,66.7,430.9z"/>
		<path id="Path_3168" class="st39" d="M117.7,124.8c-0.9,8.5-1.9,17.1-2.7,25.6c-1.2,12-2.4,24-3.6,36c-0.6,6-1.1,12.1-2,18.1
			c-0.2,1.4-1.8,2.7-2.7,4l-5.1-0.5c4.4-6,2.9-13.1,3.9-19.8c0.9-6.3,1.5-12.7,2.2-19.1c0.4-4.1,0.8-8.1,1.2-12.2
			c0.7-6.9,1.5-13.8,2.1-20.7c0.4-4.5,0.8-9,1.2-13.6c0.1-1.3,0.4-2.6,0.7-4.3C116.2,119.7,116.5,122.6,117.7,124.8z"/>
		<path id="Path_3169" class="st40" d="M101.4,208l5.1,0.5c-0.1,1-0.2,2.1-0.4,3.1l-7.5-0.3l0-0.2c0-1,0-2,0-3.1L101.4,208z"/>
		<path id="Path_3170" class="st34" d="M-5.4-8.2c2-0.2,2.3,1.1,2.2,2.6l-8.9,1.4l-0.7-1.9L-5.4-8.2z"/>
		<path id="Path_3171" class="st40" d="M-12.8-6.2l0.7,1.9l-1.8,0.6l-2.7,0.9c-0.8-0.9-0.7-2.3,0.3-3.1c0.1-0.1,0.2-0.2,0.4-0.2
			L-12.8-6.2z"/>
		<path id="Path_3172" class="st41" d="M89.8,67c-1.4,0.7-2.7,1.9-4.1,1.9c-1.3,0-2.6-1.3-4-2l0.4-0.8h7.2L89.8,67z"/>
		<path id="Path_3173" class="st35" d="M79.1,74.5L81,75l-0.3,0.7L79.1,74.5L79.1,74.5z"/>
		<path id="Path_3174" class="st42" d="M76.3,71.9c-0.2-0.4-0.4-0.7-0.6-1.1l0,0C75.9,71.1,76.1,71.5,76.3,71.9L76.3,71.9z"/>
		<path id="Path_3175" class="st42" d="M75.2,70.2l-0.4-0.6l0.2-0.1L75.2,70.2L75.2,70.2z"/>
		<path id="Path_3176" class="st42" d="M78.5,74L78,73.5l0,0L78.5,74L78.5,74z"/>
		<path id="Path_3177" class="st42" d="M78,73.5l-0.6-0.5l0,0C77.6,73.1,77.8,73.3,78,73.5L78,73.5z"/>
		<path id="Path_3178" class="st42" d="M77.4,72.9l-0.6-0.5l0,0L77.4,72.9L77.4,72.9z"/>
		<path id="Path_3179" class="st42" d="M76.9,72.4c-0.2-0.2-0.4-0.4-0.6-0.5l0,0L76.9,72.4L76.9,72.4z"/>
		<path id="Path_3180" class="st42" d="M75.2,70.2l0.6,0.5l0,0L75.2,70.2L75.2,70.2z"/>
		<path id="Path_3181" class="st42" d="M78.5,74l0.6,0.5l0,0L78.5,74L78.5,74z"/>
		<path id="Path_3182" class="st43" d="M220.6,142.3l-0.4-0.6C220.4,141.9,220.5,142.1,220.6,142.3z"/>
		<path id="Path_3183" class="st44" d="M98.7,211.2l7.5,0.3c-1.8,22.8-3.6,45.7-5.4,68.5c-0.6,7.9-1.6,15.7-1.9,23.6
			c-0.2,4.3,0.6,8.7,1.1,13.1c1.2,12,2.4,24,3.7,36.1c1.2,11.9,2.5,23.8,3.7,35.8c0.4,4,0.9,8,1.2,12c-0.1,0.7-0.2,1.3-0.5,1.9
			l-3.3,0.1l-0.6-0.1c-2.2-14.8-4.5-29.6-6.6-44.4c-2-13.4-3.8-26.8-5.7-40.2c-0.5-3.5-1.3-7-1.5-10.6c0-2.9,0.1-5.7,0.5-8.5
			c0.7-8.6,1.4-17.2,2.2-25.8c0.9-9.7,1.9-19.3,2.7-29c0.5-5.3,0.7-10.7,1.2-16C97.5,222.4,98.1,216.8,98.7,211.2z"/>
		<path id="Path_3184" class="st44" d="M59.5,247.7c-2.1-0.4-3.2,0.5-4,2.4c-6.9,17.2-13.9,34.4-20.6,51.6c-1.1,3-1.5,6.2-1.2,9.4
			c1,13.7,2.3,27.5,3.5,41.2c1.2,13.7,2.5,27.4,3.7,41.2c0.2,2.6,0.4,5.2,0.7,7.8c0.2,1.6-0.5,2.4-2.2,2.2l-3.4-0.5
			c-0.7-7.2-1.4-14.3-2.1-21.5c-0.4-4.7-0.8-9.4-1.3-14.1c-0.7-7-1.4-14-2.1-21c-0.4-4.3-0.8-8.7-1.2-13c-0.7-7.2-1.4-14.3-2.2-21.5
			c-0.6-5.5,0.7-10.5,3-15.5c7.1-15.7,13.9-31.5,21-47.2c0.8-1.6,2.3-2.9,4-3.5C56.3,245.4,58,247,59.5,247.7z"/>
		<path id="Path_3185" class="st33" d="M88.1,405.6c-0.2-0.7-0.4-1.4-0.6-2l12.8-0.6l1.6,2.7c-0.9,3.1-2.9,4.2-5.9,3.2
			c-1.1-0.4-2.2-0.8-3.3-1.3L88.1,405.6z"/>
		<path id="Path_3186" class="st35" d="M102,405.7l-1.6-2.7l3.9-0.5l0.6,0.1C103.9,403.6,102.9,404.6,102,405.7z"/>
		<path id="Path_3187" class="st45" d="M60,248.2l-0.6-0.5L60,248.2z"/>
		<path id="Path_3188" class="st22" d="M12.6,417.4c0-0.3-0.1-0.7-0.1-1l0.5,1.1C12.8,417.4,12.7,417.4,12.6,417.4z"/>
		<path id="Path_3189" class="st46" d="M15.9,415l-0.4,0.1c0-0.1,0-0.3,0-0.4c0,0,0.2-0.1,0.2-0.1C15.8,414.7,15.8,414.8,15.9,415z"
			/>
		<path id="Path_3190" class="st22" d="M11.4,415.4l-0.7,0c0-0.2,0-0.4,0-0.6L11.4,415.4z"/>
		<path id="Path_3191" class="st22" d="M12,415.9l-0.6,0c0-0.2,0-0.4,0-0.6L12,415.9z"/>
		<path id="Path_3192" class="st22" d="M12.5,416.4l-0.6,0c0-0.2,0-0.4,0-0.6L12.5,416.4z"/>
		<path id="Path_3193" class="st22" d="M17.2,410.3l0.2,0.6l-0.9-0.1L17.2,410.3z"/>
		<path id="Path_3194" class="st22" d="M16.6,410.8l-0.4-0.4l0.5-0.6l0.6,0.5L16.6,410.8z"/>
		<path id="Path_3195" class="st37" d="M102,405.7c0.9-1,1.9-2.1,2.8-3.1l3.3-0.1l7.4,13.3c-3.3,2.1-6.6,4.1-9.9,6.2
			c-1.1,0.7-2.3,1.2-3.4,1.9c-4.8,3.4-10.8,5-16.8,4.5c-5.9-0.3-11.9,0.1-17.8,0.2c0.3-3.3,1.8-5.4,5.3-6.4c2.5-0.8,4.9-1.7,7.2-2.7
			c1.7,1.9,3.6,2,5.4,0.7c1.9-1.4,3.1-3,3-5.4c0.3,0,0.7,0.1,1,0.2c1.3,0.4,1.5,0.1,0.6-0.9c0.2-0.8,0.4-1.6,0.6-2.4l1.2-1.2
			l0.8-2.9c1.1,0.4,2.2,0.9,3.3,1.3C99.1,409.8,101.1,408.7,102,405.7z"/>
		<path id="Path_3196" class="st38" d="M88.6,414.9c0,2.3-1.1,4-3,5.4c-1.8,1.3-3.7,1.2-5.4-0.7l2-2.6l2.3,0.4l2.5,0.6l0.2-0.6
			l-2-0.6l-2.2-0.8c0.1-2.7,2.2-1.8,3.6-2.1l-0.1-0.1l2.3,0.6l0,0c-0.1,0.1-0.2,0.1-0.2,0.2C88.5,414.6,88.5,414.7,88.6,414.9z"/>
		<path id="Path_3197" class="st38" d="M92.8,407.6l-0.8,2.9h-3.4l0.1,0l-2.5-1.2c0.7-1.2,1.3-2.4,2-3.7L92.8,407.6z"/>
		<path id="Path_3198" class="st38" d="M90.8,411.7c-0.2,0.8-0.4,1.6-0.6,2.4l-1.6,0.2l0,0l-2.3-0.6l0.1,0.1l-1.8-1.2
			c-0.2-3.3,2.7-1.4,4-2.1l-0.1,0L90.8,411.7z"/>
		<path id="Path_3199" class="st47" d="M90.8,411.7l-2.2-1.2H92L90.8,411.7z"/>
		<path id="Path_3200" class="st47" d="M88.6,414.3l1.6-0.2c0.8,1,0.7,1.3-0.6,0.9c-0.3-0.1-0.7-0.1-1-0.2c-0.1-0.1-0.1-0.3-0.1-0.4
			C88.4,414.4,88.5,414.3,88.6,414.3z"/>
		<path id="Path_3201" class="st47" d="M86.3,413.7l2.3,0.6L86.3,413.7z"/>
		<path id="Path_3202" class="st47" d="M85,416.6l2,0.6l-0.2,0.6l-2.5-0.6L85,416.6z"/>
		<path id="Path_3203" class="st33" d="M103.5,51.3c-3.4-0.5-2,2.6-3.3,4.3c-1.1-2.3-2.5-4.2-3-6.2c-0.5-2.2-0.1-4.6-0.1-6.8
			c-6,0-11.8,0.1-17.5,0C75.3,42.5,75,43,74.5,47c-0.3,2.6-1.4,5.2-2.2,8c-2.4-0.8-0.1-5.4-4.2-4.2c-2.2,1-2.4,3-2.5,4.9
			c1.1,2.3,2,4.6,5.2,5c0.5,0.1,1,1.1,1.3,1.8c1.6,3.4,0.8,7,0.6,10.5c-0.1,2.1-0.4,4.3-0.6,6.4c6.4,5.8,13.8,7.5,22.2,4.8
			c1.4-0.6,2.8-1.3,4.1-2.2c-0.2-2.3-0.4-4.7-0.6-7c-5.1,2.1-10.3,2-15.6,0.8c1.5,0,3.1,0.1,4.6,0c4.5-0.3,7.1-3.1,9.4-6.4
			c0.5-0.6,1-1.2,1.5-1.8c0.4-1.7,0.7-3.5,1.3-5.2c0.2-0.6,0.7-1.1,1.4-1.3C105.9,59.6,107.2,55.4,103.5,51.3z M80.7,75.7l-1.6-1.1
			L78.5,74L78,73.5l-0.6-0.5l-0.6-0.5l-0.6-0.5c-0.2-0.4-0.4-0.7-0.6-1.1l-0.6-0.5l-0.4-0.6l0.2-0.1l0.2,0.7l0.6,0.5
			c0.2,0.4,0.4,0.7,0.6,1.1l0.6,0.5l0.6,0.5c0.2,0.2,0.4,0.4,0.6,0.5l0.6,0.5l0.6,0.5l1.9,0.4L80.7,75.7z M85.8,69
			c-1.3,0-2.6-1.3-4-2c0.1-0.3,0.2-0.5,0.4-0.8h7.2l0.5,0.9C88.5,67.7,87.1,69,85.8,69z"/>
		<ellipse id="Ellipse_317" class="st48" cx="79.8" cy="53.4" rx="2.2" ry="2.1"/>
		<ellipse id="Ellipse_318" class="st34" cx="78.9" cy="52.4" rx="0.8" ry="0.8"/>
		<ellipse id="Ellipse_319" class="st48" cx="93.1" cy="53.4" rx="2.2" ry="2.1"/>
		<ellipse id="Ellipse_320" class="st34" cx="92.2" cy="52.4" rx="0.8" ry="0.8"/>
		<path id="Rectangle_382" class="st35" d="M85.8,54.8L85.8,54.8c0.5,0,0.9,0.4,0.9,0.8v3.6c0,0.5-0.4,0.8-0.9,0.8l0,0
			c-0.5,0-0.9-0.4-0.9-0.8v-3.6C84.9,55.1,85.3,54.8,85.8,54.8z"/>
		<g id="Group_158" transform="translate(106.665 73.152)">
			<path id="Path_3204" class="st49" d="M-31.6-40.9c1-0.2,1.9-0.8,2.5-1.5c1.8-2.6,4.5-3.2,7.5-3.2l7,4c0.8,0.2,1.5,0.5,2.3,0.7
				c5,1,6.8,3.6,5.9,8.4c3.6,2,4.9,4.6,4,8.5c2-5.4,1-8.6-3.3-11c0.9-4.8-1-7.4-5.9-8.4c-0.8-0.2-1.6-0.5-2.3-0.7l-7-4
				c-3-0.1-5.6,0.5-7.5,3.2c-0.6,0.8-1.5,1.3-2.5,1.5c-3.5,0.9-6.5,3.1-8.3,6.2c-0.3,0.9-0.5,1.7-0.8,2.6
				C-38.1-37.8-35.1-40-31.6-40.9z"/>
		</g>
	</g>
	<g id="Group_160" transform="translate(434.313 393.991)">
		<path id="Path_3205" class="st50" d="M54.8,42.7c0.7-1.7,1.4-3.3,2.1-5c0.1,0.6,0.2,1.3,0.4,1.9c-0.5,1.8-0.9,3.6-1.4,5.7
			C55.4,44.4,55.1,43.5,54.8,42.7z"/>
		<path id="Path_3206" class="st51" d="M48.2,93.1c0.3,3.3,0.7,6.6,1,10l0.4,3.4l0.3,3.8c0,1,0.1,1.9,0.1,2.9
			c0.6,7.8,1.1,15.6,1.7,23.4c0.9,11.9,1.8,23.9,2.7,35.8l0.3,1.7c0.2,3.8,0.4,7.6,0.7,11.4c0.9,12.8,1.9,25.7,2.9,38.5
			c0.6,7.2,1.2,14.5,1.8,21.7l0,1.2c0,0.3,0,0.7,0,1c0.8,10.3,1.5,20.6,2.3,30.8c0.1,0.9,0.1,1.7-1.1,1.6l-11.2,0l-0.5-0.2
			c-0.4-3-0.9-6-1.3-9c-0.7-4.8-1.2-9.7-1.9-14.6c-0.8-5.9-1.6-11.9-2.4-17.8c-0.6-4.8-1.2-9.7-1.9-14.6c-0.8-5.9-1.7-11.9-2.5-17.8
			c-0.8-5.9-1.5-11.9-2.3-17.8c-0.8-6.1-1.7-12.3-2.5-18.4c-0.6-4.8-1.2-9.6-1.9-14.3c-0.8-6-1.6-12-2.5-18
			c-0.4-2.9-0.5-5.9-1.4-8.8c-1.3-4.6-6.6-6.8-10.9-4c-1.9-0.4-2.9,0.4-3.1,2.2c-0.1,0.6-0.1,1.1-0.2,1.7
			c-0.6,7.4-1.2,14.8-1.7,22.2c-0.5,7.1-1,14.1-1.4,21.2l-0.2,1.7l-1,14.2l-1.3,15.9l-0.5,7.5C8.4,216.7,8,222,7.6,227.3l-1.4,18.3
			L6,247.2c-0.3,3.9-0.6,7.8-0.9,11.7c-0.4,5.4-0.8,10.9-1.2,16.3l-0.5,4.9l-1.9,0.2l-11.3,0l-0.5-0.2c-0.1-8.8-0.4-17.6-0.4-26.4
			c-0.2-26.8-0.3-53.7-0.4-80.5c0-9.4,0-18.7,0-28.1c0-1.8-0.1-3.6,0-5.4c0.5-7.8,1.1-15.7,1.7-23.5c0.2-3,0.6-6,1.1-9
			c0.8-4.5,1.7-8.9,2.6-13.7h-8.8l0.3-0.5c6.7,0,13.4,0.1,20.1,0.1C20,93.2,34.1,93.2,48.2,93.1z"/>
		<path id="Path_3207" class="st50" d="M48.2,93.1c-14.1,0-28.2,0-42.4,0.1c-6.7,0-13.4-0.1-20.1-0.1c0-0.1,0-0.2,0.1-0.4h7.8
			c-0.2-2.6-0.3-4.9-0.5-7.1c0-0.1,0.1-0.2,0.1-0.3c1.1-0.6,2.3-1.1,3.4-1.8C2.8,79.8,8.8,76,13.5,70.7c2.5-0.5,4.9-1.1,7.3-1.8
			c1-0.5,1.7-1.5,1.8-2.6c-0.2-3.1-0.8-6.1-1.3-9.2c-0.2-1.3-0.9-2.2-2.5-1.8L17.1,55c-2.1-8.8-5.1-17.4-9-25.6
			c-3.8-8.3-8-16.4-12-24.7c-0.3-0.5-1.6-1.3,0.1-1.9l30.4,21.2l2.2-20.7C35,5.2,41.3,6.9,47.5,8.8c3.4,1.1,5.9,4,6.3,7.4
			c0.9,5.3,1.6,10.7,2.4,16l-6.1,0c-0.8-2-0.2-4.5-1.8-6.2l-0.8,0.2v6c-2.3-0.3-3.3,0.8-3.9,2.8c-0.7,2.5-1.8,4.8-2.7,7.2
			c-3,0.2-1.1,2-1.1,3.2l-1.4,3l-1.7-0.1l0.5,3.4l-1.6,3.9L40,56l8.2,4.5c-0.9,4-2,7.9-2.6,11.9c-0.5,3.5-0.9,7.3,2.8,9.8
			C48.3,85.8,48.3,89.5,48.2,93.1z"/>
		<path id="Path_3208" class="st52" d="M-13.5-7c-0.8-2.6-2.7-4.7-5.2-5.7c-3.9-1.6-4.8-5.4-2.1-8.6c1.7-2,2.4-3.9,1.6-6.5
			c-0.7-2.3,0.5-4.1,2.4-5.4c1.7-1.1,2.9-2.8,3.1-4.8c1-6.2,4.5-8.5,10.2-9.3c1.6-0.1,3-1,3.7-2.3c6-8.9,19.1-6.7,23.7-1.2
			c0.7,0.8,1.5,1.4,2.5,1.8c3.5,1.6,5.8,4.1,6.4,7.8c0.2,2,1.3,3.7,3,4.8c2.3,1.4,2.6,3.7,2.9,6c0.2,2.3,1.4,4.4,3.3,5.8
			c4.2,3.4,3.1,8.9-2,11.1c-0.9,0.5-1.6,1.1-2.2,2c-1.6,2.4-3.4,4.5-6.7,4.7c-0.7,0-1.4,0.7-2.1,0.9c-2,0.8-5.2,3.1-7.2,3.8
			c-0.1-0.2,1-1.9,0.8-2l-0.5-4.2c1.5-2.1,5.6-19.9,4.7-20.4c0-0.9,0-1.8-0.1-2.7c-0.1-1.3-0.4-2.7-0.9-3.9c-1-1.5-2.1-3-3.3-4.4
			c-2.5,0.9-5,1.9-7.6,2.9c-1.5,0.5-3.2,0.8-4.4,1.6c-2.9,1.9-5.8,3.3-9.3,2.8v6.8c-2.1-1.7-3.7-2.1-5.2-1.2c-1.5,0.9-2,2.7-1.3,4.8
			c0.5,2,2,3.6,4,4.3c-0.2,1.9,0.5,3.1,2.6,3.2L1-3.6l-1.7-0.3l-2.5-1c-0.6-0.2-1.3-0.4-1.9-0.4C-8.2-5-11.1-5-13.5-7z"/>
		<path id="Path_3209" class="st53" d="M-14.5,93.5h8.8c-0.9,4.8-1.8,9.2-2.6,13.7c-0.5,3-0.9,6-1.1,9c-0.6,7.8-1.2,15.7-1.7,23.5
			c-0.1,1.8,0,3.6,0,5.4c0,9.4,0,18.7,0,28.1c0.1,26.8,0.3,53.7,0.4,80.5c0.1,8.8,0.3,17.6,0.4,26.4l-2.6,0.2l-2-0.2l-0.3-4.9
			l-0.7-16.3l-0.5-11.7l0-1.7l-0.6-18.3c-0.2-5.3-0.4-10.6-0.7-15.9l-0.2-7.5c-0.2-5.3-0.4-10.6-0.7-15.9c-0.2-4.7-0.3-9.4-0.5-14.2
			l0-1.6c-0.1-3.7-0.3-7.5-0.4-11.2c-0.1-5.3-0.1-10.6-0.2-15.9l0.2-7.4c0.4-5.3,0.8-10.6,1.2-15.9l0.9-8.7l0.3-2.8l0.5-3.8l0.4-3.2
			L-14.5,93.5z"/>
		<path id="Path_3210" class="st54" d="M-41.5,83c-2.7-0.8-4.5-3.3-4.3-6c0.1-12.5,0.2-25,0.4-37.5c0-2.2,1.2-4.2,3.1-5.5
			c0.7-0.5,1.1-1.3,1.2-2.1c0.2-9,0.4-18,0.5-27.1c0.1-5.3,3.3-8.8,8.9-9c4.5-0.2,9.1,0,13.6,0l-0.7,2.5C-27.4-0.7-31.5,3.4-29.3,9
			c-2.7,2-4.6,4.5-4.7,7.8c-0.5,11.4-0.9,22.8-1.3,34.2c-0.1,1.4,0.4,1.9,1.8,1.8C-33.9,60-26,84.9-25,85.7c-5,0.3-10.1,0.8-14.7-2
			c-1.1-2.4-2.4-4.7-2.3-7.6c0.3-6.1,0.3-12.3,0.5-18.5c0.1-5,0.3-10,0.4-14.9c0.1-2.3,0-4.7,0-7l-0.7,0c-0.3,1.2-0.5,2.5-0.6,3.8
			c-0.1,6,0,11.9-0.1,17.9C-42.6,65.9-44,74.5-41.5,83z"/>
		<path id="Path_3211" class="st55" d="M-29.3,9c-2.2-5.6,1.9-9.7,10.6-10.6l0.7-2.5l4.5-2.9c2.5,1.9,5.3,2,8.3,1.6
			c0.7,0,1.3,0.2,1.9,0.4c-3,0.1-6.1,0.4-9.1,0.4c-2.3,0-3.1,0.5-3.3,2.7h15.4l-0.5-2.1L1-3.6C1.2,1.3,1,1.5-3.8,2.9
			c-1.7,0.6-0.3,1.4-0.1,1.9c4,8.2,8.2,16.3,12,24.7c3.9,8.2,6.9,16.8,9,25.6l-7.3,0.4C7.3,48.4,5,41.2,2.3,34.2
			c-3.6-9.7-8.4-19-14.3-27.6c-0.4-0.6-1.3-1.4-1.8-1.3c-4.5,0.9-8.9,2.1-13.4,3.2L-29.3,9z"/>
		<path id="Path_3212" class="st33" d="M39.6,45.5c0-1.2-1.8-3,1.1-3.2c2.1,2.9,3.8,6.3,7.6,7.6c0-0.6-0.2-1.2-0.5-1.7
			c-1.3-2-2.7-3.9-3.9-5.9c-0.4-0.6-1-1.2-0.5-2.3c0.5-1.2,2.1,0.2,2.6,0.7c1.7,1.9,3.2,4,4.8,6c0.4,0.5,0.7,1,1.1,1.5
			c0.5-0.6,0.6-1,0.5-1.3c-1.1-2.5-2.2-5.1-3.2-7.6c-0.2-0.6-0.5-1.5,0.2-2c0.7-0.5,1.4,0.3,1.8,0.7c1.3,1.5,2.5,3.1,3.7,4.6
			c0.3,0.8,0.7,1.6,1.1,2.6c0.5-2-0.4-5.7,1.4-5.7c1.8,0,1.8,6.6,1.9,10.1c0.2,5.7,0.8,11.3,1.2,16.9c0.3,4,0.2,7.9-2,11.5
			c-1,0.2-1.9,0.4-2.9,0.7c-4,1-6.5-0.6-7.2-4.4c-0.8-4.1,0.2-8.1,1.4-12c0.4-1.5,0.2-2.2-1.1-3.1c-4.8-2.8-9.6-5.7-12-10.9
			c-0.1-0.6,1-0.2,1.7,0.1s4.6,5.4,6.3,5.5L39.6,45.5z"/>
		<path id="Path_3213" class="st33" d="M61.7,292.2c0.7,3.1,3,4.7,6,5.5l4.4,1.7l2.6,1.2c-1,1.7-1.9,3.4-3,5c-0.4,0.7-1.1,1.2-2,1.3
			c-3.2,0.1-6.3,0-9.5-0.1c-6.3-2.8-8.6-7.9-8.7-14.2L61.7,292.2z"/>
		<path id="Path_3214" class="st37" d="M54.8,42.7c-1.2-1.5-2.4-3.1-3.7-4.6c-0.4-0.4-0.9-1.1-1.8-0.7c-0.5,0.3-0.4,1.4-0.2,2
			c1,2.6,2.2,5.1,3.2,7.6c0.1,0.3,0,0.7-0.5,1.3c-0.3-0.5-0.7-1-1.1-1.5c-1.6-2-3.1-4.1-4.8-6c-0.5-0.5-2.1-1.7-2.6-0.7
			c-0.3,0.8-0.1,1.7,0.5,2.3c1.2,2,2.6,4,3.9,5.9c0.3,0.5,0.5,1.1,0.5,1.7c-3.9-1.4-5.5-4.8-7.6-7.6c0.9-2.4,2-4.8,2.7-7.2
			c0.6-2,1.7-3.1,3.9-2.8H50l6.1,0l2.4,0.2l-1.6,5.3C56.2,39.4,55.5,41.1,54.8,42.7z"/>
		<path id="Path_3215" class="st35" d="M36.5,48.5c2.4,5.2,7.2,8,12,10.9c1.4,0.8,1.6,1.6,1.1,3.1c-1.2,3.9-2.2,7.8-1.4,12
			c0.8,3.8,3.3,5.4,7.2,4.4c1-0.2,1.9-0.4,2.9-0.7c-1.6,3.2-3.8,4.4-7.7,4.2c-0.8,0-1.6-0.1-2.3-0.2c-3.7-2.5-3.3-6.3-2.8-9.8
			c0.6-4,1.7-7.9,2.6-11.9L40,56c-1-1.3-2-2.7-2.9-4.1C35.9,50,36.7,49.6,36.5,48.5z"/>
		<path id="Path_3216" class="st55" d="M-25,85.7l-3.1-2.2l13.8-4.2l-0.3,6.5L-25,85.7z"/>
		<path id="Path_3217" class="st55" d="M-41.5,83c-2.5-8.5-1.1-17.1-0.9-25.7c0.1-6,0-11.9,0.1-17.9c0.1-1.3,0.3-2.5,0.6-3.8l0.7,0
			c0,2.3,0,4.7,0,7c-0.1,5-0.3,10-0.4,14.9c-0.2,6.2-0.2,12.3-0.5,18.5c-0.2,2.9,1.1,5.2,2.3,7.6L-41.5,83z"/>
		<path id="Path_3218" class="st56" d="M-14.6,85.8l0.3-6.5l6.6-2.8c0.1,1.6,0.3,3.2,0.4,4.8l-0.5,0.6c-2.2,1.5-4.4,3.1-6.6,4.6
			L-14.6,85.8z"/>
		<path id="Path_3219" class="st56" d="M-6.8,85.6c0.1,2.2,0.3,4.5,0.5,7.1h-7.8c0-1.1-0.1-2.2-0.1-3.2L-6.8,85.6z"/>
		<path id="Path_3220" class="st55" d="M-6.8,85.6l-7.5,3.9c-1.6-1-0.8-2,0-3l6.6-4.6l0.9,3.4C-6.8,85.4-6.8,85.5-6.8,85.6z"/>
		<path id="Path_3221" class="st39" d="M61.7,292.2l-10,0.5h-2.8c0.4,1,0.6,1.7,0.9,2.4c1.2,2.5,2.4,5,3.6,7.6c2,4.5,2,4.5,7,4.2
			c3.2,0,6.3,0.2,9.5,0.1c0.8-0.2,1.5-0.7,2-1.3c1.1-1.6,2-3.3,3-5l6.7,1.9c-1,1.4-2,2.9-3.3,4.7h10.1c2.8,0.6,0.2,2,0.5,2.9
			c-1,0.4-2,0.7-3,0.8c-6.6,0.1-13.1,0.1-19.7,0c-1.3-0.2-2.6-0.5-3.9-0.9c-1.6,0.4-3.2,0.7-4.9,0.9c-3.1,0-6.2-0.2-9.3-0.4
			c-1.5-1.6-0.4-3.4-0.5-5.1c-0.2-4.5-0.7-9-0.9-13.6c-0.1-1.4,0-2.8,0-4.2l4.3-0.1l10.5-0.6c1.2-0.1,1.8,0.3,1.6,1.5
			C62.7,289.7,64.1,291.5,61.7,292.2z"/>
		<path id="Path_3222" class="st33" d="M88.3,307.2H78.2c1.3-1.9,2.3-3.3,3.3-4.7c1.4,0.4,2.7,0.8,4.1,1.2
			C87.6,304.1,88.5,305.2,88.3,307.2z"/>
		<path id="Path_3223" class="st39" d="M-15.9,310.3c-2.1-0.8-0.9-2.5-1.1-3.8l6.7,0.8l13.8-0.8c-0.3,1.3,1,3.1-1.3,3.8
			c-5.4,1.4-11,1.5-16.5,0.4l-0.8-0.1l-0.1,0l-0.2,0L-15.9,310.3z"/>
		<path id="Path_3224" class="st57" d="M-15.1,310.6l0.8,0.1L-15.1,310.6z"/>
		<path id="Path_3225" class="st57" d="M-15.9,310.3l0.6,0.3l-0.6,0C-15.9,310.5-15.9,310.4-15.9,310.3z"/>
		<path id="Path_3226" class="st53" d="M29.6,188.1c-0.7-4.7-1.5-9.4-2.2-14.2l-0.3-1.7c-0.6-3.7-1.2-7.5-1.8-11.2
			c-0.8-5.3-1.7-10.6-2.5-15.8c-0.9-6-1.7-12-2.8-18c-0.1-0.8-1.2-1.5-1.8-2.2c4.3-2.8,9.6-0.6,10.9,4c0.8,2.8,0.9,5.8,1.4,8.8
			c0.8,6,1.7,12,2.5,18c0.6,4.8,1.2,9.6,1.9,14.3c0.8,6.1,1.7,12.3,2.5,18.4c0.8,5.9,1.5,11.9,2.3,17.8c0.8,5.9,1.7,11.9,2.5,17.8
			c0.7,4.8,1.2,9.7,1.9,14.6c0.8,5.9,1.6,11.9,2.4,17.8c0.7,4.8,1.2,9.7,1.9,14.6c0.4,3,0.9,6,1.3,9l-4.4,0.2
			c-1.3,0.1-1.4-0.8-1.6-1.7c-1.3-8.7-2.7-17.4-4-26.1c-0.3-1.8-0.6-3.5-0.9-5.3l-0.3-1.7c-0.9-6.1-1.9-12.2-2.8-18.3
			c-0.8-5.3-1.7-10.6-2.5-15.8l-1.2-7.6L29.6,188.1z"/>
		<path id="Path_3227" class="st33" d="M61.4,286.9l-10.5,0.6c-0.3-2.4-0.6-4.8-0.8-7.2l11.2,0C61.3,282.5,61.3,284.7,61.4,286.9z"
			/>
		<path id="Path_3228" class="st33" d="M1.5,280.3l0,2.3c-0.2,1.4-0.3,2.8-0.5,4.2l-10.8-0.1c0-2.2,0-4.3,0-6.5L1.5,280.3z"/>
		<path id="Path_3229" class="st35" d="M50.1,280.3c0.3,2.4,0.6,4.8,0.8,7.2l-4.3,0.1c-0.4-2.4-0.9-4.9-1.3-7.3l4.4-0.2L50.1,280.3z
			"/>
		<path id="Path_3230" class="st35" d="M-9.8,280.3c0,2.2,0,4.3,0,6.5l-2.6,0l-0.4-4.1c0-0.8,0-1.5,0-2.3l2.6-0.2L-9.8,280.3z"/>
		<path id="Path_3231" class="st33" d="M9.8,55.4l7.3-0.4l1.7,0.2c0.3,1.2,1.2,2.5-0.5,3c0.4,0.7,1.1,1.2,1.2,1.9
			c0.1,0.5-0.6,1.2-0.9,1.8c1.9,1,2.1,1.9,0.8,2.9c0.2,0.9,0.7,1.8,0.5,2c-0.8,0.8-1.8,1.4-2.9,1.7c-2.8,0.3-5.6,0.3-8.4,0.5
			C7,69.1,5.4,69.4,4,69.9c-9.2,3.4-18.4,6.8-27.6,10.3c-4,1.3-8.3-0.6-10-4.3c-0.3-0.5-0.6-1-1-1.5l1-21.6l2.5-0.2l15.2,0.2
			c-0.1,2.7-0.4,5.4-0.4,8c0.1,1-0.6,1.9-1.6,2.1c-0.1,0-0.1,0-0.2,0c-1.6,0.4-3.3,1-4.8,1.6l0.1,0.4l8.7-1.8l5.5-1.2
			C-2.1,60.6,4.8,60.7,9.8,55.4z"/>
		<path id="Path_3232" class="st35" d="M-34.6,74.4c0.4,0.5,0.7,1,1,1.5c1.6,3.7,6,5.6,10,4.3c9.2-3.5,18.3-6.9,27.6-10.3
			c1.5-0.5,3-0.8,4.6-0.9c2.8-0.2,5.6-0.2,8.4-0.5c1.1-0.3,2.1-0.9,2.9-1.7c0.2-0.2-0.3-1.2-0.5-2c1.3-1,1.2-1.9-0.8-2.9
			c0.3-0.6,0.9-1.2,0.9-1.8c-0.1-0.7-0.7-1.2-1.2-1.9c1.7-0.4,0.8-1.8,0.5-3c1.6-0.3,2.3,0.5,2.5,1.8c0.5,3,1.1,6.1,1.3,9.2
			c-0.1,1.1-0.8,2.1-1.8,2.6c-2.4,0.8-4.8,1.4-7.3,1.8c-1.4-0.1-2.7-0.1-4.1,0c-1.4,0.2-2.9,0.5-4.3,0.8l-12.7,5.1l-6.6,2.8
			c-4.6,1.4-11.2,4.7-13.8,4.2C-36,82-34.7,74.7-34.6,74.4z"/>
		<path id="Path_3233" class="st55" d="M5.1,71.4c1.4-0.3,2.8-0.6,4.3-0.8c1.4-0.1,2.7,0,4.1,0C8.8,76,2.8,79.8-3.4,83.5
			c-1.1,0.7-2.3,1.2-3.4,1.8l-0.9-3.4c0.2-0.2,0.3-0.4,0.5-0.6L5.1,71.4z"/>
		<path id="Path_3234" class="st37" d="M39.6,45.5l4.9,8.5c-1.7-0.1-4.1-2.2-6.3-5.5C38.7,47.5,39.2,46.5,39.6,45.5z"/>
		<path id="Path_3235" class="st56" d="M50,32.3h-2.6v-6l0.8-0.2C49.9,27.8,49.3,30.3,50,32.3z"/>
		<path id="Path_3236" class="st37" d="M37.1,51.9c1,1.4,1.9,2.7,2.9,4.1l-4.5-0.2L37.1,51.9z"/>
		<path id="Path_3237" class="st54" d="M-0.8-3.9l0.5,2.1h-15.4c0.2-2.2,0.9-2.7,3.3-2.7c3,0,6.1-0.3,9.1-0.4L-0.8-3.9z"/>
		<path id="Path_3238" class="st35" d="M22.7-4c-2.8,0.8-5.8,0.5-8.3-0.8c-1.5-0.6-3.1-1.1-4.7-1.5C9-6.5,8.3-6.9,7.8-7.5
			c4.7,1.7,10,1.5,14.5-0.6L22.7-4z"/>
		<path id="Path_3239" class="st58" d="M14.7-14.7h7c0,1.7-1.5,2-2.6,2.3C17.4-12.1,16-12.9,14.7-14.7z"/>
		<path id="Path_3240" class="st59" d="M-3.6-25.3c0.9-0.1,2.2-0.5,2.6-0.1c0.9,1,1.5,2.3,1.6,3.6c-1-1.6-1.3-3.9-4.3-2.8L-3.6-25.3
			z"/>
		<path id="Path_3241" class="st56" d="M-31.1,52.5l-2.5,0.2c-1.4,0.1-1.9-0.4-1.8-1.8c0.5-11.4,0.9-22.8,1.3-34.2
			c0.1-3.3,2-5.8,4.7-7.8l2.1-0.6c-3.2,4.1-4,8.8-3.9,13.8C-30.9,32.3-31.1,42.4-31.1,52.5z"/>
		<path id="Path_3242" class="st50" d="M-31.1,52.5c0-10.1,0.2-20.2-0.1-30.3c-0.1-5.1,0.7-9.7,3.9-13.8c4.5-1.1,8.9-2.2,13.4-3.2
			c0.5-0.1,1.4,0.7,1.8,1.3c5.9,8.6,10.7,17.9,14.3,27.6c2.7,7,5,14.1,7.5,21.2c-4.9,5.2-11.9,5.2-18.3,6.4c-0.3-3-0.6-5.9-0.8-8.8
			c-0.5-7.2-0.9-14.5-1.4-21.7c-0.1-0.9-0.8-1.8-1.3-2.7c-0.4,0.9-1.1,1.8-1.2,2.8c-0.1,6.4,0,12.9-0.1,19.4c-0.2,0.7-0.5,1.4-0.9,2
			l-1.7,0L-31.1,52.5z"/>
		<path id="Path_3243" class="st35" d="M60.4,306.8c-5,0.3-5,0.3-7-4.2c-1.2-2.5-2.4-5.1-3.6-7.6c-0.3-0.7-0.6-1.4-0.9-2.4h2.8
			C51.9,299,54.1,304,60.4,306.8z"/>
		<path id="Path_3244" class="st50" d="M5.1,71.4l-12.3,9.8c-0.1-1.6-0.3-3.2-0.4-4.8L5.1,71.4z"/>
		<path id="Path_3245" class="st39" d="M1.4,298.5l0.3,0.5c0.5,1.8,1,3.7,1.4,5.5c-1.3-0.4-2.5-1.2-3.8-1.3c-4.1-0.1-8.2,0-12.2,0
			l-3.5,0.7c0.7-1.8,1.5-3.6,2.2-5.3l0,0l3.8-0.9L1.4,298.5z"/>
		<path id="Path_3246" class="st33" d="M-12.8,303.2c4.1,0,8.2-0.2,12.2,0c1.3,0,2.5,0.8,3.8,1.3c0.1,0.6,0.2,1.3,0.4,1.9l-13.8,0.8
			C-12.3,306.6-13.4,305.4-12.8,303.2z"/>
		<path id="Path_3247" class="st35" d="M-12.8,303.2c-0.6,2.2,0.5,3.3,2.5,4l-6.7-0.8c0.1-0.6,0.2-1.2,0.2-1.8
			c0.1-0.3,0.3-0.5,0.4-0.7l0,0L-12.8,303.2z"/>
		<path id="Path_3248" class="st60" d="M-16.3,303.9c-0.1,0.3-0.3,0.5-0.4,0.7L-16.3,303.9z"/>
		<path id="Path_3249" class="st39" d="M-12.8,291.9l0.4-5.1l2.6,0L1,286.9c0,1.7,0,3.3,0,5l-10.8,0.1L-12.8,291.9z"/>
		<path id="Path_3250" class="st56" d="M-14.2,52.7c0.4-0.6,0.7-1.3,0.9-2c0.1-6.4,0-12.9,0.1-19.4c0-0.9,0.7-1.9,1.2-2.8
			c0.4,0.9,1.2,1.8,1.3,2.7c0.5,7.2,0.9,14.5,1.4,21.7c0.2,3,0.5,5.9,0.8,8.8l-5.5,1.2L-14.2,52.7z"/>
		<path id="Path_3251" class="st35" d="M-14.2,52.7l0.1,10.4l-8.7,1.8l-0.1-0.4c1.6-0.6,3.2-1.2,4.8-1.6c1,0,1.9-0.9,1.8-1.9
			c0-0.1,0-0.1,0-0.2c0.1-2.7,0.3-5.4,0.4-8L-14.2,52.7z"/>
		<path id="Path_3252" class="st61" d="M17.9-26.5c0.1,0.6,0.2,1.2,0.3,1.8c0.5,2-0.7,4.1-2.7,4.9c-1.9,0.8-4.2,0.1-5.4-1.5
			c-1.1-1.7-1-3.9,0.4-5.4c1.5-1.5,3.9-1.8,5.7-0.7C16.8-27,17.4-26.8,17.9-26.5L17.9-26.5z M16.3-23c-0.9-0.6-1.4-1.2-1.9-1.2
			c-0.5,0.1-1.3,1-1.3,1.3c0.3,0.6,0.8,1.1,1.5,1.3C15-21.5,15.6-22.3,16.3-23z"/>
		<path id="Path_3253" class="st33" d="M-9.8,291.9L1,291.9c0.2,2.2,0.3,4.4,0.5,6.6l-11.7-0.8L-9.8,291.9z"/>
		<ellipse id="Ellipse_321" class="st50" cx="27.9" cy="-16.9" rx="3" ry="2.9"/>
		<path id="Path_3254" class="st35" d="M-9.8,291.9l-0.5,5.7l-3.8,0.9c0.4-2.2,0.8-4.5,1.3-6.7L-9.8,291.9z"/>
		<path id="Path_3255" class="st33" d="M27.9,2.9c-4.3-1.5-5-6.7-5.1-6.9c-2.8,0.8-5.8,0.5-8.3-0.8c-1.5-0.6-3.1-1.1-4.7-1.5
			C9-6.5,8.3-6.9,7.8-7.5c4.7,1.7,10,1.5,14.5-0.6l0.1-0.1c1.6-1.8,3.1-3.7,4.3-5.7c0.1-0.1,0.1-0.3,0.2-0.4l0.1-0.1l0-0.4
			c0.1-0.8,0.2-1.5,0.3-2.3c0.1-0.5,0.1-1,0.1-1.4c0.2-4.9-0.3-11.6-0.3-11.6l0,0c0-0.4,0-0.7-0.1-1.1c-0.1-1.3-0.4-2.7-0.9-3.9
			c-1-1.5-2.1-3-3.3-4.4c-2.5,0.9-5,1.9-7.6,2.9c-1.5,0.5-3.2,0.8-4.4,1.6c-2.9,1.9-5.8,3.3-9.3,2.8v6.8c-2.1-1.7-3.7-2.1-5.2-1.2
			c-1.5,0.9-2,2.7-1.3,4.8c0.5,2,2,3.6,4,4.3c1-1.3,2.2-2.1,3.8-1c1.7,1.2,1.2,3.1-1.2,4.2C1.3-10.7,1.1-7.1,1-3.6
			C1.2,1.3,1,1.5-3.8,2.9l30.4,21.2c0.8-7.2,1.5-13.9,2.2-20.7C28.5,3.2,28.2,3.1,27.9,2.9z M-3.8-24.6l0.1-0.8
			c0.9-0.1,2.2-0.5,2.6-0.1c0.9,1,1.5,2.3,1.6,3.6C-0.4-23.4-0.7-25.7-3.8-24.6L-3.8-24.6z"/>
		<ellipse id="Ellipse_322" class="st50" cx="1" cy="-16.5" rx="3" ry="2.9"/>
		<ellipse id="Ellipse_323" class="st48" cx="11.4" cy="-26.2" rx="1.9" ry="1.9"/>
		<ellipse id="Ellipse_324" class="st34" cx="10.5" cy="-27" rx="0.7" ry="0.7"/>
		<ellipse id="Ellipse_325" class="st48" cx="22.9" cy="-26.2" rx="1.9" ry="1.9"/>
		<ellipse id="Ellipse_326" class="st34" cx="22.1" cy="-27" rx="0.7" ry="0.7"/>
		<path id="Path_3256" class="st35" d="M17.8-26.1c0,0,3,4.7,3.6,5.1c0.6,0.4-2.7,1.6-3,1.1c-0.3-0.5-0.6-5.6-0.6-5.6"/>
		<path id="Path_3257" class="st34" d="M13.6-16.1l7.7,0.6C21.4-15.5,18.7-9.7,13.6-16.1z"/>
	</g>
	
		<radialGradient id="Ellipse_327_1_" cx="366.0992" cy="776.9299" r="1.031" gradientTransform="matrix(24.9379 6.1046 6.3567 -23.949 -13786.5908 16474.4688)" gradientUnits="userSpaceOnUse">
		<stop  offset="0.255" style="stop-color:#FFFFFF;stop-opacity:0"/>
		<stop  offset="0.319" style="stop-color:#F6FBFE;stop-opacity:3.900000e-02"/>
		<stop  offset="0.426" style="stop-color:#E1F1FE;stop-opacity:0.141"/>
		<stop  offset="0.563" style="stop-color:#BDE1FE;stop-opacity:0.31"/>
		<stop  offset="0.724" style="stop-color:#8CCAFD;stop-opacity:0.541"/>
		<stop  offset="0.905" style="stop-color:#4EAEFC;stop-opacity:0.835"/>
		<stop  offset="1" style="stop-color:#2B9EFC"/>
	</radialGradient>
	<ellipse id="Ellipse_327" class="st62" cx="290.2" cy="92.6" rx="12.9" ry="12.4"/>
	
		<radialGradient id="Ellipse_328_1_" cx="376.191" cy="786.4117" r="1.031" gradientTransform="matrix(18.148 -50.3664 -52.4461 -17.4284 34822.7188 32768.3477)" gradientUnits="userSpaceOnUse">
		<stop  offset="0.255" style="stop-color:#FFFFFF;stop-opacity:0"/>
		<stop  offset="0.319" style="stop-color:#F6FBFE;stop-opacity:3.900000e-02"/>
		<stop  offset="0.426" style="stop-color:#E1F1FE;stop-opacity:0.141"/>
		<stop  offset="0.563" style="stop-color:#BDE1FE;stop-opacity:0.31"/>
		<stop  offset="0.724" style="stop-color:#8CCAFD;stop-opacity:0.541"/>
		<stop  offset="0.905" style="stop-color:#4EAEFC;stop-opacity:0.835"/>
		<stop  offset="1" style="stop-color:#2B9EFC"/>
	</radialGradient>
	<ellipse id="Ellipse_328" class="st63" cx="546.9" cy="44.3" rx="27.7" ry="26.6"/>
	<g id="Group_161" transform="translate(78.312 2.606)" class="st64">
		
			<linearGradient id="Path_3258_1_" gradientUnits="userSpaceOnUse" x1="290.9259" y1="777.7366" x2="291.7811" y2="777.7366" gradientTransform="matrix(43.9843 0 0 -46.6649 -12803.5605 36312.6797)">
			<stop  offset="0" style="stop-color:#FFFFFF;stop-opacity:0"/>
			<stop  offset="1" style="stop-color:#FFFFFF"/>
		</linearGradient>
		<path id="Path_3258" class="st65" d="M-8,1.2l32.7,33.4l4.8,4.9c0.8,0.8,2.2-0.4,1.3-1.3L-1.9,4.8l-4.8-4.9
			C-7.5-0.9-8.8,0.3-8,1.2L-8,1.2z"/>
	</g>
	<g id="Group_162" transform="translate(19.701 80.381)" class="st66">
		
			<linearGradient id="Path_3259_1_" gradientUnits="userSpaceOnUse" x1="351.8227" y1="700.1943" x2="352.7011" y2="700.1943" gradientTransform="matrix(58.6143 0 0 -67.9191 -20623.4414 47574.4258)">
			<stop  offset="0" style="stop-color:#FFFFFF;stop-opacity:0"/>
			<stop  offset="1" style="stop-color:#FFFFFF"/>
		</linearGradient>
		<path id="Path_3259" class="st67" d="M-1.9-10.4L43,39.6l6.5,7.2c0.5,0.5,1.2-0.2,0.8-0.7L5.3-4l-6.5-7.2
			C-1.6-11.7-2.4-10.9-1.9-10.4L-1.9-10.4z"/>
	</g>
	<g id="Group_163" transform="translate(189.206 17.764)" class="st68">
		
			<linearGradient id="Path_3260_1_" gradientUnits="userSpaceOnUse" x1="182.0267" y1="762.6716" x2="182.9051" y2="762.6716" gradientTransform="matrix(58.7355 0 0 -63.0221 -10710.917 48089.707)">
			<stop  offset="0" style="stop-color:#FFFFFF;stop-opacity:0"/>
			<stop  offset="1" style="stop-color:#FFFFFF"/>
		</linearGradient>
		<path id="Path_3260" class="st69" d="M-19.8-1.6l51.5,53.1c0.5,0.5,1.2-0.2,0.8-0.7L-19-2.3C-19.5-2.8-20.3-2.1-19.8-1.6
			L-19.8-1.6z"/>
	</g>
	<g id="Group_164" transform="translate(292.669 8.374)" class="st70">
		
			<linearGradient id="Path_3261_1_" gradientUnits="userSpaceOnUse" x1="78.4144" y1="772.0413" x2="79.2929" y2="772.0413" gradientTransform="matrix(59.0457 0 0 -63.2652 -4660.4243 48869.3438)">
			<stop  offset="0" style="stop-color:#FFFFFF;stop-opacity:0"/>
			<stop  offset="1" style="stop-color:#FFFFFF"/>
		</linearGradient>
		<path id="Path_3261" class="st71" d="M-30.7-0.3L21,53c0.5,0.5,1.2-0.2,0.8-0.7L-30-1C-30.4-1.5-31.2-0.8-30.7-0.3z"/>
	</g>
	
		<linearGradient id="Path_3262_1_" gradientUnits="userSpaceOnUse" x1="328.8437" y1="779.924" x2="329.7383" y2="779.924" gradientTransform="matrix(8.5234 0 0 -8.818 -2455.3066 6913.4614)">
		<stop  offset="0" style="stop-color:#FFFFFF;stop-opacity:0"/>
		<stop  offset="1" style="stop-color:#FFFFFF"/>
	</linearGradient>
	<path id="Path_3262" class="st72" d="M351.4,32.3c-5.1,0-5.1,7.6,0,7.6C356.5,39.9,356.5,32.3,351.4,32.3z"/>
	
		<linearGradient id="Path_3263_1_" gradientUnits="userSpaceOnUse" x1="324.5737" y1="779.8619" x2="325.4682" y2="779.8619" gradientTransform="matrix(8.5219 0 0 -8.818 -2110.416 6909.5757)">
		<stop  offset="0" style="stop-color:#FFFFFF;stop-opacity:0"/>
		<stop  offset="1" style="stop-color:#FFFFFF"/>
	</linearGradient>
	<path id="Path_3263" class="st73" d="M659.4,29c-5.1,0-5.1,7.6,0,7.6S664.5,29,659.4,29z"/>
	
		<linearGradient id="Path_3264_1_" gradientUnits="userSpaceOnUse" x1="341.8354" y1="781.6758" x2="342.7299" y2="781.6758" gradientTransform="matrix(12.0724 0 0 -12.493 -3629.8164 9922.0732)">
		<stop  offset="0" style="stop-color:#FFFFFF;stop-opacity:0"/>
		<stop  offset="1" style="stop-color:#FFFFFF"/>
	</linearGradient>
	<path id="Path_3264" class="st74" d="M502.4,151.2c-7.2,0-7.2,10.7,0,10.7C509.6,162,509.6,151.2,502.4,151.2z"/>
	
		<linearGradient id="Path_3265_1_" gradientUnits="userSpaceOnUse" x1="352.8542" y1="780.3405" x2="353.7487" y2="780.3405" gradientTransform="matrix(17.0355 0 0 -17.637 -5583.8193 13812.7705)">
		<stop  offset="0" style="stop-color:#FFFFFF;stop-opacity:0"/>
		<stop  offset="1" style="stop-color:#FFFFFF"/>
	</linearGradient>
	<path id="Path_3265" class="st75" d="M434.8,42.3c-10.2,0-10.2,15.2,0,15.2C445,57.5,445,42.3,434.8,42.3z"/>
	
		<linearGradient id="Path_3266_1_" gradientUnits="userSpaceOnUse" x1="345.7675" y1="781.9572" x2="346.662" y2="781.9572" gradientTransform="matrix(13.1044 0 0 -13.56 -4154.6011 10790.832)">
		<stop  offset="0" style="stop-color:#FFFFFF;stop-opacity:0"/>
		<stop  offset="1" style="stop-color:#FFFFFF"/>
	</linearGradient>
	<path id="Path_3266" class="st76" d="M382.3,181.7c-7.8,0-7.8,11.6,0,11.6C390.1,193.3,390.1,181.7,382.3,181.7z"/>
	<path id="Path_3267" class="st33" d="M233.1,381.9c-0.2,0.3-0.3,0.7-0.6,0.8c-3.3,1.9-5.2,5.4-4.8,9.1c0.1,1.3-2.1,2-1.2,4.4
		c0.9,2.4,4.5,0.2,6.4,0.3c0.6-0.3,1.7-0.6,1.8-1.1c1-2.7,1.7-5.4,2.1-8.2c0.2-1.6-0.5-3.3-1.2-4.8C235.5,381.9,234,382,233.1,381.9
		z"/>
	<path id="Path_3268" class="st77" d="M117.4,343.5l0.5-0.5L117.4,343.5z"/>
	<path id="Path_3269" class="st78" d="M223.5,689.8l-2.7,0L223.5,689.8z"/>
	<g id="Group_166" transform="translate(173.927 359.544)">
		<path id="Path_3270" class="st79" d="M-1.3,20c-1.6-0.1-3.3-0.1-4.9-0.4c-4.1-0.6-5.7-2.3-6-6.3c-0.1-1.3-0.1-2.5-0.2-3.8
			l-2.8,2.9l-0.5,0.5l0,0c0.1,2.4-0.2,5,0.4,7.3c1.1,4.8,2.7,9.6,4.1,14.3c0.2,0,0.3,0,0.5,0c3.8-3.1,8.6-3.9,13.3-4.8l-1.4-4.8
			L-1.3,20z"/>
		<g id="Group_165">
			<path id="Path_3271" class="st80" d="M21.8,16.4V9.5c2.2,0.8,4.4,2,6.7,2.3c4.7,0.6,8.6-2.3,11.1-7.6c1.1,0.2,2.1,0.3,3.2,0.5
				c5.9,0.9,11.7,1.9,17.6,2.8c-0.3,5.3-0.6,10.7-0.8,16c0.6,2.5,1.3,5,2.1,7.4c1.6,3.9,3.3,7.8,2.7,12.2h-7l-1.9,0v-5.3h-14
				l0.3-1.8l2.3-0.1l-2.3,0.1c0-0.3,0.1-0.7,0.1-1c-1.1-2.1-1.2-4.7,0-6.8c0.6-1,1.1-2.2,1.3-3.3c0-0.8-0.3-1.6-1-2.1
				c-0.3-0.2-1.6,0.2-2,0.7c-1.2,1.4-1.9,8.2-3,9.8c-1.1-0.7-6.4-5.2-7.4-5.8c0.8-0.7,5.6-2.6,6.8-3.7l-3.8-1c0.9-2,4.4-2,3.7-5.2
				c-1.3,0.3-3.7,3.9-5.1,4.3c-0.2-1.9,3.4-7.2,0.7-9.3c-1.9,3.2-3.4,6-2.9,10c0.1,1,4.4,12.9,4.1,14c-0.9,3.5-18.4,12.9-21,15.2
				c-0.4-0.9-0.7-1.7-1-2.5C8.9,42.1,6.6,34.9,4,27.8c-0.4-1.1-1.8-1.9-2.8-2.9c-0.8-1.6-1.7-3.2-2.5-4.9L21.8,16.4z"/>
			<path id="Path_3272" class="st81" d="M60.3,7.5l1,0c-0.7-1.9-1.1-4.1-2.3-5.6c-2.1-2.7-3.2-5.4-2.3-8.9c0.4-1.5-0.2-3.4-1-4.8
				c-1.1-2-2.2-3.7-0.9-6.2c1.1-2,0.2-3.8-1.4-5.4c-0.7-0.7-1.7-1.7-1.6-2.5c0.4-4.4-2.3-7.7-3.8-11.4c-0.9-2.3-2.6-4.2-4.1-6.3
				c-3.3-4.6-8-6.5-13.8-7c-6-0.5-11.3,1.4-16.4,4c-2.8,2.1-6.8,4.1-8.4,6.2c-1.6,2.1-2.9,8.5-4.7,12.6c-0.8,1.6-2,2.9-3.5,4
				c-3.4,2.5-4.9,5.5-4.4,9.5c0.3,1.2,0.3,2.4,0.2,3.6c-0.5,2.6-0.5,5.7-2.1,7.7c-2.4,3.1-3.5,6.9-3.3,10.7c0,0.6-0.1,1.3-0.1,1.9
				c0.1,1.3,0.1,2.5,0.2,3.8c0.3,4,1.8,5.7,6,6.3c1.6,0.2,3.3,0.3,4.9,0.4c7.6-1.2,22.3,1,23.1-3.6s0-4.6,0-6.9c-0.2-3-2-5.2-4-7.2
				c-2.1-2.1-2.8-4.6-1.1-7c2.6-3.5,2-6.9,0.9-10.7c-0.2-1.4-1.5-2.4-3-2.5c-3.3-0.5-5.7-3.1-5.8-6.3c-0.1-1.9,0.6-3.3,2.5-4
				s3.4,0.2,4.5,1.7c0.6,1.1,1.1,2.3,1.6,3.4c1.1-2.6,2.3-4.9,3.1-7.2c0.8-2.5,2.6-4.7,5-6c2.3-1.4,4.4-3,6.7-4.6l8.8,10.8
				c0.9,0.3,2.7,10.2,2.3,10.6c0.2,4.5-1.9,8-5.2,11.1c0.1,1.4,0.2,2.9,0.3,4.3l1.2,8.2c1.1,0.2,2.1,0.3,3.2,0.5
				C48.6,5.7,54.5,6.6,60.3,7.5z"/>
			<path id="Path_3273" class="st80" d="M31.5,52.6l-2.3,0.2c0.3-1.4,0.5-2.7,0.8-4.1c1.3,0.3,2.5,0.7,3.8,0.9l1.5-1.6l11-0.2
				c0,8.4,0.1,16.9,0.1,25.3c0,1.7,0.3,3.3,2.6,3.2l12.9,0.4c0.1,1.7,0.1,3.4,0.2,5.1c0,0.9,0,1.7,0.1,2.6c0.3,4.1,0.5,8.2,0.8,12.3
				l-49.5-0.1l-0.1-20.2C19.3,68.6,25.4,60.6,31.5,52.6z M40.4,49.8L40.4,49.8c0,0.4,0,0.7,0,1.1h0L40.4,49.8z"/>
			<path id="Path_3274" class="st37" d="M71.3,238l-0.5-11.2c-0.5-18-0.8-36.1-1.6-54.1c-0.7-15.5-2.2-31.1-3.2-46.6
				c-0.3-5.1-1.6-16.8-1.7-17.6c-0.6-3.9-1-7.7-1.5-11.6l-49.5-0.1l-2,0.2c-0.1,0.6-0.1,1.3-0.3,1.9c-1.8,7.3-4.1,14.6-5.4,22
				c-1.6,9.2-2.7,18.5-3.2,27.9C2,157.8,2.6,166.9,2.8,176c0.1,5.8,0.3,11.6,0.5,17.5c0.2,6,0.3,12,0.5,17.9
				c0.2,5.6,0.3,11.2,0.5,16.7c0.2,6,0.3,12,0.5,17.9c0.2,5.7,0.4,11.5,0.5,17.2c0.2,10.1,0.3,20.3,0.5,30.4l9,0.3
				c0.4-0.7,0.7-1.5,0.9-2.3c1.3-15.1,2.5-30.1,3.7-45.2c0.2-3,1.2-12.4,1.4-17.2c0.2-3.6,0.7-7.1,1-10.7c0.4-4.8,0.7-9.7,1.1-14.5
				c0.6-7,1.3-13.9,1.9-20.9c0.6-7,1-14.1,1.6-21.1c0.8-9,1.6-18,2.4-27c0.3-3,0.4-3.2,3.5-3.3c0.1-0.2,0.1-0.6,0.3-0.6
				c2.6-1.3,7.1,0.4,8,3.1c0.4,1.6,0.7,3.3,0.9,4.9c1,6.1,2,12.2,2.9,18.3c1.2,8.4,2.4,16.8,3.6,25.2c1.3,8.5,2.6,17.1,3.9,25.6
				c1.2,8.4,2.4,16.8,3.6,25.2c1.4,9.6,3,19.3,4.4,28.9c1.6,10.4,3.1,20.9,4.6,31.3l7.8,0.2c0.1-1.5,0.4-3.1,0.3-4.6
				C72.2,272.3,71.8,255.1,71.3,238z"/>
			<path id="Path_3275" class="st46" d="M81.4,76.8c3.5,0,6.9,0,10.4-0.1c3-0.1,3.7-0.8,3.7-3.6c0-3.6,0-7.1-0.1-10.7l-6.2-0.3
				c0.5-1.7,1.2-3,1.1-4.2c-0.4-3.5,1.5-6.9,4.6-8.7c0.3-0.2,0.4-0.5,0.5-0.8c0-0.6-0.1-1.3-0.1-1.9c0.1-2.4-1.1-3.3-3.5-3.3
				c-5.9,0-11.8-0.1-17.7-0.1h-17l-1.9,0l-6.5,0.3c-0.2,2.4-0.5,4.9-0.6,7.3c-0.1,6.5-0.1,12.9,0,19.4c0,2.1,0.4,4.3,0.6,6.4
				l12.9,0.4l13,0L81.4,76.8z M72.5,61.9c-1.6,0-2.9-1.2-2.9-2.7c0-0.1,0-0.1,0-0.2c0-1.6,1.2-2.9,2.9-2.9c0,0,0.1,0,0.1,0
				c1.7,0,3.1,1.4,3.1,3c0,0,0,0,0,0C75.6,60.8,74.2,62,72.5,61.9C72.5,62,72.5,61.9,72.5,61.9L72.5,61.9z"/>
			<path id="Path_3276" class="st33" d="M72.1,29.7c-2.8-1.7-6-2.6-9.3-2.5c0.2,0.8,0.4,1.7,0.6,2.5c1.2,4.4,2.3,8.8,3.5,13.2h7.5
				C73.6,38.6,72.8,34.2,72.1,29.7z"/>
			<path id="Path_3277" class="st33" d="M63.3,82.9l2.2,1.5c6.8,0.3,11.5-3.5,15.9-7.7l-6.5,0C71.8,80.2,68.3,83,63.3,82.9z"/>
			<path id="Path_3278" class="st82" d="M5.8,293.7c-0.2-10.1-0.3-20.3-0.5-30.4C5.2,257.5,5,251.8,4.8,246c-0.2-6-0.3-12-0.5-17.9
				C4.2,222.5,4,217,3.8,211.4c-0.2-6-0.3-12-0.5-17.9C3.2,187.6,3,181.8,2.8,176c-0.2-9.1-0.8-18.2-0.4-27.3
				c0.5-9.3,1.6-18.7,3.2-27.9c1.3-7.4,3.5-14.7,5.4-22c0.1-0.6,0.2-1.3,0.3-1.9l-8.9-0.1c-4.3,22.6-8.1,45.1-6.8,68.2
				c1.9,33.1,3.2,66.2,4.8,99.4c0.4,9.2,0.9,18.4,1.4,27.5c0.2,0.7,0.4,1.4,0.8,2L5.8,293.7z"/>
			<path id="Path_3279" class="st83" d="M2.4,96.8l8.9,0.1l2-0.2l-0.1-20.2l-1.8,1.2c-2.8,2.7-5.9,1.7-9,0.8
				C2.4,84.6,2.4,90.7,2.4,96.8z"/>
			<path id="Path_3280" class="st35" d="M2.4,78.5c3.1,0.9,6.2,1.9,9-0.8c-2.1,0.3-4.3,0.3-5.7-1.4c-1.6-2.1-3.4-4.2-4.3-6.6
				c-2.6-6.6-4.8-13.4-7.1-20.1c-1.7-5.1-3.4-10.1-5-15.2c-0.2,0-0.3,0-0.5,0l-2,3.3c3.5,11.1,6.9,22.3,10.7,33.4
				C-1.6,73.8,0.8,76,2.4,78.5z"/>
			<path id="Path_3281" class="st83" d="M1.8,341.8l7.1-0.1c3.2-1.7,4.2-4.8,4.4-7.9c0.3-6.5,0-13.1,0-19.6
				c-0.3,0.7-0.4,1.4-0.5,2.2c-0.1,3.5,0,7,0,10.5c0,3.1-1.3,4.7-4.3,5.6c-4.7,1.2-7.8-2-7-6.8c0.7-4.1,1.3-8.1,1.9-12.2
				c-1.2,4.5-2.4,9-3.5,13.6c-0.8,2.9-1.2,5.9-1.4,8.9c0,1.7,1.2,3.5,1.9,5.2L1.8,341.8z"/>
			<path id="Path_3282" class="st35" d="M3.3,313.5c-0.6,4.1-1.2,8.1-1.9,12.2c-0.8,4.9,2.3,8,7,6.8c-1.8-0.5-3.9-0.8-4-3.2
				c0-1.3,0-2.7,0.2-4c0.6-5.3,1.3-10.6,1.7-15.8c0.3-3.4,0.1-6.9,0-10.3c0-1.6,0.6-2.5,2.4-2.7c1.9-0.2,3.7-0.6,5.6-0.9l0.6-1.6
				l-9-0.3l-3.1,0.3C2.9,300.5,3.1,307,3.3,313.5z"/>
			<path id="Path_3283" class="st77" d="M-13.2,37.8l2-3.3c-1.4-4.8-3-9.5-4.1-14.3c-0.6-2.3-0.3-4.9-0.4-7.3
				c-2.7,2.7-3.1,6.1-2.4,9.3c1.1,5,2.8,9.9,4.3,14.9C-13.7,37.3-13.4,37.5-13.2,37.8z"/>
			<path id="Path_3284" class="st83" d="M61.9,342.1h1.3c0.2-4.6,0.5-9.2,0.7-13.8l0.7-0.2c0.7,0.5,1.3,1,1.9,1.6
				c1.9,2.2,3.9,4.4,5.7,6.6c1.9,2.6,4.5,4.5,7.6,5.5c4.5,0.1,9.1,0.3,13.6,0.3c0.9-0.1,1.8-0.2,2.6-0.4c0.8-2.3-0.8-3.4-2.4-4.4
				c-2.3-1.5-4.7-2.8-7.1-4.2l-0.2,0.1l-2.6,0l0,0c-4.7,0.1-7.5-2.8-10.2-5.9c-3.8-4.3-7.5-8.7-11.3-13c-0.8,1.6-1.4,3.3-2,5.1
				C58.3,327,60.7,334.5,61.9,342.1z"/>
			<path id="Path_3285" class="st33" d="M86.5,333c-4-6.8-8.1-13.6-11.9-20.5c-1.2-2.4-2-5-2.2-7.7c-0.3-3.1-0.4-6.2-0.3-9.3
				c-1.6,0.5-3.3,1-5,1.4c-1.4,0.1-2.4,1.2-2.3,2.5c0,0.1,0,0.2,0,0.3c0.2,3.4,0.3,6.8,0.6,10.2c0,1.2,0.4,2.4,1,3.4
				c5.5,6.8,8.6,15.5,17.4,19.7l0,0l2.6,0L86.5,333z"/>
			<path id="Path_3286" class="st35" d="M83.8,333.1c-8.7-4.2-11.8-12.9-17.4-19.7c-0.7-1-1-2.2-1-3.4c-0.3-3.4-0.4-6.8-0.6-10.2
				c-0.3-1.3,0.6-2.5,1.9-2.8c0.1,0,0.2,0,0.4,0c1.7-0.4,3.4-0.8,5-1.4c0-0.5,0.1-1,0.1-1.5l-7.8-0.2l-4.7-0.1
				c0.1,1.1,0.2,2.2,0.4,3.3c0.7,5.7,1.5,11.4,2.2,17.1c3.8,4.3,7.5,8.7,11.3,13C76.3,330.2,79,333.2,83.8,333.1z"/>
			<path id="Path_3287" class="st82" d="M32.3,131.9c0.8,2.2,1.4,4.5,1.9,6.8c1.8,11,3.4,22,5.1,32.9c1.6,9.8,3.3,19.6,4.8,29.4
				c1.6,10,3.1,19.9,4.6,29.9c0.4,2.4,0.7,4.7,1,7.1c1,5.8,2,11.6,3,17.4c1.9,12,3.8,24,5.7,35.9c0.3,0.9,0.7,1.7,1.2,2.4l4.7,0.1
				c-1.5-10.4-3-20.9-4.6-31.3c-1.4-9.6-3-19.3-4.4-28.9c-1.2-8.4-2.4-16.8-3.6-25.2c-1.3-8.5-2.6-17.1-3.9-25.6
				c-1.2-8.4-2.4-16.8-3.6-25.2c-0.9-6.1-1.9-12.2-2.9-18.3c-0.2-1.7-0.5-3.3-0.9-4.9c-0.8-2.7-5.3-4.4-8-3.1
				C32.4,131.3,32.4,131.7,32.3,131.9z"/>
			<path id="Path_3288" class="st84" d="M55.4,43v-5.3h-14c-0.4,0.8-0.7,1.6-1.2,2.4c-1.6,2.7-3.3,5.3-5,8l11-0.2
				c0.3-1.8-0.5-4.3,2.7-4.5L55.4,43z"/>
			<path id="Path_3289" class="st85" d="M48.9,43.3c-3.2,0.3-2.4,2.7-2.7,4.5c0,8.4,0.1,16.9,0.1,25.3c0,1.7,0.3,3.3,2.6,3.2
				c-0.2-2.1-0.6-4.3-0.6-6.4c-0.1-6.5-0.1-12.9,0-19.4C48.4,48.2,48.7,45.7,48.9,43.3z"/>
			<path id="Path_3290" class="st35" d="M61.8,76.8c0.1,1.7,0.1,3.4,0.2,5.1c0.4,0.3,0.9,0.7,1.3,1.1c5.1,0,8.5-2.7,11.6-6.2
				L61.8,76.8z"/>
			<path id="Path_3291" class="st35" d="M59.4,23.5c0.6,2.5,1.3,5,2.1,7.4c1.6,3.9,3.3,7.8,2.7,12.2h2.5c-1.2-4.4-2.3-8.8-3.5-13.2
				c-0.2-0.8-0.4-1.7-0.6-2.5L59.4,23.5z"/>
			<path id="Path_3292" class="st86" d="M72.5,61.9c1.7,0.1,3.1-1.1,3.2-2.7c0,0,0,0,0-0.1c0-1.7-1.3-3-3.1-3.1c0,0,0,0,0,0
				c-1.6,0-3,1.2-3,2.8c0,0,0,0.1,0,0.1c-0.1,1.5,1.1,2.8,2.7,2.9C72.3,61.9,72.4,62,72.5,61.9z"/>
			<path id="Path_3293" class="st83" d="M2.6,29.6c2.2,7.6,4.3,15.2,6.5,22.8c0.2,0.5,0.2,1.1,0.3,1.6l0.9,2.1
				c3.2-3.1,15.5-14.3,18.7-17.3c-0.1-0.5,0.9-2.6,0.7-3.1c-2.3,2-14.8,13.7-17.4,16c-0.4-0.9-0.7-1.7-1-2.5
				C8.9,42.1,6.6,34.9,4,27.8c-0.4-1.1-1.8-1.9-2.8-2.9L2.6,29.6z"/>
			<path id="Path_3294" class="st35" d="M38.1-8.3c-1.5,0.5-2.9,1.3-4.4,1.4C30.2-6.8,26.7-7,23.1-7.1c5.1,0.9,9.4,4.8,15.2,3.1
				C38.3-5.4,38.2-6.9,38.1-8.3z"/>
			<path id="Path_3295" class="st33" d="M35.3,48c1.7-2.7,3.3-5.3,5-8c0.8-1,1.3-2,1.7-3.2c0.5-1.8-1.3-6.4-0.1-8.7
				c0.6-1,1.1-2.2,1.3-3.3c0-0.8-0.3-1.6-1-2.1c-0.3-0.2-1.6,0.2-2,0.7c-1.2,1.4-2.1,4.6-3.6,5.3c-1.5,0.8-4.6-1.2-4-2.3
				s5.1-1.7,5.2-3.2c0.1-1.4-3.9-0.2-5-0.5c1.4-1,4.8-3.5,3.7-5.2c-1.1-1.7-3,1.6-4.5,2c0.3-1.9,2.2-5.3,1.4-6.7
				c-1.7-2.8-4.5,3.8-5.3,9.3c-0.1,1-0.4,2.1-0.7,3.2c-0.8,3.4-0.4,6.9,1.1,10l0.4,0.7l0.5,0.8c-0.2,0.8-0.2,1.8-0.7,2.2
				c-2.8,2.7-5.8,5.2-8.6,7.8l-9.6,9.2l-3.5,4.5l-0.7-0.4l3.2-6.2c-0.1-0.5-0.2-1.1-0.3-1.6c-2.2-7.6-4.3-15.2-6.5-22.8
				c-4.7,0.9-9.4,1.7-13.3,4.8c1.7,5.1,3.3,10.1,5,15.2c2.3,6.7,4.5,13.5,7.1,20.1c0.9,2.4,2.7,4.5,4.3,6.6c1.4,1.8,3.6,1.7,5.7,1.4
				l1.8-1.2c6.2-8.2,12.4-16.3,18.6-24.4c0.7-0.7,1.3-1.5,1.8-2.4L35.3,48z"/>
			<path id="Path_3296" class="st33" d="M13.3,314.2c0.3-4.9,0.5-9.8,0.8-14.6c0.1-1.3,0.2-2.7,0.3-4c-1.9,0.3-3.7,0.7-5.6,0.9
				c-1.8,0.2-2.4,1.1-2.4,2.7c0,3.4,0.2,6.9,0,10.3c-0.4,5.3-1.1,10.6-1.7,15.8c-0.2,1.3-0.3,2.7-0.2,4c0.1,2.4,2.2,2.7,4,3.2
				c3.1-0.9,4.3-2.5,4.3-5.6c0-3.5,0-7,0-10.5C12.8,315.7,13,314.9,13.3,314.2z"/>
			<path id="Path_3297" class="st87" d="M37.9-15.4h-8.4c-0.1,0.2,2.2,2.7,3.9,2.5C35.3-13,36.7-13.2,37.9-15.4z"/>
			<path id="Path_3298" class="st35" d="M15.4-22.7l-0.7-2.7L14-25.3l0.6,2.7L15.4-22.7z"/>
			<path id="Path_3299" class="st35" d="M13.4-26.8L11-26.5l0.1,0.5l2.3-0.1L13.4-26.8z"/>
			<path id="Path_3300" class="st35" d="M10.3,56.2l-0.9-2.1l-3.2,6.2l0.7,0.4L10.3,56.2z"/>
			<path id="Path_3301" class="st33" d="M11.3-28.1c1.9-0.6,3.4,0.2,4.5,1.7c0.6,1.1,1.1,2.3,1.6,3.4c1.1-2.6,2.3-4.9,3.1-7.2
				c0.8-2.5,2.6-4.7,5-6c2.3-1.4,4.4-3,6.7-4.6L40.9-30c0,0,2.8,4.1,2.4,11.6c0,0,0,0.1,0,0.1c-0.2,4-2.2,7.1-5.2,9.9
				c-1.5,0.5-2.9,1.3-4.4,1.4C30.2-6.8,26.7-7,23.1-7.1c5.1,0.9,9.4,4.8,15.2,3.1l1.2,8.2c-2.5,5.2-6.4,8.1-11.1,7.6
				c-2.3-0.3-4.5-1.5-6.7-2.3c-0.2-3-2-5.2-4-7.2c-2.1-2.1-2.8-4.6-1.1-7c2.6-3.5,2-6.9,0.9-10.7c-0.2-1.4-1.5-2.4-3-2.5
				c-3.3-0.5-5.7-3.1-5.8-6.3C8.7-26,9.3-27.5,11.3-28.1z M33.1-13.1c1.9,0.2,3.6,0,4.7-2.3h-7.8C30-15.2,31.6-13.3,33.1-13.1
				L33.1-13.1z M14.6-22.6l0.8-0.1l-0.7-2.7L14-25.3L14.6-22.6z M11.1-26l2.3-0.1l0-0.7L11-26.5L11.1-26z"/>
			<path id="Path_3302" class="st86" d="M65.5,9c-1.6-1.3-4.9-1.5-5.2-1.5c-0.3,5.3-2.7,15.4,0.9,22.4c0,0,8-1.8,10.9-0.2
				c-0.3-2-0.6-4-0.9-6.1c-0.5-2.6-0.7-5.4-1.7-7.9C68.5,13.4,67.1,10.4,65.5,9z"/>
			<ellipse id="Ellipse_329" class="st48" cx="39.3" cy="-24.3" rx="1.4" ry="1.4"/>
			<ellipse id="Ellipse_330" class="st34" cx="39.9" cy="-24.9" rx="0.5" ry="0.5"/>
			<ellipse id="Ellipse_331" class="st48" cx="30" cy="-24.3" rx="1.4" ry="1.4"/>
			<ellipse id="Ellipse_332" class="st34" cx="30.7" cy="-24.9" rx="0.5" ry="0.5"/>
			<path id="Path_3303" class="st35" d="M36-23.3l2,3.4l-2.3,1.1L36-23.3z"/>
		</g>
	</g>
	<rect id="Rectangle_383" x="1374" class="st34" width="0" height="768"/>
	
		<radialGradient id="Ellipse_333_1_" cx="373.642" cy="780.4625" r="1.147" fx="373.4297" fy="780.4625" gradientTransform="matrix(69.2045 0 0 -66.4604 -25764.9922 52472.0508)" gradientUnits="userSpaceOnUse">
		<stop  offset="0" style="stop-color:#FAE3AF"/>
		<stop  offset="0.456" style="stop-color:#FEAD25"/>
		<stop  offset="0.898" style="stop-color:#D88832"/>
	</radialGradient>
	<ellipse id="Ellipse_333" class="st88" cx="90.8" cy="611.3" rx="34.6" ry="33.2"/>
	<g id="Group_167" transform="translate(619.772 325.516)">
		
			<linearGradient id="Path_3304_1_" gradientUnits="userSpaceOnUse" x1="-252.4085" y1="455.7051" x2="-251.7165" y2="455.5754" gradientTransform="matrix(41.908 0 0 -64.173 10510.1846 29224.5098)">
			<stop  offset="0" style="stop-color:#3FD8F5"/>
			<stop  offset="0.186" style="stop-color:#3FCEF5"/>
			<stop  offset="0.488" style="stop-color:#3FB6F5"/>
			<stop  offset="1" style="stop-color:#2B9EFC"/>
		</linearGradient>
		<path id="Path_3304" class="st89" d="M-27.9-11.1l-17.2,25.3l-20.3-29.8l17.2-25.3L-27.9-11.1z"/>
		
			<linearGradient id="Path_3305_1_" gradientUnits="userSpaceOnUse" x1="-249.5205" y1="456.3192" x2="-248.8075" y2="455.6502" gradientTransform="matrix(57.351 0 0 -40.481 14263.1328 18427.457)">
			<stop  offset="0" style="stop-color:#3FD8F5"/>
			<stop  offset="0.186" style="stop-color:#3FCEF5"/>
			<stop  offset="0.488" style="stop-color:#3FB6F5"/>
			<stop  offset="1" style="stop-color:#2B9EFC"/>
		</linearGradient>
		<path id="Path_3305" class="st90" d="M-27.9-11.1l31-4.9l-20.3-29.8l-31,4.9L-27.9-11.1z"/>
		
			<linearGradient id="Path_3306_1_" gradientUnits="userSpaceOnUse" x1="-249.8075" y1="456.6985" x2="-249.5394" y2="456.0838" gradientTransform="matrix(53.973 0 0 -35.184 13449.8076 16049.4805)">
			<stop  offset="0" style="stop-color:#3FD8F5"/>
			<stop  offset="0.186" style="stop-color:#3FCEF5"/>
			<stop  offset="0.488" style="stop-color:#3FB6F5"/>
			<stop  offset="1" style="stop-color:#2B9EFC"/>
		</linearGradient>
		<path id="Path_3306" class="st91" d="M-45.1,14.2l17.2-25.3l31-4.9L-16.1,6.3L-45.1,14.2z"/>
	</g>
</g>
</svg>
