<svg id="Layer_1" data-name="Layer 1" xmlns="http://www.w3.org/2000/svg" xmlns:xlink="http://www.w3.org/1999/xlink" viewBox="0 0 1467.03 401.66"><defs><style>.cls-1{fill:none;}.cls-2{clip-path:url(#clip-path);}.cls-3{opacity:0.46;fill:url(#linear-gradient);}.cls-3,.cls-4{isolation:isolate;}.cls-4{opacity:0.56;fill:url(#linear-gradient-2);}.cls-5{fill:url(#radial-gradient);}.cls-6{fill:#3fd8f5;}.cls-7{fill:#3fb6f5;}.cls-8{fill:#3f4249;}.cls-9{fill:#868990;}.cls-10{fill:#2b9efc;}.cls-11{fill:#6b6e74;}.cls-12{fill:#868a91;}.cls-13{fill:#6d7076;}.cls-14{fill:#868a90;}.cls-15{fill:#9fa2a7;}.cls-16{fill:#a4a7ac;}.cls-17{fill:#3a48b3;}.cls-18{fill:#5365ee;}.cls-19{fill:#3745b1;}.cls-20{fill:#f2f2f2;}</style><clipPath id="clip-path" transform="translate(0 -492.34)"><rect class="cls-1" width="1536" height="894"/></clipPath><linearGradient id="linear-gradient" x1="716.98" y1="498.38" x2="718.43" y2="495.36" gradientTransform="matrix(756.86, 0, 0, -339.17, -542707.65, 169519.38)" gradientUnits="userSpaceOnUse"><stop offset="0" stop-color="#3fd8f5"/><stop offset="0.37" stop-color="#3fd8f5" stop-opacity="0.59"/><stop offset="0.68" stop-color="#3fd8f5" stop-opacity="0.27"/><stop offset="0.89" stop-color="#3fd8f5" stop-opacity="0.08"/><stop offset="1" stop-color="#3fd8f5" stop-opacity="0"/></linearGradient><linearGradient id="linear-gradient-2" x1="717.05" y1="498.13" x2="716.55" y2="497.5" gradientTransform="matrix(432.21, 0, 0, -289.68, -309607.35, 144968.84)" gradientUnits="userSpaceOnUse"><stop offset="0" stop-color="#2b9efc" stop-opacity="0.68"/><stop offset="0.14" stop-color="#2ea7fa" stop-opacity="0.57"/><stop offset="0.56" stop-color="#37c1f7" stop-opacity="0.26"/><stop offset="0.85" stop-color="#3cd1f5" stop-opacity="0.08"/><stop offset="1" stop-color="#3fd8f5" stop-opacity="0"/></linearGradient><radialGradient id="radial-gradient" cx="718.88" cy="502.15" r="1.03" gradientTransform="matrix(61.24, -137.86, -137.86, -61.24, 25894.3, 128182.02)" gradientUnits="userSpaceOnUse"><stop offset="0.26" stop-color="#fff" stop-opacity="0"/><stop offset="0.32" stop-color="#fff" stop-opacity="0.04"/><stop offset="0.42" stop-color="#fff" stop-opacity="0.14"/><stop offset="0.56" stop-color="#fff" stop-opacity="0.31"/><stop offset="0.72" stop-color="#fff" stop-opacity="0.53"/><stop offset="0.9" stop-color="#fff" stop-opacity="0.82"/><stop offset="1" stop-color="#fff"/></radialGradient></defs><title>bg-reset-password</title><g class="cls-2"><g id="Password_reset_Page" data-name="Password reset Page"><g id="Group_158" data-name="Group 158"><path id="Path_2594" data-name="Path 2594" class="cls-3" d="M.57,555.84s153-19,205.22,90,221.86,160,346.1,155.45c174.55-6.44,205.54,92.46,205.54,92.46H.57Z" transform="translate(0 -492.34)"/><path id="Path_2595" data-name="Path 2595" class="cls-4" d="M0,603.46s111.71-16.24,149.87,76.85,59.42,132.35,147.31,132.35c83.51,0,135,79.39,135,79.39H0Z" transform="translate(0 -492.34)"/><circle id="Ellipse_299" data-name="Ellipse 299" class="cls-5" cx="173.66" cy="289.63" r="75.42"/></g><g id="Group_171" data-name="Group 171"><path id="Path_3307" data-name="Path 3307" class="cls-6" d="M1369.1,557.16c-.41-1.71-.47-3.61-1.28-5.11-3.13-5.76-3.6-12-3.32-18.28a79.83,79.83,0,0,1,5.33-26.5,58.06,58.06,0,0,1,5.64-10.62c3.77-5.55,10.81-5.75,15-.5,5,6.3,7.69,13.73,9.63,21.45a73.7,73.7,0,0,1,2.39,23.47,21.63,21.63,0,0,1-1.75,8.08c-2.82,5.58-2.25,11-.4,16.33,3.2-4.16,6.3-8.51,9.73-12.56a41.92,41.92,0,0,1,13.8-10.82,7.51,7.51,0,0,1,10.06,3.43,7.25,7.25,0,0,1,.66,2c1.62,9.45-.22,18.54-3.62,27.28a106.44,106.44,0,0,1-6.62,13,11.47,11.47,0,0,1-3.24,3.27,14.19,14.19,0,0,0-5.72,8.43c-1.85,8-4.46,10.7-14.69,11.55a37.79,37.79,0,0,1-5.72-.35,10.63,10.63,0,0,1,.4-1.57c3.06-6.93,5.92-14,9.25-20.75a361.74,361.74,0,0,1,23.85-41.63,16.13,16.13,0,0,0,1.06-2.27l-.9-.48-18,29.53-.34-.09,2.7-20.32-.68-.16a5.58,5.58,0,0,0-.51,1.24c-.64,4.34-1.28,8.68-1.85,13-.79,6-1.74,11.85-4.73,17.43-4.3,8-7.67,16.54-11.43,24.85l-1.28-.62a30.13,30.13,0,0,0-.56-4.34,14.18,14.18,0,0,1,1.4-11c2.4-4.44,2.1-9.45,2.46-14.24.22-2.91-.72-5.93-1.22-8.89-1.29-7.52-3.27-14.8-7.64-21.21-3.32-4.85-9.66-5-13-.25C1372.1,551.58,1370.69,554.43,1369.1,557.16Zm13.5-62.3-.63.15c-.08.13-.24.26-.24.38.4,9.1.86,18.2,1.2,27.3.25,6.88.34,13.76.54,20.64a13.22,13.22,0,0,0,.39,2.16l1-.13c-.14-1.66-.35-3.33-.41-5q-.51-12.51-.94-25c-.2-6.18-.32-12.36-.5-18.55a12.82,12.82,0,0,0-.35-1.93Z" transform="translate(0 -492.34)"/><path id="Path_3308" data-name="Path 3308" class="cls-7" d="M1401.54,644.65a28.49,28.49,0,0,1-2.66-13.51c.25-4.38,2.9-7.38,6.15-10,1.39-1.1,3.06-2,4.14-3.34,1.6-2,3.4-4.2,4-6.6a28.37,28.37,0,0,1,6.37-11.94c9-10.31,19.39-18.69,32.47-23.23a17.91,17.91,0,0,1,7-1.06c5,.39,8.44,5.07,8,10.23-1,10.61-5.24,20.07-11.07,28.75a123.49,123.49,0,0,1-11.8,14.24c-1.48,1.59-3.91,2.33-5.9,3.46-2.12-.48-4.06-2-6.43-1-2,.92-4.2,1.6-6.13,2.7-6.91,3.88-12.35,9.45-17.26,15.58l-5.91-2.44.86-2.74Zm8-9.79.44.43a15.92,15.92,0,0,0,1.57-1.39c2.15-2.41,4.21-4.92,6.42-7.29q12.91-13.93,25.9-27.79c4.75-5.08,9.52-10.14,14.26-15.23a3.11,3.11,0,0,0,.42-1l-.51-.37-24.27,26.09-.68-.3,5.23-20.67-.57-.18a6.65,6.65,0,0,0-.63,1.32c-1.79,6.95-3.54,13.9-5.32,20.85a4.2,4.2,0,0,1-.61,1.68c-1.28,1.55-2.62,3-4,4.5-4.91,5.25-9.85,10.46-14.75,15.72C1411.42,632.34,1410.54,633.64,1409.57,634.86Zm49.23-53.61.27.27,2.53-1.9-.28-.28Zm-51.62,56.3.45.47,1.31-1.23-.45-.49Zm-2.53,4.64c-.12-.05-.27-.17-.36-.14s-.11.23-.16.35c.12.05.27.17.36.14s.11-.23.16-.35Zm2.32-3c0-.13-.06-.32-.15-.36s-.24.08-.36.13c0,.12.06.31.15.35s.24-.08.36-.12Zm-1.39,1.62c-.12,0-.27-.17-.35-.13s-.12.22-.17.34c.12,0,.27.17.36.14s.11-.22.16-.35Z" transform="translate(0 -492.34)"/><path id="Path_3309" data-name="Path 3309" class="cls-8" d="M1343.36,894l-3.36,0c0-1.79,0-3.57,0-5.35l0-112.58v-2.86h3.4V808.9h11.28c.19.12.38.35.57.35,8,0,16.08,0,24.3,0v-36H1383v36.06h14.35l13.27-.1H1419v-36h3.55V892.6c0,.47,0,.93-.06,1.39h-3.38V819.72H1383V825l-.06,69h-3.39V819.72h-36.1v5Z" transform="translate(0 -492.34)"/><path id="Path_3310" data-name="Path 3310" class="cls-9" d="M1397.36,809.27H1383V773.21h-3.54v36h-24.3c-.19,0-.38-.23-.56-.35-.7-5.75-1.43-11.5-2.09-17.25-1-8.83-2-17.66-3-26.49l51.53,0c-.3,3.45-.63,6.9-.9,10.35-.35,4.52-.61,9.06-1,13.59C1398.63,795.79,1398,802.53,1397.36,809.27Z" transform="translate(0 -492.34)"/><path id="Path_3311" data-name="Path 3311" class="cls-7" d="M1369.1,557.16c1.59-2.73,3-5.58,4.81-8.15,3.39-4.8,9.74-4.6,13,.25,4.38,6.41,6.35,13.69,7.64,21.21.51,3,1.44,6,1.22,8.89-.36,4.79-.06,9.8-2.46,14.24a14.18,14.18,0,0,0-1.4,11,28.79,28.79,0,0,1,.56,4.34,9.77,9.77,0,0,1-4.36,8.52c-2.22,1.65-4.67,3-7,4.47q0-9.89-.07-19.77a5.77,5.77,0,0,1,.22-1.6q3.53-12.48,7.07-25c.52-1.83,1-3.69,1.43-5.53l-.84-.22-7.86,27.76c-.54-15.77-.19-31.44-1.5-47.07a6.07,6.07,0,0,0-.35,2.5c.15,9.37.34,18.73.45,28.1.17,13.79.28,27.57.41,41.36-1,.06-2.13.5-2.87.12-4.9-2.53-9.5-5.46-11.49-11.05a.59.59,0,0,0,0-.37,62.4,62.4,0,0,1,.85-8.41,15.52,15.52,0,0,0-.87-9.49,27.13,27.13,0,0,1-1.8-7.58,60.28,60.28,0,0,1,2.24-19.72Q1367.63,561.56,1369.1,557.16Z" transform="translate(0 -492.34)"/><path id="Path_3312" data-name="Path 3312" class="cls-6" d="M1366.14,566a60,60,0,0,0-2.23,19.72,27.12,27.12,0,0,0,1.79,7.58,15.52,15.52,0,0,1,.88,9.49,60.68,60.68,0,0,0-.85,8.4,11,11,0,0,1-1.37-2.18q-10.75-31.15-21.44-62.32c-.65-1.89-1.43-3.74-2.16-5.6l-.87.32q5.53,15.79,11.09,31.6l-.48.2-13.39-17-.63.42a5.3,5.3,0,0,0,.56,1.32c3.36,4.33,6.77,8.62,10.12,13,1.93,2.5,4.46,4.81,5.51,7.65,3.95,10.66,7.42,21.5,11,32.29a8.57,8.57,0,0,1,.23,1.6,5.37,5.37,0,0,1-2,.24,81.9,81.9,0,0,1-9.23-2.95c-4.25-1.8-6.3-5.34-6.52-9.88s-1.46-8.46-4.91-11.83c-3.27-3.19-4.39-7.75-5.5-12.11-2.43-9.48-3.17-19-1.19-28.69a17.3,17.3,0,0,1,2-5.38,7.45,7.45,0,0,1,10.31-2.24l.28.19c5.77,3.94,9.82,9.39,13.26,15.31C1362.54,558.61,1364.27,562.33,1366.14,566Z" transform="translate(0 -492.34)"/><path id="Path_3313" data-name="Path 3313" class="cls-10" d="M1408.39,649c4.91-6.12,10.34-11.69,17.26-15.58,1.93-1.09,4.09-1.76,6.13-2.7,2.37-1.08,4.31.48,6.43.95,3.55,4.93,2.18,10.24.85,15.36a53.21,53.21,0,0,1-10.9,21.57,22.85,22.85,0,0,1-5.27,4.43,11.94,11.94,0,0,0-5,5.61c-.33.78-.65,1.57-1,2.36-1.64,4-4.53,6.47-9,6.5-2.91,0-5.82-.4-8.73-.61a5.14,5.14,0,0,1,.27-1.35c2.23-4.42,4.45-8.85,6.75-13.23,1.43-2.74,3.1-5.15,6.06-6.72,5.45-2.9,10.67-6.25,16-9.42.58-.35,1.11-.78,1.67-1.17l-.4-.62-18.3,10.67c6.86-12.07,15-22.81,26.41-30.87a27.36,27.36,0,0,0-6.57,4.08,116.24,116.24,0,0,0-23.58,30c-3.28,5.87-6.37,11.85-9.54,17.79-.18-.34-.37-.68-.54-1-4.34-9.05-4.08-13.88,3.06-19.38a8.17,8.17,0,0,0,2.79-4.88A26,26,0,0,1,1408.39,649Z" transform="translate(0 -492.34)"/><path id="Path_3314" data-name="Path 3314" class="cls-11" d="M1398,686c3.17-5.93,6.26-11.92,9.54-17.79a116.24,116.24,0,0,1,23.58-29.94,27.45,27.45,0,0,1,6.58-4.09c-11.37,8.06-19.56,18.8-26.41,30.88l18.29-10.67.4.61c-.55.39-1.08.82-1.66,1.17-5.31,3.17-10.53,6.52-16,9.42-3,1.58-4.63,4-6.06,6.72-2.3,4.39-4.52,8.81-6.74,13.23a5.22,5.22,0,0,0-.27,1.35,12.85,12.85,0,0,0-1.48,2.25q-7.21,18.33-14.35,36.68a6.5,6.5,0,0,1-.47,1.3,9.85,9.85,0,0,1-1.15,1.27,6.08,6.08,0,0,1-1.2-1.38c-1.89-4.55-3.68-9.15-5.6-13.68-.32-.76-1.16-1.29-1.75-1.93a7.63,7.63,0,0,0-.62-2.29q-7.9-11.82-15.95-23.54a7.54,7.54,0,0,0-2.92-2.45c-3.28-1.53-6.68-2.8-10-4.23a28.71,28.71,0,0,1-2.6-1.45,3.63,3.63,0,0,1,2.36.25l9.68,3.71.23.17-.17-.23c-1.91-2.59-3.79-5.2-5.72-7.77-1.46-1.94-3-3.83-4.48-5.74l.45-.37a7.52,7.52,0,0,1,1.18,1c6.12,8,12.34,16,18.28,24.13,3.94,5.42,7.46,11.13,11.17,16.71.07.2.14.39.2.59l.16-.13-.31-.5a14.42,14.42,0,0,0-.57-2.44c-3.94-9.32-7.79-18.68-11.93-27.91-1.89-4.2-4.37-8.14-6.58-12.2l-.52-.7,0,0-5.6-9.53c-.53-1.52-1-3-1.68-4.85l3,2.72a5.45,5.45,0,0,0,.29,1.55c2.56,4.57,5.17,9.11,7.76,13.65l.49.62v0a23.16,23.16,0,0,0,.91,2.82c3.46,7.6,7,15.16,10.43,22.78,1.87,4.15,3.54,8.39,5.3,12.58l5.13,15.08.5,0a13.85,13.85,0,0,0,.15-1.58c-.17-15.94,0-31.9-.71-47.82-.33-7-2.2-14-4.08-20.86-3.59-13-7.69-25.94-11.6-38.89a12.42,12.42,0,0,0-.9-1.83,8.69,8.69,0,0,0-.23-1.6c-3.63-10.78-7.09-21.62-11-32.28-1.05-2.84-3.59-5.15-5.51-7.65-3.35-4.34-6.76-8.63-10.13-13a5.59,5.59,0,0,1-.55-1.31l.63-.43,13.39,17,.47-.21q-5.54-15.79-11.09-31.59l.88-.33c.72,1.87,1.51,3.71,2.16,5.6q10.72,31.17,21.43,62.33a11.72,11.72,0,0,0,1.38,2.17.71.71,0,0,1,0,.38,8.15,8.15,0,0,0,0,2.26c1.5,4.88,3.16,9.7,4.6,14.6,3.5,11.9,6.9,23.83,9.73,33.62V622.45c-.14-13.78-.25-27.56-.41-41.35-.11-9.37-.3-18.73-.45-28.1a5.76,5.76,0,0,1,.35-2.5c1.31,15.63,1,31.3,1.49,47.07l7.87-27.76.83.22c-.47,1.84-.91,3.7-1.42,5.52q-3.53,12.5-7.08,25a6.17,6.17,0,0,0-.22,1.6q0,9.89.07,19.76v32.52l.72,0c.26-2,.44-4,.81-5.92A209.73,209.73,0,0,1,1393,612.41a29.18,29.18,0,0,0,.78-2.88c3.76-8.31,7.13-16.83,11.43-24.85,3-5.59,3.94-11.41,4.73-17.43.57-4.35,1.21-8.69,1.85-13a5.39,5.39,0,0,1,.51-1.24l.68.16-2.7,20.32.34.09,18-29.53.9.48a16.13,16.13,0,0,1-1.06,2.27,361.74,361.74,0,0,0-23.85,41.63c-3.33,6.79-6.19,13.82-9.25,20.75a10.32,10.32,0,0,0-.4,1.57,57.9,57.9,0,0,0-2.75,6.61c-2.92,10.34-5.9,20.68-8.42,31.13a63.54,63.54,0,0,0-1.66,14.28c-.15,16.57,0,33.14.08,49.71a3.69,3.69,0,0,0,.6,2.22c.67-5.74,1.47-11.46,2-17.22,1.66-18.13,6-35.4,16.07-50.88a7.77,7.77,0,0,0,.65-1.92l1.8-.81c-.33,1.06-.6,1.9-.86,2.74a10.16,10.16,0,0,0-1.21,1.33,101.58,101.58,0,0,0-14.58,43c-1,9.16-2.16,18.3-3.25,27.46-.11,1-.27,1.93-.41,2.9l.71.16c.8-2.2,1.51-4.43,2.4-6.6Q1392,700.4,1398,686Z" transform="translate(0 -492.34)"/><path id="Path_3315" data-name="Path 3315" class="cls-12" d="M1416,757.69l-.13,1.42-14.26,0-.07-.06c-.67-.31-1.34-.89-2-.89q-25.29-.06-50.58,0c-.6-4.62-1.21-9.24-1.8-13.86-.16-1.29-.26-2.58-.39-3.88,17.88,0,35.76,0,53.64,0,2,0,2.81.47,2.6,2.58-.41,4-.6,8-1,12-.2,2,.37,2.9,2.63,2.79C1408.43,757.56,1412.23,757.69,1416,757.69Z" transform="translate(0 -492.34)"/><path id="Path_3316" data-name="Path 3316" class="cls-10" d="M1355.07,666.72c2.22,4.06,4.69,8,6.58,12.2,4.15,9.23,8,18.59,11.94,27.91a13.8,13.8,0,0,1,.56,2.45l0,0c-3.71-5.58-7.24-11.3-11.18-16.71-5.94-8.16-12.16-16.1-18.28-24.13a7,7,0,0,0-1.17-1l-.45.36c1.49,1.92,3,3.81,4.47,5.75,1.93,2.57,3.82,5.18,5.72,7.77l-.06.06-9.68-3.72a3.59,3.59,0,0,0-2.35-.24,26.38,26.38,0,0,0,2.6,1.44c3.33,1.43,6.72,2.71,10,4.23a7.6,7.6,0,0,1,2.91,2.45q8.08,11.71,16,23.55a7.54,7.54,0,0,1,.61,2.29c-2.61.07-5.22.3-7.82.17a8.13,8.13,0,0,1-7.65-5.8,14.85,14.85,0,0,0-7.23-8.3c-2.17-1.2-3.82-3.59-5.27-5.74-5.07-7.55-8.73-15.67-8.79-25,0-4.8,4-7.67,8.35-5.82,3.38,1.42,6.54,3.4,9.79,5.12l0,0Zm-14.37-2.89-.56.48,2.2,2.64.61-.52Z" transform="translate(0 -492.34)"/><path id="Path_3317" data-name="Path 3317" class="cls-13" d="M1397.36,809.27c.62-6.74,1.27-13.48,1.84-20.22.39-4.53.64-9.06,1-13.59.27-3.45.6-6.9.9-10.34l.42-.09,13.67.1c-1.06,9.69-2.14,19.38-3.16,29.07-.52,5-.93,10-1.4,15Z" transform="translate(0 -492.34)"/><path id="Path_3318" data-name="Path 3318" class="cls-14" d="M1418.54,736.92a.26.26,0,0,1-.16.28l-72,0-4-.67v-7.72h64.82c0,2,0,4,0,6-.06,1.42.48,1.9,1.89,1.88C1412.19,736.75,1415.36,736.86,1418.54,736.92Z" transform="translate(0 -492.34)"/><path id="Path_3319" data-name="Path 3319" class="cls-11" d="M1346.34,737.25l72,0q-1.19,10.24-2.36,20.5c-3.79,0-7.59-.14-11.37.06-2.26.11-2.82-.74-2.63-2.79.38-4,.58-8,1-12,.22-2.1-.58-2.58-2.6-2.58-17.88.07-35.75,0-53.63,0Z" transform="translate(0 -492.34)"/><path id="Path_3320" data-name="Path 3320" class="cls-12" d="M1349.49,763.73c-.16-1.55-.32-3.1-.49-4.65h52.56l.07.06c0,1.54-.05,3.08-.07,4.62Z" transform="translate(0 -492.34)"/><path id="Path_3321" data-name="Path 3321" class="cls-10" d="M1375.45,708.35c-1.76-4.19-3.43-8.43-5.3-12.58-3.42-7.62-7-15.18-10.43-22.78a25.72,25.72,0,0,1-.91-2.82c5.14,4.69,9.58,9.79,11.12,16.92a9.66,9.66,0,0,0,2.82,4.88C1377.76,696.49,1380,698.73,1375.45,708.35Z" transform="translate(0 -492.34)"/><path id="Path_3322" data-name="Path 3322" class="cls-11" d="M1418.54,736.92c-3.18-.06-6.35-.17-9.52-.14-1.41,0-2-.46-1.89-1.88.09-2,0-4,0-6h15.2v8.06Z" transform="translate(0 -492.34)"/><path id="Path_3323" data-name="Path 3323" class="cls-15" d="M1349.5,763.73l52.06,0h0l0,1.27-.42.09-51.54,0Z" transform="translate(0 -492.34)"/><path id="Path_3324" data-name="Path 3324" class="cls-11" d="M1401.56,763.75c0-1.54,0-3.08.07-4.62l14.26,0c-.16,1.53-.32,3.06-.49,4.59l-13.84.06Z" transform="translate(0 -492.34)"/><path id="Path_3325" data-name="Path 3325" class="cls-16" d="M1401.56,759.07H1349c0-.3,0-.6,0-.9q25.29,0,50.59,0C1400.21,758.18,1400.89,758.76,1401.56,759.07Z" transform="translate(0 -492.34)"/><path id="Path_3326" data-name="Path 3326" class="cls-12" d="M1401.56,763.76l13.84-.06c-.07.48-.14,1-.22,1.44l-13.67-.11C1401.53,764.61,1401.55,764.18,1401.56,763.76Z" transform="translate(0 -492.34)"/><path id="Path_3327" data-name="Path 3327" class="cls-17" d="M1358.81,670.21l-.48-.62Z" transform="translate(0 -492.34)"/><path id="Path_3328" data-name="Path 3328" class="cls-11" d="M1382.61,494.86a11.68,11.68,0,0,1,.35,1.93c.19,6.18.3,12.37.5,18.55q.42,12.51.94,25c.07,1.68.27,3.34.42,5l-1,.13a14.38,14.38,0,0,1-.39-2.16c-.2-6.88-.29-13.77-.54-20.64-.34-9.1-.8-18.2-1.19-27.3,0-.12.15-.25.23-.38Z" transform="translate(0 -492.34)"/><path id="Path_3329" data-name="Path 3329" class="cls-11" d="M1409.57,634.86c1-1.22,1.86-2.52,2.91-3.66,4.89-5.26,9.84-10.47,14.75-15.72,1.37-1.46,2.71-3,4-4.5a4.2,4.2,0,0,0,.61-1.68c1.78-6.95,3.53-13.9,5.32-20.85a6.65,6.65,0,0,1,.63-1.32l.56.18L1433.12,608l.68.3,24.27-26.09.51.37a3.11,3.11,0,0,1-.42,1c-4.74,5.09-9.51,10.15-14.26,15.23q-13,13.88-25.9,27.79c-2.2,2.37-4.27,4.88-6.42,7.29a17.15,17.15,0,0,1-1.57,1.39Z" transform="translate(0 -492.34)"/><path id="Path_3330" data-name="Path 3330" class="cls-18" d="M1458.81,581.25l2.51-1.91.28.28-2.53,1.89Z" transform="translate(0 -492.34)"/><path id="Path_3331" data-name="Path 3331" class="cls-18" d="M1407.18,637.55l1.3-1.24.46.48-1.32,1.23Z" transform="translate(0 -492.34)"/><path id="Path_3332" data-name="Path 3332" class="cls-18" d="M1404.65,642.19c-.05.12-.08.31-.16.34s-.24-.08-.36-.14c0-.12.08-.31.16-.34S1404.53,642.14,1404.65,642.19Z" transform="translate(0 -492.34)"/><path id="Path_3333" data-name="Path 3333" class="cls-18" d="M1407,639.17c-.12,0-.28.16-.36.12s-.1-.23-.15-.35c.12-.05.27-.16.36-.13S1406.93,639,1407,639.17Z" transform="translate(0 -492.34)"/><path id="Path_3334" data-name="Path 3334" class="cls-18" d="M1405.58,640.8c0,.12-.08.31-.16.34s-.24-.08-.36-.14c0-.12.08-.31.17-.34S1405.46,640.74,1405.58,640.8Z" transform="translate(0 -492.34)"/><path id="Path_3335" data-name="Path 3335" class="cls-7" d="M1348.75,634.69c-.85-.68-1.68-1.38-2.58-2a11.43,11.43,0,0,1-4.84-7.14,24.31,24.31,0,0,0-5.32-9.94A60.59,60.59,0,0,0,1320.59,602a60,60,0,0,0-12.93-6.11c-6.93-2.17-11.53,2.27-10.52,9.52,1.48,10.58,6.18,19.77,12.61,28.08,2.38,3.08,5.1,6.44,8.44,8.11A20.77,20.77,0,0,1,1328.53,652a9.53,9.53,0,0,0,6.57,5.5,23.75,23.75,0,0,0,13.9-.94c-.53-1.51-1-3-1.68-4.84l3,2.72c.86-2.72,1.86-5.4,2.55-8.16C1354,641.54,1352.48,637.69,1348.75,634.69Zm-12.72,0-.87-.76.46-.41.71.87-.3.3Zm1,1.3c-.08,0-.23-.09-.36-.14.06-.13.08-.32.17-.35s.24.09.36.14c0,.12-.08.31-.17.35Zm1.39,1.88c-.12-.06-.31-.08-.34-.17s.08-.24.14-.36l.36.16c0,.12-.1.24-.16.36Zm.75,1.4c-.09,0-.11-.23-.16-.36.13,0,.28-.16.37-.12s.1.23.15.35c-.12.05-.28.16-.36.12Zm1.1,1.4c-.12-.06-.32-.08-.35-.17s.09-.24.14-.36c.13.05.31.08.35.17s-.08.23-.14.35Zm1,1.37c-.09,0-.24-.08-.36-.14.05-.12.08-.31.16-.34s.24.08.36.14c0,.12-.07.31-.16.34Zm.72,1.41c-.08,0-.1-.23-.15-.35.12,0,.28-.16.37-.13s.1.23.15.36c-.12,0-.28.16-.36.12Zm1.85,2.9-1.28-1.71.6-.37,1.17,1.72Zm1.37,2.29-.68-1.33.4-.24.8,1.24Zm1.45,2.34-.76-1.29.54-.29c.21.46.42.91.62,1.37Z" transform="translate(0 -492.34)"/><path id="Path_3336" data-name="Path 3336" class="cls-19" d="M1374.15,709.28c.11.16.22.33.32.5l-.16.13c-.07-.2-.13-.4-.2-.59Z" transform="translate(0 -492.34)"/><path id="Path_3337" data-name="Path 3337" class="cls-19" d="M1353.22,681.36l.17.23-.22-.17Z" transform="translate(0 -492.34)"/><path id="Path_3338" data-name="Path 3338" class="cls-20" d="M1355.07,666.72l-.51-.7Z" transform="translate(0 -492.34)"/><path id="Path_3339" data-name="Path 3339" class="cls-18" d="M1340.7,663.83l2.25,2.6-.61.52-2.2-2.64Z" transform="translate(0 -492.34)"/><path id="Path_3340" data-name="Path 3340" class="cls-11" d="M1334.79,634.13s13.51,21.2,15.44,24.48,0-4.22,0-4.22l-15.49-22.48Z" transform="translate(0 -492.34)"/></g></g></g></svg>