<svg xmlns="http://www.w3.org/2000/svg" width="18.634" height="17.696" viewBox="0 0 18.634 17.696">
  <path id="Path_3717" data-name="Path 3717" d="M7.712,121.349v1.31a.482.482,0,0,0-.039.107,7.356,7.356,0,0,1-1.141,3.277,9.4,9.4,0,0,1-8.255,4.308,9.674,9.674,0,0,1-3.566-.674.271.271,0,0,0-.2,0,14.6,14.6,0,0,1-3.671,1.328c-.442.1-.889.181-1.334.268a.323.323,0,0,1-.379-.144.319.319,0,0,1,.067-.4c.02-.023.038-.047.059-.07a3.642,3.642,0,0,0,.665-1.137,10.884,10.884,0,0,0,.625-2.808.556.556,0,0,0-.1-.4A8.023,8.023,0,0,1-10,125.6a7.469,7.469,0,0,1-.8-4.958,8.008,8.008,0,0,1,3.31-5.158,9.778,9.778,0,0,1,7.253-1.8A9.353,9.353,0,0,1,5.2,116.26a7.889,7.889,0,0,1,2.447,4.746C7.661,121.121,7.689,121.235,7.712,121.349ZM-1.6,123.212a1.239,1.239,0,0,0,1.232-1.239,1.25,1.25,0,0,0-1.236-1.24,1.251,1.251,0,0,0-1.241,1.253A1.24,1.24,0,0,0-1.6,123.212Zm-4.351,0a1.248,1.248,0,0,0,1.239-1.236,1.257,1.257,0,0,0-1.236-1.244,1.257,1.257,0,0,0-1.248,1.25A1.247,1.247,0,0,0-5.948,123.212Zm8.686,0A1.24,1.24,0,1,0,1.5,121.974,1.247,1.247,0,0,0,2.738,123.212Z" transform="translate(10.923 -113.592)" fill="#fff"/>
</svg>
