<svg xmlns="http://www.w3.org/2000/svg" width="18.217" height="18.678" viewBox="0 0 18.217 18.678">
  <path id="Path_3730" data-name="Path 3730" d="M-1208.343,334.179a.857.857,0,0,1,.6.515.84.84,0,0,1-.154.819q-1.457,2.05-2.912,4.1c-1.02,1.437-2.036,2.876-3.062,4.308a2.179,2.179,0,0,0-.424,1.325c.008,1.8,0,3.6,0,5.4a.782.782,0,0,1-.614.889q-1.631.623-3.262,1.244a.782.782,0,0,1-1.089-.413,1.292,1.292,0,0,1-.062-.429c0-2.226-.008-4.453,0-6.679a2.235,2.235,0,0,0-.434-1.357q-2.984-4.185-5.953-8.38a.81.81,0,0,1,.127-1.2c.072-.051.148-.095.222-.142Z" transform="translate(1225.909 -334.179)" fill="#2c9be6"/>
</svg>
