<svg width="18" height="19" viewBox="0 0 18 19" fill="none" xmlns="http://www.w3.org/2000/svg">
<path d="M13.2162 9.2664H3.72976C3.32435 9.2664 2.91895 9.65574 2.91895 10.0451V10.2008C2.91895 10.5902 3.32435 10.9795 3.72976 10.9795H13.2162C13.6216 10.9795 14.0271 10.5902 14.0271 10.2008V10.0451C14.0271 9.57787 13.6216 9.2664 13.2162 9.2664Z" fill="#686E7B"/>
<path d="M9.16219 12.8484H3.72976C3.32435 12.8484 2.91895 13.1598 2.91895 13.627V13.7828C2.91895 14.1721 3.32435 14.5615 3.72976 14.5615H9.16219C9.56759 14.5615 9.973 14.1721 9.973 13.7828V13.627C9.973 13.2377 9.56759 12.8484 9.16219 12.8484Z" fill="#686E7B"/>
<path d="M13.5405 0H2.59459C1.21622 0 0 1.16803 0 2.4918V16.4303C0 17.832 1.21622 18.9221 2.59459 18.9221H15.3243C16.7838 18.9221 17.9189 17.7541 17.9189 16.4303V2.41393L13.5405 0ZM11.7568 2.88115C11.7568 2.33607 12.2432 1.94672 12.7297 1.94672H13.1351L16.2973 3.65984V4.98361C16.2973 5.52869 15.8108 5.91803 15.3243 5.91803H12.8108C12.2432 5.91803 11.8378 5.45082 11.8378 4.98361V2.88115H11.7568ZM15.3243 17.4426H2.59459C2.02703 17.4426 1.62162 16.9754 1.62162 16.5082V2.4918C1.62162 2.02459 2.10811 1.55738 2.59459 1.55738H10.5405C10.2973 1.94672 10.1351 2.41393 10.1351 2.88115V4.98361C10.1351 6.38525 11.3514 7.47541 12.7297 7.47541H15.2432C15.6486 7.47541 15.973 7.39754 16.2973 7.2418V16.4303C16.3784 16.9754 15.8919 17.4426 15.3243 17.4426Z" fill="#686E7B"/>
</svg>
