<svg width="19" height="17" viewBox="0 0 19 17" fill="none" xmlns="http://www.w3.org/2000/svg">
<g clip-path="url(#clip0)">
<path d="M18.0327 10.6995C17.4233 9.68073 16.5543 8.84292 15.5162 8.26471C16.4009 7.41904 16.9239 6.2823 16.9907 5.05509C17.0576 3.77674 16.625 2.5456 15.7678 1.59373C14.1675 -0.188087 11.4818 -0.510623 9.50397 0.838521C8.46982 0.130515 7.2194 -0.140887 5.98472 0.0715146C4.72251 0.28785 3.61758 0.987989 2.88228 2.03426C1.51783 3.96948 1.77735 6.6363 3.48389 8.26471C2.44581 8.83899 1.57681 9.68073 0.967336 10.6995C0.330332 11.7615 -0.00389782 12.9769 3.42987e-05 14.212V16.2258C3.42987e-05 16.6546 0.349993 17.0007 0.774662 17.0007H18.2215C18.6501 17.0007 18.9961 16.6506 18.9961 16.2258V14.212C19.004 12.9769 18.6697 11.7615 18.0327 10.6995ZM13.6012 13.5787C13.5973 13.5394 13.5934 13.504 13.5894 13.4646C13.5855 13.441 13.5816 13.4174 13.5816 13.3938C13.558 13.2168 13.5383 13.0752 13.5147 12.9454C13.5029 12.8825 13.4911 12.8196 13.4754 12.7566C13.444 12.6071 13.4046 12.4537 13.3614 12.3043C13.3574 12.2846 13.3496 12.2689 13.3456 12.2492C13.3378 12.2177 13.3299 12.1863 13.3181 12.1548C13.1254 11.5451 12.8502 10.963 12.4963 10.432L12.4688 10.3927C12.3508 10.2196 12.225 10.0505 12.0952 9.88919L12.0874 9.88133C12.0087 9.78693 11.9301 9.68859 11.8436 9.59813C11.9537 9.60599 12.0638 9.60993 12.1699 9.61386H12.2093C12.3901 9.61386 12.571 9.60206 12.7519 9.57846C12.7912 9.57453 12.8345 9.56666 12.8738 9.55879L12.921 9.55093C13.0665 9.52732 13.212 9.49979 13.3535 9.46439L13.3889 9.45652C13.4164 9.44866 13.4479 9.44079 13.4754 9.43292C13.6484 9.38572 13.8214 9.32672 13.9866 9.25986C16.0706 10.0072 17.4586 11.9935 17.4508 14.208V15.447H13.6327V14.208C13.6327 14.0153 13.6209 13.8108 13.6012 13.5787ZM13.5187 7.76911C13.4793 7.78878 13.4361 7.80451 13.3928 7.82418L13.3653 7.83598C13.2041 7.89891 13.0389 7.95398 12.8699 7.98938C12.8541 7.99331 12.8345 7.99725 12.8187 7.99725C12.803 8.00118 12.7873 8.00118 12.7716 8.00511C12.5828 8.04051 12.3901 8.06018 12.2014 8.06411C12.111 8.06411 12.0166 8.05625 11.9379 8.04838H11.934C11.9065 8.04838 11.879 8.04838 11.8514 8.04445H11.8475C11.4779 8.00118 11.1201 7.89498 10.7819 7.72978C10.7622 7.72191 10.7465 7.71798 10.7347 7.71404C10.719 7.70618 10.7033 7.69831 10.6875 7.69438C10.6797 7.69044 10.6679 7.68651 10.66 7.68258C10.9471 7.29711 11.1712 6.87624 11.3324 6.4239L11.356 6.3649C11.4346 6.13283 11.4936 5.89683 11.5369 5.65689C11.5408 5.62543 11.5487 5.59396 11.5526 5.55856V5.55069C11.5919 5.30682 11.6116 5.05902 11.6155 4.81122C11.6155 4.56342 11.5919 4.31955 11.5526 4.07568L11.5487 4.04028C11.5447 4.01668 11.5408 3.99308 11.5369 3.96948C11.4936 3.72954 11.4346 3.49354 11.356 3.26147L11.3363 3.20641C11.1751 2.75407 10.9471 2.32927 10.66 1.9438C11.1279 1.69206 11.6548 1.56226 12.1857 1.56226C13.9748 1.56226 15.4297 3.01761 15.4297 4.80335C15.4336 6.0817 14.6826 7.24597 13.5187 7.76911ZM9.79101 3.51321C9.80281 3.53681 9.81067 3.56041 9.81854 3.58401V3.58794C9.82247 3.59974 9.8264 3.61154 9.83426 3.62728C9.90111 3.79641 9.95616 3.96948 9.99548 4.15041C9.99548 4.15828 9.99941 4.16615 9.99941 4.17401C9.99941 4.18581 10.0033 4.19368 10.0033 4.20548C10.0859 4.61062 10.0859 5.02362 10.0033 5.42876C10.0033 5.44056 9.99941 5.44842 9.99941 5.46416C9.99941 5.47202 9.99548 5.47989 9.99548 5.48776C9.95616 5.66476 9.90111 5.84176 9.83426 6.0109C9.83033 6.0227 9.82247 6.03843 9.81854 6.05416C9.81067 6.07776 9.80281 6.09743 9.79494 6.12103C9.7281 6.27443 9.64552 6.41997 9.55508 6.56157L9.53149 6.59697C9.51183 6.62843 9.49217 6.6599 9.47251 6.68744C9.37814 6.81724 9.2759 6.9431 9.1658 7.0611C9.12648 7.10437 9.08323 7.14371 9.0557 7.17124C8.79225 7.42297 8.48948 7.62751 8.15918 7.77698C8.10413 7.80451 8.05301 7.82418 7.99796 7.84384C7.84068 7.90678 7.67946 7.95791 7.51431 7.99331C7.49072 7.99725 7.4632 8.00118 7.43174 8.00905C7.41601 8.01298 7.40421 8.01298 7.38849 8.01691C7.21154 8.04838 7.0346 8.06805 6.85372 8.07198H6.78294C6.60206 8.06805 6.42512 8.05231 6.24817 8.01691C6.23244 8.01298 6.22065 8.01298 6.20099 8.00905C6.17346 8.00511 6.14594 8.00118 6.12234 7.99725C5.95719 7.96185 5.79598 7.91071 5.63869 7.84778C5.59937 7.83204 5.56005 7.81631 5.52073 7.80058L5.47748 7.78484C4.3175 7.26171 3.56647 6.09743 3.56647 4.82695C3.56253 3.96161 3.9007 3.14741 4.51017 2.52987C5.11965 1.91626 5.9336 1.57799 6.79867 1.57406H6.80653C7.64801 1.57406 8.44229 1.89266 9.05177 2.4748C9.08323 2.50627 9.12255 2.5456 9.16187 2.58493C9.27197 2.70294 9.37814 2.8288 9.46858 2.9586C9.48824 2.98614 9.5079 3.01761 9.52756 3.04907L9.55115 3.08447C9.64159 3.21427 9.72416 3.36374 9.79101 3.51321ZM5.01349 9.26772C5.58758 9.49979 6.19312 9.62173 6.8144 9.62173C7.43567 9.62173 8.04122 9.50372 8.61531 9.26772C8.81978 9.34639 9.02425 9.43686 9.21692 9.53912C9.33488 9.59813 9.44105 9.66499 9.55902 9.73579L9.66125 9.79873C9.73203 9.84199 9.80281 9.88526 9.86965 9.93246C10.0073 10.0308 10.137 10.137 10.2314 10.2196C10.3179 10.2943 10.3887 10.3573 10.4555 10.4163C10.5538 10.5107 10.6521 10.6129 10.7622 10.7388C10.8409 10.8253 10.9077 10.9079 10.9667 10.9866C11.0572 11.1046 11.1397 11.2147 11.2105 11.3288C11.2734 11.4271 11.3324 11.5294 11.3914 11.6317C11.4622 11.7536 11.5211 11.8637 11.5723 11.9739C11.6273 12.0919 11.6745 12.2217 11.7217 12.3475L11.7492 12.4183C11.7807 12.5049 11.8161 12.5914 11.8436 12.6779C11.8908 12.8274 11.9222 12.9887 11.9537 13.146C11.9615 13.1814 11.9694 13.2129 11.9773 13.2483C11.9891 13.3073 12.0048 13.3663 12.0127 13.4253C12.052 13.6849 12.0716 13.9484 12.0716 14.212V15.451H1.55322V14.212C1.54143 11.9975 2.9334 10.0151 5.01349 9.26772Z" fill="#686E7B"/>
</g>
<defs>
<clipPath id="clip0">
<rect width="19" height="17" fill="white"/>
</clipPath>
</defs>
</svg>
