<svg width="19" height="21" viewBox="0 0 19 21" fill="none" xmlns="http://www.w3.org/2000/svg">
<path d="M13.6396 10.7782H3.86139C3.4639 10.7782 3.06641 10.4603 3.06641 9.98326V9.74477C3.06641 9.34728 3.4639 8.94979 3.86139 8.94979H13.6396C14.1166 8.94979 14.4346 9.26778 14.4346 9.74477V9.98326C14.4346 10.3808 14.1166 10.7782 13.6396 10.7782Z" fill="#686E7B"/>
<path d="M9.50574 14.5941H3.86139C3.4639 14.5941 3.06641 14.1967 3.06641 13.7992V13.5607C3.06641 13.0837 3.4639 12.7657 3.86139 12.7657H9.50574C9.90323 12.7657 10.3007 13.0837 10.3007 13.5607V13.7992C10.3007 14.2762 9.90323 14.5941 9.50574 14.5941Z" fill="#686E7B"/>
<path d="M13.7197 1.47699H2.82844C1.79497 1.47699 1 2.35147 1 3.30544V18.1716C1 19.205 1.87447 20 2.82844 20H15.8661C16.8996 20 17.6946 19.1255 17.6946 18.1716V3.70293L13.7197 1.47699Z" stroke="#686E7B" stroke-width="1.5" stroke-miterlimit="10"/>
<path d="M13.9583 1.75H14.3915L17.6602 3.65672V5.13389C17.6602 5.69491 17.1801 6.21234 16.5818 6.21234H13.9583C13.3973 6.21234 12.8799 5.73221 12.8799 5.13389V2.82845C12.8799 2.26742 13.36 1.75 13.9583 1.75Z" stroke="#686E7B" stroke-width="1.5"/>
</svg>
