<svg width="19" height="19" viewBox="0 0 19 19" fill="none" xmlns="http://www.w3.org/2000/svg">
<path d="M9.5 0C7.53719 0 0 8.13169 0 9.46091V16.4198C0 17.8272 1.17769 19 2.59091 19H16.3306C17.7438 19 18.9215 17.8272 18.9215 16.4198V9.53909C19 8.20988 11.6983 0 9.5 0ZM16.3306 17.2016H2.59091C2.11983 17.2016 1.72727 16.8107 1.72727 16.3416V9.53909C2.5124 7.66255 8.47934 2.03292 9.42149 1.72016C10.3636 2.03292 16.3306 7.66255 17.1157 9.53909V16.4198C17.1942 16.8889 16.8017 17.2016 16.3306 17.2016Z" fill="#686E7B"/>
<path d="M11.3062 13.4486V17.2798H7.61615V13.4486H11.3062V13.4486ZM11.3847 11.8848H7.61615C6.75251 11.8848 6.0459 12.5885 6.0459 13.4486V17.2798C6.0459 18.1399 6.75251 18.8436 7.61615 18.8436H11.3847C12.2484 18.8436 12.955 18.1399 12.955 17.2798V13.4486C12.955 12.5885 12.2484 11.8848 11.3847 11.8848Z" fill="#686E7B"/>
</svg>
