<svg width="22" height="24" viewBox="0 0 22 24" fill="none" xmlns="http://www.w3.org/2000/svg">
<g clip-path="url(#clip0)">
<path d="M20.7 17.5H19.6V8.7C19.6 3.9 15.7 0 10.9 0C6.1 0 2.2 3.9 2.2 8.7V17.4H1.1C0.5 17.4 0 17.9 0 18.5C0 19.1 0.5 19.6 1.1 19.6H2.2H6.6C6.6 22 8.6 24 11 24C13.4 24 15.4 22 15.4 19.6H19.8H20.9C21.5 19.6 22 19.1 22 18.5C22 17.9 21.3 17.5 20.7 17.5ZM10.9 21.8C9.7 21.8 8.7 20.8 8.7 19.6H13.1C13.1 20.8 12.1 21.8 10.9 21.8ZM17.5 17.5H15.3H6.5H4.4V8.7C4.4 5.1 7.3 2.2 10.9 2.2C14.5 2.2 17.4 5.1 17.4 8.7V17.5H17.5Z" fill="#686E7B"/>
</g>
<defs>
<clipPath id="clip0">
<rect width="21.8" height="24" fill="white"/>
</clipPath>
</defs>
</svg>
