<svg xmlns="http://www.w3.org/2000/svg" width="168.649" height="254.277" viewBox="0 0 168.649 254.277">
  <g id="Group_144" data-name="Group 144" transform="translate(1302.698 -1986.049)">
    <path id="Path_2296" data-name="Path 2296" d="M-1293.337,2123.6c-.592-1.505-1.439-2.959-1.06-4.676.276-1.253.619-2.492.891-3.747.121-.562.142-1.146.208-1.721.875-3.742,1.783-7.476,2.617-11.227,1.389-6.253,2.723-12.517,4.1-18.773,1.013-4.619,3.66-7.109,8.324-7.95,3.393-.612,6.782-1.254,10.157-1.962.444-.093.789-.658,1.181-1l1.593-1.7,9.311-.109.1.086.13,0,3.44.013,1.605,1.708a.714.714,0,0,0-.009.26h-13.09l-.032.421c.136.1.272.281.406.279q5.974-.059,11.946-.164a4.537,4.537,0,0,0,1.021-.26c3.821.521,7.635,1.1,11.466,1.543a14.782,14.782,0,0,1,7.62,3.07l9.757,10.559.957.969.168.2a7.549,7.549,0,0,0,.418,1.672c.216.43.722.7,1.017,1.108,1.151,1.573,2.226,3.205,3.416,4.747.786,1.018,1.2.9,1.846-.365a6.824,6.824,0,0,0,1.028-.762q3.289-3.539,6.539-7.114,5-5.506,9.987-11.033l.526-.038,4.328,3.522c.016.08.03.16.042.24a1.951,1.951,0,0,0-.425.319q-3.8,4.976-7.585,9.963c-2.508,3.3-5,6.608-7.529,9.891-2.283,2.966-4.569,5.932-6.923,8.841-1.281,1.583-2.767,2.945-5.04,2.823-.382-.3-.781-.588-1.143-.914q-6.29-5.639-12.578-11.281a8.047,8.047,0,0,0-1.085-.7c-.783-1.033-1.8-1.823-3.083-1.261a2.894,2.894,0,0,0-1.851,2.6c-.167,4.871-.358,9.74-.532,14.61q-.148,4.156-.27,8.314-.281,9.256-.554,18.512l.017.108c-1.3-.016-2.6-.046-3.9-.045q-16.279.015-32.558.041-.259-2.754-.52-5.507-.089-.846-.178-1.693l-.308-3.936c.071-.164.212-.335.2-.492-.252-3.2-.5-6.4-.791-9.6-.328-3.641-.709-7.278-1.035-10.919-.3-3.333-.544-6.671-.844-10a5.371,5.371,0,0,0-.406-1.21l-.265.1q.073,1.651.146,3.3c-.172.171-.459.319-.5.515-.157.825-.223,1.666-.352,2.5-.421,2.709-1,5.4-1.241,8.127-.214,2.4-.372,3.037,2.5,2.895.311-.016.624,0,.937.005q.287,3.937.575,7.874l-7.357.126a.091.091,0,0,0-.157.009c-2.491-.109-5.083.236-7.187-1.6A.106.106,0,0,0-1293.337,2123.6Z" transform="translate(-4.198 -43.315)" fill="#d44a7a"/>
    <path id="Path_2297" data-name="Path 2297" d="M-1170.055,2107.535a8.066,8.066,0,0,1,1.085.7q6.3,5.63,12.578,11.281c.362.325.761.61,1.143.914,2.676,2.379,6.284,1.79,8.556-1.452q9.925-14.163,19.8-28.36a4.5,4.5,0,0,0,.4-1.175,12.8,12.8,0,0,1,2.146-2.829,19.557,19.557,0,0,1,3.732-1.794q10.7.018,21.4.033,14.332.01,28.665,0c1.9,0,2.821.72,3.132,2.406q-.007,7.551-.014,15.1h-66.524v.3h66.524q.005,11.453.01,22.9c0,2.695.039,12.146.039,12.146l-4.144-9.4c-.87-1.3-1.967-3.209-2.9-4.468-2.376-3.223-4.88-6.335-8.545-8.21-1.532-.784-3.105-1.49-4.692-2.154-.294-.123-.76.08-1.117.214-.316.12-.57.463-.885.518a11.772,11.772,0,0,0-6.55,3.737c-3.16,3.355-6.159,6.862-9.226,10.3q-8.616,0-17.233,0c-4.621.008-9.242.037-13.864.057-1.537-.612-3.092-1.182-4.6-1.851-1.1-.485-2.494-.408-3.2-1.712-.1-.179-.8-.078-1.218-.024a10.314,10.314,0,0,1-1.764.329,27.09,27.09,0,0,0-8.944.791c-2.537.721-5.021,1.626-7.53,2.45l-6.1-.31c-.026-.582-.07-1.162-.073-1.743Q-1170.016,2116.893-1170.055,2107.535Z" transform="translate(-67.842 -50.519)" fill="#3fd8f5"/>
    <path id="Path_2298" data-name="Path 2298" d="M-1067.171,2250.995a2.786,2.786,0,0,1-2.479,2.433,14.357,14.357,0,0,1-2.13.22q-47.985.016-95.97,0a16.228,16.228,0,0,1-1.849-.206q-.021-13.085-.042-26.172l102.432,0Z" transform="translate(-68.054 -123.374)" fill="#83f0ff"/>
    <path id="Path_2299" data-name="Path 2299" d="M-1100.454,2029.342c-3.268-.007-6.536-.006-9.8-.026a3,3,0,0,1-3.182-2.292q0-19.256.007-38.51a2.982,2.982,0,0,1,2.726-2.223,7.392,7.392,0,0,1,1.343-.048q33.406,0,66.812,0c3.164,0,4.324,1.153,4.324,4.289q0,17.174,0,34.349c0,3.367-1.067,4.44-4.4,4.44h-44.317l-1.658-5.948c.086-.1.394-.411.669-.752.919-1.142,1.828-2.293,2.74-3.441q4.31-.006,8.621-.013c4.894,0,9.789.026,14.682-.04.665-.009,1.876-.456,1.9-.76.146-2.288.076-4.591.015-6.888-.006-.229-.4-.448-.62-.671a5.206,5.206,0,0,0-1.318-.359q-20.474-.027-40.948,0a6.727,6.727,0,0,0-1.375.288,2.063,2.063,0,0,0-1.126,2.1c.046,1.3.005,2.6.011,3.9.01,2.061.359,2.416,2.446,2.421q7.6.022,15.2.024l.63.237-7.688,6.848-.384-.336a10.361,10.361,0,0,0,.685-1.32,4.846,4.846,0,0,0,.445-1.838c-.059-.854-1.048-1.258-1.5-.666-1.469,1.915-2.875,3.878-4.273,5.846A8.41,8.41,0,0,0-1100.454,2029.342Zm-4.872-28.466a5.957,5.957,0,0,0,5.862,6.058,6.157,6.157,0,0,0,6-6,5.972,5.972,0,0,0-5.941-5.858A5.8,5.8,0,0,0-1105.326,2000.876Zm35.726,1.487h9.162c2.6,0,5.21.016,7.814-.007,1.357-.011,1.947-.553,1.749-1.606-.24-1.278-1.256-1.349-2.287-1.348q-16.3,0-32.606.011a4.941,4.941,0,0,0-1.576.249,1.321,1.321,0,0,0-.482,2.328,2.669,2.669,0,0,0,1.518.358C-1080.738,2002.372-1075.169,2002.363-1069.6,2002.363Z" transform="translate(-96.798 -0.095)" fill="#3fd8f5"/>
    <path id="Path_2300" data-name="Path 2300" d="M-1067.13,2185.012c.007.11.015.22.022.33a9,9,0,0,0-.221,1.4c-.022,4.374-.02,8.748-.024,13.123q-50.159,0-100.318-.011a16.911,16.911,0,0,1-2.116-.26q-.031-1.613-.062-3.226c0-.107.008-.215.013-.322a.262.262,0,0,0-.043-.219l-.045-1.383q0-7.533.008-15.066l.1-.06a8.3,8.3,0,0,1,1.488-1.725c1.151-.765,2.427-1.339,3.651-1.994.681.531.8.113.81-.481l2.414-.887c1.6.081,3.2.239,4.8.228,3.341-.021,6.681-.143,10.022-.2,1.024-.018,2.05.069,3.075.061,1.685-.014,3.369-.067,5.053-.1l1.157.766-.263.436.222.109.212-.525c1.836,1.08,3.714,2.1,5.5,3.255,2.355,1.529,4.464,3.6,7,4.637,2.342.958,4.68,2.543,7.8,1.043a29.108,29.108,0,0,0,7.989-4.988c1.573-1.523,3.042-3.154,4.558-4.737l31.876.021c1.349,2.666,2.707,5.327,4.036,8a1.568,1.568,0,0,1,.175,1.018C-1068.556,2184.317-1067.989,2184.739-1067.13,2185.012Z" transform="translate(-67.909 -96.24)" fill="#83f0ff"/>
    <path id="Path_2301" data-name="Path 2301" d="M-1243.047,2029.226l-1.605-1.708q-.051-1.061-.1-2.121c.083-.953-.233-2.035,1.156-2.437,1.915-.554,2.161-2.345,2.683-3.907.538-.017,1.076-.046,1.614-.047,4.042,0,8.084-.037,12.125.019,1.287.017,1.992-.477,2.043-1.733.066-1.611.11-3.229.025-4.837-.065-1.244-.764-1.887-2.128-1.869-3.906.053-7.814.008-11.721.032a5.485,5.485,0,0,0-1.251.3q-.339-1.245-.678-2.492-.093-.43-.187-.859c-.23-.828-1.326-1.285-1.008-2.349l2.088-2.97,21.816.009c.134,0,.27-.01.4,0a1.31,1.31,0,0,0,1.539-1.317c-.022-.542-.687-1.131-1.189-1.55-.248-.207-.777-.094-1.178-.094q-10.976-.006-21.951-.005c-1.971-2.469-3.812-2.846-6.57-1.572a3.1,3.1,0,0,1-2.061-.27,24.148,24.148,0,0,0-2.722-1.353c-2.838-.675-5.628,1.138-6.841,4.266a7.514,7.514,0,0,1-.482-1.078,5.985,5.985,0,0,0-7.412-4.223,6.035,6.035,0,0,0-4.165,7.355c.838,3.047,4.2,5.055,6.951,4.158l.034,4.006c-1.7.006-3.4,0-5.1.022-1.426.02-2.065.591-2.122,2.02-.061,1.519-.051,3.044,0,4.563a1.65,1.65,0,0,0,1.844,1.817c3-.033,5.995-.036,8.992-.05l2.639,4.072q-.012,2.141-.023,4.283a.464.464,0,0,0-.043.22l-1.593,1.7q-8.221,0-16.441-.007a3.423,3.423,0,0,1-3.758-3.763q-.021-17.722,0-35.443a3.7,3.7,0,0,1,4.022-3.966c22.641.063,45.281.037,67.922.039,2.542,0,3.779,1.241,3.779,3.789q0,17.857,0,35.713c0,2.424-1.2,3.631-3.632,3.632Q-1225.191,2029.229-1243.047,2029.226Z" transform="translate(-11.899 0)" fill="#3fb6f5"/>
    <path id="Path_2302" data-name="Path 2302" d="M-1124.1,2316.356q-12.534,0-25.067,0c-1.736,0-2.267-.461-2.274-2.212q-.04-10.31,0-20.619c.007-1.749.555-2.25,2.272-2.25q25.2,0,50.4,0c1.466,0,2.029.535,2.032,2.025q.023,10.512,0,21.024c0,1.525-.568,2.029-2.164,2.031Q-1111.5,2316.36-1124.1,2316.356Zm-11.315-10.795h-5.117c-3.692,0-3.692,0-3.664,3.7.013,1.736.476,2.2,2.257,2.206,3.725.009,7.451,0,11.176,0,3.871,0,3.958-.092,3.836-4.034-.041-1.331-.553-1.859-1.891-1.869C-1131.016,2305.55-1133.216,2305.563-1135.415,2305.562Zm11.328-4.58h2.29q8.15,0,16.3,0c.9,0,1.723-.241,1.682-1.277-.036-.936-.83-1.176-1.676-1.152-.224.006-.449,0-.674,0H-1142a6.541,6.541,0,0,0-1.21.034,1.112,1.112,0,0,0-.813,1.729,2.371,2.371,0,0,0,1.613.636C-1136.3,2301-1130.193,2300.982-1124.087,2300.982Z" transform="translate(-77.352 -156.11)" fill="#3fd8f5"/>
    <path id="Path_2303" data-name="Path 2303" d="M-1154.507,2096.657l-.168-.2-.957-.969-9.757-10.559,32.88-.034c.751,0,1.5.008,2.253.012q-4.994,5.518-9.988,11.033-3.249,3.576-6.539,7.115a6.835,6.835,0,0,1-1.028.762Z" transform="translate(-70.228 -50.557)" fill="#3fd8f5"/>
    <path id="Path_2304" data-name="Path 2304" d="M-1089.692,2063.832a8.44,8.44,0,0,1,.655-1.386c1.4-1.968,2.8-3.931,4.273-5.846.455-.593,1.445-.189,1.5.666a4.84,4.84,0,0,1-.444,1.838,10.344,10.344,0,0,1-.685,1.32l.384.337,7.689-6.849-.632-.237,2.515,0c-.912,1.148-1.821,2.3-2.74,3.441-.275.341-.582.655-.669.752l1.658,5.948-.295,1.069-.272.289,0,0a29.94,29.94,0,0,1-5,2.659c-2.644.838-4.889,1.986-6.21,4.53-.017.033-.075.045-.114.066l-4.328-3.522c.839-1.348,1.7-2.685,2.5-4.053A3.188,3.188,0,0,0-1089.692,2063.832Z" transform="translate(-107.56 -34.585)" fill="#ffa082"/>
    <path id="Path_2305" data-name="Path 2305" d="M-1137.343,2159.234l-1.157-.766c-1.971-.924-3.816-2.269-6.2-1.783-.262.053-.577-.156-.868-.242a8.15,8.15,0,0,0-2.132-.595,30.287,30.287,0,0,0-6.135.306c-2.586.537-5.077,1.53-7.609,2.327l-2.414.886-.81.482c-1.224.654-2.5,1.229-3.65,1.994a8.29,8.29,0,0,0-1.489,1.726c-.033-.257-.066-.514-.1-.772l-.007-.491.106-.561,6.085-3.469c2.508-.824,4.992-1.728,7.529-2.45a27.1,27.1,0,0,1,8.944-.791,10.29,10.29,0,0,0,1.764-.329c.414-.054,1.12-.156,1.217.024.708,1.3,2.106,1.227,3.2,1.712,1.512.669,3.068,1.238,4.605,1.85l.655.453c2.374,1.674,4.711,3.4,7.134,5a46.267,46.267,0,0,0,5.645,3.29c1.129.534,2.489,1.146,3.758.026.146-.128.5-.014.758-.022a8.2,8.2,0,0,0,2.524-.119c4.377-1.647,7.559-4.82,10.384-8.412l.239-.278c3.067-3.443,6.066-6.949,9.226-10.3a11.769,11.769,0,0,1,6.55-3.736c.315-.055.569-.4.885-.519.356-.135.822-.337,1.117-.214,1.587.664,3.16,1.371,4.692,2.154,3.665,1.875,6.17,4.987,8.546,8.21.928,1.259,1.749,2.6,2.618,3.9,1.269,2.612,2.532,5.228,3.814,7.834.231.469.54.9.814,1.347.348.393.978.792.968,1.176-.011.4-.634.789-.99,1.183-.858-.273-1.426-.695-1.114-1.753a1.567,1.567,0,0,0-.175-1.018c-1.329-2.676-2.686-5.337-4.036-8q-.134-.273-.267-.547c-2.538-4.249-5.34-8.2-9.538-11.1-2.415-1.667-5.044-1.347-7.608-1.778a1.831,1.831,0,0,0-1.141.346,26.578,26.578,0,0,0-4.847,3.3c-2.87,2.942-5.464,6.151-8.17,9.251l-.3.509c-1.516,1.583-2.984,3.214-4.558,4.737a29.118,29.118,0,0,1-7.989,4.988c-3.116,1.5-5.454-.085-7.8-1.044-2.541-1.04-4.649-3.107-7-4.636-1.786-1.159-3.663-2.176-5.5-3.255C-1137.229,2159.247-1137.286,2159.24-1137.343,2159.234Z" transform="translate(-67.914 -80.49)" fill="#2b9efc"/>
    <path id="Path_2306" data-name="Path 2306" d="M-1169.7,2316.327l-.1-.284c.023-.58.062-1.159.064-1.739q.028-11.537.047-23.075c3.347-.031,3.783-.352,3.748,3.828-.05,6.089-.013,12.178-.013,18.268,0,2.783-.213,3-2.94,3Z" transform="translate(-67.974 -156.08)" fill="#3fd8f5"/>
    <path id="Path_2307" data-name="Path 2307" d="M-1083.54,2084.458c.039-.021.1-.033.114-.066,1.322-2.544,3.567-3.691,6.21-4.53a29.876,29.876,0,0,0,5-2.658c-.83.875-1.626,1.787-2.5,2.612a11.981,11.981,0,0,1-1.641,1.111,19.53,19.53,0,0,0-3.733,1.794,12.816,12.816,0,0,0-2.146,2.829l-1.258-.851C-1083.51,2084.618-1083.524,2084.538-1083.54,2084.458Z" transform="translate(-112.091 -46.622)" fill="#eb735e"/>
    <path id="Path_2308" data-name="Path 2308" d="M-1176.451,2277.271q.029-11.537.047-23.075-.049-2.416-.1-4.833l.106-.25q-.021-13.085-.042-26.172,0-.271,0-.542-.031-1.614-.062-3.225l-.214-.244.021-.125-6.236.03.017.108c0,3.863-.027,7.726.011,11.589.064,6.368.181,12.735.259,19.1q.149,12.246.273,24.493.125,10.7.269,21.394c.082,6.144.184,12.286.26,18.43q.158,12.584.293,25.167c1.167.005,2.339-.058,3.5.035,1.091.088,1.357-.326,1.352-1.37-.038-8.749-.021-17.5-.021-26.247q0-15.209.007-30.418a11.974,11.974,0,0,1,.2-1.561l.1-.263-.1-.284c-.034-.216-.082-.432-.122-.648.04.216.088.432.122.648C-1176.492,2278.43-1176.453,2277.851-1176.451,2277.271Z" transform="translate(-61.256 -119.046)" fill="#181532"/>
    <path id="Path_2309" data-name="Path 2309" d="M-1218.458,2075.236a4.52,4.52,0,0,1-1.021.26q-5.973.109-11.946.164c-.134,0-.271-.182-.406-.28l.032-.42h13.089Z" transform="translate(-36.246 -45.475)" fill="#b8426d"/>
    <path id="Path_2310" data-name="Path 2310" d="M-1060.371,2076.9l.272-.288Z" transform="translate(-123.941 -46.322)" fill="#d58586"/>
    <path id="Path_2311" data-name="Path 2311" d="M-1288.584,2481.775l.4-1.169,1.515,1.422.262-.2-1.217-1.614,2.769-1.354c1.376,1.03,2.728,2.1,4.141,3.073a8.743,8.743,0,0,0,1.76.726l4.872-1.367c.335.366.955.729.959,1.1.036,2.694-.052,5.39-.1,8.086l-29.48-.022a4.3,4.3,0,0,1,3.02-3.292c.423-.146.842-.309,1.272-.428,2.866-.791,5.639-1.762,7.965-4.343l1.5,2.17.4-.354-1.718-2.147h1.429l.374.391.271.271.416.463.388.212-.155-.512-.462-.482a.577.577,0,0,0-.137-.135Zm2.61.589a1.507,1.507,0,0,0-.215-.347c-.044-.037-.146-.005-.222,0,0,.106-.029.243.025.309S-1286.194,2482.348-1285.974,2482.364Z" transform="translate(0 -252.056)" fill="#fae3af"/>
    <path id="Path_2312" data-name="Path 2312" d="M-1302.7,2502.6l29.48.022-.979,1.587-.71.3q-13.274.01-26.549.016c-.312,0-.625-.052-.937-.08l-.24-.221Z" transform="translate(0 -264.194)" fill="#fda300"/>
    <path id="Path_2313" data-name="Path 2313" d="M-1254.667,2477.026l-4.873,1.367a22.212,22.212,0,0,0,1.871-2.749c.918-1.878.162-3.024-1.9-3.2-1.463-.125-2.925-.314-4.37-.572-.3-.053-.524-.535-.783-.819q-.017-.222-.033-.443l4.125-.1,6.493.095Q-1254.4,2473.819-1254.667,2477.026Z" transform="translate(-19.409 -247.787)" fill="#d58586"/>
    <path id="Path_2314" data-name="Path 2314" d="M-1265.44,2471.618c.259.284.483.766.783.819,1.445.258,2.907.446,4.37.572,2.057.176,2.813,1.321,1.895,3.2a22.19,22.19,0,0,1-1.872,2.749,8.746,8.746,0,0,1-1.76-.726c-1.413-.977-2.765-2.043-4.141-3.073Q-1265.8,2473.388-1265.44,2471.618Z" transform="translate(-18.686 -248.35)" fill="#eb735e"/>
    <path id="Path_2315" data-name="Path 2315" d="M-1261.647,2467.738l-4.125.1c-1.007.077-1.059-.569-.921-1.281a13.009,13.009,0,0,1,.46-1.462l4.863-.005.009,0Z" transform="translate(-18.387 -245.009)" fill="#404249"/>
    <path id="Path_2316" data-name="Path 2316" d="M-1263.362,2358.206v.066l-.993-.122Z" transform="translate(-19.611 -190.315)" fill="#b1b4b9"/>
    <path id="Path_2317" data-name="Path 2317" d="M-1164.205,2504.234l-.239.205c-.85.031-1.7.088-2.551.09q-11.853.015-23.707.009c-.491,0-.982-.07-1.474-.108l-.815-.477-.695-1.32,29.512,0Z" transform="translate(-55.756 -264.214)" fill="#fda300"/>
    <path id="Path_2318" data-name="Path 2318" d="M-1268.692,2241.041c-1.874-.079-3.762-.043-5.618-.27-2.044-.25-2.966-1.482-2.967-3.589q0-11.7,0-23.4,0-5.513-.022-11.025a4.838,4.838,0,0,1,3.5.149,25.029,25.029,0,0,0,4.4,1.077,1.384,1.384,0,0,1,1.239,1.1q.26,2.754.52,5.508-.11,3.888-.219,7.777c0,.272,0,.543-.007.815q-.005.519-.009,1.037-.189,3.783-.378,7.567c-.039.712-.091,1.424-.112,2.136Q-1268.533,2235.485-1268.692,2241.041Z" transform="translate(-12.992 -110.703)" fill="#83f0ff"/>
    <path id="Path_2319" data-name="Path 2319" d="M-1234.719,2050.931q.011-2.142.023-4.283c1.165.009,2.331.046,3.5.022a2.763,2.763,0,0,0,2.917-2.573c.275-1.722.585-3.441.792-5.171.049-.41-.254-.86-.392-1.292a10.112,10.112,0,0,1-.846-2.961c.008-.56.858-1.392,1.475-1.558.411-.11,1.225.638,1.6,1.181.441.644.532,1.52.912,2.22.214.394.7.638,1.071.949a5.92,5.92,0,0,0,.436-1.471,10.525,10.525,0,0,0-.276-1.9c1.362-.337,2.025-1.2,3.273-1.514.294.223,1.367-.558,1.613-.292.471.51.737,2.591,1.179,3.127.349.965.438,1.826-.76,2.3a.768.768,0,0,0-.328.633c.136,1.443.323,2.882.493,4.322-.521,1.562-.767,3.353-2.682,3.907-1.39.4-1.074,1.484-1.156,2.438l-.311-1.9a17.188,17.188,0,0,0-1.771-.2c-1.726-.027-2.141.539-1.716,2.246.161.65.307,1.3.459,1.956l-.13,0-.1-.087Z" transform="translate(-34.769 -23.62)" fill="#ffa082"/>
    <path id="Path_2320" data-name="Path 2320" d="M-1112.246,2092.544l1.258.851a4.506,4.506,0,0,1-.4,1.175q-9.882,14.193-19.8,28.36c-2.271,3.241-5.88,3.83-8.556,1.451,2.273.121,3.758-1.24,5.04-2.823,2.354-2.91,4.64-5.875,6.923-8.841,2.528-3.283,5.02-6.593,7.528-9.891q3.79-4.983,7.585-9.962A1.935,1.935,0,0,1-1112.246,2092.544Z" transform="translate(-83.343 -54.468)" fill="#b8426d"/>
    <path id="Path_2321" data-name="Path 2321" d="M-1268.4,2189.058l.308,3.935c-2.984-.661-6.119-.862-8.665-2.852l-.068-7.861,7.357-.127c.083.429.185.854.249,1.286C-1268.944,2185.312-1268.675,2187.185-1268.4,2189.058Z" transform="translate(-13.231 -100.3)" fill="#3fd8f5"/>
    <path id="Path_2322" data-name="Path 2322" d="M-1266.658,2151.34c-.312,0-.625-.021-.937-.006-2.876.142-2.718-.494-2.5-2.895.242-2.725.82-5.419,1.241-8.127.129-.831.2-1.672.352-2.5.038-.2.324-.344.5-.515a6.387,6.387,0,0,1,.263,1.034Q-1267.187,2144.836-1266.658,2151.34Z" transform="translate(-16.62 -77.359)" fill="#b8426d"/>
    <path id="Path_2323" data-name="Path 2323" d="M-1264.514,2147.777q-.54-6.5-1.088-13.006a6.411,6.411,0,0,0-.263-1.033q-.073-1.652-.146-3.3l.265-.1a5.389,5.389,0,0,1,.406,1.21c.3,3.333.545,6.67.844,10,.326,3.642.706,7.278,1.035,10.919.288,3.2.539,6.4.791,9.595.012.158-.13.328-.2.492-.272-1.872-.541-3.746-.82-5.618-.064-.431-.165-.857-.249-1.286Q-1264.227,2151.714-1264.514,2147.777Z" transform="translate(-18.764 -73.797)" fill="#b8426d"/>
    <path id="Path_2324" data-name="Path 2324" d="M-1215.923,2066.506c-.152-.652-.3-1.306-.459-1.955-.425-1.707-.01-2.273,1.716-2.246a17.388,17.388,0,0,1,1.771.2c.113.689.212,1.293.311,1.9q.05,1.06.1,2.121Z" transform="translate(-44.069 -39.002)" fill="#eb735e"/>
    <path id="Path_2325" data-name="Path 2325" d="M-1143.116,2108.969l6.7,7.162c-.643,1.26-1.06,1.382-1.846.365-1.19-1.542-2.265-3.174-3.416-4.747-.3-.4-.8-.677-1.017-1.108A7.538,7.538,0,0,1-1143.116,2108.969Z" transform="translate(-81.62 -62.869)" fill="#b8426d"/>
    <path id="Path_2326" data-name="Path 2326" d="M-1277.971,2198.5c2.546,1.99,5.681,2.191,8.665,2.851q.089.849.178,1.694a1.384,1.384,0,0,0-1.239-1.1,25.048,25.048,0,0,1-4.4-1.077,4.838,4.838,0,0,0-3.5-.149c-1.24-.8-1.237-1.468.01-2.223Z" transform="translate(-12.021 -108.657)" fill="#2b9efc"/>
    <path id="Path_2327" data-name="Path 2327" d="M-1234.764,2070.51l9.268.111-9.311.109A.469.469,0,0,1-1234.764,2070.51Z" transform="translate(-34.724 -43.199)" fill="#d58586"/>
    <path id="Path_2328" data-name="Path 2328" d="M-1276.989,2190.232l-.287-.006q.031-3.924.061-7.847a.092.092,0,0,1,.157-.008Q-1277.024,2186.3-1276.989,2190.232Z" transform="translate(-13.002 -100.39)" fill="#b1b4b9"/>
    <path id="Path_2329" data-name="Path 2329" d="M-1145.418,2106.581l.957.969Z" transform="translate(-80.443 -61.648)" fill="#32353b"/>
    <path id="Path_2330" data-name="Path 2330" d="M-1029.639,2120.734c0,.1,0,.2,0,.3h-66.524v-.3Z" transform="translate(-105.635 -68.886)" fill="#cdd1fd"/>
    <path id="Path_2331" data-name="Path 2331" d="M-1169.831,2176.969c-.041-.111-.082-.223-.123-.333l.048-.047-.052-.042q.022-.395.043-.788v-.028l.074-2.541,6.1.31Z" transform="translate(-67.891 -95.716)" fill="#3fd8f5"/>
    <path id="Path_2332" data-name="Path 2332" d="M-1100.783,2174.247l-.655-.453c4.621-.02,9.242-.049,13.863-.057q8.617-.014,17.233,0l-.239.278q-14.4,0-28.792.006A8.777,8.777,0,0,0-1100.783,2174.247Z" transform="translate(-102.937 -95.993)" fill="#cdd1fd"/>
    <path id="Path_2333" data-name="Path 2333" d="M-1067.21,2226.433a2.4,2.4,0,0,1,0,.269l-102.433,0v-.541a17,17,0,0,0,2.116.26Q-1117.369,2226.441-1067.21,2226.433Z" transform="translate(-68.052 -122.809)" fill="#919ffc"/>
    <path id="Path_2334" data-name="Path 2334" d="M-1076.748,2044.823l-2.516,0q-7.6-.01-15.2-.023c-2.086-.006-2.436-.361-2.446-2.421-.006-1.3.035-2.6-.011-3.9a2.063,2.063,0,0,1,1.125-2.1q21.149-.005,42.3-.008c.448,0,.9.051,1.343.078.216.224.614.442.62.671.062,2.3.132,4.6-.015,6.888-.02.3-1.231.75-1.9.76-4.893.066-9.788.036-14.682.039Q-1072.438,2044.813-1076.748,2044.823Z" transform="translate(-105.246 -25.739)" fill="#fcfdfd"/>
    <path id="Path_2335" data-name="Path 2335" d="M-1096.831,2010.13a5.8,5.8,0,0,1,5.92-5.8,5.971,5.971,0,0,1,5.941,5.858,6.156,6.156,0,0,1-6,6A5.957,5.957,0,0,1-1096.831,2010.13Z" transform="translate(-105.293 -9.349)" fill="#2b9efc"/>
    <path id="Path_2336" data-name="Path 2336" d="M-1043.33,2016.148c-5.569,0-11.138.009-16.707-.015a2.67,2.67,0,0,1-1.518-.357,1.321,1.321,0,0,1,.482-2.328,4.953,4.953,0,0,1,1.576-.249q16.3-.021,32.605-.01c1.031,0,2.047.07,2.287,1.348.2,1.053-.392,1.595-1.749,1.606-2.6.022-5.21.007-7.814.007Z" transform="translate(-123.068 -13.88)" fill="#2b9efc"/>
    <path id="Path_2337" data-name="Path 2337" d="M-1152.581,2171.478c2.532-.8,5.023-1.791,7.609-2.327a30.319,30.319,0,0,1,6.135-.306,8.142,8.142,0,0,1,2.132.6c.291.086.605.295.868.242,2.387-.486,4.232.859,6.2,1.783-1.684.036-3.368.09-5.052.1-1.024.008-2.05-.079-3.075-.061-3.341.056-6.681.177-10.022.2C-1149.383,2171.717-1150.982,2171.56-1152.581,2171.478Z" transform="translate(-76.779 -93.487)" fill="#83f0ff"/>
    <path id="Path_2338" data-name="Path 2338" d="M-1035.66,2173.667l.3-.509a7.381,7.381,0,0,0,1.392.266q14.263.024,28.526,0a7.036,7.036,0,0,0,1.386-.282l.267.547Z" transform="translate(-136.58 -95.691)" fill="#919ffc"/>
    <path id="Path_2339" data-name="Path 2339" d="M-1176.467,2155.86c-.033-.257-.066-.515-.1-.772,0-.164,0-.328-.006-.492q.053-.281.106-.561l-.124-.334-.065-.05.06-.039.044-.789-.069-.01.068-.017q.037-1.271.074-2.541c-.025-.581-.07-1.162-.073-1.743q-.051-9.358-.09-18.715c-.783-1.033-1.8-1.824-3.083-1.261a2.9,2.9,0,0,0-1.852,2.6c-.167,4.87-.358,9.74-.532,14.609q-.148,4.156-.27,8.314-.281,9.256-.554,18.513l6.236-.03a.263.263,0,0,1,.163-.172l-.045-1.383q0-7.533.008-15.066c-.027.24-.066.48-.1.72.032-.24.071-.48.1-.72Z" transform="translate(-61.256 -72.782)" fill="#b8426d"/>
    <path id="Path_2340" data-name="Path 2340" d="M-1159.18,2176.544l.81-.482C-1158.383,2176.657-1158.5,2177.075-1159.18,2176.544Z" transform="translate(-73.404 -97.185)" fill="#a6affb"/>
    <path id="Path_2341" data-name="Path 2341" d="M-1103.519,2175.789c.057.005.114.013.171.021-.071.174-.141.35-.212.525l-.222-.109Z" transform="translate(-101.738 -97.045)" fill="#a6affb"/>
    <path id="Path_2342" data-name="Path 2342" d="M-1170.188,2218.625a.265.265,0,0,1,.163-.172.263.263,0,0,1,.043.22.881.881,0,0,0-.227.078Z" transform="translate(-67.763 -118.866)" fill="#404249"/>
    <path id="Path_2343" data-name="Path 2343" d="M-1170.21,2218.981a.9.9,0,0,1,.227-.078c0,.107-.008.215-.013.322Z" transform="translate(-67.763 -119.096)" fill="#5d6ad7"/>
    <path id="Path_2344" data-name="Path 2344" d="M-1226.352,2019.667c-1.248.309-2.361.844-3.723,1.181a10.538,10.538,0,0,1,.276,1.9,5.923,5.923,0,0,1-.436,1.471c-.366-.312-.857-.555-1.071-.949-.38-.7-.471-1.576-.912-2.22-.372-.543-1.186-1.292-1.6-1.181-.617.166-1.467,1-1.475,1.559a10.109,10.109,0,0,0,.846,2.961c.138.433.441.883.392,1.292-.207,1.73-.517,3.449-.792,5.17a2.762,2.762,0,0,1-2.917,2.573c-1.165.023-2.33-.013-3.495-.022l-2.639-4.072a26.2,26.2,0,0,1-3.615-8.372q-.017-2-.034-4.006a8.974,8.974,0,0,1,4.289-5.084c.368-.209.551-.744.819-1.128,1.213-3.129,4-4.941,6.841-4.267a24.146,24.146,0,0,1,2.723,1.354,3.1,3.1,0,0,0,2.061.27c2.758-1.275,4.6-.9,6.569,1.572l.56,2.956q-1.044,1.484-2.088,2.97c-2.193.53-1.914,2.44-2.357,4.006h.773C-1226.974,2019.7-1226.731,2019.571-1226.352,2019.667Z" transform="translate(-28.209 -10.376)" fill="#d9441f"/>
    <path id="Path_2345" data-name="Path 2345" d="M-1201.106,2044.74c-.171-1.44-.358-2.879-.493-4.323a.766.766,0,0,1,.328-.632c1.2-.479,1.109-1.34.76-2.3q.057-.437.112-.872a5.5,5.5,0,0,1,1.251-.3c3.907-.023,7.814.021,11.721-.032,1.364-.018,2.062.625,2.128,1.869.085,1.608.041,3.227-.025,4.837-.051,1.256-.756,1.751-2.043,1.733-4.041-.056-8.083-.023-12.125-.019C-1200.03,2044.693-1200.568,2044.723-1201.106,2044.74Z" transform="translate(-51.707 -25.687)" fill="#fcfdfd"/>
    <path id="Path_2346" data-name="Path 2346" d="M-1249.93,2009.585c-.268.384-.451.919-.819,1.128a8.972,8.972,0,0,0-4.289,5.084c-2.756.9-6.113-1.111-6.951-4.158a6.035,6.035,0,0,1,4.165-7.355,5.985,5.985,0,0,1,7.412,4.223A7.5,7.5,0,0,0-1249.93,2009.585Z" transform="translate(-20.715 -9.218)" fill="#2b9efc"/>
    <path id="Path_2347" data-name="Path 2347" d="M-1255.08,2036.273a26.208,26.208,0,0,0,3.616,8.372c-3,.014-5.995.017-8.992.05a1.65,1.65,0,0,1-1.844-1.817c-.053-1.519-.064-3.044,0-4.563.057-1.429.7-2,2.122-2.02C-1258.481,2036.271-1256.781,2036.279-1255.08,2036.273Z" transform="translate(-20.639 -25.688)" fill="#fcfdfd"/>
    <path id="Path_2348" data-name="Path 2348" d="M-1199.286,2016.093l-.56-2.956q10.976,0,21.952,0c.4,0,.931-.112,1.178.094.5.419,1.168,1.008,1.189,1.55a1.31,1.31,0,0,1-1.539,1.316c-.134-.01-.27,0-.4,0Z" transform="translate(-52.605 -13.841)" fill="#2b9efc"/>
    <path id="Path_2349" data-name="Path 2349" d="M-1207.025,2029.3h-.773c.443-1.566.164-3.476,2.357-4.006-.319,1.064.777,1.521,1.007,2.349-1.228-.057-.3.724-.427,1.1Z" transform="translate(-48.538 -20.072)" fill="#f4999a"/>
    <path id="Path_2350" data-name="Path 2350" d="M-1127.814,2320.52c2.2,0,4.4-.012,6.6.005,1.339.01,1.85.538,1.891,1.869.122,3.941.035,4.033-3.836,4.033-3.725,0-7.451.006-11.176,0-1.782,0-2.245-.47-2.258-2.206-.028-3.7-.028-3.7,3.664-3.7Z" transform="translate(-84.954 -171.067)" fill="#2b9efc"/>
    <path id="Path_2351" data-name="Path 2351" d="M-1116.528,2308.594c-6.107,0-12.214.017-18.321-.027a2.37,2.37,0,0,1-1.613-.637,1.112,1.112,0,0,1,.813-1.729,6.54,6.54,0,0,1,1.21-.034h35.833c.225,0,.449.006.674,0,.846-.024,1.64.217,1.676,1.152.041,1.036-.783,1.277-1.682,1.277q-8.149,0-16.3,0Z" transform="translate(-84.91 -163.723)" fill="#fff"/>
    <path id="Path_2352" data-name="Path 2352" d="M-1003.732,2159.645a7,7,0,0,1-1.386.283q-14.262.025-28.526,0a7.416,7.416,0,0,1-1.392-.266c2.706-3.1,5.3-6.31,8.17-9.251a26.539,26.539,0,0,1,4.847-3.3,1.833,1.833,0,0,1,1.141-.346c2.563.431,5.193.11,7.608,1.778C-1009.072,2151.441-1006.27,2155.4-1003.732,2159.645Z" transform="translate(-136.899 -82.195)" fill="#83f0ff"/>
    <path id="Path_2353" data-name="Path 2353" d="M-1100.1,2174.539a8.776,8.776,0,0,1,1.41-.228q14.4-.018,28.792-.005c-2.825,3.591-6.007,6.764-10.384,8.411a8.2,8.2,0,0,1-2.524.119c-.257.007-.613-.106-.758.022-1.269,1.12-2.629.508-3.758-.026a46.305,46.305,0,0,1-5.645-3.29C-1095.387,2177.942-1097.724,2176.213-1100.1,2174.539Z" transform="translate(-103.622 -96.285)" fill="#3fd8f5"/>
    <path id="Path_2354" data-name="Path 2354" d="M-1169.908,2182.566c0-.164,0-.328-.007-.492C-1169.912,2182.238-1169.91,2182.4-1169.908,2182.566Z" transform="translate(-67.914 -100.26)" fill="#404249"/>
    <path id="Path_2355" data-name="Path 2355" d="M-1186.682,2470.525l4.3.093-.08,1.2c-1.756.222-3.419.459-5.087.635-1.867.2-2.606,1.02-1.984,2.746a16.646,16.646,0,0,0,2.038,3.2l-4.874-1.385q-.28-3.2-.559-6.4Z" transform="translate(-56.141 -247.792)" fill="#d58586"/>
    <path id="Path_2356" data-name="Path 2356" d="M-1184.172,2478.461a16.639,16.639,0,0,1-2.038-3.2c-.622-1.726.117-2.549,1.984-2.745,1.669-.177,3.331-.414,5.088-.636.028-.427.054-.815.08-1.2a.288.288,0,0,1,.234-.016q.283,2,.567,4.008c-1.275.938-2.525,1.916-3.838,2.8A15.066,15.066,0,0,1-1184.172,2478.461Z" transform="translate(-59.469 -247.853)" fill="#eb735e"/>
    <path id="Path_2357" data-name="Path 2357" d="M-1187.733,2466.9l-6.251.089c-.723,0-1.064-.358-1-1.076.077-.826.174-1.65.262-2.475.486.271.961.75,1.459.776,1.833.1,3.675.042,5.513.044Q-1187.74,2465.58-1187.733,2466.9Z" transform="translate(-55.089 -244.167)" fill="#404249"/>
    <path id="Path_2358" data-name="Path 2358" d="M-1243.034,2308.323c-.459,4.008-.939,8.014-1.374,12.025q-1.6,14.714-3.157,29.433c-.385,3.611-.738,7.225-1.106,10.837l-7.059,0-.009,0c.358-2.6.737-5.2,1.068-7.806q.657-5.171,1.252-10.349c.319-2.745.591-5.495.917-8.238.3-2.565.673-5.121.976-7.687.324-2.743.607-5.492.905-8.239.456-4.21.865-8.426,1.379-12.628.46-3.756,1.089-7.49,1.546-11.247.521-4.291.9-8.6,1.4-12.891.575-4.866,1.322-9.713,1.8-14.588a7.052,7.052,0,0,1,3-5.4c1.222-.892,2.517-.71,3.841-.669a4.382,4.382,0,0,0-.53,1.205c-.318,2.915-.584,5.836-.867,8.754l-.5,4.861-.791,7.274q-.137,1.226-.273,2.45c-.152,1.2-.327,2.4-.45,3.6-.4,3.922-.782,7.845-1.17,11.768Z" transform="translate(-24.018 -140.544)" fill="#181532"/>
    <path id="Path_2359" data-name="Path 2359" d="M-1267.771,2313.372q-.132,1.62-.263,3.239c-1.329-.086-2.658-.195-3.988-.254-1.31-.058-1.918-.55-1.923-1.865q-.04-10.557,0-21.114c.008-1.623.6-2.1,2.269-2.107,1.479-.008,2.959,0,4.438-.005-.1,4.636-.031,9.286-.4,13.9-.121,1.529-.758,3.064-.592,4.671C-1268.106,2311.02-1267.926,2312.194-1267.771,2313.372Z" transform="translate(-14.694 -156.107)" fill="#3fd8f5"/>
    <path id="Path_2360" data-name="Path 2360" d="M-1228.084,2326.489c.388-3.923.769-7.846,1.17-11.768.123-1.2.3-2.4.45-3.6,1.959,0,3.923.066,5.877-.041a1.355,1.355,0,0,1,1.6,1.112q.667,6.545,1.329,13.092c.04.4.01.8.012,1.207Z" transform="translate(-38.162 -166.238)" fill="#3fd8f5"/>
    <path id="Path_2361" data-name="Path 2361" d="M-1224.208,2298.519q.4-3.637.791-7.274l5.293-.016q.315,3.237.631,6.476c.024.726-.4.846-1.022.836C-1220.413,2298.511-1222.311,2298.523-1224.208,2298.519Z" transform="translate(-40.145 -156.088)" fill="#3fd8f5"/>
    <path id="Path_2362" data-name="Path 2362" d="M-1221.56,2270.77c.283-2.918.549-5.84.867-8.754a4.395,4.395,0,0,1,.53-1.2c1.275-.316,1.955.033,2.085,1.232.316,2.913.561,5.835.834,8.753Z" transform="translate(-41.499 -140.474)" fill="#a6affb"/>
    <path id="Path_2363" data-name="Path 2363" d="M-1222.087,2281.313l4.315.026q.152,1.611.3,3.221.081.543.161,1.087c0,.17.006.341.009.511l-5.293.016Q-1222.338,2283.743-1222.087,2281.313Z" transform="translate(-40.972 -151.016)" fill="#fcfdfd"/>
    <path id="Path_2364" data-name="Path 2364" d="M-1224.494,2305.3c1.9,0,3.795-.008,5.692.023.621.01,1.047-.11,1.023-.836q.244,2.167.488,4.335a1.355,1.355,0,0,0-1.6-1.111c-1.954.106-3.918.037-5.877.041Q-1224.631,2306.524-1224.494,2305.3Z" transform="translate(-39.858 -162.868)" fill="#fff"/>
    <path id="Path_2365" data-name="Path 2365" d="M-1224.172,2314.049c-.077-6.143-.179-12.286-.26-18.429q-.143-10.7-.269-21.395-.143-12.247-.273-24.493c-.078-6.368-.195-12.735-.259-19.1-.039-3.862-.01-7.725-.011-11.588-1.3-.016-2.6-.046-3.9-.045q-16.279.015-32.559.041-.109,3.889-.218,7.778l-.006.815-.009,1.037v0q-.189,3.782-.379,7.563c-.038.713-.09,1.424-.112,2.137q-.172,5.555-.331,11.111l-.248,4.822c-.1,4.636-.031,9.286-.4,13.9-.121,1.529-.758,3.064-.592,4.671.122,1.182.3,2.356.456,3.534q-.132,1.619-.263,3.239-.122,3.693-.244,7.385v.066q.03.569.058,1.141-.413,11.9-.824,23.807-.455,13.588-.881,27.177l4.863,0c.358-2.6.737-5.2,1.067-7.806q.658-5.171,1.252-10.35c.32-2.744.591-5.494.917-8.238.3-2.564.673-5.121.976-7.686.324-2.744.607-5.493.905-8.24.456-4.209.865-8.425,1.379-12.628.459-3.756,1.089-7.491,1.546-11.247.521-4.29.9-8.6,1.4-12.891.576-4.866,1.322-9.714,1.8-14.588a7.053,7.053,0,0,1,3-5.4c1.222-.892,2.517-.71,3.841-.669,1.275-.316,1.955.033,2.085,1.232.316,2.913.56,5.835.833,8.754q.152,1.611.3,3.221.08.543.161,1.086c0,.17.006.34.009.511l.631,6.476q.244,2.169.488,4.336.667,6.546,1.329,13.092c.04.4.01.8.012,1.208q.327,3.139.655,6.279c.327,3.072.669,6.143.981,9.217q1.461,14.394,2.9,28.791.74,7.366,1.466,14.734c.486.271.96.75,1.459.776,1.833.1,3.675.042,5.513.044l.03-.019Q-1224.025,2326.633-1224.172,2314.049Z" transform="translate(-18.927 -119.144)" fill="#26254a"/>
    <path id="Path_2366" data-name="Path 2366" d="M-1211.943,2289.045q-.08-.544-.162-1.087Q-1212.024,2288.5-1211.943,2289.045Z" transform="translate(-46.335 -154.415)" fill="#cdd1fd"/>
    <path id="Path_2367" data-name="Path 2367" d="M-1257.984,2235.815q0-.407.007-.815Q-1257.981,2235.409-1257.984,2235.815Z" transform="translate(-22.87 -127.329)" fill="#5d6ad7"/>
    <path id="Path_2368" data-name="Path 2368" d="M-1272.581,2486.9l-.416-.463.187-.319.462.482Z" transform="translate(-15.191 -255.766)" fill="#f3f3f3"/>
    <path id="Path_2369" data-name="Path 2369" d="M-1271.914,2487.1l.155.512-.387-.212Z" transform="translate(-15.626 -256.27)" fill="#f3f3f3"/>
    <path id="Path_2370" data-name="Path 2370" d="M-1273.943,2485.5l-.374-.391.249-.289.446.5Z" transform="translate(-14.516 -255.104)" fill="#f3f3f3"/>
    <path id="Path_2371" data-name="Path 2371" d="M-1268.929,2485.647c-.221-.016-.369.014-.413-.04s-.02-.2-.024-.31c.076,0,.178-.033.222,0A1.531,1.531,0,0,1-1268.929,2485.647Z" transform="translate(-17.045 -255.34)" fill="#f3f3f3"/>
    <path id="Path_2372" data-name="Path 2372" d="M-1273.231,2485.839a.569.569,0,0,1,.137.135l-.187.319-.271-.271Z" transform="translate(-14.907 -255.624)" fill="#f3f3f3"/>
    <path id="Path_2373" data-name="Path 2373" d="M-1256.02,2465.086l7.059,0c.453,1.707.223,2.447-.853,2.75l-6.493-.095Q-1256.163,2466.411-1256.02,2465.086Z" transform="translate(-23.728 -245.007)" fill="#37383e"/>
    <path id="Path_2374" data-name="Path 2374" d="M-1193.752,2490.486c-.028-2.619-.1-5.24-.036-7.858.012-.454.626-.893.963-1.339l4.874,1.385a14.971,14.971,0,0,0,2.076-.992c1.313-.882,2.563-1.86,3.838-2.8l2.7,1.335-.925,1.242-.265.265-.276.278c-.016.135-.033.27-.05.4l.317-.084.325-.326.218-.22.9-1.021c.226.111.412.146.505.258.345.416.392,1.2,1.245.951q.1.427.2.854-.017.2-.035.393l.356-.2c.272,0,.667-.128.8,0,2.42,2.5,5.721,3.131,8.816,4.2a4.127,4.127,0,0,1,2.965,3.277Zm14.9-8.164-.271.27-.558.708.222.2.655-.692.277-.3.025-.39Zm.988,1.246-.493.634.174.17.62-.507.3-.632-.2-.11Z" transform="translate(-55.69 -252.067)" fill="#fae3af"/>
    <path id="Path_2375" data-name="Path 2375" d="M-1170.023,2180.061l.052.043-.048.047-.065-.051Z" transform="translate(-67.827 -99.23)" fill="#5f6cec"/>
    <path id="Path_2376" data-name="Path 2376" d="M-1169.943,2178.391v.028l-.069-.011Z" transform="translate(-67.864 -98.376)" fill="#5f6cec"/>
    <path id="Path_2377" data-name="Path 2377" d="M-1164.011,2486.688l-.655.692-.222-.2.558-.708Z" transform="translate(-70.485 -255.949)" fill="#f3f3f3"/>
    <path id="Path_2378" data-name="Path 2378" d="M-1161.383,2488.769l-.62.507-.173-.17.492-.634Z" transform="translate(-71.871 -256.97)" fill="#f3f3f3"/>
    <path id="Path_2379" data-name="Path 2379" d="M-1161.169,2488.007l.4-.445.2.11-.3.632Z" transform="translate(-72.387 -256.505)" fill="#f3f3f3"/>
    <path id="Path_2380" data-name="Path 2380" d="M-1166.579,2484.973l-.324.326-.268-.32.276-.277Z" transform="translate(-69.317 -255.042)" fill="#f3f3f3"/>
    <path id="Path_2381" data-name="Path 2381" d="M-1159.395,2487.13l-.356.2c.012-.131.023-.262.035-.393Z" transform="translate(-73.112 -256.186)" fill="#f3f3f3"/>
    <path id="Path_2382" data-name="Path 2382" d="M-1163.745,2486.191l.271-.27.326.187-.279.3Z" transform="translate(-71.069 -255.666)" fill="#f3f3f3"/>
    <path id="Path_2383" data-name="Path 2383" d="M-1166.956,2485.589l-.318.084c.017-.135.034-.27.05-.4Z" transform="translate(-69.265 -255.332)" fill="#f3f3f3"/>
    <path id="Path_2384" data-name="Path 2384" d="M-1166.607,2484.423l.265-.265.27.316-.218.22Z" transform="translate(-69.605 -254.764)" fill="#f3f3f3"/>
    <path id="Path_2385" data-name="Path 2385" d="M-1163.191,2485.708l.35-.2q-.012.195-.024.39Z" transform="translate(-71.352 -255.453)" fill="#f3f3f3"/>
    <rect id="Rectangle_342" data-name="Rectangle 342" width="1.029" height="5.457" rx="0.515" transform="translate(-1254.056 2007.383) rotate(-15.683)" fill="#23252c"/>
    <rect id="Rectangle_343" data-name="Rectangle 343" width="1.029" height="6.838" rx="0.515" transform="matrix(0.27, 0.963, -0.963, 0.27, -1252.981, 2007.994)" fill="#23252c"/>
    <path id="Path_2386" data-name="Path 2386" d="M-1182.645,2464.25c2.353,0,5.374.084,5.914-.811.453,1.706,1.369,3.254.292,3.557l-6.493-.095Z" transform="translate(-61.256 -244.167)" fill="#37383e"/>
  </g>
</svg>
