<svg xmlns="http://www.w3.org/2000/svg" width="120.309" height="254.277" viewBox="0 0 120.309 254.277">
  <g id="Group_143" data-name="Group 143" transform="translate(392.538 -1301.341)">
    <path id="Path_2248" data-name="Path 2248" d="M-381.878,1600.857q.011-.185.021-.37-.066-2.382-.131-4.764-.467-10.545-.934-21.09a171.845,171.845,0,0,1,1.042-27.315c4.564-.013,9.128,0,13.692-.047a6.559,6.559,0,0,0,6.675-6.62c.045-2.2.011-4.4.012-6.593,0-1.322,0-2.643,0-3.916h15.712a2.579,2.579,0,0,1,.107.454q-.017,5.156-.043,10.312c-.022,4.431,1.333,6.349,5.493,7.771.112,1.341.265,2.68.329,4.023.354,7.463.683,14.927,1.028,22.391.218,4.713.452,9.425.671,14.138.343,7.351.7,14.7,1.011,22.053.171,4.1.229,8.21.372,12.314.092,2.639.226,5.276.374,7.913.307,5.491.644,10.98.941,16.47a3.637,3.637,0,0,1-.306,1.1l-4.783.119a6.053,6.053,0,0,1-.649-1.445c-1.745-10.833-3.451-21.672-5.182-32.506q-3.158-19.755-6.341-39.507-2.1-13.089-4.164-26.183c-.225-1.428-.656-2.555-2.449-2.213-3.778.294-6.554,2.5-7.289,6.1a48.647,48.647,0,0,0-.639,6.344c-.269,3.863-.451,7.732-.716,11.6-.423,6.154-.89,12.3-1.328,18.457-.247,3.47-.452,6.943-.712,10.411-.424,5.646-.9,11.288-1.309,16.935-.281,3.918-.457,7.844-.714,11.765-.436,6.661-.9,13.32-1.35,19.979l-5.478.125a7.208,7.208,0,0,1-.568-1.754c-.377-6.714-.708-13.432-1.051-20.148q-.142-2.344-.284-4.689c.007-.559.045-1.12.015-1.678Q-381.332,1610.825-381.878,1600.857Z" transform="translate(-5.188 -125.473)" fill="#4f93e0"/>
    <path id="Path_2249" data-name="Path 2249" d="M-338.778,1524.267c-4.16-1.423-5.515-3.341-5.493-7.771q.025-5.156.043-10.312a2.584,2.584,0,0,0-.107-.454h-15.712c0,1.273,0,2.594,0,3.916,0,2.2.033,4.4-.012,6.593a6.559,6.559,0,0,1-6.675,6.62c-4.564.051-9.128.034-13.692.047a54.757,54.757,0,0,1,.5-7.812c1.532-7.483,3.333-14.911,5.029-22.36a7.2,7.2,0,0,0,1.552-.845c1.161-1.062,2.216-2.239,3.366-3.314,1.093-1.021,2.253-1.969,3.384-2.949-.6,2.383-1.143,4.786-1.84,7.142-.373,1.259.053,1.781,1.222,1.96l7.3,1.117c-.045,1.682-.154,3.367-.09,5.045.015.414.587,1.152.911,1.157,4.923.074,9.848.052,14.956.052v-3.236c1.095.219,2.191.428,3.283.66,1.249.266,1.769-.305,2.072-1.487.83-3.237,1.772-6.445,2.67-9.664.429,4.647.806,9.3,1.3,13.94.688,6.48,1.5,12.948,2.155,19.432a7.127,7.127,0,0,1-.7,2.457Z" transform="translate(-6.642 -101.061)" fill="#26254a"/>
    <path id="Path_2250" data-name="Path 2250" d="M-380.73,1436.536c-1.149,1.056-2.312,2.1-3.445,3.172-1.873,1.774-3.838,2.163-5.833,1.121-1.973-1.03-2.856-2.931-2.421-5.438,2.111-12.144,4.264-24.281,6.361-36.427.749-4.337,3.094-7.108,7.432-8.172,2.178-.534,4.316-1.233,6.471-1.857-.306,2.374-.612,4.747-.928,7.206l2.45.969a13.474,13.474,0,0,1-1.955.911c-1.142.3-1.39.778-.878,1.929.887,1.992,1.53,4.092,2.345,6.119.977,2.429,2.027,4.828,3.045,7.241l-1.768,7.723c-2.3,1.4-4.573,2.861-6.921,4.183a2.6,2.6,0,0,0-1.417,2.267c-.212,2.237-.469,4.469-.708,6.7Z" transform="translate(0 -48.036)" fill="#26254a"/>
    <path id="Path_2251" data-name="Path 2251" d="M-324.876,1395.132q.215-5.376.43-10.752l2.324.7c.376,3,.736,6,1.13,8.99.6,4.559,1.224,9.114,1.838,13.671l-17.041-2.748-5.981-19.283,3.766-1.357,6.346,10.125-3.467,1.861.048.435a6.17,6.17,0,0,1,6.164.82l-.005-.009.361.336-.014-.01.632.421c.765.79,1.308.616,1.752-.348.277-.6.654-1.161.986-1.739l3.162.667.135-.331Z" transform="translate(-27.618 -45.523)" fill="#f8f8f8"/>
    <path id="Path_2252" data-name="Path 2252" d="M-199.466,1380.635c1.029-6.426,4.31-11.136,10.5-13.514,6.533-2.509,14.763-.208,18.841,5.168.547,1.334,1.086,2.671,1.643,4,3.766,8.979-2.011,19.721-11.574,21.458-1.635.3-3.3.408-4.958.606l-2.365-.235-4.092-1.735c-1.13-.984-2.319-1.908-3.379-2.963a17.052,17.052,0,0,1-4.68-10.362Q-199.5,1381.846-199.466,1380.635Zm6.051,9.693a3.4,3.4,0,0,1,.368.331c4.316,5.16,10.674,6.348,16.383,3.059a13.283,13.283,0,0,0,5.841-16.094c-2.1-5.65-6.155-8.228-13.217-8.39a8.12,8.12,0,0,0-2.245-.122,13.39,13.39,0,0,0-9.8,17.206C-195.574,1387.826-195.188,1389.585-193.415,1390.328Z" transform="translate(-105.846 -35.517)" fill="#fead25"/>
    <path id="Path_2253" data-name="Path 2253" d="M-270.921,1437.665l2.127,7.409,17.844-2.95q-.509,3.831-1.018,7.664c-6.468,2-12.918,4.059-19.414,5.964a7.473,7.473,0,0,1-6.253-1.221l.661-3.329a6.819,6.819,0,0,0,.911-1.234c.83-1.888,1.637-3.788,2.378-5.712.756-1.965,1.413-3.969,2.149-5.943C-271.44,1438.056-271.131,1437.879-270.921,1437.665Z" transform="translate(-63.012 -74.759)" fill="#26254a"/>
    <path id="Path_2254" data-name="Path 2254" d="M-292.686,1388.119c6.281,1.329,9.342,4.2,10.135,9.506a12.367,12.367,0,0,0-.119,6.16,43.608,43.608,0,0,1,1.341,4.816c.249,1.353.606,2.859-.812,3.924.312-1.061-.446-1.2-1.171-1.323-1.771-.3-3.547-.573-5.321-.858a15.549,15.549,0,0,1,.042-1.688c.424-3.267.88-6.529,1.312-9.8.154-1.161-.006-2.065-1.441-2.375a17.775,17.775,0,0,1-2.932-1.2l1.3-1.106Z" transform="translate(-54.758 -47.588)" fill="#26254a"/>
    <path id="Path_2255" data-name="Path 2255" d="M-346.956,1387.358l5.981,19.283-2.426-.2-1.847,6.008c-1.018-2.412-2.068-4.812-3.045-7.241-.815-2.027-1.459-4.126-2.345-6.119-.512-1.151-.264-1.626.878-1.929a13.468,13.468,0,0,0,1.955-.911l-2.449-.969c.317-2.459.623-4.832.928-7.206Z" transform="translate(-22.838 -47.171)" fill="#993319"/>
    <path id="Path_2256" data-name="Path 2256" d="M-220.8,1449.441q.509-3.832,1.018-7.664c1.595-.252,3.186-.529,4.786-.748,1.5-.205,2.974-.413,3.783-1.944,1.772-.638,3.559-1.238,5.311-1.927.919-.361,1.082.1,1.138.82l-4.437,8.4-2.05.058a15.143,15.143,0,0,0-2.453.42C-216.087,1447.671-218.438,1448.574-220.8,1449.441Z" transform="translate(-94.18 -74.412)" fill="#ffa082"/>
    <path id="Path_2257" data-name="Path 2257" d="M-295.474,1386.937l2.333,6.064-1.3,1.105a17.755,17.755,0,0,0,2.932,1.2c1.435.31,1.6,1.214,1.442,2.375-.433,3.266-.888,6.528-1.312,9.8a15.56,15.56,0,0,0-.042,1.689l-3.382-.538c-.614-4.557-1.237-9.112-1.838-13.671-.394-2.994-.754-5.993-1.13-8.99Z" transform="translate(-51.971 -46.406)" fill="#1d1a36"/>
    <path id="Path_2258" data-name="Path 2258" d="M-273.084,1424.068c1.418-1.065,1.061-2.572.812-3.925a43.6,43.6,0,0,0-1.341-4.816,12.368,12.368,0,0,1,.119-6.16q1.688,6.435,3.377,12.869c-.21.214-.519.391-.615.647-.736,1.974-1.393,3.978-2.149,5.943-.741,1.925-1.549,3.824-2.378,5.712a6.823,6.823,0,0,1-.911,1.234Q-274.627,1429.821-273.084,1424.068Z" transform="translate(-63.815 -59.132)" fill="#1d1a36"/>
    <g id="Group_141" data-name="Group 141" transform="translate(-367.53 1314.872)">
      <path id="Path_2259" data-name="Path 2259" d="M-317.448,1336.14c-.145-2.815-1.254-4.123-4.05-4.836a8.418,8.418,0,0,1-2.354,3.511l-4.292-.246-2.082,2.005a8.043,8.043,0,0,0-1.676.039c-1.614.244-3.19.739-4.782,1.127q-.239.977-.477,1.955c.508.964,1.05,1.913,1.51,2.9a4.388,4.388,0,0,1,.557,1.794c-.045,2.705-.2,5.409-.308,8.112q-.129,1.38-.256,2.761l6.346,10.125,2.745,3.117,0-.01.357.333.622.414c.765.79,1.308.616,1.752-.348.277-.6.654-1.161.986-1.739l.73-1.113q.215-5.376.43-10.752-.258-1.025-.518-2.049a6.247,6.247,0,0,1-5.422-1.828l5.141-.545c.436-.335.86-.686,1.309-1a8.1,8.1,0,0,0,3.407-5.674,13.048,13.048,0,0,0,.248-2.256,16.873,16.873,0,0,0,.079-1.9c.056-1.811.064-3.5.064-3.5Zm-13.175,14.151c-.072-.044-.1-.158-.149-.244.094-.024.207-.09.266-.058s.086.161.126.246C-330.462,1350.257-330.572,1350.322-330.623,1350.291Zm2.371.961-1.174-.318.114-.386,1.155.379Z" transform="translate(337.162 -1331.304)" fill="#ffa082"/>
      <path id="Path_2260" data-name="Path 2260" d="M-312.935,1414.387l0,0-.01-.007Z" transform="translate(323.884 -1376.86)" fill="#ffa082"/>
    </g>
    <path id="Path_2261" data-name="Path 2261" d="M-367.369,1485.484l1.83-2.35c1.455-1.38,2.866-2.811,4.39-4.11a7.086,7.086,0,0,1,2.014-.833l-.737,3.358c-1.13.98-2.291,1.928-3.383,2.948-1.15,1.075-2.2,2.252-3.366,3.314a7.18,7.18,0,0,1-1.552.845Q-367.771,1487.07-367.369,1485.484Z" transform="translate(-13.361 -96.984)" fill="#1d1a36"/>
    <path id="Path_2262" data-name="Path 2262" d="M-310.646,1376.994a6.247,6.247,0,0,1-5.422-1.827l5.141-.546Q-310.787,1375.807-310.646,1376.994Z" transform="translate(-41.936 -40.186)" fill="#e67a67"/>
    <path id="Path_2263" data-name="Path 2263" d="M-199.632,1450.226q.011-.652.022-1.305l2.017-3.842,4.437-8.4,1.313-2.021c3.208,1.073,3.208,1.073,2.686,3.026-.756-.183-1.506-.395-2.268-.542-.72-.139-1.369-.389-1.291.939a4.243,4.243,0,0,1-.9,2.948c-1.2,1.215-.433,1.791.345,2.543.28.27.543.557.814.836a7.942,7.942,0,0,0-1.165,1.268c-1.143,1.952-2.225,3.942-3.328,5.917Z" transform="translate(-105.789 -73.108)" fill="#fead25"/>
    <path id="Path_2264" data-name="Path 2264" d="M-167.384,1405.861c1.653-.2,3.322-.308,4.958-.605,9.563-1.737,15.34-12.479,11.574-21.458-.557-1.329-1.1-2.667-1.643-4a15.887,15.887,0,0,1,1.738,17.965A16.006,16.006,0,0,1-167.384,1405.861Z" transform="translate(-123.473 -43.025)" fill="#ed8014"/>
    <path id="Path_2265" data-name="Path 2265" d="M-185.908,1447.283c-.271-.279-.534-.566-.814-.836-.779-.752-1.544-1.328-.345-2.543a4.242,4.242,0,0,0,.9-2.948c-.078-1.329.57-1.078,1.291-.939.762.147,1.512.358,2.268.542l.654.208c-.484,2.577-1.388,4.928-3.566,6.589Z" transform="translate(-112.337 -75.986)" fill="#ffa082"/>
    <path id="Path_2266" data-name="Path 2266" d="M-189.2,1456.245l.388.072c-1.159,2.245-2.283,4.508-3.519,6.709-.166.3-.894.277-1.362.4,1.1-1.976,2.185-3.965,3.328-5.918A7.94,7.94,0,0,1-189.2,1456.245Z" transform="translate(-109.045 -84.949)" fill="#ed8014"/>
    <path id="Path_2267" data-name="Path 2267" d="M-179.043,1437.061l-.654-.207c.523-1.953.523-1.953-2.686-3.026l.317-.681,4.092,1.735Z" transform="translate(-115.248 -72.282)" fill="#ed8014"/>
    <path id="Path_2268" data-name="Path 2268" d="M-287.407,1842.1c-.448-4.407-1.09-8.807-1.244-13.223-.059-1.69,1-3.419,1.549-5.13.52.5,1.081.963,1.553,1.5,2.358,2.705,4.678,5.444,7.041,8.145a7.649,7.649,0,0,0,5.639,2.92l2.111-.026a39.294,39.294,0,0,1,4.51,2.635,13.169,13.169,0,0,1,2.143,2.779c-.242.131-.486.38-.724.375-3.7-.07-7.405-.173-11.108-.267a33.6,33.6,0,0,1-3.992-2.956c-1.632-1.606-3.01-3.468-4.546-5.177a4.005,4.005,0,0,0-1.215-.635,4.732,4.732,0,0,0-.4,1.2c-.136,2.617-.225,5.237-.33,7.856Z" transform="translate(-56.97 -286.484)" fill="#ed8014"/>
    <path id="Path_2269" data-name="Path 2269" d="M-370.513,1822.635c.033,4.374.2,8.753.039,13.12a6.421,6.421,0,0,1-2.608,5.238l-5.8-.025c-1.9-1.3-1.965-3.347-1.6-5.175.917-4.557,2.147-9.052,3.252-13.573-.417,2.755-.785,5.519-1.262,8.264-.593,3.412,1.228,5.249,4.7,4.647a3.177,3.177,0,0,0,2.834-3.541c.024-2.475-.024-4.951.018-7.427A6.2,6.2,0,0,1-370.513,1822.635Z" transform="translate(-6.517 -285.647)" fill="#ed8014"/>
    <path id="Path_2270" data-name="Path 2270" d="M-282.781,1571.042c.443,4.94,1.1,9.872,1.288,14.822.58,15.563,1,31.132,1.447,46.7q.533,18.53.97,37.064a9.1,9.1,0,0,1-.41,2.016l-4.3-.133a3.637,3.637,0,0,0,.306-1.1c-.3-5.491-.634-10.979-.941-16.47-.148-2.636-.283-5.274-.374-7.913-.143-4.1-.2-8.211-.372-12.314-.306-7.353-.667-14.7-1.011-22.053-.219-4.713-.453-9.425-.671-14.138-.345-7.464-.674-14.928-1.028-22.391-.064-1.343-.217-2.682-.329-4.023Z" transform="translate(-57.216 -147.902)" fill="#3078bf"/>
    <path id="Path_2271" data-name="Path 2271" d="M-355.884,1643.333q-.209,2.36-.418,4.721-.845,7.96-1.687,15.921c-.164,1.565-.233,3.143-.47,4.7a4.682,4.682,0,0,1-.838,1.445l-2.439-.286c.452-6.66.914-13.319,1.35-19.979.257-3.92.433-7.846.714-11.765.405-5.647.885-11.289,1.309-16.935.26-3.468.465-6.941.712-10.411.438-6.153.9-12.3,1.328-18.457.266-3.864.448-7.733.716-11.6a48.644,48.644,0,0,1,.639-6.345c.736-3.608,3.511-5.81,7.289-6.1a9.534,9.534,0,0,0-1.091,2.537c-.749,6.686-1.416,13.382-2.068,20.079-.371,3.813-.625,7.637-1.006,11.448-.392,3.92-.887,7.828-1.309,11.745a8.419,8.419,0,0,0,.1,1.494q-.076.9-.151,1.8l-1.648,15.573Z" transform="translate(-16.892 -146.365)" fill="#3078bf"/>
    <path id="Path_2272" data-name="Path 2272" d="M-284.227,1793.512l4.3.133c.261,2.8.425,5.606.823,8.383a13.381,13.381,0,0,0,1.287,3.964c2.151,4.334,4.418,8.609,6.63,12.912a4.272,4.272,0,0,1,.232.805l-2.11.027c-.257-.621-.467-1.266-.779-1.858-3.2-6.07-6.868-11.99-8.385-18.738-.91-4.046-3.354-4.6-6.657-4.472q-.061-.519-.122-1.038Z" transform="translate(-56.775 -269.904)" fill="#e67a67"/>
    <path id="Path_2273" data-name="Path 2273" d="M-368.387,1793.193l2.439.287c-.33,3.411-.693,6.819-.972,10.235a23.21,23.21,0,0,0,.131,3,6.165,6.165,0,0,0-.427,1.528c-.042,2.475.006,4.951-.018,7.427a3.177,3.177,0,0,1-2.834,3.541,10.046,10.046,0,0,0,.975-2.824c.2-6.611.274-13.225.384-19.839.018-1.093-.536-1.589-1.632-1.709-1.159-.127-2.3-.426-3.448-.65q-.038-.437-.076-.874Z" transform="translate(-10.241 -269.728)" fill="#e67a67"/>
    <path id="Path_2274" data-name="Path 2274" d="M-319.6,1450.112l-2.1,7.539c-.9,3.219-1.841,6.427-2.67,9.664-.3,1.182-.824,1.753-2.072,1.487-1.092-.232-2.188-.441-3.283-.66a9.2,9.2,0,0,0-1.1-.344q-7.336-1.348-14.675-2.674l-7.3-1.117c-1.169-.179-1.595-.7-1.222-1.96.7-2.355,1.236-4.759,1.84-7.142l.736-3.358q3.438-.325,6.876-.65c1.055-.1,2.088-.015,2.378-1.542.145-.766,1.013-1.385,1.513-2.1a7.342,7.342,0,0,0,.527-1.082,4.232,4.232,0,0,0-1.2-.413c-1.9-.044-3.8-.019-5.694-.019a26.813,26.813,0,0,1,4.78-1.343,6.039,6.039,0,0,0,1.589-.994,7.162,7.162,0,0,0-1.9-.47c-2.075.067-4.147.259-6.22.4l1.768-7.723,1.847-6.008,2.426.2,17.041,2.748,3.382.538c1.774.283,3.55.557,5.321.857.725.123,1.484.262,1.171,1.323l-3.087,11.506Z" transform="translate(-21.048 -70.34)" fill="#ed8014"/>
    <path id="Path_2275" data-name="Path 2275" d="M-335.16,1508.254q7.338,1.334,14.675,2.674a9.22,9.22,0,0,1,1.1.344c0,1.054-.1,7.083-.1,8.211-5.109,0-10.893.564-15.816.49,0,0,.065-6.26.05-6.675C-335.314,1511.621-335.205,1509.936-335.16,1508.254Z" transform="translate(-31.389 -113.47)" fill="#efefef"/>
    <path id="Path_2276" data-name="Path 2276" d="M-353.294,1459.52c2.073-.144,4.144-.336,6.22-.4a7.156,7.156,0,0,1,1.9.47,6.032,6.032,0,0,1-1.589.993,26.845,26.845,0,0,0-4.78,1.343c1.9,0,3.8-.025,5.694.019a4.228,4.228,0,0,1,1.2.413,7.354,7.354,0,0,1-.527,1.082c-.5.714-1.367,1.333-1.513,2.1-.289,1.526-1.323,1.443-2.378,1.542q-3.438.322-6.876.65a7.079,7.079,0,0,0-2.013.833c-1.524,1.3-2.935,2.73-4.39,4.11.239-2.235.5-4.467.708-6.7a2.6,2.6,0,0,1,1.417-2.267C-357.867,1462.381-355.6,1460.923-353.294,1459.52Z" transform="translate(-16.561 -86.523)" fill="#ffa082"/>
    <path id="Path_2277" data-name="Path 2277" d="M-321.249,1409.89a6.17,6.17,0,0,0-6.164-.82l-.048-.435,3.467-1.862Z" transform="translate(-35.688 -57.818)" fill="#b2b6bb"/>
    <path id="Path_2278" data-name="Path 2278" d="M-304.756,1408.222l2.566,1.449-.135.331-3.162-.667Z" transform="translate(-47.739 -58.613)" fill="#b2b6bb"/>
    <path id="Path_2279" data-name="Path 2279" d="M-319.916,1373.917l1.155.379-.1.325-1.174-.318Z" transform="translate(-39.763 -39.8)" fill="#e67a67"/>
    <path id="Path_2280" data-name="Path 2280" d="M-323.011,1372.725c.094-.024.207-.09.266-.058s.086.161.126.246c-.083.022-.192.087-.243.056C-322.934,1372.926-322.963,1372.811-323.011,1372.725Z" transform="translate(-38.128 -39.11)" fill="#e67a67"/>
    <path id="Path_2281" data-name="Path 2281" d="M-312.317,1414.8l-.632-.42Z" transform="translate(-43.646 -61.988)" fill="#b2b6bb"/>
    <path id="Path_2282" data-name="Path 2282" d="M-313.355,1413.991l-.361-.336Z" transform="translate(-43.226 -61.592)" fill="#b2b6bb"/>
    <path id="Path_2283" data-name="Path 2283" d="M-180.7,1372.819a13.455,13.455,0,0,0-9.376,21.092c-1.772-.742-2.158-2.5-2.665-4.008a13.39,13.39,0,0,1,9.8-17.206A8.116,8.116,0,0,1-180.7,1372.819Z" transform="translate(-109.19 -39.101)" fill="#ed8014"/>
    <path id="Path_2284" data-name="Path 2284" d="M-288.738,1796.055c3.3-.131,5.747.426,6.657,4.472,1.518,6.747,5.183,12.668,8.385,18.738.312.592.522,1.237.779,1.857a7.648,7.648,0,0,1-5.639-2.921c-2.363-2.7-4.682-5.439-7.041-8.145-.472-.541-1.033-1.005-1.553-1.5Z" transform="translate(-56.923 -271.289)" fill="#ffa082"/>
    <path id="Path_2285" data-name="Path 2285" d="M-375.015,1795.405c1.148.224,2.289.523,3.448.65,1.1.12,1.65.615,1.632,1.709-.11,6.614-.188,13.228-.384,19.839a10.044,10.044,0,0,1-.975,2.823c-3.469.6-5.289-1.236-4.7-4.647.477-2.745.845-5.509,1.262-8.264Z" transform="translate(-9.014 -270.942)" fill="#ffa082"/>
    <path id="Path_2286" data-name="Path 2286" d="M-347.049,1325.527c.508.964,1.05,1.913,1.51,2.9a4.388,4.388,0,0,1,.557,1.794c-.045,2.7-.2,5.408-.308,8.112-3.351-.549-4.959-2.645-4.35-5.937a3.238,3.238,0,0,0-1.789-3.893,7.166,7.166,0,0,1-3.742-7.2,7.386,7.386,0,0,1,4.507-6.785,3.277,3.277,0,0,0,2.213-3.823,4.61,4.61,0,0,1,3.206-4.981c2.067-.7,4.047.129,5.417,2.26-3.63-.219-5.858,1.832-5.034,4.056l6.212-3.072a27.472,27.472,0,0,1,5.136.669,10.573,10.573,0,0,1,6.835,12.4c-.071.3-.416.524-.634.784.035-3.4-1.008-4.892-4.069-5.671a7.632,7.632,0,0,1-4.387,4.729l-2.062.58.005-.011-.646.077a18.7,18.7,0,0,0-3.315-.066c-1.614.244-3.19.739-4.782,1.127-.276-2.28-.552-4.559-.863-7.129-.312,1.718-.716,3.262-.843,4.829C-348.4,1322.793-348.5,1324.414-347.049,1325.527Z" transform="translate(-20.481 -2.264)" fill="#d9441f"/>
    <path id="Path_2287" data-name="Path 2287" d="M-326.321,1311.975l-6.212,3.072c-.823-2.224,1.4-4.275,5.034-4.056Z" transform="translate(-32.813 -5.283)" fill="#d88832"/>
    <path id="Path_2288" data-name="Path 2288" d="M-338.732,1338.854c-1.451-1.114-1.352-2.734-1.228-4.255.127-1.567.531-3.111.843-4.829.311,2.57.587,4.849.863,7.129Q-338.494,1337.877-338.732,1338.854Z" transform="translate(-28.798 -15.59)" fill="#993319"/>
    <path id="Path_2289" data-name="Path 2289" d="M-348.249,1305.414c.383-1.639-1.388-2.964-3-3.448a10.607,10.607,0,0,0-7.613.465,8.138,8.138,0,0,0-4.537,5.971c-.42,2.938,1,5.947.388,8.851-.57,2.695-2.744,4.7-4.432,6.873s-2.957,5.254-1.523,7.606c.818,1.341,2.315,2.082,3.49,3.124A8.517,8.517,0,0,1-363,1343.4c-.639,2.21-2.15,4.041-3.371,5.991s-2.195,4.292-1.589,6.511a10.153,10.153,0,0,0,2.68,4.006c3.5,3.76,7.146,7.962,7.543,13.083.157,2.024-.345,4.281-1.983,5.479a28.372,28.372,0,0,0,9.4-13.161c.789-2.309,1.25-4.948.133-7.118-1.04-2.02-3.218-3.19-4.568-5.017a7.518,7.518,0,0,1,.3-9.05c.7-.822,1.568-1.481,2.294-2.278a8.954,8.954,0,0,0,.444-11.14c-1.5-1.939-3.764-3.174-5.27-5.109a8.872,8.872,0,0,1-1.484-7.819" transform="translate(-12.585 -0.074)" fill="#d9441f"/>
    <rect id="Rectangle_340" data-name="Rectangle 340" width="2.016" height="2.016" rx="1.008" transform="translate(-358.524 1321.375)" fill="#020202"/>
    <circle id="Ellipse_279" data-name="Ellipse 279" cx="0.267" cy="0.267" r="0.267" transform="translate(-358.209 1321.651)" fill="#fff"/>
    <path id="Path_2290" data-name="Path 2290" d="M-309.109,1361.74s-3.115,2.812-4.726-.78" transform="translate(-43.16 -32.695)" fill="#fff"/>
    <rect id="Rectangle_341" data-name="Rectangle 341" width="2.016" height="2.016" rx="1.008" transform="translate(-350.845 1322.186)" fill="#020202"/>
    <circle id="Ellipse_280" data-name="Ellipse 280" cx="0.267" cy="0.267" r="0.267" transform="translate(-350.53 1322.462)" fill="#fff"/>
    <path id="Path_2291" data-name="Path 2291" d="M-305.647,1351.359l.464,2.169-1.077.434Z" transform="translate(-47.314 -27.429)" fill="#e67a67"/>
    <path id="Path_2292" data-name="Path 2292" d="M-357.635,1469.272" transform="translate(-19.141 -92.092)" fill="#2b9efc"/>
    <path id="Path_2293" data-name="Path 2293" d="M-364.668,1456.3l2.441-1.332v-12.8Z" transform="translate(-15.284 -77.225)" fill="#1d1a36"/>
    <g id="Group_142" data-name="Group 142" transform="translate(-382.23 1301.341)">
      <path id="Path_2294" data-name="Path 2294" d="M-365.058,1326.364c1.688-2.177,3.862-4.179,4.431-6.874.614-2.9-.807-5.913-.388-8.851a8.138,8.138,0,0,1,4.537-5.972,10.609,10.609,0,0,1,7.613-.464c.163.049.327.108.491.174-.287-1.214-1.695-2.156-3-2.548a10.611,10.611,0,0,0-7.613.465,8.138,8.138,0,0,0-4.537,5.971c-.42,2.938,1,5.947.388,8.851-.57,2.695-2.744,4.7-4.432,6.873s-2.957,5.254-1.523,7.606a8.871,8.871,0,0,0,2.482,2.325C-368,1331.576-366.735,1328.526-365.058,1326.364Z" transform="translate(369.712 -1301.341)" fill="#993319"/>
      <path id="Path_2295" data-name="Path 2295" d="M-361.149,1404.326a10.147,10.147,0,0,1-2.68-4.006c-.606-2.219.368-4.561,1.589-6.511s2.731-3.781,3.371-5.991a8.516,8.516,0,0,0-2.472-8.54c-.408-.362-.855-.687-1.3-1.014a8.545,8.545,0,0,1,1.262,7.181c-.639,2.21-2.15,4.041-3.371,5.991s-2.195,4.291-1.589,6.511a10.148,10.148,0,0,0,2.68,4.006c3.5,3.76,7.146,7.962,7.543,13.083.157,2.024-.345,4.28-1.983,5.479a28.058,28.058,0,0,0,4.35-4.2C-354.536,1411.683-357.9,1407.814-361.149,1404.326Z" transform="translate(367.963 -1343.525)" fill="#993319"/>
    </g>
  </g>
</svg>
