<svg xmlns="http://www.w3.org/2000/svg" width="180.643" height="232.367" viewBox="0 0 180.643 232.367">
  <g id="Group_152" data-name="Group 152" transform="translate(2244.758 -1432.359)">
    <path id="Path_2859" data-name="Path 2859" d="M-2192.634,1439.637c1.68,5.993-5.114,13.137-15.175,15.956s-19.97,11.83-21.65,5.836,1.464-24.112,14.554-27.948C-2204.879,1430.544-2194.313,1433.643-2192.634,1439.637Z" transform="translate(-5.493)" fill="#472303"/>
    <path id="Path_2860" data-name="Path 2860" d="M-2130.2,1536.672c2.856-.043,5.712-.123,8.569-.121,4.329,0,8.658.081,12.987.095,5.888.018,11.775.006,17.663,0,.461,0,.921-.043,1.381-.067l8.206.047c4.459.008,8.918.005,13.376.029,1.471.008,1.992.615,1.785,2.051-.143,1-.355,1.984-.544,2.974q-3.648,19.188-7.312,38.373a8.338,8.338,0,0,1-.567,1.545,5.292,5.292,0,0,1,.272,1.823c-.059.255-.777.5-1.2.509-4.2.062-8.408.072-12.613.1l-5.267-.032-9.192-.047-10.117,0-26.023-.024.3-.515c1.245.006,2.491.023,3.736.014.656,0,1.288-.077,1.107-1.013l-.4-.483.067-.269c1.9.31,2.166.089,1.938-1.654,1.249-.4,1.159-1.174.505-2.035.925-.906.917-1.331-.072-1.974-1.536-1-3.1-1.962-4.645-2.941l-.306-.216.018.038a4.456,4.456,0,0,1-.406-1.5c.106-1.076.4-2.133.6-3.2.957-4.968,1.9-9.938,2.87-14.9C-2132.4,1547.735-2131.3,1542.2-2130.2,1536.672Zm30.5,19.64c-.642-.474-1.075-1.04-1.6-1.138a5.086,5.086,0,0,0-5.507,3.208c-.681,1.823.208,3.117,2.131,3.068a4.167,4.167,0,0,0,3.406-1.495C-2102.71,1558.452-2102.416,1557.656-2099.7,1556.312Z" transform="translate(-39.107 -38.454)" fill="#22242b"/>
    <path id="Path_2861" data-name="Path 2861" d="M-2187.56,1499.143c1.547,1.054,3.155,2.032,4.611,3.2a19.577,19.577,0,0,1,3.134,6.464q2.113,10.676,4.2,21.358a5.34,5.34,0,0,1-.07,1.309l-5.543.5a3.871,3.871,0,0,1,.1-.867,14.634,14.634,0,0,0-.315-11.119c-.722-1.634-1.57-3.216-2.418-4.79-.572-1.061-1.246-2.068-1.874-3.1a.688.688,0,0,0-.161.69c.8,1.917,1.645,3.818,2.425,5.745.922,2.276,1.967,4.488,2.029,7.056a13.584,13.584,0,0,1-1.806,6.663l-4.56,6.6c-.08.026-.216.034-.23.08a32.521,32.521,0,0,0-1.708,5.818c-.4,3.63-.4,7.3-.557,10.961a12.67,12.67,0,0,0,.006,1.76c.078.805-.218,1.184-1.04,1.108-2.164-.4-4.333-.777-6.49-1.208s-4.307-.915-6.459-1.378c-2.066-.445-4.126-.922-6.2-1.333-2.2-.435-4.408-.808-6.612-1.207l-2.052-.612c.1-.074.295-.207.292-.212-1.01-1.538-.489-3.256-.5-4.88a11.755,11.755,0,0,1,3.26-8.193c.55-.6,1.079-1.22,1.771-2.005-.967,0-1.675.038-2.378-.007a7.2,7.2,0,0,1-6.411-5.155c-1.234-4.434-2.249-8.928-3.367-13.394a3.215,3.215,0,0,0-.323-.644l-.172.079c.556,4.549,1.111,9.1,1.685,13.8-2.957,0-5.847.018-8.736-.033-.247,0-.642-.443-.7-.734-.249-1.226-.4-2.472-.582-3.711.176-.512-.792-1.017-.01-1.532l-.5-.537-.014.018c-.553-3.414-.933-6.868-1.706-10.231a13.972,13.972,0,0,1,.882-9.974,10.615,10.615,0,0,1,1.981-2.112l.589.129-.921,1.417,2.7-.582-1.491-2.189c1.924-2.309,6.625-3.695,9.522-2.807,1.908,4.332,4.349,8.28,8.3,11.061,1.2.844,2.552,1.473,3.834,2.2a10.466,10.466,0,0,0,1.175.95c2.4,1.439,5.1,2.465,6.741,4.978l2.682-5.943a7.125,7.125,0,0,0,1.724-7.717c-.726-2.063-1.4-4.145-2.1-6.218,3.515-.069,7.031-.178,10.546-.184a31.142,31.142,0,0,1,3.6.4l-.023-.013Zm-16.766,26.969-.484.021-.881,2.69,2.335-.354C-2203.731,1527.558-2204.029,1526.835-2204.327,1526.112Zm9.415,8.771,2.333-.334-1-2.375-.486.063C-2194.327,1533.057-2194.59,1533.877-2194.911,1534.883Zm-16.583,2.555-.5.064-.856,2.668,2.292-.411Zm21.413,7.369-.918-2.281-.493.06-.89,2.668Zm-39.688-28.4-.9-2.361-.469.014-.95,2.8Zm11.7,6.942-.907-2.331-.524.056-.785,2.642Zm27.1-12.772,2.217-.354-.835-2.324-.532.017Zm-8.844,38.508-.892-2.308-.52.053-.826,2.615Zm11.633-26.519-.892-2.271-.5.043-.861,2.6Zm2.072-11.037-.05-.095c-.023.027-.061.052-.063.081s.029.062.046.093Z" transform="translate(-2.474 -24.403)" fill="#fae3af"/>
    <path id="Path_2862" data-name="Path 2862" d="M-2184.756,1477.156a31.11,31.11,0,0,0-3.6-.4c-3.516.006-7.031.115-10.546.184q-.258-.9-.516-1.8.01-1.752.02-3.5c3.468-1.757,2.829-4.376,3.324-8.356,1.545-.675,3.731-10.282,3.771-11.108-3.939.168-6.742-1.249-7.747-4.785l-3.752,5.48-.684.546-3.272,1.533-1.268.331c-.458.015-.915.046-1.373.044-1.729-.005-3.481.282-4.746-1.488a2.331,2.331,0,0,0-2.794-.526,2.644,2.644,0,0,0-1.739,2.279,5.4,5.4,0,0,0,3.208,5.722c.446.2.9.379,1.3.551-.517,3.692-1.013,7.265-1.52,10.836-.455,3.2-1.427,4.083-4.663,4.24a20.456,20.456,0,0,0-8.163.941,38.578,38.578,0,0,1,.818-4.565,10.855,10.855,0,0,0-.05-6.553,22.006,22.006,0,0,1-1.133-5.63c-.1-2.788,2.059-4.285,4.09-5.66,2.23-1.51,4.6-2.847,6.154-5.131a36.224,36.224,0,0,0,2.083-3.591,13.343,13.343,0,0,1,14.239-6.462,2.492,2.492,0,0,0,1.463-.014c3.743-1.636,6.576.1,9.272,2.413,2.267,1.941,3.083,4.578,3.792,7.364a14.393,14.393,0,0,0,2.294,5.11c3.038,3.983,3.771,8.232,1.931,12.808a11.579,11.579,0,0,0-.234,8.589A2.1,2.1,0,0,1-2184.756,1477.156Z" transform="translate(-5.493 -2.682)" fill="#472303"/>
    <path id="Path_2863" data-name="Path 2863" d="M-2137.9,1569.074q1.052-5.652,2.1-11.3,1.371-7.026,2.741-14.053c.351-1.81.68-3.625,1.027-5.436.21-1.1.781-1.75,2-1.558-1.1,5.532-2.2,11.063-3.287,16.6-.971,4.965-1.913,9.936-2.87,14.9-.206,1.066-.495,2.124-.6,3.2a4.461,4.461,0,0,0,.406,1.5l-1.948-1.245Z" transform="translate(-39.281 -38.505)" fill="#15171a"/>
    <path id="Path_2864" data-name="Path 2864" d="M-2158.163,1499.368l-.239-.28Z" transform="translate(-31.871 -24.627)" fill="#24252c"/>
    <path id="Path_2865" data-name="Path 2865" d="M-2081.516,1611.672l9.192.047,5.123,1.755a12.59,12.59,0,0,1,4.313,5.925q5.6,16.2,11.205,32.4l1.8,4.582,2.264,6.561.611,2.1.17.447,5.135,14.749.047.087q.128.416.255.833l1.212,3.551.539,1.509,2.873,8.309.2.518,2.546,7.323.114.507,1.018,2.87.488,1.4q.222.893.445,1.785l-9.378.015-.26-.1a2.244,2.244,0,0,0-.032-.627c-1.336-3.828-2.663-7.661-4.039-11.476-1.077-2.987-2.242-5.943-3.321-8.93-.882-2.441-1.687-4.909-2.542-7.36q-1.855-5.318-3.735-10.627c-.5-1.421-1.033-2.832-1.555-4.247-1.216-3.292-2.45-6.576-3.646-9.875-.654-1.8-1.229-3.636-1.869-5.445-1.506-4.257-3.034-8.506-4.546-12.761-.941-2.647-1.846-5.307-2.81-7.945-1.219-3.336-2.6-6.619-3.691-10a11.808,11.808,0,0,0-6.768-7.311C-2080.609,1612.048-2081.065,1611.865-2081.516,1611.672Z" transform="translate(-60.247 -66.178)" fill="#639164"/>
    <path id="Path_2866" data-name="Path 2866" d="M-2242.137,1617.116c2.5.322,4.594-.944,6.769-1.8,4.407-1.724,8.762-3.588,13.645-3.328h2.653a35.618,35.618,0,0,1-4.276,1.718,8.918,8.918,0,0,0-5.827,5.087c-1.074,2.49-.615,6.663,1.105,8.707a9.5,9.5,0,0,0,7.73,3.484c20.035-.031,40.07-.006,60.105-.039,1.145,0,1.562.28,1.486,1.468-.156,2.427-.255,4.861-.255,7.292,0,2.389.139,4.779.237,7.167.073,1.8.1,3.608.285,5.4.447,4.238.969,8.467,1.477,12.7s1.09,8.454,1.542,12.691c.4,3.74.7,7.492.975,11.244.158,2.131.168,4.273.278,6.408.235,4.558.492,9.115.741,13.672l-3.3-.019-4.369-.137-.621-.028q-.14-3.043-.281-6.085a.185.185,0,0,0,0-.231c-.219-4.4-.36-8.8-.684-13.194-.218-2.956-.691-5.895-1.051-8.84a.153.153,0,0,0-.044-.205l-1.308-10.346-.21-1.282-.287-3.017-.018-.539q-.461-11.283-.922-22.567l.261-3.582a5.549,5.549,0,0,0-.7-.118q-16.1.012-32.2.031c-2.23-.017-4.46-.042-6.691-.049q-10.734-.032-21.468-.047a19.734,19.734,0,0,1-7.961-1.659c-1.992-1.591-4.18-3.07-5.143-5.537a22.97,22.97,0,0,1-1.608-5.993C-2242.342,1622.756-2242.137,1619.926-2242.137,1617.116Z" transform="translate(-0.94 -66.287)" fill="#487548"/>
    <path id="Path_2867" data-name="Path 2867" d="M-2087.434,1611.672c.451.193.906.376,1.353.581a11.807,11.807,0,0,1,6.768,7.311c1.092,3.376,2.473,6.659,3.691,10,.964,2.638,1.869,5.3,2.81,7.945,1.512,4.254,3.04,8.5,4.546,12.761.64,1.809,1.215,3.641,1.869,5.445,1.2,3.3,2.43,6.583,3.646,9.875.522,1.415,1.052,2.826,1.555,4.247q1.879,5.309,3.735,10.627c.855,2.451,1.66,4.919,2.542,7.36,1.079,2.986,2.244,5.942,3.321,8.93,1.375,3.815,2.7,7.648,4.039,11.476a2.235,2.235,0,0,1,.032.627l-5.307.01-.236-.005-1.026,0-.242.006c-.077.025-.155.052-.231.081-.223-.387-.465-.765-.665-1.164-.871-1.733-1.729-3.473-2.591-5.21l-2.553-5.288-1.705-3.042c-.548-1.117-1.019-2.28-1.659-3.341-2.127-3.53-4.316-7.023-6.481-10.53l-4.01-6.222-4.74-8.81-.059.006q-.429-1.185-.86-2.369l-.411-.584-3.89-9.29q-2.015-5.776-4.031-11.552c.1-2.664.187-5.328.308-7.991.063-1.418.218-2.833.275-4.252a30.671,30.671,0,0,0,.086-6.383,14.2,14.2,0,0,0-2.315-5.837,11.836,11.836,0,0,0-7.31-4.968c-.145-.028-.246-.289-.368-.442Z" transform="translate(-54.329 -66.178)" fill="#487548"/>
    <path id="Path_2868" data-name="Path 2868" d="M-2022.715,1797.427c-.71-1.237-.391-1.853,1.01-1.909.907-.037,1.814-.037,2.722-.052,3.721.009,7.443-.037,11.161.058a2.572,2.572,0,0,0,2.654-1.619l1.033-1.27a4.866,4.866,0,0,0,1.329.5c2.083.132,4.17.21,6.258.267,3.721.1,7.443.159,11.164.276a1.925,1.925,0,0,0,1.98-1.011,5.135,5.135,0,0,1,.974,4.482,6.72,6.72,0,0,1-1.75.49q-18.584.015-37.167-.042A11.107,11.107,0,0,1-2022.715,1797.427Z" transform="translate(-81.814 -132.966)" fill="#3078bf"/>
    <path id="Path_2869" data-name="Path 2869" d="M-2112.262,1797.579c-.429-1.333-.191-1.7,1.114-1.741l1.5-.046c4.023.015,8.047,0,12.069.069a2.058,2.058,0,0,0,2.214-1.22l1.092-1.358a11.838,11.838,0,0,0,1.6.27c5.6.186,11.208.331,16.81.537a2.055,2.055,0,0,0,2.1-1.021,1.027,1.027,0,0,0,.229.068c.635,1.436,1.261,2.871.517,4.466a8.543,8.543,0,0,1-1.455.248q-18.164.006-36.325-.03A8.967,8.967,0,0,1-2112.262,1797.579Z" transform="translate(-48.828 -133.126)" fill="#3078bf"/>
    <path id="Path_2870" data-name="Path 2870" d="M-1972.325,1788.937a1.926,1.926,0,0,1-1.981,1.011c-3.721-.117-7.443-.173-11.164-.276-2.087-.058-4.174-.136-6.258-.267a4.878,4.878,0,0,1-1.33-.5l2.331-5.919.719-.453,4.528,1.131,1.536.464,2.476.824-.009-.048.3.194.524.015c1.818.6,3.683,1.079,5.436,1.828A17.008,17.008,0,0,1-1972.325,1788.937Z" transform="translate(-92.895 -129.239)" fill="#4f93e0"/>
    <path id="Path_2871" data-name="Path 2871" d="M-2143.651,1611.523c.122.153.223.414.368.442a11.837,11.837,0,0,1,7.31,4.968,14.2,14.2,0,0,1,2.316,5.837,30.7,30.7,0,0,1-.086,6.383c-.057,1.419-.211,2.833-.275,4.252-.12,2.663-.207,5.327-.307,7.991-.072.443-.179.885-.21,1.332q-.221,3.2-.4,6.4-.454,7.845-.9,15.691l-.037.555c-.051.33-.129.658-.149.99q-1.314,21.2-2.62,42.406l-7.267.053-.267-.1c-.248-4.557-.506-9.114-.74-13.672-.111-2.136-.12-4.277-.278-6.408-.278-3.751-.576-7.5-.975-11.244-.452-4.237-1.033-8.46-1.541-12.691s-1.031-8.46-1.477-12.7c-.189-1.789-.212-3.6-.285-5.4-.1-2.388-.238-4.778-.237-7.167,0-2.432.1-4.866.255-7.292.076-1.188-.341-1.47-1.486-1.468-20.035.033-40.071.008-60.105.039a9.5,9.5,0,0,1-7.731-3.484c-1.72-2.044-2.179-6.217-1.105-8.707a8.919,8.919,0,0,1,5.827-5.087,35.6,35.6,0,0,0,4.276-1.718h-2.653c1.032-.071,2.064-.211,3.1-.2,5.331.041,10.661.129,15.992.166.323,0,.648-.283.973-.435a6.126,6.126,0,0,0,1.207.245q11.746.014,23.491,0Z" transform="translate(-8.23 -66.026)" fill="#639164"/>
    <path id="Path_2872" data-name="Path 2872" d="M-2217.637,1585.662q-5.285-.645-10.57-1.288c-.748-.091-1.7.086-2.209-.308-1.871-1.444-3.733-3.026-4.365-5.428-.653-2.489-1.087-5.036-1.571-7.566-.657-3.439-1.3-6.881-1.892-10.33-.276-1.6-.416-3.218-.652-4.823-.147-1-.36-1.986-.57-3.124h4.594c.184,1.283.354,2.569.552,3.851.931,5.991,1.722,12.009,2.864,17.961.645,3.364,2.313,6.355,5.979,7.3a58.866,58.866,0,0,0,6.821.973c2.049.33,4.095.683,6.148.985q5.079.746,10.165,1.435c3.391.464,6.782.936,10.18,1.343,3.771.452,7.544.907,11.328,1.223,3.334.279,6.683.37,10.026.543.18.936-.452,1.009-1.107,1.013-1.246.008-2.491-.008-3.736-.014l-.574-.107-.97-.051-21.244-1.388c-1.392-.225-2.777-.512-4.177-.661-2.321-.247-4.651-.4-6.977-.6-.126-.011-.249-.042-.374-.056Z" transform="translate(-1.953 -44.449)" fill="#e67a67"/>
    <path id="Path_2873" data-name="Path 2873" d="M-2175.754,1608.374l21.244,1.388.97.051.574.107-.3.515q-11.745.008-23.491,0a6.108,6.108,0,0,1-1.207-.245q-.018-.755-.037-1.511Z" transform="translate(-24.638 -64.961)" fill="#15171a"/>
    <path id="Path_2874" data-name="Path 2874" d="M-2081.118,1567.162c-2.716,1.343-3.01,2.14-1.567,3.644a4.167,4.167,0,0,1-3.406,1.495c-1.922.048-2.811-1.245-2.131-3.068a5.086,5.086,0,0,1,5.507-3.208C-2082.193,1566.122-2081.76,1566.688-2081.118,1567.162Z" transform="translate(-57.688 -49.303)" fill="#fead25"/>
    <path id="Path_2875" data-name="Path 2875" d="M-2134.191,1607.666l-4.972-.946.051-.435c.731.037,1.463.052,2.191.116a12.681,12.681,0,0,1,2.091.288c.278.073.473.463.7.709Z" transform="translate(-38.972 -64.19)" fill="#ce7e80"/>
    <path id="Path_2876" data-name="Path 2876" d="M-2134.958,1594.283l-.305-.216Z" transform="translate(-40.411 -59.681)" fill="#15171a"/>
    <path id="Path_2877" data-name="Path 2877" d="M-2166.083,1581.245c-1.536-1-3.1-1.962-4.646-2.941l-.3-.216.017.038-1.947-1.245c-.162-1.028-.849-1.494-2.036-1.2-1.206.3-2.377.744-3.563,1.125l-.262.182-.059-.094.319-.09a4.374,4.374,0,0,1,3.661-2.516c.781-.077,1.576-.016,2.365-.018q1.051-5.652,2.1-11.3a2.08,2.08,0,0,1-.289-.529c-.6-2.847-1.151-5.7-1.788-8.542-.239-1.063-.668-2.084-1.01-3.125l-5.543.5-.265.276c-.521,1.361-1.1,2.7-1.552,4.089-.956,2.923-1.846,5.867-2.764,8.8q.266,1.4.533,2.8c.837,2.65,1.725,5.284,2.5,7.953.755,2.612.367,3.04-2.519,3.115-2.079.781-4.053.1-6.038-.428-2.164-.4-4.332-.777-6.49-1.208s-4.307-.915-6.459-1.378c-2.066-.445-4.126-.922-6.2-1.333-2.2-.435-4.408-.807-6.612-1.207-.044,1.109-.073,2.219-.113,3.329.04-1.11.069-2.22.113-3.329l-2.052-.612a10.231,10.231,0,0,0-1.323-.322c-1.49-.165-2.521-.394-2.579-2.45a95.7,95.7,0,0,0-1.159-9.687c-.333-2.519-.691-5.034-1.051-7.631h-9.089c.184,1.283.354,2.569.553,3.851.931,5.991,1.722,12.009,2.864,17.961.645,3.363,2.312,6.355,5.979,7.3a58.878,58.878,0,0,0,6.821.973c2.049.33,4.095.683,6.148.985q5.078.746,10.165,1.435c3.391.464,6.782.936,10.18,1.343,3.771.452,7.545.907,11.328,1.223,3.334.279,6.683.37,10.026.543l-.4-.483-4.972-.946c.017-.145.034-.29.051-.435.731.037,1.463.052,2.191.116a12.62,12.62,0,0,1,2.092.289c.278.072.473.462.7.708,1.9.31,2.166.089,1.938-1.654,1.249-.4,1.159-1.174.505-2.035C-2165.088,1582.314-2165.1,1581.889-2166.083,1581.245Zm-6.269,1.645,5.732,1.755C-2167.693,1585.166-2171.709,1584.008-2172.352,1582.891Z" transform="translate(-4.64 -43.702)" fill="#ffa082"/>
    <path id="Path_2878" data-name="Path 2878" d="M-2156.42,1564.9a17.794,17.794,0,0,1-.842-1.963c-.428-1.43-.777-2.885-1.159-4.328l4.561-6.6,1.755,0c-.521,1.361-1.1,2.7-1.552,4.089C-2154.613,1559.016-2155.5,1561.96-2156.42,1564.9Z" transform="translate(-31.864 -44.157)" fill="#e67a67"/>
    <path id="Path_2879" data-name="Path 2879" d="M-2196.987,1520.872l10.6-.016-2.683,5.944c-1.644-2.513-4.34-3.539-6.741-4.978A10.419,10.419,0,0,1-2196.987,1520.872Z" transform="translate(-17.631 -32.661)" fill="#e67a67"/>
    <path id="Path_2880" data-name="Path 2880" d="M-2151.009,1540.217l-1.755,0a13.584,13.584,0,0,0,1.806-6.663c-.062-2.568-1.107-4.779-2.029-7.056-.78-1.927-1.622-3.828-2.425-5.745a.688.688,0,0,1,.162-.69c.628,1.03,1.3,2.037,1.874,3.1.849,1.574,1.7,3.156,2.419,4.79a14.636,14.636,0,0,1,.315,11.119,3.844,3.844,0,0,0-.1.868Z" transform="translate(-32.96 -32.37)" fill="#f9d285"/>
    <path id="Path_2881" data-name="Path 2881" d="M-2185.4,1542.276c.3.722.6,1.446.97,2.357l-2.336.354.881-2.69Z" transform="translate(-21.404 -40.567)" fill="#f1f1f1"/>
    <path id="Path_2882" data-name="Path 2882" d="M-2169.675,1554.592c.322-1.006.585-1.826.848-2.646l.486-.063,1,2.375Z" transform="translate(-27.711 -44.112)" fill="#f1f1f1"/>
    <path id="Path_2883" data-name="Path 2883" d="M-2196.75,1560.227l.938,2.321-2.292.411.856-2.668Z" transform="translate(-17.218 -47.192)" fill="#f1f1f1"/>
    <path id="Path_2884" data-name="Path 2884" d="M-2163.365,1570.572l-2.3.447.891-2.668.492-.06Z" transform="translate(-29.19 -50.168)" fill="#f1f1f1"/>
    <path id="Path_2885" data-name="Path 2885" d="M-2202.639,1568.2l-.481,1.434H-2219c-.2-1.333-.393-2.637-.587-3.942q-5.285-.645-10.57-1.288c-.748-.091-1.7.086-2.209-.308-1.871-1.444-3.733-3.026-4.365-5.429-.653-2.488-1.087-5.035-1.572-7.565-.657-3.439-1.3-6.881-1.892-10.33-.276-1.6-.416-3.218-.652-4.823-.147-1-.36-1.986-.57-3.124h13.683c.359,2.6.718,5.112,1.051,7.63a95.847,95.847,0,0,1,1.159,9.687c.059,2.056,1.09,2.285,2.579,2.45a10.223,10.223,0,0,1,1.323.322c.1-.074.295-.207.292-.212-1.01-1.538-.489-3.256-.5-4.88a11.754,11.754,0,0,1,3.26-8.193c.55-.6,1.079-1.221,1.772-2.006-.967,0-1.675.038-2.378-.007a7.2,7.2,0,0,1-6.411-5.155c-1.234-4.434-2.249-8.928-3.367-13.394a3.191,3.191,0,0,0-.324-.644l-.172.079c.556,4.55,1.111,9.1,1.685,13.8-2.956,0-5.847.018-8.736-.033-.246,0-.641-.443-.7-.734-.25-1.226-.4-2.472-.582-3.711l-1.932.352a6.035,6.035,0,0,1,.026-1.612c.2-.6.472-1.326,1.383-.791-.552-3.414-.932-6.868-1.706-10.231a13.97,13.97,0,0,1,.882-9.974,10.613,10.613,0,0,1,1.981-2.112l.879-1.225c1.925-2.309,6.625-3.695,9.522-2.807-.029-.232-.058-.464-.086-.7a20.449,20.449,0,0,0-8.163.941c-1.2.683-2.438,1.3-3.584,2.059-2.456,1.629-3.826,4.145-5.218,6.629-.041.333-.064.668-.123,1a26.052,26.052,0,0,0-.833,4.846,34.3,34.3,0,0,0,.9,5.229q.685,3.993,1.319,8c.431,2.734.969,5.461,1.21,8.213.316,3.618.386,7.257.562,10.887q.005,4.228.012,8.456c-.054,1.3-.011,2.611-.187,3.894a37.36,37.36,0,0,1-.886,3.979c-.412,1.641-.863,3.272-1.3,4.907-.473,1.758-1.071,3.493-1.378,5.279a1.747,1.747,0,0,0,1.431,2.264c2.5.321,4.594-.944,6.769-1.8,4.407-1.724,8.761-3.588,13.645-3.328,1.031-.071,2.064-.211,3.1-.2,5.331.041,10.662.129,15.992.166.323,0,.648-.283.973-.435Q-2202.62,1568.953-2202.639,1568.2Zm-38.507,2.826.9-2.716.462-.012.907,2.325Z" transform="translate(0 -24.476)" fill="#f9d285"/>
    <path id="Path_2886" data-name="Path 2886" d="M-2226.278,1525.52l-2.318.456.95-2.8.469-.014Z" transform="translate(-5.965 -33.511)" fill="#f1f1f1"/>
    <path id="Path_2887" data-name="Path 2887" d="M-2207.673,1536.539l-2.216.367.786-2.642.524-.056Z" transform="translate(-12.869 -37.589)" fill="#f1f1f1"/>
    <path id="Path_2888" data-name="Path 2888" d="M-2163.419,1516.092l.849-2.661.533-.017.835,2.324Z" transform="translate(-30.019 -29.915)" fill="#f1f1f1"/>
    <path id="Path_2889" data-name="Path 2889" d="M-2178.745,1577.342l-2.237.36c.3-.956.564-1.786.826-2.615l.52-.053Z" transform="translate(-23.538 -52.656)" fill="#f1f1f1"/>
    <path id="Path_2890" data-name="Path 2890" d="M-2160.319,1535.332l-2.258.369c.3-.919.583-1.758.861-2.6l.5-.043Z" transform="translate(-30.33 -37.165)" fill="#f1f1f1"/>
    <path id="Path_2891" data-name="Path 2891" d="M-2236.537,1602.814l-.383-.411Z" transform="translate(-2.893 -62.757)" fill="#4554d1"/>
    <path id="Path_2892" data-name="Path 2892" d="M-2155.78,1519.112l-.067.08c-.017-.031-.049-.064-.046-.093s.04-.054.063-.081Z" transform="translate(-32.797 -31.983)" fill="#4554d1"/>
    <path id="Path_2893" data-name="Path 2893" d="M-2195.129,1463.011l3.272-1.532a10.779,10.779,0,0,1,1.334.317,3.839,3.839,0,0,1,2.387,4.561,3.954,3.954,0,0,1-4.143,2.928,3.76,3.76,0,0,1-3.387-3.857A12.682,12.682,0,0,1-2195.129,1463.011Zm6.731,3.708c-.729-.529-1.184-1.115-1.581-1.078-.412.039-.768.68-1.148,1.057.376.377.724,1.012,1.136,1.056S-2189.132,1467.228-2188.4,1466.719Z" transform="translate(-18.118 -10.747)" fill="#f29596"/>
    <path id="Path_2894" data-name="Path 2894" d="M-2188.648,1493.053a8.372,8.372,0,0,1-5.668-1c-1.793-.884-3.543-1.859-5.295-2.823a3,3,0,0,1-1.092-1.065,13.909,13.909,0,0,0,12.075,1.386Q-2188.638,1491.3-2188.648,1493.053Z" transform="translate(-16.259 -20.596)" fill="#e67a67"/>
    <path id="Path_2895" data-name="Path 2895" d="M-2141.174,1588l-.426,2.609c-.161-1.028-.848-1.494-2.036-1.2-1.206.3-2.376.745-3.563,1.126v0a4.373,4.373,0,0,1,3.661-2.516C-2142.757,1587.945-2141.962,1588.006-2141.174,1588Z" transform="translate(-36.005 -57.436)" fill="#e67a67"/>
    <path id="Path_2896" data-name="Path 2896" d="M-2137.353,1601.679l5.733,1.755C-2132.694,1603.954-2136.71,1602.8-2137.353,1601.679Z" transform="translate(-39.64 -62.49)" fill="#e67a67"/>
    <path id="Path_2897" data-name="Path 2897" d="M-2147.385,1592.035l-.262.182-.058-.094.319-.09Z" transform="translate(-35.819 -58.93)" fill="#ce7e80"/>
    <path id="Path_2898" data-name="Path 2898" d="M-2185.67,1607.087l-2.247.308c-.152.452-.3.905-.481,1.435h-15.882c-.2-1.333-.393-2.638-.588-3.943l7.669.881c.125.014.249.045.374.056,2.326.2,4.656.355,6.977.6C-2188.447,1606.576-2187.062,1606.862-2185.67,1607.087Z" transform="translate(-14.722 -63.675)" fill="#f9d285"/>
    <path id="Path_2899" data-name="Path 2899" d="M-2008.474,1765.816a.35.35,0,0,1,.242,0c.555,1.7,1.068,3.41,1.69,5.083a7.145,7.145,0,0,0,1.052,1.5l-.007,0,2.524,2.29,0-.019.273.246h0l2.823,1.892-2.331,5.919-1.032,1.27c-2.451-.157-4.947.421-7.353-.5a5.562,5.562,0,0,1-3.716-4.237c-.517-2.362-1.028-4.728-1.643-7.066-.563-2.141-1.262-4.247-1.9-6.369Z" transform="translate(-83.743 -123.06)" fill="#ffa082"/>
    <path id="Path_2900" data-name="Path 2900" d="M-2022.124,1765.794c.639,2.122,1.337,4.227,1.9,6.369.615,2.338,1.126,4.7,1.643,7.066a5.563,5.563,0,0,0,3.715,4.237c2.406.918,4.9.34,7.353.5a2.572,2.572,0,0,1-2.654,1.619c-3.718-.095-7.44-.049-11.161-.058a7.073,7.073,0,0,1-1.789-1.106,8.323,8.323,0,0,1-1.893-2.835c-1.249-4.2-2.3-8.451-3.447-12.677-.284-1.048-.646-2.076-.972-3.113.076-.029.154-.056.232-.082l.122.026.121-.033,1.026,0,.117.032.119-.027,5.307-.01Z" transform="translate(-79.471 -123.023)" fill="#e67a67"/>
    <path id="Path_2901" data-name="Path 2901" d="M-2106.4,1765.629l.267.1c.081,4.478.169,8.958.24,13.436a5.36,5.36,0,0,0,5.307,5.217c1.467.015,2.934.044,4.4.067a2.058,2.058,0,0,1-2.214,1.22c-4.022-.073-8.046-.054-12.069-.069-2.857-.89-4-2.931-3.992-5.812.007-4.242-.038-8.484-.075-12.726,0-.539-.1-1.077-.152-1.615l.621.028,4.369.138Z" transform="translate(-48.003 -122.93)" fill="#e67a67"/>
    <path id="Path_2902" data-name="Path 2902" d="M-2109.338,1765.626l-4.369-.138Z" transform="translate(-48.366 -122.947)" fill="#404249"/>
    <path id="Path_2903" data-name="Path 2903" d="M-2026.815,1765.709l-.119.027-.117-.032Z" transform="translate(-80.348 -123.027)" fill="#404249"/>
    <path id="Path_2904" data-name="Path 2904" d="M-2028.819,1765.708l-.121.033-.122-.026Z" transform="translate(-79.607 -123.028)" fill="#404249"/>
    <path id="Path_2905" data-name="Path 2905" d="M-2091.3,1775.883l2.023,1.028,1.723.565-2.539,5.745-1.092,1.358c-1.466-.023-2.933-.052-4.4-.067a5.36,5.36,0,0,1-5.307-5.217c-.071-4.478-.159-8.957-.24-13.436l7.267-.054a34.031,34.031,0,0,0-.34,5.324,12.852,12.852,0,0,0,1.359,3.487Z" transform="translate(-53.008 -123.064)" fill="#ffa082"/>
    <path id="Path_2906" data-name="Path 2906" d="M-2083.636,1789.617q1.27-2.872,2.54-5.746c.358-.881.969-.825,1.75-.581,4.43,1.38,8.882,2.692,13.3,4.094a15.229,15.229,0,0,1,2.42,1.263l.5.756a2.055,2.055,0,0,1-2.1,1.021c-5.6-.206-11.207-.351-16.81-.537A11.883,11.883,0,0,1-2083.636,1789.617Z" transform="translate(-59.465 -129.46)" fill="#4f93e0"/>
    <path id="Path_2907" data-name="Path 2907" d="M-1993.992,1780.11l-.273-.246Z" transform="translate(-92.449 -128.253)" fill="#f1f1f1"/>
    <path id="Path_2908" data-name="Path 2908" d="M-2139.8,1610.625l-.97-.051Z" transform="translate(-38.379 -65.773)" fill="#22242b"/>
    <path id="Path_2909" data-name="Path 2909" d="M-2208.449,1466.6a6.756,6.756,0,0,0-.618-2.414c-.391-.513-1.292-.637-2.031-.96a1.456,1.456,0,0,1,2.114-.151A2.559,2.559,0,0,1-2208.449,1466.6Z" transform="translate(-12.423 -11.197)" fill="#e67a67"/>
    <path id="Path_2910" data-name="Path 2910" d="M-2207.02,1472.857c-.486-.685-.984-1.089-.92-1.364.1-.416.583-.741.9-1.1.341.341.882.644.959,1.037C-2206.016,1471.733-2206.53,1472.154-2207.02,1472.857Z" transform="translate(-13.586 -14.035)" fill="#f1f1f1"/>
    <path id="Path_2911" data-name="Path 2911" d="M-2174.266,1471.289c-2.264.514-3.579.038-4.649-1.68a3.714,3.714,0,0,1,.316-4.433,3.969,3.969,0,0,1,4.682-.975C-2173.991,1465.406-2174.266,1470.7-2174.266,1471.289Z" transform="translate(-24.083 -11.619)" fill="#f29596"/>
    <path id="Path_2912" data-name="Path 2912" d="M-2195.056,1451.911c-.773,1.13-1.587,2.319-6.967-.028l-3.344,7.96h-.037c-1.729,0-3.481.282-4.746-1.488a2.331,2.331,0,0,0-2.794-.526,2.644,2.644,0,0,0-1.739,2.279,5.4,5.4,0,0,0,3.208,5.722c.445.2.9.378,1.3.551-.517,3.692-1.013,7.265-1.52,10.836-.455,3.2-1.427,4.083-4.664,4.241.028.231.057.464.086.7,1.908,4.332,4.348,8.28,8.3,11.061,1.2.844,2.551,1.472,3.834,2.2l10.6-.015a7.125,7.125,0,0,0,1.724-7.717c-.726-2.063-1.4-4.145-2.1-6.218q-.258-.9-.516-1.8a8.372,8.372,0,0,1-5.668-1c-1.793-.884-3.542-1.859-5.295-2.823a3,3,0,0,1-1.092-1.065,13.912,13.912,0,0,0,12.075,1.386,10.682,10.682,0,0,0,5.959-6.843l.007,0,.016-.066c.007-.027.012-.055.019-.082l.538-2.291.009-.335.432-7.547,0,0c.036-.737.072-1.474.112-2.3C-2191.248,1456.864-2194.051,1455.447-2195.056,1451.911Zm-17.982,7.324a1.456,1.456,0,0,1,2.114-.151,2.558,2.558,0,0,1,.535,3.525,6.744,6.744,0,0,0-.618-2.414C-2211.4,1459.683-2212.3,1459.558-2213.038,1459.235Zm2.914,6.792c-.486-.685-.984-1.089-.92-1.364.1-.416.583-.741.9-1.1.34.341.882.644.959,1.037C-2209.12,1464.9-2209.633,1465.324-2210.124,1466.027Z" transform="translate(-10.483 -7.206)" fill="#ffa082"/>
    <path id="Path_2913" data-name="Path 2913" d="M-2205.346,1455.914a4.388,4.388,0,0,0,4.439,2.9,8.529,8.529,0,0,0,3.859-1.791,9.374,9.374,0,0,0,1.4-1.1c1.409-1.432,1.753-3.58,1.884-5.585a4.717,4.717,0,0,0-.144-1.88,2.985,2.985,0,0,0-2.251-1.829,4.554,4.554,0,0,0-2.933.51c-2.094,1.084-3.38,3.235-4.557,5.279" transform="translate(-14.546 -5.24)" fill="#472303"/>
    <path id="Path_2914" data-name="Path 2914" d="M-2228.635,1480.978c.87,2.509-.163,5.286-1.583,7.53a25.332,25.332,0,0,0-2.057,3.422,10.282,10.282,0,0,0,.349,8.152,9.29,9.29,0,0,0,1.49,2.385,15.436,15.436,0,0,0,2.46,2.063c2.908,2.141,5.833,4.728,6.672,8.241.711,2.977-.083,6.516,1.928,8.823,1.343,1.541,3.532,1.984,5.565,2.2,2.337.247,4.9.253,6.781-1.161a6.9,6.9,0,0,0,2.324-6.3,16.306,16.306,0,0,0-2.609-6.472,40.38,40.38,0,0,1-3.444-6.121c-1.481-3.762-1.362-7.983-2.655-11.815-.988-2.927-2.793-5.611-3.165-8.678-.179-1.474-.016-2.982-.282-4.442a4.135,4.135,0,0,0-2.535-3.386" transform="translate(-4.353 -15.89)" fill="#472303"/>
    <rect id="Rectangle_364" data-name="Rectangle 364" width="2.602" height="2.602" rx="1.301" transform="translate(-2211.381 1452.728)" fill="#020202"/>
    <circle id="Ellipse_301" data-name="Ellipse 301" cx="0.345" cy="0.345" r="0.345" transform="translate(-2210.974 1453.085)" fill="#fff"/>
    <path id="Path_2915" data-name="Path 2915" d="M-2182.63,1479.744s-4.02,3.629-6.1-1.006" transform="translate(-20.678 -17.117)" fill="#fff"/>
    <rect id="Rectangle_365" data-name="Rectangle 365" width="2.602" height="2.602" rx="1.301" transform="translate(-2201.471 1453.775)" fill="#020202"/>
    <circle id="Ellipse_302" data-name="Ellipse 302" cx="0.345" cy="0.345" r="0.345" transform="translate(-2201.063 1454.132)" fill="#fff"/>
    <path id="Path_2916" data-name="Path 2916" d="M-2180.941,1469.868l.6,2.8-1.39.56Z" transform="translate(-23.261 -13.843)" fill="#e67a67"/>
    <path id="Path_2917" data-name="Path 2917" d="M-2201.529,1441.676a27.978,27.978,0,0,1,11.59-1.047,14.146,14.146,0,0,0-12.473-1.926,14.145,14.145,0,0,0-9.4,8.42A27.974,27.974,0,0,1-2201.529,1441.676Z" transform="translate(-12.159 -2.103)" fill="#4f93e0"/>
    <path id="Path_2918" data-name="Path 2918" d="M-2234.769,1543.148l-3.775.741,1.548-4.562.762-.024Z" transform="translate(-2.293 -39.469)" fill="#f1f1f1"/>
    <path id="Path_2919" data-name="Path 2919" d="M-2237.7,1609.015l.938,2.321-2.292.412.856-2.669Z" transform="translate(-2.107 -65.198)" fill="#f1f1f1"/>
  </g>
</svg>
