<svg width="19" height="19" viewBox="0 0 19 19" fill="none" xmlns="http://www.w3.org/2000/svg">
<path d="M14.8588 8.81958L11.862 6.66911C11.3184 6.27977 10.5674 6.67638 10.5674 7.35318V8.66675H0.822361C0.371763 8.66675 0.00341797 9.0379 0.00341797 9.50001C0.00341797 9.96213 0.371763 10.3369 0.822361 10.3369H10.5638V11.6505C10.5638 12.3309 11.3184 12.7203 11.8584 12.3346L14.8552 10.1841C15.3202 9.84933 15.3202 9.1507 14.8588 8.81958Z" fill="#686E7B"/>
<path d="M9.95929 1C6.87663 1 4.17304 2.70291 2.7247 5.25C2.57807 5.51199 2.6639 5.84311 2.92138 5.99593C3.17887 6.14512 3.5043 6.05779 3.6545 5.7958C4.91331 3.57984 7.26643 2.09161 9.95929 2.09161C13.9753 2.09161 17.2404 5.41374 17.2404 9.5C17.2404 13.5863 13.9753 16.9084 9.95929 16.9084C7.26643 16.9084 4.90974 15.4202 3.65092 13.2042C3.5043 12.9422 3.17529 12.8549 2.91781 13.0041C2.66032 13.1533 2.5745 13.488 2.72112 13.75C4.16947 16.2971 6.87663 18 9.95571 18C14.5761 18 18.3132 14.1976 18.3132 9.5C18.3132 4.80244 14.5761 1 9.95929 1Z" fill="#686E7B" stroke="#686E7B" stroke-width="0.5" stroke-miterlimit="10"/>
</svg>
