<svg width="19" height="19" viewBox="0 0 19 19" fill="none" xmlns="http://www.w3.org/2000/svg">
<g clip-path="url(#clip0)">
<path d="M4.96283 17.1388H2.40365C2.171 17.1388 2.0159 17.0612 1.93835 16.9061C1.86079 16.751 1.78324 16.5959 1.86079 16.4408C2.55875 12.951 5.73834 10.3143 9.30569 10.2367C9.46079 10.2367 9.53834 10.2367 9.69345 10.2367C10.5465 10.2367 11.3996 10.3918 12.2526 10.702C12.4853 10.7796 12.7179 10.7796 12.9506 10.702C13.1832 10.6245 13.3383 10.3918 13.4159 10.1592C13.4934 9.92653 13.4934 9.69388 13.4159 9.46122C13.3383 9.22857 13.1057 9.07347 12.873 8.99592C14.0363 7.98776 14.6567 6.59184 14.6567 5.11837C14.6567 2.24898 12.3302 0 9.53834 0C6.74651 0 4.34243 2.32653 4.34243 5.11837C4.34243 6.66939 4.96283 8.06531 6.1261 8.99592C5.11794 9.38367 4.18732 9.92653 3.33426 10.6245C1.62814 12.0204 0.464876 13.9592 -0.000430483 16.1306C-0.155533 16.8286 -0.000430495 17.6041 0.464876 18.1469C0.930182 18.6898 1.62814 19 2.3261 19H4.88528C5.42814 19 5.8159 18.6122 5.8159 18.0694C5.8159 17.5265 5.50569 17.1388 4.96283 17.1388ZM6.20365 5.11837C6.20365 3.33469 7.67712 1.86122 9.46079 1.86122C11.2445 1.86122 12.7179 3.33469 12.7179 5.11837C12.7179 6.90204 11.322 8.29796 9.53834 8.37551H9.38324H9.22814C7.59957 8.37551 6.20365 6.90204 6.20365 5.11837Z" fill="#686E7B"/>
<path d="M18.4567 12.6408C18.1465 11.8653 17.371 11.4 16.5179 11.4H14.269C13.3383 11.4 12.5628 11.9429 12.2526 12.7184C12.2526 12.7959 12.1751 12.8735 12.1751 12.951H7.52201C7.28936 12.951 7.05671 13.0286 6.82406 13.2612L5.58324 14.5796C5.27303 14.9673 5.27303 15.5102 5.58324 15.898L6.82406 17.2163C6.97916 17.3714 7.21181 17.5265 7.44446 17.5265H9.77099C10.3139 17.5265 10.7016 17.1388 10.7016 16.5959C10.7016 16.0531 10.3139 15.6653 9.77099 15.6653H7.83222L7.44446 15.2775L7.83222 14.8898H12.7179C13.1057 14.8898 13.4934 14.5796 13.6485 14.1918C13.7261 13.9592 13.8036 13.7265 13.8812 13.4939C13.9587 13.4163 14.0363 13.3388 14.1914 13.3388H16.4404C16.5955 13.3388 16.673 13.4163 16.7506 13.4939C16.9057 13.8816 17.1383 14.5796 17.1383 15.2775C17.1383 15.9755 16.9057 16.6735 16.7506 17.0612C16.673 17.1388 16.5955 17.2163 16.4404 17.2163H14.1139C13.9587 17.2163 13.8812 17.1388 13.8036 16.9837C13.7261 16.751 13.6485 16.5959 13.571 16.2857C13.4159 15.8204 12.9506 15.5102 12.4853 15.5877C12.02 15.7429 11.7098 16.2082 11.7873 16.6735C11.8649 17.0612 11.9424 17.3714 12.0975 17.6041C12.4077 18.3796 13.1832 18.9224 14.1139 18.9224H16.4404C17.2934 18.9224 18.069 18.3796 18.3792 17.6041C18.6118 16.9837 18.922 16.0531 18.922 15.0449C18.922 14.0367 18.6894 13.2612 18.4567 12.6408Z" fill="#686E7B"/>
<path d="M15.8974 16.1306C16.4114 16.1306 16.828 15.714 16.828 15.2C16.828 14.686 16.4114 14.2694 15.8974 14.2694C15.3834 14.2694 14.9668 14.686 14.9668 15.2C14.9668 15.714 15.3834 16.1306 15.8974 16.1306Z" fill="#686E7B"/>
</g>
<defs>
<clipPath id="clip0">
<rect width="19" height="19" fill="white"/>
</clipPath>
</defs>
</svg>
