<svg width="122" height="23" viewBox="0 0 122 23" fill="none" xmlns="http://www.w3.org/2000/svg">
<path d="M14.9255 2H2.65437C1.1884 2 0 3.18976 0 4.65741V16.9426C0 18.4102 1.1884 19.6 2.65437 19.6H14.9255C16.3915 19.6 17.5799 18.4102 17.5799 16.9426V4.65741C17.5799 3.18976 16.3915 2 14.9255 2Z" fill="url(#paint0_linear)"/>
<path d="M13.7756 13.9796L11.0119 11.2085L11.0066 11.2127C10.9873 11.1889 10.963 11.1695 10.9355 11.1559C10.9081 11.1423 10.878 11.1349 10.8473 11.134H10.8314C10.7731 11.134 10.7172 11.1572 10.676 11.1985C10.6348 11.2398 10.6116 11.2957 10.6116 11.3541V11.37C10.613 11.4235 10.634 11.4745 10.6705 11.5135L10.6652 11.5188L13.4513 14.3102C13.6591 14.5185 13.8006 14.7838 13.8578 15.0727C13.915 15.3615 13.8853 15.6609 13.7724 15.9328C13.6596 16.2047 13.4688 16.4371 13.224 16.6003C12.9792 16.7636 12.6916 16.8506 12.3975 16.8501C12.2017 16.8512 12.0078 16.8127 11.8272 16.7371C11.6466 16.6615 11.4831 16.5503 11.3463 16.4101L9.49889 14.5632C9.29919 14.3691 9.0549 14.2271 8.78753 14.1497C8.76629 14.1428 8.74293 14.1311 8.71426 14.1236C8.58742 14.0928 8.45725 14.0778 8.32673 14.079C8.04356 14.0775 7.76487 14.1497 7.51803 14.2887C7.2712 14.4276 7.06471 14.6284 6.91885 14.8714C6.90098 14.8985 6.88671 14.9278 6.87638 14.9586C6.86948 14.9729 6.8647 14.9873 6.85515 15.0038C6.7385 15.2299 6.67615 15.4801 6.67305 15.7345V15.9073C6.67278 16.3023 6.51621 16.6811 6.23763 16.9608C5.95905 17.2405 5.58114 17.3983 5.18661 17.3997C4.95356 17.3991 4.7241 17.3422 4.5177 17.2338C4.49125 17.2213 4.46601 17.2064 4.44232 17.1892L4.39508 17.1584C4.32658 17.1169 4.26238 17.0686 4.20343 17.0143L4.17476 16.9904C4.15155 16.972 4.1294 16.9523 4.1084 16.9314C4.08108 16.9046 4.05938 16.8726 4.04456 16.8373C4.02975 16.802 4.02212 16.7641 4.02212 16.7258C4.02212 16.6874 4.02975 16.6495 4.04456 16.6142C4.05938 16.5789 4.08108 16.5469 4.1084 16.5201L13.5436 7.07141C13.7258 6.89226 13.8702 6.67837 13.9684 6.4424C14.0666 6.20643 14.1166 5.95315 14.1154 5.69752C14.1164 5.43983 14.0666 5.18448 13.9687 4.94615C13.8708 4.70782 13.7268 4.49122 13.545 4.3088C13.3632 4.12639 13.1471 3.98177 12.9093 3.88325C12.6715 3.78474 12.4165 3.73427 12.1591 3.73476H12.1549C11.8995 3.73356 11.6465 3.78359 11.4108 3.88191C11.1751 3.98022 10.9615 4.12481 10.7825 4.30717L7.36638 7.72725L5.0868 10.0046C5.03885 10.0491 4.98656 10.0886 4.93072 10.1226C4.8673 10.1549 4.80166 10.1826 4.7343 10.2055C4.66522 10.225 4.59373 10.2347 4.52195 10.2342C4.30474 10.2337 4.09658 10.147 3.94298 9.99327C3.78938 9.8395 3.70285 9.6311 3.70229 9.41364V5.75704C3.70377 5.38757 3.84095 5.03156 4.0877 4.7568C4.13323 4.70373 4.18392 4.6553 4.239 4.61224C4.50413 4.38685 4.84091 4.26359 5.18873 4.26465C5.58326 4.26606 5.96118 4.42387 6.23976 4.70357C6.51834 4.98327 6.6749 5.36206 6.67518 5.75704V6.93002H6.68738C6.6927 6.98173 6.71676 7.02971 6.75501 7.06487C6.79326 7.10003 6.84304 7.11993 6.89496 7.12083H6.92044C6.97636 7.12033 7.02994 7.0983 7.07007 7.05931C7.1102 7.02032 7.13379 6.96736 7.13597 6.91142H7.14075V5.75704C7.14061 5.23817 6.93481 4.74055 6.56853 4.37345C6.20224 4.00635 5.70542 3.79978 5.18714 3.79907C4.72698 3.79569 4.28124 3.95962 3.93268 4.2604C3.87691 4.30263 3.82471 4.34938 3.77661 4.40018L3.74582 4.43313C3.4192 4.79699 3.23763 5.26838 3.23565 5.75758V9.41417C3.23404 9.68817 3.321 9.95534 3.48356 10.1758L3.52126 10.2231C3.64144 10.3726 3.79359 10.4931 3.96651 10.5759C4.13942 10.6587 4.32869 10.7016 4.52036 10.7014C4.58605 10.7027 4.6517 10.6972 4.71625 10.6849C4.80962 10.6737 4.90105 10.65 4.98806 10.6143C5.06972 10.5824 5.14812 10.5427 5.22218 10.4957C5.29803 10.4477 5.36774 10.3906 5.42975 10.3257L11.1101 4.63881C11.3892 4.35936 11.7678 4.20237 12.1626 4.20237C12.5573 4.20237 12.9359 4.35936 13.215 4.63881C13.4941 4.91825 13.651 5.29727 13.651 5.69247C13.651 6.08767 13.4941 6.46669 13.215 6.74614L3.77236 16.1969C3.68784 16.2854 3.62481 16.3921 3.58815 16.5089C3.58283 16.5347 3.57894 16.5608 3.57647 16.587L3.56691 16.6365C3.56114 16.6684 3.55795 16.7008 3.55736 16.7332V16.7922C3.57076 16.945 3.63018 17.0901 3.72777 17.2083C3.75611 17.2444 3.78853 17.277 3.82438 17.3056C4.00276 17.4846 4.21491 17.6264 4.44849 17.7227C4.68207 17.8189 4.93243 17.8678 5.18501 17.8663C5.70275 17.8641 6.19866 17.6573 6.56491 17.2909C6.93115 16.9246 7.1381 16.4282 7.14075 15.9099V15.7351C7.1507 15.4273 7.28016 15.1354 7.50162 14.9217C7.72308 14.7079 8.01909 14.589 8.32673 14.5903C8.61515 14.5822 8.89716 14.6763 9.12304 14.856L9.64754 15.379L9.69213 15.4258L9.76539 15.497L11.0124 16.7454C11.3814 17.0976 11.8733 17.2914 12.383 17.2853C12.8928 17.2792 13.38 17.0738 13.7404 16.7129C14.1009 16.352 14.3061 15.8643 14.3122 15.3539C14.3183 14.8436 14.1247 14.3511 13.773 13.9817L13.7756 13.9796Z" fill="white"/>
<path d="M31.4473 4.37158H33.2471V11.0142L39.8896 4.37158H42.4409L36.7725 9.86377L42.5986 18H40.1958L35.4272 11.1626L33.2471 13.25V18H31.4473V4.37158ZM48.0352 7.84131C48.7402 7.84131 49.4237 8.0083 50.0854 8.34229C50.7472 8.67008 51.2513 9.09684 51.5977 9.62256C51.9316 10.1235 52.1543 10.708 52.2656 11.376C52.3646 11.8337 52.4141 12.5635 52.4141 13.5654H45.1313C45.1623 14.5736 45.4004 15.3838 45.8457 15.9961C46.291 16.6022 46.9806 16.9053 47.9146 16.9053C48.7866 16.9053 49.4824 16.6177 50.002 16.0425C50.2988 15.7085 50.5091 15.3219 50.6328 14.8828H52.2749C52.2316 15.2477 52.0863 15.6559 51.8389 16.1074C51.5977 16.5527 51.3255 16.9176 51.0225 17.2021C50.5153 17.6969 49.8875 18.0309 49.1392 18.2041C48.7371 18.3031 48.2826 18.3525 47.7754 18.3525C46.5384 18.3525 45.4901 17.9041 44.6304 17.0073C43.7707 16.1043 43.3408 14.8426 43.3408 13.2222C43.3408 11.6265 43.7738 10.3307 44.6396 9.33496C45.5055 8.33919 46.6374 7.84131 48.0352 7.84131ZM50.6978 12.2388C50.6297 11.5151 50.472 10.9368 50.2246 10.5039C49.7669 9.69987 49.0031 9.29785 47.9331 9.29785C47.1662 9.29785 46.5229 9.57617 46.0034 10.1328C45.4839 10.6833 45.2087 11.3853 45.1777 12.2388H50.6978ZM54.52 8.06396H56.1064V9.78027C56.2363 9.44629 56.5549 9.04118 57.062 8.56494C57.5692 8.08252 58.1536 7.84131 58.8154 7.84131C58.8464 7.84131 58.8989 7.8444 58.9731 7.85059C59.0474 7.85677 59.1742 7.86914 59.3535 7.8877V9.65039C59.2546 9.63184 59.1618 9.61947 59.0752 9.61328C58.9948 9.6071 58.9051 9.604 58.8062 9.604C57.965 9.604 57.3187 9.87614 56.8672 10.4204C56.4157 10.9585 56.1899 11.5801 56.1899 12.2852V18H54.52V8.06396ZM62.4707 6.30127H60.8008V4.37158H62.4707V6.30127ZM59.2236 20.5142C59.972 20.4894 60.4204 20.4214 60.5688 20.3101C60.7235 20.2049 60.8008 19.8678 60.8008 19.2988V8.11035H62.4707V19.4751C62.4707 20.1987 62.3532 20.7399 62.1182 21.0986C61.7285 21.7048 60.9894 22.0078 59.9009 22.0078C59.8205 22.0078 59.7339 22.0047 59.6411 21.9985C59.5545 21.9924 59.4154 21.98 59.2236 21.9614V20.5142ZM66.3115 15.356C66.3115 15.8384 66.4878 16.2188 66.8403 16.4971C67.1929 16.7754 67.6104 16.9146 68.0928 16.9146C68.6803 16.9146 69.2493 16.7785 69.7998 16.5063C70.7275 16.0549 71.1914 15.3158 71.1914 14.2891V12.9438C70.9873 13.0737 70.7244 13.182 70.4028 13.2686C70.0812 13.3551 69.7658 13.417 69.4565 13.4541L68.4453 13.584C67.8392 13.6644 67.3846 13.7912 67.0815 13.9644C66.5682 14.255 66.3115 14.7189 66.3115 15.356ZM70.3564 11.979C70.7399 11.9295 70.9966 11.7687 71.1265 11.4966C71.2007 11.3481 71.2378 11.1348 71.2378 10.8564C71.2378 10.2874 71.0337 9.87614 70.6255 9.62256C70.2235 9.36279 69.6452 9.23291 68.8906 9.23291C68.0186 9.23291 67.4001 9.46794 67.0352 9.93799C66.8311 10.1978 66.6981 10.5843 66.6362 11.0977H65.0776C65.1086 9.87305 65.5044 9.02262 66.2651 8.54639C67.0321 8.06396 67.9196 7.82275 68.9277 7.82275C70.0967 7.82275 71.0461 8.04541 71.7759 8.49072C72.4995 8.93604 72.8613 9.62874 72.8613 10.5688V16.293C72.8613 16.4661 72.8953 16.6053 72.9634 16.7104C73.0376 16.8156 73.1891 16.8682 73.418 16.8682C73.4922 16.8682 73.5757 16.8651 73.6685 16.8589C73.7612 16.8465 73.8602 16.8311 73.9653 16.8125V18.0464C73.7056 18.1206 73.5076 18.167 73.3716 18.1855C73.2355 18.2041 73.05 18.2134 72.8149 18.2134C72.2397 18.2134 71.8223 18.0093 71.5625 17.6011C71.4264 17.3846 71.3306 17.0785 71.2749 16.6826C70.9347 17.1279 70.4461 17.5145 69.8091 17.8423C69.172 18.1701 68.4701 18.334 67.7031 18.334C66.7816 18.334 66.027 18.0557 65.4395 17.499C64.8581 16.9362 64.5674 16.2342 64.5674 15.3931C64.5674 14.4715 64.855 13.7572 65.4302 13.25C66.0054 12.7428 66.7599 12.4305 67.6938 12.313L70.3564 11.979ZM82.8252 12.415L80.7563 6.39404L78.5576 12.415H82.8252ZM79.7915 4.37158H81.8789L86.8237 18H84.8013L83.4189 13.918H78.0288L76.5537 18H74.6611L79.7915 4.37158ZM92.4736 16.8774C93.2529 16.8774 93.8993 16.5527 94.4126 15.9033C94.9321 15.2477 95.1919 14.2705 95.1919 12.9717C95.1919 12.18 95.0775 11.4997 94.8486 10.9307C94.4157 9.83594 93.624 9.28857 92.4736 9.28857C91.3171 9.28857 90.5254 9.86686 90.0986 11.0234C89.8698 11.6419 89.7554 12.4274 89.7554 13.3799C89.7554 14.1468 89.8698 14.7993 90.0986 15.3374C90.5316 16.3641 91.3232 16.8774 92.4736 16.8774ZM88.1504 8.11035H89.7739V9.42773C90.1079 8.97624 90.4728 8.62679 90.8687 8.37939C91.4315 8.0083 92.0933 7.82275 92.854 7.82275C93.9797 7.82275 94.9352 8.2557 95.7207 9.12158C96.5062 9.98128 96.8989 11.2121 96.8989 12.814C96.8989 14.9787 96.333 16.5249 95.2012 17.4526C94.4837 18.0402 93.6488 18.334 92.6963 18.334C91.9479 18.334 91.3201 18.1701 90.813 17.8423C90.5161 17.6567 90.1852 17.3382 89.8203 16.8867V21.9614H88.1504V8.11035ZM103.05 16.8774C103.829 16.8774 104.475 16.5527 104.989 15.9033C105.508 15.2477 105.768 14.2705 105.768 12.9717C105.768 12.18 105.654 11.4997 105.425 10.9307C104.992 9.83594 104.2 9.28857 103.05 9.28857C101.893 9.28857 101.102 9.86686 100.675 11.0234C100.446 11.6419 100.332 12.4274 100.332 13.3799C100.332 14.1468 100.446 14.7993 100.675 15.3374C101.108 16.3641 101.899 16.8774 103.05 16.8774ZM98.7266 8.11035H100.35V9.42773C100.684 8.97624 101.049 8.62679 101.445 8.37939C102.008 8.0083 102.669 7.82275 103.43 7.82275C104.556 7.82275 105.511 8.2557 106.297 9.12158C107.082 9.98128 107.475 11.2121 107.475 12.814C107.475 14.9787 106.909 16.5249 105.777 17.4526C105.06 18.0402 104.225 18.334 103.272 18.334C102.524 18.334 101.896 18.1701 101.389 17.8423C101.092 17.6567 100.761 17.3382 100.396 16.8867V21.9614H98.7266V8.11035Z" fill="#3FB6F5"/>
<defs>
<linearGradient id="paint0_linear" x1="15.4" y1="20.3392" x2="5.31115" y2="5.81241" gradientUnits="userSpaceOnUse">
<stop stop-color="#3FB6F5"/>
<stop offset="1" stop-color="#3FD8F5"/>
</linearGradient>
</defs>
</svg>
