<?xml version="1.0" encoding="utf-8"?>
<!-- Generator: Adobe Illustrator 23.1.0, SVG Export Plug-In . SVG Version: 6.00 Build 0)  -->
<svg version="1.1" id="Layer_1" xmlns="http://www.w3.org/2000/svg" xmlns:xlink="http://www.w3.org/1999/xlink" x="0px" y="0px"
	 viewBox="0 0 1536 894" style="enable-background:new 0 0 1536 894;" xml:space="preserve">
<style type="text/css">
	.st0{fill:none;}
	.st1{clip-path:url(#SVGID_2_);}
	.st2{fill:#FFFFFF;}
	.st3{fill:#F0FCFF;}
	.st4{opacity:0.68;fill:url(#Path_3105_1_);enable-background:new    ;}
	.st5{opacity:0.68;fill:url(#Path_3106_1_);enable-background:new    ;}
	.st6{opacity:0.68;fill:url(#Path_3107_1_);enable-background:new    ;}
	.st7{opacity:0.68;fill:url(#Path_3108_1_);enable-background:new    ;}
	.st8{opacity:0.68;fill:url(#Path_3109_1_);enable-background:new    ;}
	.st9{opacity:0.68;fill:url(#Path_3110_1_);enable-background:new    ;}
	.st10{opacity:0.68;fill:url(#Path_3111_1_);enable-background:new    ;}
	.st11{opacity:0.68;fill:url(#Path_3112_1_);enable-background:new    ;}
	.st12{fill:#90939A;}
	.st13{opacity:0.68;fill:url(#Path_3117_1_);enable-background:new    ;}
	.st14{opacity:0.68;fill:url(#Path_3118_1_);enable-background:new    ;}
	.st15{opacity:0.68;fill:url(#Path_3119_1_);enable-background:new    ;}
	.st16{opacity:0.68;fill:url(#Path_3120_1_);enable-background:new    ;}
	.st17{fill:#898D9C;}
	.st18{fill:#90949C;}
	.st19{fill:#93979D;}
	.st20{opacity:0.68;fill:url(#Path_3134_1_);enable-background:new    ;}
	.st21{opacity:0.68;fill:url(#Path_3135_1_);enable-background:new    ;}
	.st22{opacity:0.68;fill:url(#Path_3136_1_);enable-background:new    ;}
	.st23{fill:#888C93;}
	.st24{fill:#F1F2F2;}
	.st25{fill:#F3F3F3;}
	.st26{fill:#CCF1FF;}
	.st27{fill:url(#Path_3143_1_);}
	.st28{fill:url(#Path_3144_1_);}
	.st29{fill:url(#Path_3145_1_);}
	.st30{opacity:0.46;fill:url(#Path_3146_1_);enable-background:new    ;}
	.st31{fill:url(#Path_3147_1_);}
	.st32{opacity:0.26;fill:url(#Path_3148_1_);enable-background:new    ;}
	.st33{opacity:0.58;fill:url(#Path_3149_1_);enable-background:new    ;}
	.st34{fill:#639164;}
	.st35{fill:#D9441F;}
	.st36{fill:#FFA082;}
	.st37{fill:#E67A67;}
	.st38{fill:#4F93E0;}
	.st39{fill:#26254A;}
	.st40{fill:#C0BDD9;}
	.st41{fill:#487548;}
	.st42{fill:#D0D2D4;}
	.st43{fill:#F6F6FA;}
	.st44{fill:#CE858D;}
	.st45{fill:#DEE0E2;}
	.st46{fill:#3078BF;}
	.st47{fill:#404FCA;}
	.st48{fill:#3F4249;}
	.st49{fill:#F2F2F3;}
	.st50{fill:#1E1D1D;}
	.st51{fill:#993319;}
	.st52{fill:#D44A7A;}
	.st53{fill:#FEAD25;}
	.st54{fill:#441500;}
	.st55{fill:#ED8014;}
	.st56{fill:#FAE3AF;}
	.st57{fill:#F9D285;}
	.st58{fill:#B8426D;}
	.st59{fill:#C4C6C8;}
	.st60{fill:#FCFCFC;}
	.st61{fill:#D18486;}
	.st62{fill:#5063F9;}
	.st63{fill:#FA9C9C;}
	.st64{fill:url(#Ellipse_327_1_);}
	.st65{fill:url(#Ellipse_328_1_);}
	.st66{opacity:0.69;}
	.st67{fill:url(#Path_3258_1_);}
	.st68{opacity:0.26;}
	.st69{fill:url(#Path_3259_1_);}
	.st70{opacity:0.25;}
	.st71{fill:url(#Path_3260_1_);}
	.st72{opacity:0.33;}
	.st73{fill:url(#Path_3261_1_);}
	.st74{opacity:0.45;fill:url(#Path_3262_1_);enable-background:new    ;}
	.st75{opacity:0.45;fill:url(#Path_3263_1_);enable-background:new    ;}
	.st76{opacity:0.45;fill:url(#Path_3264_1_);enable-background:new    ;}
	.st77{opacity:0.63;fill:url(#Path_3265_1_);enable-background:new    ;}
	.st78{opacity:0.45;fill:url(#Path_3266_1_);enable-background:new    ;}
	.st79{fill:#B4B8BD;}
	.st80{fill:#D38587;}
	.st81{fill:#D7DADC;}
	.st82{fill:#82508F;}
	.st83{fill:#210549;}
	.st84{fill:#181532;}
	.st85{fill:#704685;}
	.st86{fill:#D9DCDE;}
	.st87{fill:#21252B;}
	.st88{fill:#D3D4D7;}
	.st89{fill:#FDFDFE;}
	.st90{fill:url(#Ellipse_333_1_);}
	.st91{fill:url(#Path_3304_1_);}
	.st92{fill:url(#Path_3305_1_);}
	.st93{fill:url(#Path_3306_1_);}
	.st94{fill:url(#Rectangle_293_2_);}
	.st95{fill:#3FB6F5;}
	.st96{font-family:'SegoeUI';}
	.st97{font-size:18px;}
	.st98{fill:#2C9BE6;}
	.st99{font-family:'ArialMT';}
	.st100{font-size:32px;}
	.st101{font-size:14px;}
	.st102{fill:none;stroke:#7A7777;stroke-width:0.5;}
	.st103{fill:#9D9D9D;}
	.st104{font-size:17px;}
	.st105{filter:url(#Rectangle_299);}
	.st106{fill:none;stroke:#3FB6F5;stroke-width:0.5;}
	.st107{fill:#7A7777;}
	.st108{fill:none;stroke:#CFCFCF;}
	.st109{font-size:24px;}
	.st110{fill:none;stroke:#707070;stroke-width:0.5;}
	.st111{fill:url(#SVGID_3_);}
	.st112{fill:none;stroke:#9D9D9D;stroke-width:0.5;}
	.st113{fill:#FFFFFF;fill-opacity:0;}
	.st114{opacity:0.44;fill:#FFFFFF;enable-background:new    ;}
	.st115{opacity:0.53;fill:#FFFFFF;enable-background:new    ;}
	.st116{fill:url(#Rectangle_293_3_);}
</style>
<filter  filterUnits="userSpaceOnUse" height="95" id="Rectangle_299" width="292" x="1004.5" y="524.5">
	<feOffset  dy="5" input="SourceAlpha"></feOffset>
	<feGaussianBlur  result="blur" stdDeviation="6.5"></feGaussianBlur>
	<feFlood  flood-color="#414141" flood-opacity="0.271"></feFlood>
	<feComposite  in2="blur" operator="in"></feComposite>
	<feComposite  in="SourceGraphic" operator="over"></feComposite>
</filter>
<pattern  y="894" width="806" height="218" patternUnits="userSpaceOnUse" id="pattern" viewBox="0 -218 806 218" style="overflow:visible;">
	<g>
		<rect y="-218" class="st0" width="806" height="218"/>
		
			<image style="overflow:visible;enable-background:new    ;" width="806" height="218" xlink:href="AF2C503F.jpg"  transform="matrix(1 0 0 -1 0 0)">
		</image>
	</g>
</pattern>
<g>
	<defs>
		<rect id="SVGID_1_" width="1536" height="894"/>
	</defs>
	<clipPath id="SVGID_2_">
		<use xlink:href="#SVGID_1_"  style="overflow:visible;"/>
	</clipPath>
	<g id="Log_In" class="st1">
		<rect class="st2" width="1536" height="894"/>
		<g id="Group_168">
			<rect id="Rectangle_381" class="st3" width="768" height="892"/>
			<g id="Group_157" transform="translate(552.841 567.726)">
				
					<linearGradient id="Path_3105_1_" gradientUnits="userSpaceOnUse" x1="-104.8242" y1="275.0424" x2="-103.4072" y2="275.6703" gradientTransform="matrix(34.0493 0 0 -76.893 3668.99 21265.4668)">
					<stop  offset="0" style="stop-color:#2B9EFC"/>
					<stop  offset="1" style="stop-color:#3FD8F5"/>
				</linearGradient>
				<path id="Path_3105" class="st4" d="M118,124.7c-1.3-6.3-3.1-12.5-3.7-18.8c-1.7-17.3,1.9-33.1,13.5-46.6
					c4-4.5,8.6-8.4,13.7-11.5c0.4,0.7,0.8,1.3,1,2c10.7,25.7,5.9,51.6-17.4,70.1c-2.1,1.7-4.3,3.2-6.4,4.8L118,124.7z"/>
				
					<linearGradient id="Path_3106_1_" gradientUnits="userSpaceOnUse" x1="-98.7222" y1="275.4649" x2="-97.7842" y2="276.5419" gradientTransform="matrix(57.002 0 0 -49.649 5748.1641 13838.9053)">
					<stop  offset="0" style="stop-color:#2B9EFC"/>
					<stop  offset="1" style="stop-color:#3FD8F5"/>
				</linearGradient>
				<path id="Path_3106" class="st5" d="M138.8,127.4c8.1-4.2,16.7-6,26.2-6.5c-0.8,3.7-1.2,7.1-2.2,10.4c-5.3,18.2-17.1,30-35,35.7
					c-0.6,0.2-1.2,0.4-1.7,0.6l-4,1.1l-1.1,0.2l-12.9,1.6l1.9-8.2c4.9-14.2,13.1-25.7,26.3-33.5c0.4-0.3,0.9-0.7,1.3-1l0.1,0
					L138.8,127.4z"/>
				
					<linearGradient id="Path_3107_1_" gradientUnits="userSpaceOnUse" x1="-102.2846" y1="275.7078" x2="-101.7896" y2="276.1178" gradientTransform="matrix(39.2532 0 0 -47.4969 4093.0571 13235.8184)">
					<stop  offset="0" style="stop-color:#2B9EFC"/>
					<stop  offset="1" style="stop-color:#3FD8F5"/>
				</linearGradient>
				<path id="Path_3107" class="st6" d="M102.2,138.7c1.7,5.6,2.5,11.5,2.2,17.4c0,0.5-0.5,1-0.8,1.5l-1.1-0.1l-6.3-1.1l-1-0.2
					c-6.9-2.1-13.2-5.1-18.6-10.1c-1.1-1.3-2.2-2.6-3.4-3.9c-0.3-0.3-0.5-0.5-0.8-0.7l0,0l-0.4-0.8c-3.2-4.8-5-10.2-6.4-15.8
					l-0.2-3.2c-0.1-3.5-0.2-7-0.3-10.6c0-1,0.3-1.4,1.3-1.1l1.3,0.2c11.2,2.3,20.9,7.1,28.1,16.3c0.4,0.5,0.8,1.1,1.2,1.7l1.2,1.7
					l2.4,4.3l1.3,3.1l0,0L102.2,138.7z"/>
				
					<linearGradient id="Path_3108_1_" gradientUnits="userSpaceOnUse" x1="-99.0481" y1="276.1116" x2="-98.6721" y2="276.6496" gradientTransform="matrix(53.195 0 0 -37.1479 5300.1167 10382.707)">
					<stop  offset="0" style="stop-color:#2B9EFC"/>
					<stop  offset="1" style="stop-color:#3FD8F5"/>
				</linearGradient>
				<path id="Path_3108" class="st7" d="M58.5,143c-5.3-0.5-10.7-0.6-15.9-1.7c-17.5-3.6-29.9-13.5-35.8-30.8
					c-0.4-1.3-0.7-2.6-1-3.9c20.7-3.4,39,3.8,49.1,24.6c1.7,3.5,2.8,7.3,4.1,11C58.8,142.5,58.7,142.8,58.5,143z"/>
				
					<linearGradient id="Path_3109_1_" gradientUnits="userSpaceOnUse" x1="-98.9941" y1="276.2123" x2="-98.6271" y2="276.7773" gradientTransform="matrix(53.464 0 0 -34.6452 5318.7227 9654.1143)">
					<stop  offset="0" style="stop-color:#2B9EFC"/>
					<stop  offset="1" style="stop-color:#3FD8F5"/>
				</linearGradient>
				<path id="Path_3109" class="st8" d="M53.1,100.8c-9.3-0.7-18.4-2.2-27-6c-11-4.9-19.6-12.3-24.7-23.5c-0.5-1.2-0.9-2.5-1.4-3.9
					c5.3-1.1,10.8-1.5,16.2-1c18,1.6,29,11.9,35.3,28.1c0.8,2,1.3,4.1,2,6.2L53.1,100.8z"/>
				
					<linearGradient id="Path_3110_1_" gradientUnits="userSpaceOnUse" x1="-109.9118" y1="275.2151" x2="-108.6678" y2="275.7221" gradientTransform="matrix(24.8338 0 0 -61.066 2771.3389 16896.5117)">
					<stop  offset="0" style="stop-color:#2B9EFC"/>
					<stop  offset="1" style="stop-color:#3FD8F5"/>
				</linearGradient>
				<path id="Path_3110" class="st9" d="M61.8,95.1l-7-14.7l-0.6-3.6C51.9,65.2,54.8,54.8,61,45c2-3.2,4.6-6.1,7-9.4
					c4.8,6,8.1,12.2,9.4,19.3c2.5,12.7-1.2,24-8.1,34.4c-1.7,2.6-3.8,4.9-5.7,7.3L61.8,95.1z"/>
				
					<linearGradient id="Path_3111_1_" gradientUnits="userSpaceOnUse" x1="-104.024" y1="275.643" x2="-102.918" y2="276.53" gradientTransform="matrix(34.7666 0 0 -43.391 3697.5249 12167.4941)">
					<stop  offset="0" style="stop-color:#2B9EFC"/>
					<stop  offset="1" style="stop-color:#3FD8F5"/>
				</linearGradient>
				<path id="Path_3111" class="st10" d="M85.2,213.8l-6.9,1.7l-1-0.1c0.3-4.4,0.7-8.8,1-13.2c0.4-1.8,0.9-3.6,1.3-5.4l4-9l0.8-1.3
					c2.6-3.6,5.7-6.7,9.3-9.2l1-0.5l8.3-3.4l1-0.3l2.7-0.5l1.1-0.1l3.9-0.3c0.1,1.5,0.3,2.9,0.3,4.3c0.1,9.8-2.6,18.8-9,26.4
					l-1.2,1.2l-10.2,7.2l-0.8,0.4l-4.7,1.9L85.2,213.8z"/>
				
					<linearGradient id="Path_3112_1_" gradientUnits="userSpaceOnUse" x1="-113.7759" y1="275.144" x2="-112.1529" y2="275.7061" gradientTransform="matrix(20.905 0 0 -60.377 2459.0457 16671.2246)">
					<stop  offset="0" style="stop-color:#2B9EFC"/>
					<stop  offset="1" style="stop-color:#3FD8F5"/>
				</linearGradient>
				<path id="Path_3112" class="st11" d="M103.5,60.4c-2.9-6.2-4.7-12.9-5.3-19.7c-1.2-15.9,4.5-29.1,15.6-40.2
					c0.2-0.2,0.5-0.3,0.8-0.5c0.8,2.3,1.6,4.5,2.2,6.7c4.9,18.8,1.5,36-10.7,51.2c-0.6,0.7-1.1,1.5-1.7,2.2L103.5,60.4z"/>
				<path id="Path_3113" class="st12" d="M105.4,230.5c1.1-6.6,3.5-12.6,8.6-17.6l3.7-4.2l0.1-1.2l-2.3,2l-6.8,8.5l-0.3-0.1
					c0.6-2.7,1.3-5.4,1.9-8.1c0.7-2.9,1.6-5.7,2.2-8.6c0.3-1.7,1.3-3.1,2.7-4c1.3-0.8,2.5-1.8,3.8-2.7c0.4-0.4,0.8-0.7,1.3-1
					c7.7-5,15.4-9.9,23.2-14.9c0-0.3-0.1-0.5-0.1-0.8c-1.9,1-3.9,2-5.7,3.2c-5.9,3.8-11.8,7.7-17.8,11.6l-5.9,4.3
					c0.9-3.5,1.7-7,2.7-10.5c1.7-5.9,3.6-11.8,5.3-17.6l-1.1,0.2c-2.8,9.5-5.7,18.9-8.2,28.4c-2.9,11-5.4,22.1-8.1,33.2L105.4,230.5
					z M114,196.9C114,197,113.9,197,114,196.9c-0.1,0.1-0.1,0.1-0.2,0.1L114,196.9z"/>
				<path id="Path_3114" class="st12" d="M99.5,230.2c0-0.1,0-0.3,0-0.4c1.1-8.3,2.3-16.6,3.4-24.9c0.1-0.7,0.1-1.4,0.1-2l-1.2,1.2
					c-0.9,7-1.8,14-2.7,21.1c-0.2,1.7-0.4,3.3-0.7,5L99.5,230.2z"/>
				<path id="Path_3115" class="st12" d="M86,229.2c0.1-5.2,0.1-10.4,0.2-15.7l-1,0.2c-0.1,5.1-0.1,10.2-0.2,15.3
					C85.4,229.1,85.7,229.2,86,229.2z"/>
				<path id="Path_3116" class="st12" d="M90.5,229.7c0.4-6.1,0.8-12.2,1.3-18.4l-0.8,0.4l-1.2,17.9
					C89.9,229.6,90.2,229.6,90.5,229.7z"/>
				
					<linearGradient id="Path_3117_1_" gradientUnits="userSpaceOnUse" x1="-100.0833" y1="276.9397" x2="-99.6993" y2="277.6397" gradientTransform="matrix(46.929 0 0 -25.8321 4756.791 7325.5542)">
					<stop  offset="0" style="stop-color:#2B9EFC"/>
					<stop  offset="1" style="stop-color:#3FD8F5"/>
				</linearGradient>
				<path id="Path_3117" class="st13" d="M70,172.9c3.5,3.6,6.2,7.9,7.9,12.6c0.1,0.3,0.3,0.5,0.5,0.7l0,0l0,1.2l0.2,0.9l-6.5,0.9
					l-1.1,0.2c-4.7,0.2-9.3-0.3-13.8-1.5c-9.7-2.9-16.9-9-22.2-17.4c-1.1-1.8-2-3.7-3.3-6c4.3-0.3,8.2-0.9,12.1-0.9
					c8.8,0,17.1,1.9,24.2,7.6c0.1,0.1,0.3,0.1,0.5,0.1l0,0l0.1,0.5L70,172.9z"/>
				
					<linearGradient id="Path_3118_1_" gradientUnits="userSpaceOnUse" x1="-115.8119" y1="275.4069" x2="-114.7429" y2="275.7859" gradientTransform="matrix(18.7961 0 0 -53.005 2252.1328 14708.2471)">
					<stop  offset="0" style="stop-color:#2B9EFC"/>
					<stop  offset="1" style="stop-color:#3FD8F5"/>
				</linearGradient>
				<path id="Path_3118" class="st14" d="M98.6,119.4c-10.3-8.2-15.7-18.8-15.9-32c0-6.5,1.1-12.9,3.4-18.9c0.2-0.6,0.5-1.2,0.9-2
					c6.2,4.1,11.3,9.8,14.5,16.5c-0.1,1.5-0.2,3.1-0.3,4.6c-0.7,9.9-1.4,19.8-2.2,29.8C98.9,117.9,98.8,118.6,98.6,119.4z"/>
				
					<linearGradient id="Path_3119_1_" gradientUnits="userSpaceOnUse" x1="-108.5733" y1="277.1501" x2="-108.2023" y2="277.5931" gradientTransform="matrix(25.381 0 0 -21.235 2780.8369 5930.896)">
					<stop  offset="0" style="stop-color:#2B9EFC"/>
					<stop  offset="1" style="stop-color:#3FD8F5"/>
				</linearGradient>
				<path id="Path_3119" class="st15" d="M38.2,55.7c-6.2-0.4-11.8-2.2-16.6-6.3c-4.5-3.9-7-8.9-8.4-14.9c6.4,0.2,12.1,1.7,17.1,5.5
					c3.9,3.1,6.7,7.5,7.7,12.4c0.2,0.8,0.4,1.7,0.6,2.5L38.2,55.7z"/>
				
					<linearGradient id="Path_3120_1_" gradientUnits="userSpaceOnUse" x1="-178.2899" y1="275.6766" x2="-175.0519" y2="276.1766" gradientTransform="matrix(5.476 0 0 -35.521 1059.2096 9914.5059)">
					<stop  offset="0" style="stop-color:#2B9EFC"/>
					<stop  offset="1" style="stop-color:#3FD8F5"/>
				</linearGradient>
				<path id="Path_3120" class="st16" d="M102.6,85.5c4.3,12.1,3.1,23.9-1.6,35.5l-0.8,0l-0.3-0.5c-0.1-0.7-0.1-1.5-0.1-2.2
					c0.4-5.2,0.9-10.4,1.4-15.5c0.4-5.1,0.7-10.1,1.1-15.2C102.3,86.8,102.4,86.2,102.6,85.5z"/>
				<path id="Path_3121" class="st12" d="M78.6,188.3c-0.1-0.3-0.1-0.6-0.2-0.9c0-0.4,0-0.8,0-1.2l0,0c0-3.8,0.2-7.6,0-11.3
					c-0.1-5.4-0.6-10.8-1.3-16.1c-0.7-4.5-2.2-8.9-3.4-13.3c-0.4-1.3-0.8-2.6-1.2-3.9c0.3,0.2,0.6,0.5,0.8,0.7
					c1.1,1.3,2.2,2.6,3.4,3.9c0.6,3.7,1,7.4,1.7,11c1.4,6.9,3.1,13.8,4.5,20.7c0.6,2.8,1,5.7,1.5,8.6l-0.8,1.3
					c-0.1-0.2-0.2-0.5-0.2-0.7c-1.2-6.6-2.4-13.2-3.6-19.7c-0.1-0.5-0.3-1-0.5-1.5c0.1,10.4,0.2,20.7,0.3,31
					c-0.4,1.8-0.9,3.6-1.3,5.4C78.4,197.6,78.5,193,78.6,188.3z"/>
				<path id="Path_3122" class="st17" d="M102,86c-0.2,0.7-0.3,1.3-0.3,2c-0.4,5.1-0.7,10.1-1.1,15.2c-0.4,5.2-0.9,10.4-1.4,15.5
					c0,0.7,0,1.5,0.1,2.2c-0.2,0.6-0.3,1.2-0.4,1.7c-0.2,2.5-0.4,5-0.6,7.5l-1.2-1.7c0.3-2.9,0.6-5.8,0.9-8.6
					c0.2-0.7,0.3-1.4,0.4-2.1c0.7-9.9,1.5-19.8,2.2-29.8c0.1-1.5,0.2-3.1,0.3-4.6c0.2-0.7,0.3-1.4,0.4-2.1
					c0.6-6.8,1.1-13.6,1.6-20.3l0.9-0.2c-0.6,7.3-1.2,14.7-1.7,22C102,83.8,102.1,84.9,102,86z"/>
				<path id="Path_3123" class="st18" d="M107.9,172.4l-1.1,0.1c1.6-8.4,3-16.8,4.9-25.2c1.5-7,3.6-13.9,5.4-20.9
					c0.1-0.4,0.3-0.8,0.5-1.2l0.7,0c-1.3,4.9-2.7,9.7-3.8,14.6c-1.6,7-3.1,14-4.6,21.1c0,0.5,0,1,0.1,1.5c-0.6,2.7-1.2,5.5-1.9,8.2
					C108,171.1,107.9,171.8,107.9,172.4z"/>
				<path id="Path_3124" class="st19" d="M71.1,189.4l1.1-0.2c-0.3,9.6-0.4,19.1-0.9,28.6c-0.2,4.3-1.2,8.6-1.9,12.9
					c-0.1,0.5-0.4,0.8-0.8,1.1c-0.2-0.4-0.2-0.8-0.3-1.2c1.9-9,2.4-18.1,2.8-27.2C71.4,198.7,71.1,194.1,71.1,189.4z"/>
				<path id="Path_3125" class="st19" d="M70,172.9l-1.4-1.1c0-0.2,0-0.3-0.1-0.5l0,0c-0.4-2.2-0.7-4.5-1.3-6.7
					c-2-7.6-4.9-14.8-8.8-21.6c0.2-0.3,0.4-0.5,0.5-0.8c3.7,5.9,6.5,12.3,8.3,19C68.4,165.1,69.2,169,70,172.9z"/>
				<path id="Path_3126" class="st18" d="M37.6,56.2l0.4-0.7c5.2,6.1,9.9,12.7,14,19.7c0.5,0.8,1.1,1.5,1.7,2.2
					c0.2,1.2,0.4,2.4,0.6,3.6c-2.3-3.9-4.5-7.8-7-11.6C44.2,64.9,40.8,60.5,37.6,56.2z"/>
				<path id="Path_3127" class="st19" d="M52.5,101.3l0.4-0.1c1.5,1.7,2.8,3.5,4.1,5.4c2.6,4.5,5.1,9.2,7.6,13.8
					c0.3,0.5,0.7,1,1,1.5c0.1,1.1,0.1,2.1,0.2,3.2c-2.3-4.4-4.6-8.9-7-13.3c-1.8-3.2-3.9-6.3-5.8-9.5
					C52.8,102,52.6,101.7,52.5,101.3z"/>
				<path id="Path_3128" class="st19" d="M77.3,215.3l1,0.1c-0.6,5.6-1.3,11.2-2,16.8l-0.8,0c-0.1-0.6-0.2-1.2-0.2-1.8
					C76,225.5,76.7,220.4,77.3,215.3z"/>
				<path id="Path_3129" class="st19" d="M61.3,95.6l1.8,1.6c1.6,4.4,3.2,8.9,4.8,13.3l-1.3-0.2c-1.5-4.3-3-8.5-4.6-12.8
					C61.8,96.8,61.5,96.2,61.3,95.6z"/>
				<path id="Path_3130" class="st18" d="M104.1,173l-1,0.3l-0.5-15.7l1.1,0.1C103.8,162.8,104,167.9,104.1,173z"/>
				<path id="Path_3131" class="st18" d="M99.6,121.5l0.8,0l1.5,16.2c-0.4-1-0.9-2.1-1.3-3.1c0-0.7,0-1.5,0-2.2
					C100.3,128.7,100,125.1,99.6,121.5z"/>
				<path id="Path_3132" class="st18" d="M102.2,138.7l-0.2-1.1L102.2,138.7z"/>
				<path id="Path_3133" class="st12" d="M72.2,140.9l0.4,0.8L72.2,140.9z"/>
				
					<linearGradient id="Path_3134_1_" gradientUnits="userSpaceOnUse" x1="-101.7944" y1="275.6225" x2="-100.7814" y2="276.5945" gradientTransform="matrix(41.611 0 0 -43.3565 4385.7817 12059.1064)">
					<stop  offset="0" style="stop-color:#2B9EFC"/>
					<stop  offset="1" style="stop-color:#3FD8F5"/>
				</linearGradient>
				<path id="Path_3134" class="st20" d="M143.8,116.3c1.5-5.6,2.5-11.4,4.5-16.9c2.9-8.5,8.6-15.8,16.1-20.6c6-3.7,12.9-5.7,20-5.6
					c0.4,0,0.7,0.1,1,0.1c-0.2,4.5-1,8.9-2.5,13.2c-5.4,15.8-16.5,25.1-32.5,28.9c-1.9,0.5-3.9,0.8-5.8,1.2L143.8,116.3z"/>
				
					<linearGradient id="Path_3135_1_" gradientUnits="userSpaceOnUse" x1="-99.6234" y1="277.0122" x2="-98.8934" y2="278.5452" gradientTransform="matrix(49.492 0 0 -23.5575 5101.3032 6691.2573)">
					<stop  offset="0" style="stop-color:#2B9EFC"/>
					<stop  offset="1" style="stop-color:#3FD8F5"/>
				</linearGradient>
				<path id="Path_3135" class="st21" d="M143.5,178.6c0-0.3-0.1-0.5-0.1-0.8c2.6-3.5,4.8-7.3,7.8-10.4c9.3-9.8,20.8-13.3,34.1-11.3
					c2.5,0.4,4.9,1,7.6,1.5c-1.9,4.9-5,9.1-9,12.5c-6.9,5.8-15.1,8.5-24,9C154.4,179.2,148.9,178.7,143.5,178.6z"/>
				
					<linearGradient id="Path_3136_1_" gradientUnits="userSpaceOnUse" x1="-103.0924" y1="278.2343" x2="-102.3744" y2="279.7753" gradientTransform="matrix(35.723 0 0 -16.6436 3824.7871 4825.8125)">
					<stop  offset="0" style="stop-color:#2B9EFC"/>
					<stop  offset="1" style="stop-color:#3FD8F5"/>
				</linearGradient>
				<path id="Path_3136" class="st22" d="M117.7,208.8l0.1-1.2v0.1l0.4-0.6c6.4-11.7,18.6-16.2,35.2-12.5c-1.3,2.3-2.7,4.5-4.3,6.7
					c-4.6,5.6-11.4,8.8-18.7,8.7C126.2,210,121.9,209.2,117.7,208.8z"/>
				<path id="Path_3137" class="st19" d="M143.3,116.8l0.8,0.2c-1.7,3.4-3.5,6.9-5.2,10.3l-1.3,0.4L143.3,116.8z"/>
				<path id="Path_3138" class="st23" d="M118.2,207l-0.4,0.6L118.2,207z"/>
				<path id="Path_3139" class="st19" d="M96.3,156.4c-0.5,6.8-1,13.5-1.5,20.3l-1,0.5c0.5-7,1-14,1.6-21L96.3,156.4z"/>
				<path id="Path_3140" class="st24" d="M114,196.9c0,0.1-0.1,0.1-0.1,0.1c0,0-0.1,0-0.1,0L114,196.9L114,196.9z"/>
				<path id="Path_3141" class="st25" d="M78.4,186.2c0,0.4,0,0.8,0,1.2C78.4,187,78.4,186.6,78.4,186.2z"/>
				<path id="Path_3142" class="st25" d="M68.6,171.3c0,0.2,0,0.3,0.1,0.5L68.6,171.3z"/>
			</g>
			<ellipse id="Ellipse_316" class="st26" cx="412.1" cy="813.1" rx="293.2" ry="33"/>
			
				<linearGradient id="Path_3143_1_" gradientUnits="userSpaceOnUse" x1="462.1651" y1="842.1729" x2="461.9121" y2="842.6129" gradientTransform="matrix(842.6015 0 0 -711.889 -388819.9063 600173.4375)">
				<stop  offset="0" style="stop-color:#2B9EFC"/>
				<stop  offset="9.000000e-03" style="stop-color:#2B9EFB;stop-opacity:0.988"/>
				<stop  offset="0.383" style="stop-color:#33B6F9;stop-opacity:0.573"/>
				<stop  offset="0.683" style="stop-color:#39C8F6;stop-opacity:0.263"/>
				<stop  offset="0.895" style="stop-color:#3DD3F5;stop-opacity:7.500000e-02"/>
				<stop  offset="1" style="stop-color:#3FD8F5;stop-opacity:0"/>
			</linearGradient>
			<path id="Path_3143" class="st27" d="M154.3,707.9c0,0,236.5-6.3,247-135.3s119.8-106.1,166.3-161.5s18-136.1,156.8-158.1
				C906.3,224.2,827,30,815.8,0H0v711.9L154.3,707.9z"/>
			
				<linearGradient id="Path_3144_1_" gradientUnits="userSpaceOnUse" x1="461.298" y1="842.206" x2="461.96" y2="842.895" gradientTransform="matrix(993.34 0 0 -893.334 -458461.0938 753131.5625)">
				<stop  offset="0" style="stop-color:#3FD8F5"/>
				<stop  offset="0.368" style="stop-color:#3FD8F5;stop-opacity:0.588"/>
				<stop  offset="0.675" style="stop-color:#3FD8F5;stop-opacity:0.271"/>
				<stop  offset="0.892" style="stop-color:#3FD8F5;stop-opacity:7.500000e-02"/>
				<stop  offset="1" style="stop-color:#3FD8F5;stop-opacity:0"/>
			</linearGradient>
			<path id="Path_3144" class="st28" d="M0,893.3c0,0,56.8-176.1,269.4-189.1C507.6,689.6,540,555,540.4,473.1s67.4-207.7,243-242.6
				C993.3,188.6,993.3,0,993.3,0L0,1.7V893.3z"/>
			
				<linearGradient id="Path_3145_1_" gradientUnits="userSpaceOnUse" x1="461.2018" y1="841.9539" x2="462.2599" y2="843.4119" gradientTransform="matrix(931.043 0 0 -728.578 -429679.875 614242.25)">
				<stop  offset="0" style="stop-color:#2B9EFC"/>
				<stop  offset="9.000000e-03" style="stop-color:#2B9EFB;stop-opacity:0.988"/>
				<stop  offset="0.383" style="stop-color:#33B6F9;stop-opacity:0.573"/>
				<stop  offset="0.683" style="stop-color:#39C8F6;stop-opacity:0.263"/>
				<stop  offset="0.895" style="stop-color:#3DD3F5;stop-opacity:7.500000e-02"/>
				<stop  offset="1" style="stop-color:#3FD8F5;stop-opacity:0"/>
			</linearGradient>
			<path id="Path_3145" class="st29" d="M2.3,728.6c0,0,128.6-16.3,212.3-141.7s24.8-231.3,191.9-266.8s236.6-1.3,301.9-66.4
				S708.4,20,931,0L0,2.3L2.3,728.6z"/>
			
				<linearGradient id="Path_3146_1_" gradientUnits="userSpaceOnUse" x1="462.4574" y1="843.2429" x2="461.6434" y2="842.6379" gradientTransform="matrix(951.21 0 0 -688.386 -438997.0313 580360.375)">
				<stop  offset="0" style="stop-color:#3FD8F5"/>
				<stop  offset="0.368" style="stop-color:#3FD8F5;stop-opacity:0.588"/>
				<stop  offset="0.675" style="stop-color:#3FD8F5;stop-opacity:0.271"/>
				<stop  offset="0.892" style="stop-color:#3FD8F5;stop-opacity:7.500000e-02"/>
				<stop  offset="1" style="stop-color:#3FD8F5;stop-opacity:0"/>
			</linearGradient>
			<path id="Path_3146" class="st30" d="M951.2,1.7c0,0-65.9,167.3-204.3,160.8s-193.3,31.8-202.2,108.2
				c-7.1,61.3,18.6,195.9-149,240.6c-124.3,33.1-247.5-2.4-310.5,105.7C45.1,685.6,0,688.4,0,688.4V0L951.2,1.7z"/>
			
				<linearGradient id="Path_3147_1_" gradientUnits="userSpaceOnUse" x1="461.4078" y1="842.2827" x2="462.5888" y2="843.9157" gradientTransform="matrix(900.4 0 0 -609.625 -415522.8125 513964.875)">
				<stop  offset="0" style="stop-color:#0979CC"/>
				<stop  offset="0.23" style="stop-color:#2EA7E8"/>
				<stop  offset="0.347" style="stop-color:#3EBAF4"/>
				<stop  offset="0.653" style="stop-color:#228BDF"/>
				<stop  offset="0.695" style="stop-color:#2792E2"/>
				<stop  offset="0.885" style="stop-color:#3DB4F3"/>
			</linearGradient>
			<path id="Path_3147" class="st31" d="M900.4,0c0,0-114.7,118-237.3,112.3S490.3,172,482.4,239.7c-6.3,54.3,16.5,173.5-132,213
				c-110.1,29.3-219.2-2.2-275,93.6C40,607.1,0,609.6,0,609.6V0H900.4z"/>
			
				<linearGradient id="Path_3148_1_" gradientUnits="userSpaceOnUse" x1="461.6086" y1="843.1363" x2="461.5886" y2="842.0363" gradientTransform="matrix(516.068 0 0 -546.656 -237960.5313 460944.5)">
				<stop  offset="0" style="stop-color:#FFFFFF;stop-opacity:0.8"/>
				<stop  offset="4.200000e-02" style="stop-color:#FFFFFF;stop-opacity:0.761"/>
				<stop  offset="0.517" style="stop-color:#FFFFFF;stop-opacity:0.357"/>
				<stop  offset="0.846" style="stop-color:#FFFFFF;stop-opacity:9.800000e-02"/>
				<stop  offset="1" style="stop-color:#FFFFFF;stop-opacity:0"/>
			</linearGradient>
			<path id="Path_3148" class="st32" d="M479.2,161.2v-21.5h-17.9v-17.4h-52.1v17.4h-17.9v93h-55.5v-34.1h-48.1v-92.5h-71.5V82H196
				V62.5h-58.6V82h-20.1v104.4H55v-38.2H0.9v460.9c0,0,40-2.5,75.4-63.3c55.8-95.7,164.9-64.2,275-93.6
				c148.5-39.6,125.7-158.8,132-213c3.3-28,13.8-55.6,33.6-78L479.2,161.2z"/>
			
				<linearGradient id="Path_3149_1_" gradientUnits="userSpaceOnUse" x1="461.3946" y1="843.1481" x2="461.4146" y2="842.0712" gradientTransform="matrix(421.755 0 0 -458.894 -194356.5781 387036.1875)">
				<stop  offset="0" style="stop-color:#FFFFFF;stop-opacity:0.8"/>
				<stop  offset="4.200000e-02" style="stop-color:#FFFFFF;stop-opacity:0.761"/>
				<stop  offset="0.517" style="stop-color:#FFFFFF;stop-opacity:0.357"/>
				<stop  offset="0.846" style="stop-color:#FFFFFF;stop-opacity:9.800000e-02"/>
				<stop  offset="1" style="stop-color:#FFFFFF;stop-opacity:0"/>
			</linearGradient>
			<path id="Path_3149" class="st33" d="M444.1,162.3h-67.6v72.5h-21.2l-66.7-53.1v53.1h-13.8v60.6h-34.9v45.5h-21.8v-24.2h-5.2
				v-23.5h-46.2v23.5h-5.2v47.7h-36.2v-140h-93v372c13.3-9.1,29.3-24.4,44.4-50.4c55.8-95.7,164.9-64.2,275-93.6
				c52.7-14.1,83.8-38.1,102.3-65.8V137.6h-9.9L444.1,162.3z M110.4,322.1H47.1V313h63.3V322.1z M110.4,302.3H47.1v-9.2h63.3V302.3z
				 M110.4,282.4H47.1v-9.2h63.3V282.4z M110.4,262.6H47.1v-9.2h63.3V262.6z M309.3,360.5h-10.5V273h10.5V360.5z M335.9,360.5h-10.5
				V273h10.5V360.5z M362.6,360.5h-10.5V273h10.5V360.5z M387.9,184.2h7.4v9.5h-7.4V184.2z M395.5,221.2h-7.4v-9.5h7.4V221.2z
				 M395.5,207.5h-7.4V198h7.4V207.5z M399.8,184.2h7.4v9.5h-7.4L399.8,184.2z M407.3,221.2h-7.4v-9.5h7.4V221.2z M407.3,207.5h-7.4
				V198h7.4V207.5z M411.7,184.2h7.4v9.5h-7.4V184.2z M419.2,221.2h-7.4v-9.5h7.4V221.2z M419.2,207.5h-7.4V198h7.4V207.5z
				 M423.2,184.2h7.4v9.5h-7.4V184.2z M430.8,207.5h-7.4V198h7.4L430.8,207.5z M442.5,193.7h-7.4v-9.5h7.4V193.7z"/>
			<g id="Group_159" transform="translate(271.305 268.577)">
				<path id="Path_3150" class="st34" d="M36.5,55.1c1.7,5.2,3.3,10.5,5,15.7l1.2,3.5l3.6,11.5c0.6,1.9,1.2,3.8,1.9,5.8
					c0.8,2.3,1.1,5.2,2.6,6.8c4.2,4.6,8.9,8.7,13.4,13l6.4,6.2l13,12.6l5.6,1.6c1.3,0.3,2.6,0.6,3.9,0.9c5.2,1.2,10.4,2.5,15.5,3.7
					c5.9,12.2,27.7,14.7,37.1,4.4c7.9,1.7,15.9,2.9,23.6,5.1c5.6,1.6,9.2,6.3,12.1,11.3c9.8,17,19.7,34.1,29.5,51.1
					c0.6,1,1.2,1.9,1.8,3c5.1-1.1,10.1-2,15-3.1c1.1-0.2,1.9-1.3,3-1.6c1.9-0.5,3.9-0.9,5.8-1.2c4-0.6,8-0.8,11.9-1.6
					c6.2-1.2,12.4-2.7,18.6-3.9c1.5-0.3,3.2,0.2,4.8,0.4l4.4,10.6c0.2,1.2,0.5,2.5,0.7,3.7c-5.6,1.8-11.2,3.7-16.8,5.5
					c-15.1,4.9-30.2,9.9-45.4,14.6c-3.7,1.1-7.5,1.7-11.3,1.7c-3.5,0-7.1-1.1-10.6-1.7c-4.4-6.9-8.9-13.8-13.3-20.6
					c-5.3-8.3-10.7-16.5-16.1-24.8c-1.3-2.6-1.6-6-5.4-7.5c-0.3,2-0.6,3.5-0.8,5c-0.5,5.3-0.9,10.5-1.4,15.8
					c-0.8,8-1.6,16.1-2.4,24.1c-0.5,4.7-0.9,9.5-1.4,14.2c-0.8,7.4-1.4,14.8-2.4,22.2c-1.1,7.7,0.5,16-4.4,23l-3.1,0
					c-0.4-0.1-0.8-0.2-1.2-0.2c-18.3-1.8-36.6-3.7-54.9-5.5c-7.1-0.7-14.3-1.3-21.4-1.9c-2.9-1.9-2.6-4.7-2.3-7.5
					c1.2-11.7,2.3-23.4,3.5-35.1c0.1-0.8,0-1.7,0-2.5l1.2-11.9c0.8-7.3,1.6-14.6,2.3-22c1-10.2,1.9-20.4,2.8-30.7
					c-0.5-2.9,0.8-5.8-1.4-8.7c-11.6-15-23.2-30-34.6-45.2c-2.4-3.2-5.5-6.4-6.4-10.1c-3.2-12.4-5.7-25-8.2-37.6
					c-1.9-9.2-3.5-18.5-5.2-27.7l2-0.7l10-1.6c1.2,1.4,2.8,2.7,3.5,4.4C33.6,46.2,35,50.7,36.5,55.1z"/>
				<path id="Path_3151" class="st35" d="M147.6,103.8c-3.8-0.6-2.3,3-3.6,5c-1.3-2.6-2.8-4.8-3.3-7.3c-0.6-2.6-0.1-5.3-0.1-7.9
					c-6.7,0-13.2,0.1-19.6,0c-4.7-0.1-5.2,0.5-5.7,5.1c-0.3,3.1-1.5,6.1-2.4,9.3c-2.7-0.9-0.2-6.3-4.7-4.9
					c-2.3-3.6-2.4-7.7-2.3-11.8c0.5-1.9,1.1-3.7,1.6-5.6c1.9-3.6,5.3-6.2,9.3-7.2c1.1-0.3,2.1-0.9,2.8-1.8c2.1-3.1,5-3.8,8.4-3.7
					l7.8,4.7c0.9,0.3,1.7,0.6,2.6,0.8c5.5,1.2,7.6,4.2,6.6,9.8C150.4,91.6,151.1,95.9,147.6,103.8z"/>
				<path id="Path_3152" class="st36" d="M276.4,201c1-0.9,2-1.9,2.9-2.9c1.9-2.4,3.6-4.9,5.5-7.3c1.5-2,3.1-3.9,4.8-5.7
					c0.5-0.5,1-1.2,2.1-0.9s0.8,1.7,0.6,2.4c-0.2,1-1.1,1.8-1.5,2.7c-0.7,1.7-1.3,3.5-2.2,5.7c5.1,0.6,9-0.6,12.9-2
					c1.9-0.7,3.9-1.4,5.9-1.9c0.7-0.2,2-0.3,2.5,0.6s-0.7,2-1.4,2.3c-2.6,1.4-5.3,2.6-7.9,3.9l0.4,1.3c3-0.5,6.1-1.1,9.2-1.5
					c1.2-0.1,2.6-0.6,3.4,0.4s-1.1,2.5-2.7,2.9c-3,0.8-5.9,1.7-8.9,2.5l0,1c1.7,0.2,3.4,0.5,5.1,0.6c0.8,0,1.7-0.4,2.4-0.3
					c0.7,0.1,1.7-0.2,2.1,0.9s-0.7,1.6-1.3,1.9c-1.1,0.5-2.3,0.8-3.6,0.8c-1.5,0.1-3,0-4.5,0c0,0.3-0.1,0.6-0.1,0.9
					c1.1,0.2,2.2,0.5,3.3,0.9c0.8,0.3,1.6-0.1,2.1,1.3s-1.6,1.1-2.4,1.2c-1.5,0.1-2.9,0.1-4.4,0l-14.4,0.1l-1.3,0
					c-1.1-0.1-2.2-0.4-3.3-0.7c-1.1-0.5-2.1-1.2-3.1-1.9c0-0.2,0-0.4,0-0.6l-0.4-0.7L276.4,201z"/>
				<path id="Path_3153" class="st2" d="M112.8,136.5c7.2,6.7,15.5,8.8,24.8,5.6c1.6-0.7,3.1-1.5,4.6-2.5l3.4,1.3
					c-9.4,10.3-31.2,7.8-37.1-4.4L112.8,136.5z"/>
				<path id="Path_3154" class="st37" d="M141.6,131.4c-5.7,2.4-11.6,2.4-17.5,1c1.7,0,3.4,0.1,5.1,0c5-0.4,8-3.6,10.5-7.5
					c0.5-0.7,1.1-1.4,1.7-2.1C141.4,125.6,141.5,128.5,141.6,131.4z"/>
				<path id="Path_3155" class="st2" d="M278.6,209.7c0,0.2,0,0.4,0,0.6l-2.3,0.6l-4.4-10.6l4.5,0.7c0.6,2.7,1.2,5.3,1.8,8
					L278.6,209.7z"/>
				<path id="Path_3156" class="st38" d="M54.1,513.7c-2.2,0-2.9-1.1-3.3-3.2c-7.3-37.2-14.7-74.4-22.2-111.5
					c-1.1-4.8-0.8-9.8,0.8-14.5c12-34.1,24-68.1,36-102.2c1.5,0.2,3.1,0.4,4.6,0.5c16.3,1.6,32.6,3.2,49,4.8
					c7.7,0.7,15.5,1.4,23.2,2l0,0.3c-0.6,6.5-1.3,13-1.8,19.5c-0.5,6.2-0.8,12.4-1.3,18.6c-1,11.3-2.1,22.5-3,33.7
					c-0.9,10-1.7,20-2.5,30.1c-0.4,3.3-0.6,6.6-0.5,9.9c0.3,4.1,1.1,8.2,1.7,12.3c2.1,15.6,4.2,31.2,6.4,46.8
					c2.4,17.2,4.9,34.4,7.4,51.6l-4.4,0.6l-14.4,0.7c-2.4,0.1-2.1-1.8-2.5-3.2c-5.8-24.8-11.6-49.6-17.3-74.5
					c-3.6-15.7-7.9-31.2-7.9-47.5c0-16.3-1.2-32.7-2-49c-0.2-2.3-0.6-4.5-1.1-6.7l-0.7-0.6l0.1,0.1c-1.6-0.9-3.5-2.7-4.8-2.4
					c-2,0.7-3.6,2.2-4.5,4.1c-7.9,18.3-15.5,36.7-23.5,55c-2.5,5.9-4.1,11.7-3.4,18.1c0.9,8.3,1.6,16.7,2.4,25
					c0.5,5,0.9,10.1,1.4,15.2c0.8,8.1,1.6,16.3,2.4,24.4c0.5,5.5,0.9,10.9,1.4,16.4c0.8,8.3,1.6,16.7,2.4,25L54.1,513.7z"/>
				<path id="Path_3157" class="st39" d="M18.3,543.2c0-4,1.2-5.6,4.9-6.5c5.5-1.4,11.2-2,15.1-6.9c1.4,1.1,2.7,2.9,4.3,3.1
					c1,0.2,2.3-1.9,3.5-3c0.1,0,0.3,0,0.4,0.1c4.5-1.5,7.5-5.1,10.9-8.2c0.8,1,1.5,1.9,2.3,2.9c2.1,2.3,4.6,3,6.9,1.5
					c1.1-0.8,2.1-1.6,3.1-2.5l5.6-0.5c0.2,1,0.4,2,0.4,3c0.1,5.5,0,11,0.1,16.4L18.3,543.2z"/>
				<path id="Path_3158" class="st2" d="M142.3,289.7c-7.8-0.7-15.5-1.3-23.2-2c-16.3-1.6-32.6-3.2-49-4.8c-1.5-0.2-3.1-0.3-4.6-0.5
					c-0.2-1.3-0.5-2.5-0.7-3.8c7.1,0.6,14.3,1.2,21.4,1.9c18.3,1.8,36.6,3.6,54.9,5.5c0.4,0,0.8,0.1,1.2,0.2
					C142.3,287.3,142.3,288.5,142.3,289.7z"/>
				<path id="Path_3159" class="st40" d="M18.3,543.2l57.4-0.6c0,1,0,2,0,3.1l-57.4,0C18.4,544.9,18.3,544.1,18.3,543.2z"/>
				<path id="Path_3160" class="st36" d="M69.7,523.7c-1,0.9-2,1.7-3.1,2.5c-2.3,1.4-4.8,0.8-6.9-1.5c-0.8-0.9-1.6-1.9-2.3-2.9
					l-3.3-4.5c0.1-0.8,0.1-1.5,0.2-2.3c3,0.4,5.9,0.9,8.9,1.3C68.1,516.9,69.6,518.6,69.7,523.7z"/>
				<path id="Path_3161" class="st37" d="M69.7,523.7c-0.1-5.1-1.6-6.8-6.7-7.5c-3-0.4-5.9-0.8-8.9-1.3c0-0.4-0.1-0.9-0.1-1.3
					l18.2-0.4l3.8,0.6l-0.7,9.4L69.7,523.7z"/>
				<path id="Path_3162" class="st40" d="M54,517.3l3.3,4.5c-3.4,3.1-6.3,6.7-10.9,8.2l-0.5-1.2l0,0.1l-0.7-0.7l0,0l-0.7-0.7
					l0.1,0.1l-0.7-0.7l0.1,0c-0.2-0.4-0.5-0.8-0.4-1.1c0.2-1.4,4.8-4.3,6.3-4.1l0.5,0.5l1,0.1l-0.2-0.7l-0.7-0.6L54,517.3z
					 M49.8,527.1c-0.1-0.2-0.2-0.3-0.3-0.5c0,0-0.2,0.1-0.2,0.1c0,0.2,0,0.3,0,0.5L49.8,527.1z"/>
				<path id="Path_3163" class="st40" d="M46,530c-1.2,1.1-2.5,3.1-3.5,3c-1.5-0.2-2.9-2-4.3-3.1c1.7-1.5,3.1-3.6,5.9-2.9l-0.1,0
					c0,0.2,0,0.5,0,0.7l0.7,0l-0.1-0.1c0,0.2,0,0.5,0,0.7l0.7,0l0,0c0,0.2,0,0.5,0,0.7l0.7,0l0-0.1C46,529.2,46,529.6,46,530z"/>
				<path id="Path_3164" class="st41" d="M37.3,125.4c-2.8-3.6-5.7-7.1-8.3-10.9c-2-2.8-3.5-5.8-5.3-8.8l-2-9.7l-0.8-4.6
					c-0.4-1.9-0.7-3.8-1.1-5.7c-2.3-12.3-4.5-24.6-6.8-36.9c-0.5-2.7-1.9-5.4,0.4-8l3-1.1c1.7,9.2,3.3,18.5,5.2,27.7
					c2.6,12.6,5,25.2,8.2,37.6c0.9,3.7,4,6.9,6.4,10.1c11.5,15.1,23,30.2,34.6,45.2c2.2,2.8,0.9,5.8,1.4,8.7l-4.6-5.1l-8.2-10.6
					l-4-5L43,132.6L37.3,125.4z"/>
				<path id="Path_3165" class="st36" d="M14.2,36.9c-0.7-1.2-1.4-2.4-2.1-3.7l-2.5-3.8c-0.9-1.9-1.9-3.8-2.8-5.8
					c-1.5-2.1-3-4.1-4.4-6.3c-1-1.5-3-5.9-2.1-6.5c1.1-0.7,3.5,3.3,4.9,4.3c0.2,0.2,0.4,0.5,0.5,0.7L5.4,15
					c-0.9-1.8-1.8-3.7-2.5-5.7c-0.3-0.9-1-2.3,0.4-3s1.9,1,2.5,1.8c1.3,1.8,2.4,3.7,3.6,5.6l1-0.4c-0.7-2.6-1.3-5.2-2-7.8
					c-0.2-0.9-1-5.3,0.5-5.4s1.6,1,1.9,1.7c1.4,3.3,2.6,6.7,3.9,10.1l1.3-0.3c-0.2-2.8-0.6-5.5-0.7-8.3c0-1.1-0.6-2.5,0.6-3.2
					s2.2,1.5,2.5,2.6c1,3.2,1.6,6.4,2.4,9.6c0.3,1,0.8,1.9,1.3,2.8c0.9,1.1,1.6,2.7,2.7,3.1c2.2,0.8,2.9-1.3,3.6-2.9
					c0.2-0.8,0.6-1.5,1.1-2.2c0.7-0.7,1.4-2.2,2.6-1.6s0.4,2.1,0.3,3c-0.6,3.1-1.4,6.2-2.1,9.3c-1,1.9-2.1,3.8-3.1,5.7
					c-1.9,1.3-1.8,3.1-1.1,5l-8.3,2.4L14.2,36.9z"/>
				<path id="Path_3166" class="st41" d="M227,236.1c-5.7,1.9-11.3,4.1-17,5.7c-6.7,1.9-13.4-1.1-17-7.1c3.5,0.6,7.1,1.7,10.6,1.7
					c3.8,0,7.6-0.6,11.3-1.7c15.2-4.7,30.3-9.7,45.4-14.6c5.6-1.8,11.2-3.7,16.8-5.5l0.4,0.8c-1.6,1.5-3,3.5-4.9,4.2
					C257.3,225.3,242.1,230.7,227,236.1z"/>
				<path id="Path_3167" class="st40" d="M106.6,545.7c0.3-0.9,0.7-1.8,1-2.7c6.6-0.1,13.3-0.6,19.9-0.3c6.7,0.5,13.3-1.3,18.7-5.2
					c1.2-0.8,2.5-1.4,3.8-2.2c3.7-2.4,7.4-4.8,11.1-7.2l3.4,2.9l-25.3,14.2c-3.4,0.3-6.8,0.9-10.1,1c-6.5,0.2-13.1,0.1-19.6,0
					C108.5,546.1,107.5,546,106.6,545.7z"/>
				<path id="Path_3168" class="st41" d="M163.5,189.4c-1,9.9-2.1,19.8-3.1,29.8c-1.4,14-2.7,28-4.1,41.9c-0.7,7-1.3,14.1-2.3,21.1
					c-0.2,1.7-2,3.1-3,4.6l-5.7-0.6c4.9-7,3.3-15.3,4.4-23c1.1-7.4,1.7-14.8,2.4-22.2c0.5-4.7,0.9-9.5,1.4-14.2
					c0.8-8,1.6-16.1,2.4-24.1c0.5-5.3,0.9-10.5,1.4-15.8c0.1-1.5,0.5-3,0.8-5C161.9,183.4,162.2,186.8,163.5,189.4z"/>
				<path id="Path_3169" class="st42" d="M145.4,286.2l5.7,0.6c-0.1,1.2-0.3,2.4-0.4,3.6l-8.4-0.4l0-0.3c0-1.2,0-2.4,0-3.6
					L145.4,286.2z"/>
				<path id="Path_3170" class="st2" d="M26,34.5c2.3-0.2,2.5,1.2,2.4,3l-10,1.6l-0.8-2.2L26,34.5z"/>
				<path id="Path_3171" class="st42" d="M17.7,36.9l0.8,2.2l-2,0.7l-3,1.1c-0.9-1.1-0.8-2.7,0.3-3.7c0.1-0.1,0.3-0.2,0.4-0.3
					L17.7,36.9z"/>
				<path id="Path_3172" class="st43" d="M132.4,122.1c-1.5,0.8-3,2.2-4.5,2.2s-3-1.5-4.4-2.4l0.4-0.9h8.1L132.4,122.1z"/>
				<path id="Path_3173" class="st37" d="M120.4,130.8l2.2,0.5l-0.4,0.8L120.4,130.8L120.4,130.8z"/>
				<path id="Path_3174" class="st44" d="M117.3,127.7c-0.2-0.4-0.4-0.8-0.6-1.3l0,0C116.9,126.9,117.1,127.3,117.3,127.7
					L117.3,127.7z"/>
				<path id="Path_3175" class="st44" d="M116,125.8l-0.5-0.7l0.2-0.2L116,125.8L116,125.8z"/>
				<path id="Path_3176" class="st44" d="M119.8,130.2l-0.6-0.6l0,0L119.8,130.2L119.8,130.2z"/>
				<path id="Path_3177" class="st44" d="M119.2,129.6l-0.6-0.6l0,0C118.7,129.2,119,129.4,119.2,129.6L119.2,129.6z"/>
				<path id="Path_3178" class="st44" d="M118.5,129l-0.6-0.6l0,0L118.5,129L118.5,129z"/>
				<path id="Path_3179" class="st44" d="M117.9,128.3c-0.2-0.2-0.4-0.4-0.6-0.6l0,0L117.9,128.3L117.9,128.3z"/>
				<path id="Path_3180" class="st44" d="M116,125.8l0.6,0.6l0,0L116,125.8L116,125.8z"/>
				<path id="Path_3181" class="st44" d="M119.8,130.2l0.6,0.6l0,0L119.8,130.2L119.8,130.2z"/>
				<path id="Path_3182" class="st45" d="M278.6,209.7l-0.4-0.7C278.3,209.2,278.5,209.4,278.6,209.7z"/>
				<path id="Path_3183" class="st46" d="M142.3,290l8.4,0.4c-2,26.6-4,53.2-6,79.8c-0.7,9.1-1.7,18.3-2.1,27.4
					c-0.2,5.1,0.7,10.2,1.2,15.2c1.4,14,2.7,28,4.1,42c1.4,13.9,2.8,27.8,4.1,41.6c0.5,4.7,1,9.3,1.4,14c-0.1,0.8-0.3,1.5-0.6,2.2
					l-3.7,0.1l-0.6-0.2c-2.5-17.2-5-34.4-7.4-51.6c-2.2-15.6-4.2-31.2-6.4-46.8c-0.6-4.1-1.4-8.2-1.7-12.3c-0.1-3.3,0.1-6.6,0.5-9.9
					c0.8-10,1.6-20,2.5-30.1c1-11.3,2.1-22.5,3-33.7c0.5-6.2,0.8-12.4,1.3-18.6C141,303,141.7,296.5,142.3,290z"/>
				<path id="Path_3184" class="st46" d="M98.5,332.4c-2.4-0.5-3.6,0.6-4.5,2.8c-7.7,20-15.5,40-23,60.1c-1.2,3.5-1.7,7.3-1.4,11
					c1.1,16,2.5,32,3.9,48s2.7,32,4.1,47.9c0.3,3,0.5,6,0.8,9c0.2,1.9-0.5,2.7-2.4,2.6l-3.8-0.6c-0.8-8.3-1.6-16.7-2.4-25
					c-0.5-5.5-0.9-10.9-1.4-16.4c-0.8-8.1-1.6-16.3-2.4-24.4c-0.5-5-0.9-10.1-1.4-15.2c-0.8-8.3-1.5-16.7-2.4-25
					c-0.7-6.4,0.8-12.2,3.4-18.1c8-18.3,15.6-36.7,23.5-55c0.9-1.9,2.5-3.4,4.5-4.1C95,329.7,96.9,331.6,98.5,332.4z"/>
				<path id="Path_3185" class="st36" d="M130.5,516.2c-0.2-0.8-0.4-1.6-0.6-2.4l14.4-0.7l1.8,3.2c-1,3.6-3.2,4.8-6.6,3.7
					c-1.3-0.4-2.5-1-3.7-1.5L130.5,516.2z"/>
				<path id="Path_3186" class="st37" d="M146,516.3l-1.8-3.2l4.4-0.6l0.6,0.2C148.1,513.9,147.1,515.1,146,516.3z"/>
				<path id="Path_3187" class="st47" d="M99.1,332.9l-0.7-0.6L99.1,332.9z"/>
				<path id="Path_3188" class="st25" d="M46,530c0-0.4-0.1-0.8-0.1-1.2l0.5,1.2C46.3,530,46.2,530,46,530z"/>
				<path id="Path_3189" class="st48" d="M49.8,527.1l-0.4,0.1c0-0.2,0-0.3,0-0.5c0,0,0.2-0.1,0.2-0.1
					C49.6,526.8,49.7,526.9,49.8,527.1z"/>
				<path id="Path_3190" class="st25" d="M44.7,527.6l-0.7,0c0-0.2,0-0.5,0-0.7L44.7,527.6z"/>
				<path id="Path_3191" class="st25" d="M45.3,528.2l-0.7,0c0-0.2,0-0.5,0-0.7L45.3,528.2z"/>
				<path id="Path_3192" class="st25" d="M46,528.8l-0.7,0c0-0.2,0-0.5,0-0.7L46,528.8z"/>
				<path id="Path_3193" class="st25" d="M51.2,521.6l0.2,0.7l-1-0.1L51.2,521.6z"/>
				<path id="Path_3194" class="st25" d="M50.5,522.2l-0.5-0.5l0.6-0.7l0.7,0.6L50.5,522.2z"/>
				<path id="Path_3195" class="st39" d="M146,516.3c1.1-1.2,2.1-2.4,3.2-3.6l3.7-0.1l8.3,15.5c-3.7,2.4-7.4,4.8-11.1,7.2
					c-1.2,0.8-2.6,1.4-3.8,2.2c-5.4,3.9-12.1,5.8-18.7,5.2c-6.6-0.4-13.3,0.1-19.9,0.3c0.3-3.8,2-6.3,5.9-7.4c2.7-0.9,5.4-2,8.1-3.2
					c1.9,2.2,4,2.4,6.1,0.8c2.1-1.6,3.4-3.5,3.4-6.3c0.4,0,0.8,0.1,1.1,0.2c1.5,0.4,1.7,0.1,0.7-1.1c0.2-0.9,0.4-1.9,0.6-2.8
					l1.3-1.4l0.9-3.4c1.2,0.5,2.4,1.1,3.7,1.5C142.8,521.1,145,519.9,146,516.3z"/>
				<path id="Path_3196" class="st40" d="M131,527c0,2.7-1.3,4.6-3.4,6.3c-2,1.5-4.2,1.4-6.1-0.8l2.3-3.1l2.5,0.4l2.8,0.6l0.2-0.7
					l-2.3-0.7l-2.4-0.9c0.1-3.2,2.4-2.1,4-2.4l-0.1-0.1l2.6,0.6l-0.1,0c-0.1,0.1-0.2,0.2-0.2,0.2C130.9,526.7,130.9,526.8,131,527z"
					/>
				<path id="Path_3197" class="st40" d="M135.7,518.5l-0.9,3.4H131l0.1,0l-2.8-1.4c0.7-1.4,1.5-2.8,2.2-4.3L135.7,518.5z"/>
				<path id="Path_3198" class="st40" d="M133.5,523.3c-0.2,0.9-0.4,1.9-0.6,2.8l-1.8,0.2l0.1,0l-2.6-0.6l0.1,0.1l-2-1.4
					c-0.2-3.9,3-1.6,4.5-2.4l-0.1,0L133.5,523.3z"/>
				<path id="Path_3199" class="st49" d="M133.5,523.3l-2.5-1.4h3.8L133.5,523.3z"/>
				<path id="Path_3200" class="st49" d="M131,526.3l1.8-0.2c0.9,1.2,0.7,1.5-0.7,1.1c-0.4-0.1-0.8-0.1-1.1-0.2
					c-0.1-0.2-0.1-0.3-0.2-0.5C130.8,526.5,131,526.4,131,526.3z"/>
				<path id="Path_3201" class="st49" d="M128.5,525.7l2.6,0.6L128.5,525.7z"/>
				<path id="Path_3202" class="st49" d="M127,529.1l2.3,0.7l-0.2,0.7l-2.8-0.6L127,529.1z"/>
				<path id="Path_3203" class="st36" d="M147.6,103.8c-3.8-0.6-2.3,3-3.6,5c-1.3-2.6-2.8-4.8-3.3-7.3c-0.6-2.6-0.1-5.3-0.1-7.9
					c-6.7,0-13.2,0.1-19.6,0c-4.7-0.1-5.2,0.5-5.7,5.1c-0.3,3.1-1.5,6.1-2.4,9.3c-2.7-0.9-0.2-6.3-4.7-4.9c-2.4,1.2-2.7,3.4-2.8,5.8
					c1.2,2.6,2.3,5.4,5.8,5.8c0.6,0.1,1.1,1.3,1.5,2.1c1.8,4,0.9,8.1,0.7,12.2c-0.1,2.5-0.4,5-0.6,7.4c7.2,6.7,15.5,8.8,24.8,5.6
					c1.6-0.7,3.1-1.5,4.6-2.5c-0.2-2.7-0.4-5.4-0.6-8.1c-5.7,2.4-11.6,2.4-17.5,1c1.7,0,3.4,0.1,5.1,0c5-0.4,8-3.6,10.5-7.5
					c0.5-0.7,1.1-1.4,1.7-2.1c0.5-2,0.8-4,1.4-6c0.3-0.7,0.8-1.3,1.5-1.5C150.3,113.4,151.8,108.5,147.6,103.8z M122.2,132.1
					l-1.8-1.3l-0.6-0.6l-0.6-0.6l-0.6-0.6l-0.6-0.6l-0.6-0.6c-0.2-0.4-0.4-0.8-0.6-1.3l-0.6-0.6l-0.5-0.7l0.2-0.2l0.2,0.8l0.6,0.6
					c0.2,0.4,0.4,0.8,0.6,1.3l0.6,0.6l0.6,0.6c0.2,0.2,0.4,0.4,0.6,0.6l0.6,0.6l0.6,0.6l2.2,0.5L122.2,132.1z M127.9,124.3
					c-1.5,0-3-1.5-4.4-2.4c0.1-0.3,0.3-0.6,0.4-0.9h8.1l0.5,1C130.9,122.9,129.4,124.3,127.9,124.3z"/>
				<circle id="Ellipse_317" class="st50" cx="121.2" cy="106.2" r="2.5"/>
				<circle id="Ellipse_318" class="st2" cx="120.1" cy="105.1" r="0.9"/>
				<circle id="Ellipse_319" class="st50" cx="136.1" cy="106.2" r="2.5"/>
				<circle id="Ellipse_320" class="st2" cx="135" cy="105.1" r="0.9"/>
				<path id="Rectangle_382" class="st37" d="M127.9,107.8L127.9,107.8c0.5,0,1,0.4,1,1v4.2c0,0.5-0.4,1-1,1l0,0c-0.5,0-1-0.4-1-1
					v-4.2C126.9,108.3,127.4,107.8,127.9,107.8z"/>
				<g id="Group_158" transform="translate(106.665 73.152)">
					<path id="Path_3204" class="st51" d="M9.3,8.5c1.1-0.3,2.1-0.9,2.8-1.8c2.1-3.1,5-3.8,8.4-3.7l7.8,4.7c0.9,0.3,1.7,0.6,2.6,0.8
						c5.5,1.2,7.6,4.2,6.6,9.8c4,2.4,5.4,5.3,4.5,9.9c2.3-6.3,1.1-10-3.7-12.9c1-5.6-1.1-8.6-6.6-9.8c-0.9-0.2-1.7-0.5-2.6-0.8
						L21.3,0c-3.4-0.1-6.3,0.6-8.4,3.7c-0.7,0.9-1.7,1.5-2.8,1.8c-4,1-7.3,3.6-9.3,7.2c-0.3,1-0.6,2-0.8,3C2,12.1,5.3,9.5,9.3,8.5z"
						/>
				</g>
			</g>
			<g id="Group_160" transform="translate(434.313 393.991)">
				<path id="Path_3205" class="st52" d="M112.5,114.4c0.8-1.9,1.6-3.9,2.4-5.8c0.1,0.7,0.3,1.5,0.4,2.2c-0.5,2.1-1,4.2-1.6,6.6
					C113.2,116.3,112.8,115.3,112.5,114.4z"/>
				<path id="Path_3206" class="st53" d="M105.1,173c0.4,3.9,0.7,7.7,1.1,11.6l0.4,3.9l0.4,4.4c0,1.1,0.1,2.2,0.1,3.4
					c0.6,9.1,1.2,18.2,1.9,27.2c1,13.9,2,27.8,3,41.7l0.3,1.9c0.2,4.4,0.4,8.8,0.7,13.3c1.1,14.9,2.1,29.9,3.2,44.8
					c0.6,8.4,1.3,16.9,2,25.3l0,1.4c0,0.4,0,0.8,0,1.2c0.9,12,1.7,23.9,2.6,35.9c0.1,1.1,0.2,1.9-1.3,1.9l-12.5,0l-0.5-0.2
					c-0.5-3.5-1-7-1.4-10.5c-0.7-5.6-1.4-11.3-2.1-16.9c-0.9-6.9-1.8-13.8-2.7-20.7c-0.7-5.6-1.3-11.3-2.1-16.9
					c-0.9-6.9-1.9-13.8-2.8-20.7s-1.6-13.8-2.5-20.8c-0.9-7.2-1.9-14.3-2.8-21.4c-0.7-5.6-1.4-11.1-2.1-16.7c-0.9-7-1.8-14-2.8-21
					c-0.5-3.4-0.6-6.9-1.5-10.2c-1.5-5.3-7.4-7.9-12.2-4.7c-2.1-0.5-3.2,0.4-3.5,2.5c-0.1,0.6-0.2,1.3-0.2,1.9
					c-0.6,8.6-1.3,17.2-1.9,25.9c-0.6,8.2-1.1,16.4-1.6,24.7l-0.2,1.9L63,283.6L61.6,302l-0.6,8.7c-0.5,6.1-0.9,12.3-1.4,18.4
					l-1.5,21.3l-0.2,1.9c-0.4,4.5-0.7,9-1.1,13.6c-0.5,6.3-0.9,12.7-1.4,19l-0.6,5.7l-2.1,0.3l-12.6,0l-0.5-0.2
					c-0.2-10.2-0.4-20.5-0.5-30.7c-0.2-31.2-0.4-62.5-0.5-93.7c0-10.9,0-21.8,0-32.7c0-2.1-0.1-4.2,0-6.3c0.6-9.1,1.2-18.3,1.9-27.4
					c0.3-3.5,0.7-7,1.3-10.5c0.8-5.2,1.9-10.4,2.9-15.9H35l0.3-0.5c7.5,0,15,0.1,22.5,0.1C73.6,173.1,89.4,173.1,105.1,173z"/>
				<path id="Path_3207" class="st52" d="M105.1,173c-15.8,0-31.6,0.1-47.4,0.1c-7.5,0-15-0.1-22.5-0.1c0-0.1,0-0.3,0.1-0.4h8.7
					c-0.2-3.1-0.4-5.7-0.5-8.3c0-0.1,0.1-0.2,0.1-0.3c1.3-0.7,2.6-1.3,3.8-2.1c6.9-4.3,13.6-8.7,18.8-15c2.8-0.5,5.5-1.3,8.1-2.1
					c1.1-0.6,1.9-1.7,2-3c-0.2-3.6-0.9-7.1-1.4-10.7c-0.2-1.6-1.1-2.5-2.8-2.2l-1.9-0.2c-2.3-10.2-5.7-20.2-10-29.8
					c-4.2-9.7-9-19.1-13.4-28.7c-0.3-0.6-1.8-1.6,0.1-2.2l34,24.6l2.5-24.1c7,2.1,14,4,20.8,6.3c3.8,1.3,6.5,4.6,7,8.6
					c1,6.2,1.8,12.5,2.7,18.7l-6.8,0c-0.9-2.3-0.2-5.2-2-7.2l-0.9,0.2v6.9c-2.6-0.4-3.7,0.9-4.4,3.3c-0.8,2.9-2,5.6-3,8.4
					c-3.3,0.3-1.2,2.4-1.3,3.7l-1.5,3.5l-1.9-0.1l0.6,3.9l-1.8,4.5l5,0.2l9.1,5.2c-1,4.6-2.3,9.2-2.9,13.9c-0.5,4.1-1,8.4,3.1,11.4
					C105.2,164.5,105.2,168.8,105.1,173z"/>
				<path id="Path_3208" class="st54" d="M36.1,56.5c-0.9-3-3-5.4-5.8-6.7c-4.3-1.9-5.4-6.3-2.4-10c1.9-2.3,2.7-4.6,1.8-7.6
					c-0.8-2.6,0.5-4.7,2.7-6.2c1.9-1.2,3.2-3.3,3.5-5.5c1.1-7.2,5-9.9,11.4-10.9c1.7-0.2,3.3-1.2,4.2-2.7
					c6.7-10.4,21.3-7.8,26.5-1.5c0.8,0.9,1.7,1.6,2.8,2.1c3.9,1.9,6.4,4.8,7.2,9.1c0.2,2.3,1.5,4.3,3.4,5.6c2.5,1.6,2.9,4.3,3.2,7
					c0.3,2.7,1.6,5.1,3.7,6.8c4.7,4,3.5,10.3-2.3,12.9c-1,0.5-1.8,1.3-2.4,2.3c-1.8,2.8-3.8,5.2-7.5,5.4c-0.8,0.1-1.5,0.8-2.3,1.1
					c-2.2,0.9-5.8,3.6-8,4.4c-0.1-0.2,1.1-2.2,0.9-2.4l-0.5-4.8c1.7-2.5,6.3-23.1,5.3-23.8c0-1,0-2.1-0.2-3.1
					c-0.1-1.6-0.4-3.1-1-4.5c-1.1-1.8-2.3-3.5-3.7-5.1c-2.8,1.1-5.6,2.2-8.5,3.3c-1.6,0.6-3.5,0.9-4.9,1.9
					c-3.2,2.3-6.5,3.8-10.5,3.3V35c-2.4-2-4.1-2.4-5.8-1.3c-1.7,1.1-2.2,3.2-1.5,5.6c0.6,2.3,2.3,4.2,4.5,5
					c-0.2,2.2,0.6,3.6,2.9,3.7l-0.6,12.4l-1.9-0.4l-2.8-1.2c-0.7-0.3-1.4-0.5-2.2-0.5C42,58.8,38.8,58.8,36.1,56.5z"/>
				<path id="Path_3209" class="st55" d="M35,173.5h9.9c-1,5.5-2.1,10.7-2.9,15.9c-0.6,3.5-1,7-1.3,10.5c-0.7,9.1-1.3,18.3-1.9,27.4
					c-0.1,2.1,0,4.2,0,6.3c0,10.9,0,21.8,0,32.7c0.1,31.2,0.3,62.5,0.5,93.7c0.1,10.2,0.3,20.5,0.5,30.7l-3,0.2l-2.2-0.2l-0.3-5.7
					l-0.8-18.9L33,352.5l0-1.9l-0.7-21.3c-0.2-6.2-0.5-12.3-0.7-18.5l-0.2-8.7c-0.2-6.2-0.5-12.3-0.7-18.5c-0.2-5.5-0.4-11-0.5-16.5
					l0-1.9c-0.2-4.4-0.3-8.7-0.5-13.1c-0.1-6.2-0.1-12.3-0.2-18.5l0.3-8.7c0.5-6.2,0.9-12.3,1.4-18.5l1-10.1l0.3-3.3l0.6-4.5
					l0.5-3.7L35,173.5z"/>
				<path id="Path_3210" class="st56" d="M4.8,161.3c-3.1-0.9-5.1-3.8-4.8-7c0.1-14.5,0.2-29.1,0.5-43.6c0-2.6,1.3-4.9,3.4-6.4
					c0.7-0.6,1.2-1.5,1.3-2.4c0.3-10.5,0.4-21,0.6-31.5c0.1-6.2,3.7-10.2,9.9-10.5c5.1-0.2,10.2,0,15.3,0l-0.8,2.9
					c-9.7,1-14.3,5.9-11.8,12.4c-3,2.3-5.1,5.2-5.3,9.1c-0.5,13.3-1,26.5-1.5,39.8c-0.1,1.6,0.5,2.2,2,2.1
					c-0.4,8.4,8.5,37.5,9.6,38.3c-5.6,0.3-11.3,0.9-16.4-2.3c-1.3-2.8-2.7-5.5-2.6-8.9c0.4-7.2,0.4-14.3,0.6-21.5
					c0.1-5.8,0.3-11.6,0.5-17.4c0.1-2.7,0-5.4,0-8.2l-0.7,0c-0.3,1.5-0.6,2.9-0.7,4.4c-0.1,6.9,0.1,13.9-0.1,20.8
					C3.6,141.3,2.1,151.4,4.8,161.3z"/>
				<path id="Path_3211" class="st57" d="M18.4,75.1c-2.5-6.5,2.1-11.3,11.8-12.4l0.8-2.9l5-3.4c2.8,2.3,6,2.3,9.3,1.9
					c0.7,0,1.5,0.2,2.2,0.5c-3.4,0.2-6.8,0.5-10.2,0.5c-2.6,0-3.4,0.5-3.6,3.1h17.2l-0.6-2.4l1.9,0.4c0.3,5.6,0.1,5.9-5.4,7.5
					c-1.9,0.6-0.4,1.6-0.1,2.2c4.5,9.6,9.2,19,13.4,28.7c4.4,9.5,7.7,19.5,10,29.8l-8.2,0.5c-2.8-8.2-5.4-16.6-8.4-24.7
					c-4-11.3-9.4-22.1-16-32.2c-0.5-0.7-1.5-1.7-2.1-1.6c-5,1.1-10,2.4-15,3.7L18.4,75.1z"/>
				<path id="Path_3212" class="st36" d="M95.5,117.6c0-1.4-2-3.5,1.3-3.7c2.4,3.4,4.2,7.3,8.5,8.9c0-0.7-0.2-1.4-0.5-2
					c-1.5-2.3-3-4.5-4.4-6.9c-0.4-0.7-1.1-1.4-0.5-2.7s2.3,0.2,2.9,0.8c1.9,2.2,3.6,4.7,5.4,7c0.4,0.6,0.8,1.2,1.2,1.8
					c0.5-0.7,0.7-1.1,0.5-1.5c-1.2-3-2.5-5.9-3.6-8.9c-0.2-0.6-0.5-1.7,0.2-2.3s1.6,0.4,2,0.8c1.5,1.7,2.7,3.6,4.1,5.4
					c0.4,1,0.7,1.9,1.2,3c0.6-2.4-0.4-6.6,1.6-6.6s2,7.7,2.1,11.7c0.2,6.6,0.9,13.1,1.3,19.7c0.3,4.6,0.2,9.2-2.2,13.4
					c-1.1,0.3-2.2,0.5-3.3,0.8c-4.4,1.1-7.2-0.7-8.1-5.1c-0.9-4.8,0.3-9.4,1.6-13.9c0.5-1.7,0.2-2.6-1.3-3.6
					c-5.3-3.3-10.7-6.6-13.4-12.6c-0.1-0.7,1.2-0.3,1.9,0.1s5.1,6.3,7,6.4L95.5,117.6z"/>
				<path id="Path_3213" class="st36" d="M120.2,404.8c0.8,3.7,3.4,5.4,6.7,6.4l5,1.9l2.9,1.4c-1.1,2-2.1,4-3.3,5.8
					c-0.5,0.8-1.3,1.4-2.2,1.6c-3.5,0.1-7.1,0-10.6-0.1c-7-3.3-9.6-9.2-9.7-16.5L120.2,404.8z"/>
				<path id="Path_3214" class="st39" d="M112.5,114.4c-1.4-1.8-2.6-3.6-4.1-5.4c-0.4-0.5-1-1.3-2-0.8c-0.5,0.4-0.5,1.7-0.2,2.3
					c1.1,3,2.4,5.9,3.6,8.9c0.2,0.4,0,0.9-0.5,1.5c-0.4-0.6-0.8-1.2-1.2-1.8c-1.8-2.4-3.4-4.8-5.4-7c-0.6-0.6-2.4-2-2.9-0.8
					c-0.3,0.9-0.1,2,0.5,2.7c1.4,2.4,3,4.6,4.4,6.9c0.4,0.6,0.5,1.3,0.5,2c-4.3-1.6-6.1-5.5-8.5-8.9c1-2.8,2.2-5.6,3-8.4
					c0.7-2.4,1.9-3.6,4.4-3.3h2.9l6.8,0l2.7,0.3l-1.8,6.1C114,110.5,113.2,112.4,112.5,114.4z"/>
				<path id="Path_3215" class="st37" d="M92.1,121.1c2.7,6.1,8.1,9.4,13.4,12.6c1.5,0.9,1.8,1.8,1.3,3.6c-1.3,4.5-2.5,9.1-1.6,13.9
					c0.9,4.4,3.6,6.3,8.1,5.1c1.1-0.3,2.2-0.5,3.3-0.8c-1.8,3.7-4.3,5.1-8.6,4.9c-0.9,0-1.7-0.2-2.6-0.3c-4.2-2.9-3.7-7.3-3.1-11.4
					c0.6-4.7,1.9-9.2,2.9-13.9l-9.1-5.2c-1.2-1.5-2.2-3.1-3.2-4.8C91.4,122.8,92.3,122.4,92.1,121.1z"/>
				<path id="Path_3216" class="st57" d="M23.3,164.4l-3.4-2.6l15.5-4.9l-0.4,7.6L23.3,164.4z"/>
				<path id="Path_3217" class="st57" d="M4.8,161.3c-2.8-9.9-1.3-19.9-1.1-29.9c0.1-6.9,0-13.9,0.1-20.8c0.1-1.5,0.3-3,0.7-4.4
					l0.7,0c0,2.7,0,5.4,0,8.2c-0.1,5.8-0.3,11.6-0.5,17.4c-0.2,7.2-0.2,14.3-0.6,21.5c-0.2,3.4,1.3,6,2.6,8.9L4.8,161.3z"/>
				<path id="Path_3218" class="st58" d="M34.9,164.5l0.4-7.6l7.4-3.3c0.2,1.8,0.3,3.7,0.5,5.5l-0.5,0.7c-2.5,1.8-4.9,3.6-7.4,5.4
					L34.9,164.5z"/>
				<path id="Path_3219" class="st58" d="M43.6,164.2c0.2,2.6,0.3,5.2,0.5,8.3h-8.7c0-1.3-0.1-2.5-0.1-3.8L43.6,164.2z"/>
				<path id="Path_3220" class="st57" d="M43.6,164.2l-8.3,4.5c-1.7-1.2-0.9-2.3,0-3.5l7.4-5.4l1,4C43.6,164,43.6,164.1,43.6,164.2z
					"/>
				<path id="Path_3221" class="st41" d="M120.2,404.8l-11.2,0.5h-3.2c0.4,1.1,0.7,2,1,2.8c1.3,2.9,2.7,5.9,4,8.8
					c2.3,5.2,2.3,5.2,7.8,4.9c3.5,0.1,7.1,0.2,10.6,0.1c0.9-0.2,1.7-0.8,2.2-1.6c1.2-1.9,2.2-3.9,3.3-5.8l7.5,2.2
					c-1.1,1.7-2.3,3.4-3.7,5.5h11.3c3.1,0.7,0.2,2.3,0.5,3.4c-1.1,0.5-2.2,0.8-3.4,1c-7.3,0.1-14.7,0.1-22,0c-1.5-0.2-3-0.6-4.4-1.1
					c-1.8,0.5-3.6,0.9-5.5,1c-3.5,0.1-6.9-0.3-10.4-0.4c-1.7-1.9-0.4-4-0.5-6c-0.3-5.3-0.7-10.5-1.1-15.8c-0.1-1.6,0-3.3,0-4.9
					l4.9-0.1l11.7-0.7c1.3-0.2,2.1,0.3,1.8,1.7C121.3,401.9,122.9,404,120.2,404.8z"/>
				<path id="Path_3222" class="st36" d="M149.9,422.2h-11.3c1.5-2.2,2.6-3.8,3.7-5.5c1.5,0.5,3,1,4.6,1.4
					C149.2,418.6,150.2,419.9,149.9,422.2z"/>
				<path id="Path_3223" class="st41" d="M33.4,425.8c-2.3-1-1-2.9-1.2-4.5l7.5,1l15.5-0.9c-0.3,1.5,1.1,3.6-1.4,4.5
					c-6,1.6-12.4,1.8-18.5,0.5l-0.9-0.1l-0.2,0l-0.2,0L33.4,425.8z"/>
				<path id="Path_3224" class="st59" d="M34.4,426.2l0.9,0.1L34.4,426.2z"/>
				<path id="Path_3225" class="st59" d="M33.4,425.8l0.6,0.3l-0.6,0C33.4,426,33.4,425.9,33.4,425.8z"/>
				<path id="Path_3226" class="st55" d="M84.2,283.6c-0.8-5.5-1.6-11-2.5-16.5l-0.4-1.9c-0.7-4.4-1.3-8.7-2-13.1
					c-0.9-6.1-1.9-12.3-2.8-18.4c-1-7-2-14-3.1-20.9c-0.2-0.9-1.3-1.7-2-2.5c4.8-3.3,10.7-0.7,12.2,4.7c0.9,3.3,1.1,6.8,1.5,10.2
					c0.9,7,1.9,14,2.8,21c0.7,5.6,1.4,11.1,2.1,16.7c0.9,7.2,1.9,14.3,2.8,21.4c0.9,6.9,1.6,13.8,2.5,20.8s1.9,13.8,2.8,20.7
					c0.7,5.6,1.4,11.3,2.1,16.9c0.9,6.9,1.8,13.8,2.7,20.7c0.7,5.6,1.4,11.3,2.1,16.9c0.5,3.5,1,7,1.4,10.5l-4.9,0.2
					c-1.5,0.1-1.6-0.9-1.8-2c-1.5-10.1-3-20.2-4.5-30.4c-0.3-2.1-0.7-4.1-1.1-6.2l-0.3-2c-1-7.1-2.1-14.2-3.1-21.3
					c-0.9-6.1-1.9-12.3-2.8-18.4l-1.3-8.8L84.2,283.6z"/>
				<path id="Path_3227" class="st36" d="M119.8,398.6l-11.7,0.7c-0.3-2.8-0.6-5.6-1-8.4l12.5,0
					C119.7,393.5,119.8,396.1,119.8,398.6z"/>
				<path id="Path_3228" class="st36" d="M52.8,391l0,2.7c-0.2,1.6-0.3,3.3-0.5,4.9l-12.1-0.1c0-2.5,0-5,0-7.5L52.8,391z"/>
				<path id="Path_3229" class="st37" d="M107.2,390.9c0.3,2.8,0.6,5.6,1,8.4l-4.9,0.1c-0.5-2.8-1-5.7-1.5-8.5l4.9-0.2L107.2,390.9z
					"/>
				<path id="Path_3230" class="st37" d="M40.3,391c0,2.5,0,5,0,7.5l-2.9,0l-0.5-4.8c0-0.9,0-1.8,0-2.7l3-0.2L40.3,391z"/>
				<path id="Path_3231" class="st36" d="M62.1,129.2l8.2-0.5l1.9,0.2c0.3,1.4,1.3,3-0.5,3.4c0.5,0.8,1.2,1.4,1.3,2.2
					c0.1,0.6-0.6,1.3-1,2c2.2,1.2,2.3,2.2,0.8,3.4c0.2,1,0.8,2.1,0.5,2.4c-0.9,1-2,1.6-3.2,2c-3.1,0.4-6.3,0.3-9.4,0.6
					c-1.7,0.1-3.5,0.5-5.1,1c-10.3,3.9-20.6,7.9-30.8,12c-4.5,1.5-9.3-0.6-11.2-5c-0.3-0.6-0.7-1.2-1.1-1.7l1.1-25.2l2.8-0.2l17,0.2
					c-0.2,3.1-0.4,6.2-0.5,9.4c0.2,1.2-0.6,2.2-1.8,2.4c-0.1,0-0.1,0-0.2,0c-1.8,0.5-3.6,1.1-5.4,1.9l0.1,0.5l9.7-2.1l6.2-1.4
					C48.9,135.2,56.6,135.2,62.1,129.2z"/>
				<path id="Path_3232" class="st37" d="M12.6,151.2c0.4,0.5,0.8,1.1,1.1,1.7c1.8,4.3,6.7,6.5,11.2,5c10.2-4.1,20.5-8,30.8-12
					c1.7-0.6,3.4-0.9,5.1-1c3.1-0.3,6.3-0.2,9.4-0.6c1.2-0.3,2.4-1,3.2-2c0.3-0.2-0.3-1.4-0.5-2.4c1.5-1.2,1.3-2.2-0.8-3.4
					c0.4-0.7,1.1-1.4,1-2c-0.1-0.8-0.8-1.4-1.3-2.2c1.9-0.5,0.9-2,0.5-3.4c1.8-0.4,2.6,0.6,2.8,2.2c0.5,3.5,1.2,7.1,1.4,10.7
					c-0.1,1.3-0.9,2.4-2,3c-2.7,0.9-5.4,1.6-8.1,2.1c-1.5-0.1-3.1-0.1-4.6-0.1c-1.6,0.2-3.2,0.5-4.8,0.9l-14.2,5.9l-7.4,3.3
					c-5.1,1.6-12.5,5.4-15.5,4.9C11,160.1,12.4,151.6,12.6,151.2z"/>
				<path id="Path_3233" class="st57" d="M56.9,147.7c1.6-0.4,3.2-0.7,4.8-0.9c1.5-0.1,3.1,0,4.6,0.1c-5.3,6.3-12,10.7-18.8,15
					c-1.2,0.8-2.5,1.4-3.8,2.1l-1-4c0.2-0.2,0.4-0.5,0.5-0.7L56.9,147.7z"/>
				<path id="Path_3234" class="st39" d="M95.5,117.6l5.5,9.9c-1.9-0.1-4.6-2.5-7-6.4C94.5,120,95,118.8,95.5,117.6z"/>
				<path id="Path_3235" class="st58" d="M107.2,102.2h-2.9v-6.9l0.9-0.2C107,96.9,106.3,99.9,107.2,102.2z"/>
				<path id="Path_3236" class="st39" d="M92.7,125c1.1,1.6,2.2,3.2,3.2,4.8l-5-0.2L92.7,125z"/>
				<path id="Path_3237" class="st56" d="M50.3,60.1l0.6,2.4H33.7c0.2-2.6,1.1-3.1,3.6-3.1c3.4,0,6.8-0.3,10.2-0.5L50.3,60.1z"/>
				<path id="Path_3238" class="st37" d="M76.6,60c-3.1,0.9-6.5,0.5-9.3-1c-1.7-0.7-3.5-1.2-5.2-1.7c-0.8-0.3-1.6-0.8-2.2-1.4
					c5.3,2,11.2,1.7,16.2-0.8L76.6,60z"/>
				<path id="Path_3239" class="st60" d="M67.7,47.5h7.8c0,2-1.6,2.4-2.9,2.6C70.6,50.6,69.1,49.6,67.7,47.5z"/>
				<path id="Path_3240" class="st61" d="M47.1,35.2c1-0.1,2.4-0.6,2.9-0.1c1,1.2,1.6,2.7,1.8,4.2c-1.1-1.9-1.4-4.5-4.8-3.2
					L47.1,35.2z"/>
				<path id="Path_3241" class="st58" d="M16.4,125.8l-2.8,0.2c-1.5,0.2-2.1-0.5-2-2.1c0.5-13.3,1-26.5,1.5-39.8
					c0.2-3.9,2.3-6.8,5.3-9.1l2.3-0.7c-3.6,4.8-4.5,10.2-4.4,16.1C16.6,102.3,16.4,114,16.4,125.8z"/>
				<path id="Path_3242" class="st52" d="M16.4,125.8c0-11.8,0.2-23.5-0.1-35.3c-0.1-5.9,0.8-11.3,4.4-16.1c5-1.3,10-2.6,15-3.7
					c0.6-0.1,1.6,0.9,2.1,1.6c6.6,10,12,20.8,16,32.2c3,8.2,5.6,16.5,8.4,24.7c-5.5,6.1-13.3,6.1-20.5,7.5
					c-0.3-3.4-0.7-6.9-0.9-10.3c-0.5-8.4-1-16.8-1.6-25.3c-0.1-1.1-0.9-2.1-1.5-3.2c-0.4,1.1-1.3,2.1-1.3,3.2
					c-0.1,7.5,0,15-0.1,22.5c-0.2,0.8-0.5,1.6-1,2.3l-1.9,0L16.4,125.8z"/>
				<path id="Path_3243" class="st37" d="M118.8,421.8c-5.6,0.3-5.6,0.3-7.8-4.9c-1.3-3-2.7-5.9-4-8.8c-0.4-0.8-0.6-1.6-1-2.8h3.2
					C109.2,412.6,111.7,418.5,118.8,421.8z"/>
				<path id="Path_3244" class="st52" d="M56.9,147.7l-13.8,11.4c-0.2-1.8-0.3-3.7-0.5-5.5L56.9,147.7z"/>
				<path id="Path_3245" class="st41" d="M52.8,412.1l0.4,0.6c0.5,2.1,1.1,4.3,1.6,6.4c-1.4-0.5-2.8-1.4-4.2-1.5
					c-4.6-0.2-9.1,0-13.7,0l-4,0.8c0.8-2.1,1.7-4.1,2.5-6.2l0,0l4.2-1L52.8,412.1z"/>
				<path id="Path_3246" class="st36" d="M36.9,417.6c4.6,0,9.1-0.2,13.7,0c1.4,0.1,2.8,1,4.2,1.5c0.1,0.8,0.3,1.5,0.4,2.3
					l-15.5,0.9C37.5,421.5,36.2,420.2,36.9,417.6z"/>
				<path id="Path_3247" class="st37" d="M36.9,417.6c-0.7,2.5,0.6,3.9,2.8,4.7l-7.5-1c0.1-0.7,0.2-1.4,0.3-2.1
					c0.2-0.3,0.3-0.6,0.5-0.9l0,0L36.9,417.6z"/>
				<path id="Path_3248" class="st62" d="M32.9,418.4c-0.2,0.3-0.3,0.6-0.5,0.9L32.9,418.4z"/>
				<path id="Path_3249" class="st41" d="M36.9,404.4l0.4-5.9l2.9,0l12.1,0.1c0,1.9,0,3.9,0,5.8l-12,0.1L36.9,404.4z"/>
				<path id="Path_3250" class="st58" d="M35.3,126c0.5-0.7,0.8-1.5,1-2.3c0.1-7.5,0-15,0.1-22.5c0-1.1,0.8-2.2,1.3-3.2
					c0.5,1.1,1.4,2.1,1.5,3.2c0.6,8.4,1,16.8,1.6,25.3c0.2,3.4,0.6,6.9,0.9,10.3l-6.2,1.4L35.3,126z"/>
				<path id="Path_3251" class="st37" d="M35.3,126l0.1,12.1l-9.7,2.1l-0.1-0.5c1.8-0.8,3.6-1.4,5.4-1.9c1.2-0.1,2.1-1,2-2.2
					c0-0.1,0-0.1,0-0.2c0.1-3.1,0.3-6.2,0.5-9.4L35.3,126z"/>
				<path id="Path_3252" class="st63" d="M71.2,33.8c0.1,0.7,0.2,1.4,0.4,2.1c0.6,2.4-0.7,4.8-3,5.7c-2.2,0.9-4.7,0.1-6-1.8
					c-1.2-2-1.1-4.5,0.4-6.3c1.7-1.8,4.4-2.1,6.4-0.8C70,33.2,70.7,33.5,71.2,33.8L71.2,33.8z M69.5,37.9c-1-0.7-1.6-1.4-2.1-1.4
					s-1.5,1.1-1.4,1.5c0.3,0.7,0.9,1.3,1.6,1.5C68,39.6,68.6,38.6,69.5,37.9z"/>
				<path id="Path_3253" class="st36" d="M40.3,404.5l12-0.1c0.2,2.6,0.3,5.2,0.5,7.7l-13.1-1L40.3,404.5z"/>
				<circle id="Ellipse_321" class="st52" cx="82.4" cy="45" r="3.4"/>
				<path id="Path_3254" class="st37" d="M40.3,404.5l-0.5,6.7l-4.2,1c0.5-2.6,0.9-5.2,1.4-7.8L40.3,404.5z"/>
				<path id="Path_3255" class="st36" d="M82.4,68c-4.8-1.7-5.6-7.8-5.8-8c-3.1,0.9-6.5,0.5-9.3-1c-1.7-0.7-3.5-1.2-5.2-1.7
					c-0.8-0.3-1.6-0.8-2.2-1.4c5.3,2,11.2,1.7,16.2-0.8l0.1-0.1c1.8-2.1,3.4-4.3,4.8-6.7c0.1-0.2,0.1-0.3,0.2-0.5l0.1-0.1l0.1-0.5
					c0.2-0.9,0.3-1.8,0.3-2.6c0.1-0.6,0.1-1.1,0.1-1.7c0.2-5.7-0.4-13.5-0.4-13.5l0,0c0-0.4,0-0.8-0.1-1.2c-0.1-1.6-0.4-3.1-1-4.5
					c-1.1-1.8-2.3-3.5-3.7-5.1c-2.8,1.1-5.6,2.2-8.5,3.3c-1.6,0.6-3.5,0.9-4.9,1.9c-3.2,2.3-6.5,3.8-10.5,3.3V35
					c-2.4-2-4.1-2.4-5.8-1.3c-1.7,1.1-2.2,3.2-1.5,5.6c0.6,2.3,2.3,4.2,4.5,5c1.1-1.5,2.4-2.4,4.2-1.1c1.9,1.4,1.3,3.7-1.3,4.9
					c-0.2,4.1-0.4,8.3-0.6,12.4c0.3,5.6,0.1,5.9-5.4,7.5l34,24.6c0.9-8.3,1.7-16.2,2.5-24.1C83.1,68.4,82.7,68.2,82.4,68z M47,36.1
					l0.2-0.9c1-0.1,2.4-0.6,2.9-0.1c1,1.2,1.6,2.7,1.8,4.2C50.7,37.4,50.4,34.7,47,36.1L47,36.1z"/>
				<circle id="Ellipse_322" class="st52" cx="52.3" cy="45.5" r="3.4"/>
				<circle id="Ellipse_323" class="st50" cx="63.9" cy="34.2" r="2.2"/>
				<circle id="Ellipse_324" class="st2" cx="63" cy="33.2" r="0.8"/>
				<circle id="Ellipse_325" class="st50" cx="76.9" cy="34.2" r="2.2"/>
				<circle id="Ellipse_326" class="st2" cx="75.9" cy="33.2" r="0.8"/>
				<path id="Path_3256" class="st37" d="M71.1,34.3c0,0,3.4,5.5,4,6s-3,1.9-3.4,1.3S71.1,35,71.1,35"/>
				<path id="Path_3257" class="st2" d="M66.4,45.9l8.7,0.7C75.1,46.6,72.1,53.3,66.4,45.9z"/>
			</g>
			
				<radialGradient id="Ellipse_327_1_" cx="446.7161" cy="840.3812" r="1.031" gradientTransform="matrix(27.8781 7.1062 7.1062 -27.8781 -18110.4316 20373.334)" gradientUnits="userSpaceOnUse">
				<stop  offset="0.255" style="stop-color:#FFFFFF;stop-opacity:0"/>
				<stop  offset="0.319" style="stop-color:#F6FBFE;stop-opacity:3.900000e-02"/>
				<stop  offset="0.426" style="stop-color:#E1F1FE;stop-opacity:0.141"/>
				<stop  offset="0.563" style="stop-color:#BDE1FE;stop-opacity:0.31"/>
				<stop  offset="0.724" style="stop-color:#8CCAFD;stop-opacity:0.541"/>
				<stop  offset="0.905" style="stop-color:#4EAEFC;stop-opacity:0.835"/>
				<stop  offset="1" style="stop-color:#2B9EFC"/>
			</radialGradient>
			<circle id="Ellipse_327" class="st64" cx="324.5" cy="107.8" r="14.4"/>
			
				<radialGradient id="Ellipse_328_1_" cx="460.7307" cy="850.0311" r="1.031" gradientTransform="matrix(20.2877 -58.6297 -58.6297 -20.2877 40943.3242 44391.6367)" gradientUnits="userSpaceOnUse">
				<stop  offset="0.255" style="stop-color:#FFFFFF;stop-opacity:0"/>
				<stop  offset="0.319" style="stop-color:#F6FBFE;stop-opacity:3.900000e-02"/>
				<stop  offset="0.426" style="stop-color:#E1F1FE;stop-opacity:0.141"/>
				<stop  offset="0.563" style="stop-color:#BDE1FE;stop-opacity:0.31"/>
				<stop  offset="0.724" style="stop-color:#8CCAFD;stop-opacity:0.541"/>
				<stop  offset="0.905" style="stop-color:#4EAEFC;stop-opacity:0.835"/>
				<stop  offset="1" style="stop-color:#2B9EFC"/>
			</radialGradient>
			<circle id="Ellipse_328" class="st65" cx="611.3" cy="51.6" r="31"/>
			<g id="Group_161" transform="translate(78.312 2.606)" class="st66">
				
					<linearGradient id="Path_3258_1_" gradientUnits="userSpaceOnUse" x1="373.2062" y1="840.9869" x2="374.1623" y2="840.9869" gradientTransform="matrix(43.9843 0 0 -46.6649 -16414.2402 39267.9063)">
					<stop  offset="0" style="stop-color:#FFFFFF;stop-opacity:0"/>
					<stop  offset="1" style="stop-color:#FFFFFF"/>
				</linearGradient>
				<path id="Path_3258" class="st67" d="M0.3,1.8l36.6,38.9l5.3,5.7c0.9,1,2.4-0.5,1.5-1.5L7.1,6L1.8,0.3C0.8-0.7-0.6,0.8,0.3,1.8
					L0.3,1.8z"/>
			</g>
			<g id="Group_162" transform="translate(19.701 80.381)" class="st68">
				
					<linearGradient id="Path_3259_1_" gradientUnits="userSpaceOnUse" x1="434.426" y1="762.8699" x2="435.408" y2="762.8699" gradientTransform="matrix(58.6143 0 0 -67.9191 -25463.041 51847.4141)">
					<stop  offset="0" style="stop-color:#FFFFFF;stop-opacity:0"/>
					<stop  offset="1" style="stop-color:#FFFFFF"/>
				</linearGradient>
				<path id="Path_3259" class="st69" d="M0.2,1l50.2,58.3l7.2,8.4c0.5,0.6,1.4-0.3,0.8-0.8L8.2,8.6L1,0.2C0.5-0.4-0.4,0.5,0.2,1
					L0.2,1z"/>
			</g>
			<g id="Group_163" transform="translate(189.206 17.764)" class="st70">
				
					<linearGradient id="Path_3260_1_" gradientUnits="userSpaceOnUse" x1="264.9372" y1="825.5452" x2="265.9193" y2="825.5452" gradientTransform="matrix(58.7355 0 0 -63.0221 -15560.7012 52059.0781)">
					<stop  offset="0" style="stop-color:#FFFFFF;stop-opacity:0"/>
					<stop  offset="1" style="stop-color:#FFFFFF"/>
				</linearGradient>
				<path id="Path_3260" class="st71" d="M0.2,1l57.6,61.8c0.5,0.6,1.4-0.3,0.8-0.8L1,0.2C0.5-0.4-0.4,0.5,0.2,1L0.2,1z"/>
			</g>
			<g id="Group_164" transform="translate(292.669 8.374)" class="st72">
				
					<linearGradient id="Path_3261_1_" gradientUnits="userSpaceOnUse" x1="161.5155" y1="834.9321" x2="162.4975" y2="834.9321" gradientTransform="matrix(59.0457 0 0 -63.2652 -9536.2588 52853.7852)">
					<stop  offset="0" style="stop-color:#FFFFFF;stop-opacity:0"/>
					<stop  offset="1" style="stop-color:#FFFFFF"/>
				</linearGradient>
				<path id="Path_3261" class="st73" d="M0.2,1l57.9,62c0.5,0.6,1.4-0.3,0.8-0.8L1,0.2C0.5-0.4-0.4,0.5,0.2,1z"/>
			</g>
			
				<linearGradient id="Path_3262_1_" gradientUnits="userSpaceOnUse" x1="407.7963" y1="848.2836" x2="408.7963" y2="848.2836" gradientTransform="matrix(8.5234 0 0 -8.818 -3087.2729 7522.1777)">
				<stop  offset="0" style="stop-color:#FFFFFF;stop-opacity:0"/>
				<stop  offset="1" style="stop-color:#FFFFFF"/>
			</linearGradient>
			<path id="Path_3262" class="st74" d="M392.8,37.6c-5.7,0-5.7,8.8,0,8.8S398.5,37.6,392.8,37.6z"/>
			
				<linearGradient id="Path_3263_1_" gradientUnits="userSpaceOnUse" x1="407.7868" y1="848.2836" x2="408.7868" y2="848.2836" gradientTransform="matrix(8.5219 0 0 -8.818 -2742.2563 7518.292)">
				<stop  offset="0" style="stop-color:#FFFFFF;stop-opacity:0"/>
				<stop  offset="1" style="stop-color:#FFFFFF"/>
			</linearGradient>
			<path id="Path_3263" class="st75" d="M737.1,33.7c-5.7,0-5.7,8.8,0,8.8S742.8,33.7,737.1,33.7z"/>
			
				<linearGradient id="Path_3264_1_" gradientUnits="userSpaceOnUse" x1="423.7309" y1="846.5823" x2="424.7309" y2="846.5823" gradientTransform="matrix(12.0724 0 0 -12.493 -4559.897 10758.6396)">
				<stop  offset="0" style="stop-color:#FFFFFF;stop-opacity:0"/>
				<stop  offset="1" style="stop-color:#FFFFFF"/>
			</linearGradient>
			<path id="Path_3264" class="st76" d="M561.6,176c-8,0-8.1,12.5,0,12.5S569.6,176,561.6,176z"/>
			
				<linearGradient id="Path_3265_1_" gradientUnits="userSpaceOnUse" x1="434.8802" y1="845.3917" x2="435.8802" y2="845.3917" gradientTransform="matrix(17.0355 0 0 -17.637 -6930.8003 14968.2646)">
				<stop  offset="0" style="stop-color:#FFFFFF;stop-opacity:0"/>
				<stop  offset="1" style="stop-color:#FFFFFF"/>
			</linearGradient>
			<path id="Path_3265" class="st77" d="M486.1,49.3c-11.3,0-11.4,17.6,0,17.6C497.5,66.9,497.5,49.3,486.1,49.3z"/>
			
				<linearGradient id="Path_3266_1_" gradientUnits="userSpaceOnUse" x1="426.7446" y1="846.261" x2="427.7446" y2="846.261" gradientTransform="matrix(13.1044 0 0 -13.56 -5171.3682 11693.5527)">
				<stop  offset="0" style="stop-color:#FFFFFF;stop-opacity:0"/>
				<stop  offset="1" style="stop-color:#FFFFFF"/>
			</linearGradient>
			<path id="Path_3266" class="st78" d="M427.4,211.5c-8.7,0-8.7,13.6,0,13.6S436.1,211.5,427.4,211.5z"/>
			<path id="Path_3267" class="st36" d="M260.6,444.6c-0.2,0.3-0.3,0.8-0.6,1c-3.7,2.2-5.8,6.3-5.4,10.6c0.1,1.5-2.3,2.3-1.3,5.1
				s5,0.2,7.2,0.3c0.7-0.4,1.9-0.7,2-1.2c1.1-3.1,1.9-6.3,2.4-9.6c0.2-1.8-0.6-3.9-1.3-5.6C263.3,444.6,261.6,444.7,260.6,444.6z"/>
			<path id="Path_3268" class="st79" d="M131.3,399.9l0.6-0.6L131.3,399.9z"/>
			<path id="Path_3269" class="st80" d="M249.9,803l-3,0L249.9,803z"/>
			<g id="Group_166" transform="translate(173.927 359.544)">
				<path id="Path_3270" class="st81" d="M19,82.3c-1.8-0.1-3.7-0.1-5.5-0.4c-4.6-0.7-6.4-2.7-6.7-7.4c-0.1-1.5-0.1-3-0.2-4.4
					l-3.1,3.4L3,73.9l0,0c0.1,2.8-0.2,5.8,0.4,8.5c1.3,5.6,3,11.1,4.6,16.7c0.2,0,0.4,0,0.6,0c4.3-3.6,9.6-4.6,14.8-5.6l-1.5-5.5
					L19,82.3z"/>
				<g id="Group_165">
					<path id="Path_3271" class="st82" d="M44.9,78.1V70c2.5,0.9,4.9,2.4,7.5,2.7c5.3,0.6,9.6-2.7,12.4-8.8c1.2,0.2,2.4,0.4,3.6,0.6
						c6.5,1.1,13.1,2.2,19.6,3.3c-0.3,6.2-0.6,12.4-0.9,18.6c0.6,2.9,1.4,5.8,2.4,8.6c1.8,4.6,3.7,9.1,3.1,14.1h-7.8l-2.1,0v-6.2
						H66.8l0.3-2.1l2.6-0.2l-2.6,0.2c0-0.4,0.1-0.8,0.1-1.1c-1.3-2.5-1.3-5.4,0-7.9c0.7-1.2,1.2-2.5,1.5-3.9c0-0.9-0.4-1.8-1.1-2.4
						c-0.3-0.3-1.8,0.3-2.2,0.8c-1.3,1.7-2.2,9.5-3.4,11.5c-1.2-0.8-7.2-6.1-8.3-6.7c0.8-0.8,6.2-3,7.6-4.3l-4.2-1.2
						c1-2.3,5-2.3,4.2-6.1c-1.5,0.4-4.1,4.5-5.7,5c-0.2-2.3,3.7-8.4,0.8-10.8c-2.1,3.7-3.8,7-3.2,11.6c0.2,1.2,4.9,15.1,4.6,16.3
						c-1,4-20.6,15.1-23.4,17.7c-0.4-1.1-0.8-2-1.1-2.9c-2.7-8.3-5.4-16.7-8.2-25c-0.5-1.3-2-2.3-3.1-3.4C20.9,86,20,84.2,19,82.3
						L44.9,78.1z"/>
					<path id="Path_3272" class="st83" d="M87.9,67.8l1.1,0c-0.8-2.2-1.2-4.7-2.6-6.6c-2.3-3.2-3.6-6.3-2.5-10.3
						c0.4-1.7-0.3-4-1.1-5.6c-1.2-2.4-2.5-4.4-1-7.2c1.2-2.3,0.2-4.5-1.6-6.3c-0.8-0.8-1.8-2-1.8-2.9c0.5-5.1-2.5-9-4.2-13.3
						c-1-2.6-2.9-4.9-4.6-7.3c-3.7-5.4-9-7.6-15.4-8.2C47.5-0.5,41.7,1.7,36,4.8c-3.1,2.4-7.6,4.8-9.4,7.2s-3.3,9.8-5.3,14.6
						c-0.9,1.8-2.2,3.4-3.9,4.6c-3.8,2.9-5.5,6.4-4.9,11.1c0.3,1.4,0.4,2.8,0.3,4.2c-0.5,3-0.6,6.6-2.3,8.9c-2.6,3.6-3.9,8-3.7,12.5
						c0,0.7-0.1,1.5-0.2,2.2c0.1,1.5,0.1,3,0.2,4.4c0.3,4.7,2,6.6,6.7,7.4c1.8,0.3,3.7,0.3,5.5,0.4c8.5-1.4,24.9,1.1,25.8-4.2
						s0-5.4,0-8.1c-0.2-3.5-2.2-6-4.5-8.4c-2.3-2.4-3.1-5.4-1.2-8.1c2.9-4.1,2.3-8.1,1-12.4c-0.3-1.6-1.7-2.8-3.3-2.9
						c-3.6-0.6-6.4-3.6-6.5-7.3c-0.1-2.2,0.6-3.9,2.8-4.6s3.9,0.2,5,2c0.7,1.3,1.3,2.6,1.7,4c1.3-3,2.6-5.7,3.4-8.4
						c0.9-2.9,2.9-5.4,5.6-7c2.6-1.6,5-3.5,7.4-5.3l9.9,12.6c1,0.3,3,11.8,2.6,12.3c0.3,5.3-2.2,9.4-5.8,12.9c0.1,1.7,0.2,3.4,0.4,5
						l1.3,9.5c1.2,0.2,2.4,0.4,3.6,0.6C74.8,65.6,81.4,66.7,87.9,67.8z"/>
					<path id="Path_3273" class="st82" d="M55.7,120.3l-2.5,0.2c0.3-1.6,0.6-3.2,0.8-4.7c1.4,0.3,2.8,0.8,4.2,1l1.7-1.9l12.3-0.3
						c0,9.8,0.1,19.6,0.1,29.5c0,2,0.3,3.8,2.9,3.8l14.4,0.5c0.1,2,0.1,4,0.2,6c0,1,0,2,0.1,3c0.3,4.8,0.6,9.6,0.9,14.4l-55.3-0.1
						l-0.1-23.5C42.1,138.8,48.9,129.5,55.7,120.3z M65.6,116.9L65.6,116.9c0,0.4,0,0.8,0,1.2h0L65.6,116.9z"/>
					<path id="Path_3274" class="st39" d="M100.2,336l-0.5-13c-0.6-21-0.9-42-1.8-63c-0.8-18.1-2.4-36.2-3.6-54.3
						c-0.4-5.9-1.7-19.6-1.9-20.5c-0.6-4.5-1.1-9-1.7-13.5l-55.3-0.1l-2.3,0.2c-0.1,0.7-0.2,1.5-0.3,2.2c-2,8.5-4.6,17-6,25.7
						c-1.8,10.7-3,21.6-3.6,32.5c-0.5,10.6,0.2,21.2,0.4,31.8c0.1,6.8,0.4,13.5,0.5,20.3c0.2,7,0.4,13.9,0.6,20.9
						c0.2,6.5,0.4,13,0.6,19.5c0.2,7,0.4,13.9,0.6,20.9c0.2,6.7,0.4,13.4,0.5,20c0.2,11.8,0.4,23.6,0.6,35.4l10.1,0.3
						c0.4-0.8,0.8-1.7,1-2.6c1.4-17.5,2.8-35,4.1-52.6c0.3-3.5,1.3-14.4,1.6-20c0.2-4.1,0.7-8.3,1.1-12.4c0.4-5.6,0.7-11.3,1.2-16.9
						c0.7-8.1,1.5-16.2,2.1-24.3c0.7-8.2,1.1-16.4,1.7-24.6c0.8-10.5,1.8-21,2.7-31.5c0.3-3.5,0.5-3.8,3.9-3.8
						c0.1-0.3,0.1-0.7,0.3-0.8c3-1.5,8,0.4,8.9,3.6c0.5,1.9,0.8,3.8,1,5.7c1.1,7.1,2.2,14.2,3.2,21.3c1.4,9.8,2.7,19.6,4,29.3
						c1.4,10,2.9,19.9,4.3,29.8c1.4,9.8,2.6,19.6,4,29.3c1.6,11.2,3.3,22.4,4.9,33.7c1.7,12.1,3.4,24.3,5.1,36.4l8.7,0.2
						c0.1-1.8,0.4-3.6,0.4-5.3C101.2,375.9,100.7,356,100.2,336z"/>
					<path id="Path_3275" class="st48" d="M111.5,148.3c3.9,0,7.8,0,11.6-0.2c3.3-0.1,4.1-0.9,4.1-4.1c0-4.2,0-8.3-0.1-12.5
						l-6.9-0.3c0.5-2,1.4-3.4,1.3-4.9c-0.4-4.1,1.6-8.1,5.2-10.2c0.3-0.2,0.4-0.6,0.6-0.9c0-0.7-0.1-1.5-0.1-2.2
						c0.1-2.7-1.3-3.9-3.9-3.9c-6.6,0-13.2-0.1-19.8-0.1h-19l-2.1,0l-7.3,0.3c-0.2,2.8-0.6,5.7-0.6,8.5c-0.1,7.5-0.1,15,0,22.6
						c0,2.5,0.4,5,0.7,7.4l14.4,0.4l14.6,0L111.5,148.3z M101.5,131.1c-1.8,0-3.2-1.4-3.2-3.1c0-0.1,0-0.2,0-0.3
						c-0.1-1.8,1.4-3.3,3.2-3.4c0,0,0.1,0,0.1,0c1.9,0,3.5,1.6,3.5,3.5c0,0,0,0,0,0C105,129.7,103.4,131.2,101.5,131.1
						C101.6,131.1,101.5,131.1,101.5,131.1L101.5,131.1z"/>
					<path id="Path_3276" class="st36" d="M101.1,93.6c-3.1-2-6.7-3-10.4-2.9c0.2,1,0.4,2,0.7,2.9c1.3,5.1,2.6,10.3,3.9,15.4h8.4
						C102.8,103.9,101.9,98.7,101.1,93.6z"/>
					<path id="Path_3277" class="st36" d="M91.2,155.5l2.5,1.7c7.6,0.3,12.8-4,17.8-8.9l-7.3,0C100.8,152.4,96.9,155.6,91.2,155.5z"
						/>
					<path id="Path_3278" class="st84" d="M27,400.8c-0.2-11.8-0.4-23.6-0.6-35.4c-0.1-6.7-0.4-13.4-0.5-20
						c-0.2-7-0.4-13.9-0.6-20.9c-0.2-6.5-0.4-13-0.6-19.5c-0.2-7-0.4-13.9-0.6-20.9c-0.2-6.8-0.4-13.5-0.5-20.3
						c-0.2-10.6-0.9-21.2-0.4-31.8c0.6-10.9,1.8-21.7,3.6-32.5c1.4-8.6,4-17.1,6-25.7c0.1-0.7,0.2-1.5,0.3-2.2l-9.9-0.1
						c-4.8,26.3-9.1,52.5-7.6,79.4c2.1,38.5,3.6,77.1,5.4,115.7c0.5,10.7,1,21.4,1.6,32c0.2,0.8,0.5,1.6,0.9,2.3L27,400.8z"/>
					<path id="Path_3279" class="st85" d="M23.2,171.7l9.9,0.1l2.3-0.2l-0.1-23.5l-2.1,1.4c-3.1,3.1-6.6,2-10.1,0.9
						C23.2,157.4,23.2,164.6,23.2,171.7z"/>
					<path id="Path_3280" class="st37" d="M23.2,150.3c3.5,1.1,6.9,2.2,10.1-0.9c-2.3,0.3-4.8,0.4-6.3-1.6c-1.8-2.4-3.8-4.9-4.9-7.7
						c-2.9-7.7-5.3-15.6-7.9-23.4c-1.9-5.9-3.8-11.8-5.6-17.7c-0.2,0-0.4,0-0.6,0L5.8,103c3.9,13,7.7,26,12,38.9
						C18.8,144.9,21.4,147.5,23.2,150.3z"/>
					<path id="Path_3281" class="st85" d="M22.5,456.8l7.9-0.1c3.6-2,4.7-5.6,4.9-9.2c0.3-7.6,0-15.2,0-22.8
						c-0.3,0.8-0.5,1.7-0.6,2.6c-0.1,4.1,0,8.2,0,12.3c0,3.6-1.4,5.4-4.9,6.5c-5.2,1.4-8.8-2.3-7.8-8c0.8-4.7,1.4-9.5,2.1-14.2
						c-1.3,5.3-2.7,10.5-3.9,15.8c-0.9,3.4-1.4,6.9-1.5,10.3c0,2,1.4,4,2.1,6.1L22.5,456.8z"/>
					<path id="Path_3282" class="st37" d="M24.2,423.9c-0.7,4.7-1.3,9.5-2.1,14.2c-0.9,5.7,2.6,9.3,7.8,8c-2.1-0.6-4.4-1-4.5-3.7
						c0-1.6,0-3.1,0.2-4.7c0.6-6.1,1.4-12.3,1.9-18.4c0.3-4,0.1-8,0-12c0-1.9,0.7-2.9,2.7-3.2c2.1-0.2,4.2-0.7,6.3-1.1l0.6-1.8
						L27,400.8l-3.5,0.3C23.8,408.7,24,416.3,24.2,423.9z"/>
					<path id="Path_3283" class="st79" d="M5.8,103L8,99.1c-1.6-5.6-3.3-11.1-4.6-16.7c-0.6-2.7-0.3-5.7-0.4-8.5
						C0,77-0.4,81,0.4,84.8c1.2,5.8,3.1,11.5,4.8,17.3C5.2,102.4,5.5,102.7,5.8,103z"/>
					<path id="Path_3284" class="st85" d="M89.7,457.2h1.4c0.3-5.4,0.5-10.7,0.8-16.1l0.8-0.3c0.8,0.6,1.5,1.2,2.1,1.8
						c2.2,2.5,4.3,5.1,6.3,7.7c2.1,3,5.1,5.2,8.5,6.4c5.1,0.1,10.1,0.3,15.2,0.4c1-0.1,2-0.2,3-0.5c0.9-2.6-0.9-3.9-2.6-5.1
						c-2.6-1.8-5.3-3.3-7.9-4.9l-0.2,0.1l-2.9,0l0,0c-5.3,0.2-8.4-3.3-11.4-6.9c-4.2-5-8.4-10.1-12.6-15.1c-0.9,1.9-1.6,3.9-2.2,5.9
						C85.7,439.6,88.4,448.3,89.7,457.2z"/>
					<path id="Path_3285" class="st36" d="M117.3,446.6c-4.5-7.9-9.1-15.8-13.3-23.8c-1.3-2.8-2.2-5.8-2.5-8.9
						c-0.3-3.6-0.4-7.2-0.4-10.8c-1.8,0.6-3.7,1.2-5.6,1.6c-1.5,0.1-2.7,1.4-2.6,2.9c0,0.1,0,0.3,0,0.4c0.2,4,0.3,8,0.6,11.9
						c0,1.4,0.4,2.8,1.2,3.9c6.2,7.9,9.6,18.1,19.4,22.9l0,0l2.9,0L117.3,446.6z"/>
					<path id="Path_3286" class="st37" d="M114.2,446.7c-9.8-4.9-13.2-15.1-19.4-22.9c-0.7-1.2-1.1-2.5-1.2-3.9
						c-0.3-4-0.4-7.9-0.6-11.9c-0.3-1.5,0.7-2.9,2.2-3.2c0.1,0,0.3,0,0.4,0c1.9-0.4,3.8-1,5.6-1.6c0-0.6,0.1-1.2,0.1-1.8l-8.7-0.2
						l-5.2-0.1c0.1,1.3,0.3,2.6,0.4,3.9c0.8,6.6,1.7,13.3,2.5,19.9c4.2,5,8.4,10.1,12.6,15.1C105.8,443.4,108.9,446.9,114.2,446.7z"
						/>
					<path id="Path_3287" class="st84" d="M56.6,212.5c0.9,2.6,1.6,5.2,2.1,7.9c2,12.8,3.8,25.6,5.8,38.3
						c1.7,11.4,3.7,22.8,5.4,34.2c1.8,11.6,3.5,23.2,5.2,34.8c0.4,2.7,0.7,5.5,1.1,8.2c1.1,6.8,2.3,13.5,3.3,20.3
						c2.1,13.9,4.2,27.9,6.4,41.8c0.3,1,0.8,2,1.4,2.8l5.2,0.1c-1.7-12.1-3.4-24.3-5.1-36.4c-1.6-11.2-3.3-22.4-4.9-33.7
						c-1.4-9.8-2.6-19.6-4-29.3c-1.4-10-2.9-19.9-4.3-29.8c-1.4-9.8-2.7-19.6-4-29.3c-1-7.1-2.1-14.2-3.2-21.3
						c-0.2-1.9-0.5-3.8-1-5.7c-0.9-3.2-5.9-5.1-8.9-3.6C56.8,211.8,56.7,212.3,56.6,212.5z"/>
					<path id="Path_3288" class="st86" d="M82.4,109.1v-6.2H66.8c-0.4,0.9-0.8,1.9-1.3,2.7c-1.8,3.1-3.7,6.2-5.6,9.3l12.3-0.3
						c0.3-2.1-0.6-5,3-5.3L82.4,109.1z"/>
					<path id="Path_3289" class="st87" d="M75.2,109.4c-3.6,0.3-2.7,3.1-3,5.3c0,9.8,0.1,19.6,0.1,29.5c0,2,0.3,3.8,2.9,3.8
						c-0.2-2.5-0.6-4.9-0.7-7.4c-0.1-7.5-0.1-15,0-22.6C74.6,115.1,75,112.2,75.2,109.4z"/>
					<path id="Path_3290" class="st37" d="M89.6,148.3c0.1,2,0.1,4,0.2,6c0.5,0.4,1,0.8,1.4,1.2c5.7,0,9.5-3.1,13-7.2L89.6,148.3z"
						/>
					<path id="Path_3291" class="st37" d="M87,86.3c0.6,2.9,1.4,5.8,2.4,8.6c1.8,4.6,3.7,9.1,3.1,14.1h2.8
						c-1.3-5.1-2.6-10.3-3.9-15.4c-0.2-1-0.5-1.9-0.7-2.9L87,86.3z"/>
					<path id="Path_3292" class="st88" d="M101.5,131.1c1.9,0.1,3.5-1.3,3.6-3.2c0,0,0,0,0-0.1c0-1.9-1.5-3.5-3.4-3.6c0,0,0,0,0,0
						c-1.8,0-3.3,1.4-3.3,3.3c0,0,0,0.1,0,0.1c-0.1,1.8,1.2,3.3,3,3.4C101.3,131.1,101.4,131.1,101.5,131.1z"/>
					<path id="Path_3293" class="st85" d="M23.4,93.5c2.4,8.9,4.8,17.7,7.2,26.6c0.2,0.6,0.2,1.3,0.4,1.9l1.1,2.4
						c3.6-3.6,17.3-16.6,20.9-20.2c-0.1-0.6,1-3,0.8-3.6c-2.6,2.4-16.5,16-19.4,18.6c-0.4-1.1-0.8-2-1.1-2.9
						c-2.7-8.3-5.4-16.7-8.2-25c-0.5-1.3-2-2.3-3.1-3.4L23.4,93.5z"/>
					<path id="Path_3294" class="st37" d="M63.1,49.3c-1.7,0.6-3.3,1.5-5,1.6c-3.8,0.2-7.7-0.1-11.7-0.1c5.7,1.1,10.6,5.6,17,3.6
						C63.3,52.7,63.2,51,63.1,49.3z"/>
					<path id="Path_3295" class="st36" d="M59.9,114.9c1.9-3.1,3.7-6.2,5.6-9.3c0.8-1.1,1.5-2.4,1.9-3.7c0.6-2.1-1.5-7.5-0.1-10.2
						c0.7-1.2,1.2-2.5,1.5-3.9c0-0.9-0.4-1.8-1.1-2.4c-0.3-0.3-1.8,0.3-2.2,0.8c-1.3,1.7-2.3,5.3-4,6.2s-5.2-1.4-4.5-2.7
						s5.7-2,5.8-3.7s-4.4-0.3-5.6-0.6c1.5-1.1,5.4-4.1,4.2-6.1s-3.4,1.9-5,2.3c0.4-2.2,2.5-6.2,1.6-7.8c-1.9-3.3-5.1,4.4-6,10.9
						c-0.2,1.2-0.5,2.5-0.8,3.7c-0.9,3.9-0.5,8,1.2,11.7l0.5,0.9l0.5,0.9c-0.3,0.9-0.3,2-0.8,2.6c-3.1,3.1-6.4,6.1-9.7,9.1
						l-10.7,10.7l-3.9,5.2l-0.7-0.4L31,122c-0.1-0.6-0.2-1.3-0.4-1.9c-2.4-8.9-4.8-17.7-7.2-26.6c-5.3,1-10.6,2-14.8,5.6
						c1.9,5.9,3.7,11.8,5.6,17.7c2.6,7.8,5,15.7,7.9,23.4c1,2.8,3,5.3,4.9,7.7c1.6,2,4,2,6.3,1.6l2.1-1.4c6.9-9.5,13.9-19,20.8-28.5
						c0.8-0.9,1.4-1.8,2-2.8L59.9,114.9z"/>
					<path id="Path_3296" class="st36" d="M35.3,424.8c0.3-5.7,0.6-11.4,0.8-17c0.1-1.6,0.2-3.1,0.3-4.7c-2.1,0.4-4.2,0.8-6.3,1.1
						c-2,0.2-2.7,1.3-2.7,3.2c0,4,0.2,8,0,12c-0.4,6.2-1.3,12.3-1.9,18.4c-0.2,1.6-0.3,3.1-0.2,4.7c0.2,2.8,2.4,3.2,4.5,3.7
						c3.4-1.1,4.8-3,4.9-6.5c0-4.1,0-8.2,0-12.3C34.9,426.4,35.1,425.6,35.3,424.8z"/>
					<path id="Path_3297" class="st89" d="M62.8,41.1h-9.4c-0.1,0.2,2.5,3.1,4.4,2.9C60,43.8,61.5,43.7,62.8,41.1z"/>
					<path id="Path_3298" class="st37" d="M37.8,32.6l-0.8-3.2l-0.8,0.2l0.6,3.1L37.8,32.6z"/>
					<path id="Path_3299" class="st37" d="M35.5,27.8l-2.6,0.4l0.1,0.6l2.6-0.2L35.5,27.8z"/>
					<path id="Path_3300" class="st37" d="M32,124.4L31,122l-3.6,7.2l0.7,0.4L32,124.4z"/>
					<path id="Path_3301" class="st36" d="M33.1,26.2c2.2-0.7,3.9,0.2,5,2c0.7,1.3,1.3,2.6,1.7,4c1.3-3,2.6-5.7,3.4-8.4
						c0.9-2.9,2.9-5.4,5.6-7c2.6-1.6,5-3.5,7.4-5.3l9.9,12.6c0,0,3.1,4.8,2.6,13.5c0,0,0,0.1,0,0.1c-0.2,4.6-2.5,8.3-5.8,11.5
						c-1.7,0.6-3.3,1.5-5,1.6c-3.8,0.2-7.7-0.1-11.7-0.1c5.7,1.1,10.6,5.6,17,3.6l1.3,9.5c-2.8,6.1-7.1,9.5-12.4,8.8
						c-2.6-0.3-5-1.8-7.5-2.7c-0.2-3.5-2.2-6-4.5-8.4c-2.3-2.4-3.1-5.4-1.2-8.1c2.9-4.1,2.3-8.1,1-12.4c-0.3-1.6-1.7-2.8-3.3-2.9
						c-3.6-0.6-6.4-3.6-6.5-7.3C30.2,28.7,30.9,27,33.1,26.2z M57.5,43.7c2.1,0.3,4-0.1,5.3-2.6h-8.7C54,41.3,55.8,43.5,57.5,43.7
						L57.5,43.7z M36.8,32.7l0.9-0.1l-0.8-3.2l-0.8,0.2L36.8,32.7z M32.9,28.8l2.6-0.2l0-0.8l-2.6,0.4L32.9,28.8z"/>
					<path id="Path_3302" class="st88" d="M93.7,69.5c-1.8-1.5-5.5-1.8-5.8-1.8c-0.3,6.2-3,18,1,26.1c0,0,9-2.1,12.2-0.2
						c-0.3-2.3-0.6-4.7-1.1-7c-0.5-3.1-0.8-6.3-1.9-9.2C97.1,74.6,95.5,71.1,93.7,69.5z"/>
					<circle id="Ellipse_329" class="st50" cx="64.4" cy="30.7" r="1.6"/>
					<circle id="Ellipse_330" class="st2" cx="65.1" cy="30" r="0.6"/>
					<circle id="Ellipse_331" class="st50" cx="54.1" cy="30.7" r="1.6"/>
					<circle id="Ellipse_332" class="st2" cx="54.8" cy="30" r="0.6"/>
					<path id="Path_3303" class="st37" d="M60.7,31.9l2.3,4l-2.5,1.2L60.7,31.9z"/>
				</g>
			</g>
			<rect id="Rectangle_383" x="768" class="st2" width="768" height="894"/>
			
				<radialGradient id="Ellipse_333_1_" cx="456.5562" cy="843.2962" r="1.147" fx="456.344" fy="843.2962" gradientTransform="matrix(77.364 0 0 -77.364 -35217.3633 65941.8125)" gradientUnits="userSpaceOnUse">
				<stop  offset="0" style="stop-color:#FAE3AF"/>
				<stop  offset="0.456" style="stop-color:#FEAD25"/>
				<stop  offset="0.898" style="stop-color:#D88832"/>
			</radialGradient>
			<circle id="Ellipse_333" class="st90" cx="101.5" cy="711.6" r="38.7"/>
			<g id="Group_167" transform="translate(619.772 325.516)">
				
					<linearGradient id="Path_3304_1_" gradientUnits="userSpaceOnUse" x1="-168.8602" y1="517.8844" x2="-168.0862" y2="517.7394" gradientTransform="matrix(41.908 0 0 -64.173 7073.9111 33265.2344)">
					<stop  offset="0" style="stop-color:#3FD8F5"/>
					<stop  offset="0.186" style="stop-color:#3FCEF5"/>
					<stop  offset="0.488" style="stop-color:#3FB6F5"/>
					<stop  offset="1" style="stop-color:#2B9EFC"/>
				</linearGradient>
				<path id="Path_3304" class="st91" d="M41.9,40.5L22.6,69.9L0,35.2L19.3,5.7L41.9,40.5z"/>
				
					<linearGradient id="Path_3305_1_" gradientUnits="userSpaceOnUse" x1="-165.8157" y1="518.7018" x2="-165.0057" y2="517.9418" gradientTransform="matrix(57.351 0 0 -40.481 9529.6475 20999.2793)">
					<stop  offset="0" style="stop-color:#3FD8F5"/>
					<stop  offset="0.186" style="stop-color:#3FCEF5"/>
					<stop  offset="0.488" style="stop-color:#3FB6F5"/>
					<stop  offset="1" style="stop-color:#2B9EFC"/>
				</linearGradient>
				<path id="Path_3305" class="st92" d="M41.9,40.5l34.7-5.7L54,0L19.3,5.7L41.9,40.5z"/>
				
					<linearGradient id="Path_3306_1_" gradientUnits="userSpaceOnUse" x1="-166.0908" y1="519.0275" x2="-165.7808" y2="518.3165" gradientTransform="matrix(53.973 0 0 -35.184 9000.0732 18292.8867)">
					<stop  offset="0" style="stop-color:#3FD8F5"/>
					<stop  offset="0.186" style="stop-color:#3FCEF5"/>
					<stop  offset="0.488" style="stop-color:#3FB6F5"/>
					<stop  offset="1" style="stop-color:#2B9EFC"/>
				</linearGradient>
				<path id="Path_3306" class="st93" d="M22.6,69.9l19.3-29.4l34.7-5.7l-21.5,26L22.6,69.9z"/>
			</g>
		</g>
		<g id="Group_132" transform="translate(703.081 13.181)">
			<g id="Group_111" transform="translate(667.919 37.819)">
				
					<linearGradient id="Rectangle_293_2_" gradientUnits="userSpaceOnUse" x1="-925.8069" y1="792.91" x2="-926.3799" y2="793.736" gradientTransform="matrix(26.127 0 0 -26.127 24211.4434 20743.584)">
					<stop  offset="0" style="stop-color:#3FB6F5"/>
					<stop  offset="1" style="stop-color:#3FD8F5"/>
				</linearGradient>
				<path id="Rectangle_293" class="st94" d="M5,0h16.1c2.8,0,5,2.2,5,5v16.1c0,2.8-2.2,5-5,5H5c-2.8,0-5-2.2-5-5V5C0,2.2,2.2,0,5,0
					z"/>
				<path id="Path_1756" class="st2" d="M20.5,17.8l-4.1-4.1l0,0c-0.1-0.1-0.1-0.1-0.2-0.1h0c-0.2,0-0.3,0.1-0.3,0.3v0
					c0,0.1,0,0.2,0.1,0.2l0,0l4.1,4.1c0.9,0.9,0.9,2.3,0,3.1c-0.4,0.4-1,0.6-1.6,0.6c-0.6,0-1.2-0.2-1.6-0.7l-2.7-2.7
					c-0.3-0.3-0.7-0.5-1.1-0.6c0,0-0.1,0-0.1,0c-0.2,0-0.4-0.1-0.6-0.1c-0.9,0-1.7,0.4-2.1,1.2c0,0,0,0.1-0.1,0.1c0,0,0,0,0,0.1
					C10,19.6,9.9,20,9.9,20.4v0.3c0,1.2-1,2.2-2.2,2.2c-0.3,0-0.7-0.1-1-0.2c0,0-0.1,0-0.1-0.1l-0.1,0c-0.1-0.1-0.2-0.1-0.3-0.2l0,0
					c0,0-0.1-0.1-0.1-0.1c-0.2-0.2-0.2-0.4,0-0.6c0,0,0,0,0,0l14-14C20.7,7,21,6.3,21,5.5c0-1.6-1.3-2.9-2.9-2.9c0,0,0,0,0,0h0
					c-0.8,0-1.5,0.3-2,0.9l-5.1,5.1l-3.4,3.4C7.5,12,7.4,12,7.3,12.1c-0.1,0-0.2,0.1-0.3,0.1c-0.1,0-0.2,0-0.3,0
					c-0.7,0-1.2-0.5-1.2-1.2V5.6c0-0.5,0.2-1.1,0.6-1.5C6.1,4,6.2,3.9,6.3,3.9c0.4-0.3,0.9-0.5,1.4-0.5c1.2,0,2.2,1,2.2,2.2v1.7h0
					c0,0.2,0.1,0.3,0.3,0.3h0c0.2,0,0.3-0.1,0.3-0.3h0V5.6c0-1.6-1.3-2.9-2.9-2.9C7,2.7,6.4,2.9,5.8,3.4C5.8,3.4,5.7,3.5,5.6,3.6
					l0,0c-0.5,0.5-0.8,1.2-0.8,2V11c0,0.4,0.1,0.8,0.4,1.1l0.1,0.1l0,0c0.4,0.5,0.9,0.7,1.5,0.7c0.1,0,0.2,0,0.3,0
					c0.1,0,0.3-0.1,0.4-0.1c0.1,0,0.2-0.1,0.3-0.2c0.1-0.1,0.2-0.2,0.3-0.3l8.4-8.4c0.9-0.9,2.3-0.9,3.1,0s0.9,2.3,0,3.1l-14,14
					c-0.1,0.1-0.2,0.3-0.3,0.5c0,0,0,0.1,0,0.1l0,0.1c0,0,0,0.1,0,0.1V22c0,0.2,0.1,0.4,0.3,0.6c0,0.1,0.1,0.1,0.1,0.1
					c0.5,0.5,1.3,0.8,2,0.8c1.6,0,2.9-1.3,2.9-2.9v-0.3c0-1,0.8-1.7,1.8-1.7c0.4,0,0.9,0.1,1.2,0.4l0.8,0.8l0.1,0.1l0.1,0.1l1.9,1.9
					c1.2,1.1,3,1.1,4.1-0.1C21.5,20.7,21.5,18.9,20.5,17.8L20.5,17.8z"/>
			</g>
			<text transform="matrix(1 0 0 1 700.085 57.883)" class="st95 st96 st97">KerjaApp</text>
		</g>
		<text transform="matrix(1 0 0 1 1099 171)" class="st98 st99 st100">Masuk</text>
		<text transform="matrix(1 0 0 1 931 218)" class="st98 st99 st101">Email / Username</text>
		<text transform="matrix(1 0 0 1 931 334)" class="st98 st99 st101">Kata Sandi</text>
		<g id="Component_88_1" transform="translate(931 231)">
			<g id="Rectangle_296">
				<path class="st2" d="M10,0h419c5.5,0,10,4.5,10,10v36c0,5.5-4.5,10-10,10H10C4.5,56,0,51.5,0,46V10C0,4.5,4.5,0,10,0z"/>
				<path class="st102" d="M10,0.3h419c5.4,0,9.8,4.4,9.8,9.8v36c0,5.4-4.4,9.8-9.8,9.8H10c-5.4,0-9.8-4.4-9.8-9.8V10
					C0.3,4.6,4.6,0.3,10,0.3z"/>
			</g>
			<text transform="matrix(1 0 0 1 23 34)" class="st103 st99 st104">Sheilayuli@kerjaapp.com</text>
		</g>
		<g id="Component_91_1" transform="translate(1024 539)">
			<g transform="matrix(1, 0, 0, 1, -1024, -539)" class="st105">
				<g id="Rectangle_299-2_1_" transform="translate(1024 539)">
					<path class="st98" d="M10,0h233c5.5,0,10,4.5,10,10v36c0,5.5-4.5,10-10,10H10C4.5,56,0,51.5,0,46V10C0,4.5,4.5,0,10,0z"/>
					<path class="st106" d="M10,0.3h233c5.4,0,9.8,4.4,9.8,9.8v36c0,5.4-4.4,9.8-9.8,9.8H10c-5.4,0-9.8-4.4-9.8-9.8V10
						C0.3,4.6,4.6,0.3,10,0.3z"/>
				</g>
			</g>
			<text transform="matrix(1 0 0 1 75 40)" class="st2 st99 st100">Masuk</text>
		</g>
		<text transform="matrix(1 0 0 1 1086 634)" class="st107 st99 st101">atau masuk dengan</text>
		<g id="Component_89_1" transform="translate(931 347)">
			<g id="Rectangle_297">
				<path class="st2" d="M10,0h419c5.5,0,10,4.5,10,10v36c0,5.5-4.5,10-10,10H10C4.5,56,0,51.5,0,46V10C0,4.5,4.5,0,10,0z"/>
				<path class="st102" d="M10,0.3h419c5.4,0,9.8,4.4,9.8,9.8v36c0,5.4-4.4,9.8-9.8,9.8H10c-5.4,0-9.8-4.4-9.8-9.8V10
					C0.3,4.6,4.6,0.3,10,0.3z"/>
			</g>
			<text transform="matrix(1 0 0 1 23 35)" class="st103 st99 st104">Masukkan kata sandi Anda</text>
			<path id="ic_visibility_off_24px" class="st107" d="M408,22.5c2.8,0,5,2.2,5,5c0,0.6-0.1,1.2-0.4,1.8l2.9,2.9
				c1.5-1.3,2.7-2.9,3.4-4.8c-1.8-4.5-6.1-7.5-11-7.5c-1.4,0-2.7,0.2-4,0.7l2.2,2.2C406.8,22.6,407.4,22.5,408,22.5z M398,19.8
				l2.3,2.3l0.5,0.5c-1.7,1.3-3,3-3.7,5c2.4,6.1,9.2,9.1,15.3,6.7c0,0,0,0,0.1,0l0.4,0.4l2.9,2.9l1.3-1.3l-17.7-17.7L398,19.8z
				 M403.5,25.3l1.5,1.6c-0.1,0.2-0.1,0.4-0.1,0.6c0,1.7,1.3,3,3,3c0.2,0,0.4,0,0.6-0.1l1.6,1.5c-2.5,1.2-5.4,0.2-6.7-2.2
				C402.8,28.4,402.8,26.7,403.5,25.3z M407.8,24.5l3.1,3.1l0-0.2c0-1.7-1.3-3-3-3L407.8,24.5z"/>
		</g>
		<g id="Component_93_1" transform="translate(942 662)">
			<g id="Rectangle_300">
				<path d="M7,0h175c3.9,0,7,3.1,7,7v45c0,3.9-3.1,7-7,7H7c-3.9,0-7-3.1-7-7V7C0,3.1,3.1,0,7,0z"/>
				<path class="st108" d="M7,0.5h175c3.6,0,6.5,2.9,6.5,6.5v45c0,3.6-2.9,6.5-6.5,6.5H7c-3.6,0-6.5-2.9-6.5-6.5V7
					C0.5,3.4,3.4,0.5,7,0.5z"/>
			</g>
			
				<image style="overflow:visible;enable-background:new    ;" width="1024" height="1024" id="google-logo-9808" xlink:href="AF2C503D.png"  transform="matrix(4.003906e-02 0 0 4.003906e-02 23 9)">
			</image>
			<text transform="matrix(1 0 0 1 78 38)" class="st107 st99 st109">Google</text>
		</g>
		<g id="Component_92_1" transform="translate(1141 662)">
			<g id="Rectangle_301">
				<path d="M7,0h204c3.9,0,7,3.1,7,7v45c0,3.9-3.1,7-7,7H7c-3.9,0-7-3.1-7-7V7C0,3.1,3.1,0,7,0z"/>
				<path class="st108" d="M7,0.5h204c3.6,0,6.5,2.9,6.5,6.5v45c0,3.6-2.9,6.5-6.5,6.5H7c-3.6,0-6.5-2.9-6.5-6.5V7
					C0.5,3.4,3.4,0.5,7,0.5z"/>
			</g>
			<text transform="matrix(1 0 0 1 75 38)" class="st107 st99 st109">Facebook</text>
			
				<image style="overflow:visible;enable-background:new    ;" width="900" height="900" id="_900px-Facebook_f_logo__2019_.svg" xlink:href="AF2C5043.png"  transform="matrix(4.333333e-02 0 0 4.333333e-02 22 10)">
			</image>
		</g>
		<text transform="matrix(1 0 0 1 1052 768)" class="st107 st99 st101">Belum punya akun?</text>
		<text transform="matrix(1 0 0 1 1190 768)" class="st98 st99 st101" style="text-decoration: underline;">Daftar</text>
		<line id="Line_8" class="st110" x1="942" y1="629" x2="1071" y2="629"/>
		<line id="Line_9" class="st110" x1="1230" y1="629" x2="1359" y2="629"/>
		<g id="Component_90_1" transform="translate(1219 442)">
			<path id="Rectangle_298" class="st2" d="M5,0h141c2.8,0,5,2.2,5,5v22c0,2.8-2.2,5-5,5H5c-2.8,0-5-2.2-5-5V5C0,2.2,2.2,0,5,0z"/>
			<text transform="matrix(1 0 0 1 16 21)" class="st98 st99 st101" style="text-decoration: underline;">Lupa kata sandi?</text>
		</g>
		<g id="image01-1" transform="translate(931 442)">
			<pattern  id="SVGID_3_" xlink:href="#pattern" patternTransform="matrix(0.2978 0 0 -0.2982 -4744.3799 -11198.8486)">
			</pattern>
			<rect class="st111" width="240" height="65"/>
			<rect x="0.3" y="0.3" class="st112" width="239.5" height="64.5"/>
		</g>
		<g id="Component_96_8" transform="translate(32 33)">
			<circle id="Ellipse_239" class="st113" cx="31.5" cy="31.5" r="31.5"/>
			<path id="ic_arrow_back_24px" class="st2" d="M43.2,30H25.4l8.2-8.2l-2.1-2.1L19.8,31.5l11.7,11.7l2.1-2.1L25.4,33h17.8V30z"/>
		</g>
		<circle id="Ellipse_334" class="st114" cx="186" cy="208" r="3"/>
		<circle id="Ellipse_228" class="st115" cx="72.5" cy="379.5" r="2.5"/>
		<circle id="Ellipse_228-2" class="st114" cx="387" cy="312" r="3"/>
		<circle id="Ellipse_228-3" class="st114" cx="15" cy="549" r="3"/>
	</g>
</g>
<g id="Group_132_1_" transform="translate(703.081 13.181)">
	<g id="Group_111_1_" transform="translate(667.919 37.819)">
		
			<linearGradient id="Rectangle_293_3_" gradientUnits="userSpaceOnUse" x1="-945.8914" y1="791.7763" x2="-946.4644" y2="792.6023" gradientTransform="matrix(26.127 0 0 -26.127 24211.4434 20743.584)">
			<stop  offset="0" style="stop-color:#3FB6F5"/>
			<stop  offset="1" style="stop-color:#3FD8F5"/>
		</linearGradient>
		<path id="Rectangle_293_1_" class="st116" d="M-519.7,29.6h16.1c2.8,0,5,2.2,5,5v16.1c0,2.8-2.2,5-5,5h-16.1c-2.8,0-5-2.2-5-5
			V34.6C-524.7,31.9-522.5,29.6-519.7,29.6z"/>
		<path id="Path_1756_1_" class="st2" d="M-504.3,47.4l-4.1-4.1l0,0c-0.1-0.1-0.1-0.1-0.2-0.1h0c-0.2,0-0.3,0.1-0.3,0.3v0
			c0,0.1,0,0.2,0.1,0.2l0,0l4.1,4.1c0.9,0.9,0.9,2.3,0,3.1c-0.4,0.4-1,0.6-1.6,0.6c-0.6,0-1.2-0.2-1.6-0.7l-2.7-2.7
			c-0.3-0.3-0.7-0.5-1.1-0.6c0,0-0.1,0-0.1,0c-0.2,0-0.4-0.1-0.6-0.1c-0.9,0-1.7,0.4-2.1,1.2c0,0,0,0.1-0.1,0.1c0,0,0,0,0,0.1
			c-0.2,0.3-0.3,0.7-0.3,1.1v0.3c0,1.2-1,2.2-2.2,2.2c-0.3,0-0.7-0.1-1-0.2c0,0-0.1,0-0.1-0.1l-0.1,0c-0.1-0.1-0.2-0.1-0.3-0.2l0,0
			c0,0-0.1-0.1-0.1-0.1c-0.2-0.2-0.2-0.4,0-0.6c0,0,0,0,0,0l14-14c0.5-0.5,0.9-1.3,0.9-2c0-1.6-1.3-2.9-2.9-2.9c0,0,0,0,0,0h0
			c-0.8,0-1.5,0.3-2,0.9l-5.1,5.1l-3.4,3.4c-0.1,0.1-0.1,0.1-0.2,0.2c-0.1,0-0.2,0.1-0.3,0.1c-0.1,0-0.2,0-0.3,0
			c-0.7,0-1.2-0.5-1.2-1.2v-5.4c0-0.5,0.2-1.1,0.6-1.5c0.1-0.1,0.1-0.2,0.2-0.2c0.4-0.3,0.9-0.5,1.4-0.5c1.2,0,2.2,1,2.2,2.2v1.7h0
			c0,0.2,0.1,0.3,0.3,0.3h0c0.2,0,0.3-0.1,0.3-0.3h0v-1.7c0-1.6-1.3-2.9-2.9-2.9c-0.7,0-1.3,0.2-1.9,0.7c-0.1,0.1-0.2,0.1-0.2,0.2
			l0,0c-0.5,0.5-0.8,1.2-0.8,2v5.4c0,0.4,0.1,0.8,0.4,1.1l0.1,0.1l0,0c0.4,0.5,0.9,0.7,1.5,0.7c0.1,0,0.2,0,0.3,0
			c0.1,0,0.3-0.1,0.4-0.1c0.1,0,0.2-0.1,0.3-0.2c0.1-0.1,0.2-0.2,0.3-0.3l8.4-8.4c0.9-0.9,2.3-0.9,3.1,0s0.9,2.3,0,3.1l-14,14
			c-0.1,0.1-0.2,0.3-0.3,0.5c0,0,0,0.1,0,0.1l0,0.1c0,0,0,0.1,0,0.1v0.1c0,0.2,0.1,0.4,0.3,0.6c0,0.1,0.1,0.1,0.1,0.1
			c0.5,0.5,1.3,0.8,2,0.8c1.6,0,2.9-1.3,2.9-2.9V50c0-1,0.8-1.7,1.8-1.7c0.4,0,0.9,0.1,1.2,0.4l0.8,0.8l0.1,0.1l0.1,0.1l1.9,1.9
			c1.2,1.1,3,1.1,4.1-0.1C-503.2,50.3-503.2,48.5-504.3,47.4L-504.3,47.4z"/>
	</g>
	<text transform="matrix(1 0 0 1 175.3354 87.5033)" class="st95 st96 st97">KerjaApp</text>
</g>
</svg>
