<svg xmlns="http://www.w3.org/2000/svg" xmlns:xlink="http://www.w3.org/1999/xlink" width="135.769" height="33.115" viewBox="0 0 135.769 33.115">
  <defs>
    <linearGradient id="linear-gradient" x1="0.876" y1="1.042" x2="0.303" y2="0.216" gradientUnits="objectBoundingBox">
      <stop offset="0" stop-color="#3fb6f5"/>
      <stop offset="1" stop-color="#3fd8f5"/>
    </linearGradient>
  </defs>
  <g id="Group_341" data-name="Group 341" transform="translate(-44.491 -44.835)">
    <g id="Group_109" data-name="Group 109" transform="translate(44.491 44.835)">
      <rect id="Rectangle_293" data-name="Rectangle 293" width="33.115" height="33.115" rx="5" fill="url(#linear-gradient)"/>
      <path id="Path_1756" data-name="Path 1756" d="M143.153,315.487l-5.206-5.214-.01.008a.4.4,0,0,0-.3-.148h-.03a.414.414,0,0,0-.414.414v.03a.41.41,0,0,0,.111.27l-.01.01,5.248,5.252a2.8,2.8,0,0,1-1.985,4.779,2.747,2.747,0,0,1-1.98-.828l-3.48-3.475a3.2,3.2,0,0,0-1.34-.778c-.04-.013-.084-.035-.138-.049a2.984,2.984,0,0,0-.73-.084,3.075,3.075,0,0,0-2.652,1.491.706.706,0,0,0-.08.164c-.013.027-.022.054-.04.085a3.078,3.078,0,0,0-.343,1.375v.325a2.81,2.81,0,0,1-2.8,2.808,2.729,2.729,0,0,1-1.26-.312.887.887,0,0,1-.142-.084l-.089-.058a2.273,2.273,0,0,1-.361-.271l-.054-.045a1.485,1.485,0,0,1-.125-.111.542.542,0,0,1,0-.774l17.773-17.778a3.6,3.6,0,0,0,1.077-2.585,3.678,3.678,0,0,0-3.685-3.693H140.1a3.6,3.6,0,0,0-2.585,1.077l-6.435,6.435-4.294,4.285a1.84,1.84,0,0,1-.294.222,2.82,2.82,0,0,1-.37.156,1.44,1.44,0,0,1-.4.054,1.548,1.548,0,0,1-1.544-1.544l0-6.88a2.832,2.832,0,0,1,.726-1.882,1.991,1.991,0,0,1,.285-.272,2.751,2.751,0,0,1,1.789-.654,2.81,2.81,0,0,1,2.8,2.808v2.207h.023a.4.4,0,0,0,.391.359h.048a.41.41,0,0,0,.406-.394h.009v-2.172a3.685,3.685,0,0,0-3.68-3.684,3.579,3.579,0,0,0-2.363.868,2.4,2.4,0,0,0-.294.263l-.058.062a3.751,3.751,0,0,0-.961,2.492v6.88a2.389,2.389,0,0,0,.467,1.433l.071.089h0a2.413,2.413,0,0,0,1.882.9,1.784,1.784,0,0,0,.369-.031,1.966,1.966,0,0,0,.512-.133,2.572,2.572,0,0,0,.441-.223,2.074,2.074,0,0,0,.391-.32l10.7-10.7a2.8,2.8,0,0,1,3.965,3.965l-17.787,17.782a1.5,1.5,0,0,0-.347.587,1.36,1.36,0,0,0-.022.147l-.018.093a1.141,1.141,0,0,0-.018.182v.111a1.425,1.425,0,0,0,.321.783,1.118,1.118,0,0,0,.182.183,3.591,3.591,0,0,0,2.563,1.055,3.7,3.7,0,0,0,3.684-3.681v-.329a2.226,2.226,0,0,1,2.234-2.154,2.307,2.307,0,0,1,1.5.5l.988.984.084.088.138.134,2.349,2.349a3.678,3.678,0,0,0,5.2-5.2Z" transform="translate(-117.204 -292.947)" fill="#fff"/>
    </g>
    <text id="KerjaApp" transform="translate(85.26 69.081)" fill="#3fb6f5" font-size="23" font-family="Helvetica"><tspan x="0" y="0">KerjaApp</tspan></text>
  </g>
</svg>
