<?xml version="1.0" encoding="utf-8"?>
<!-- Generator: Adobe Illustrator 23.1.0, SVG Export Plug-In . SVG Version: 6.00 Build 0)  -->
<svg version="1.1" id="Layer_1" xmlns="http://www.w3.org/2000/svg" xmlns:xlink="http://www.w3.org/1999/xlink" x="0px" y="0px"
	 viewBox="0 0 100 100" style="enable-background:new 0 0 100 100;" xml:space="preserve">
<style type="text/css">
	.st0{fill:url(#Rectangle_293_1_);}
	.st1{fill:#FFFFFF;}
</style>
<g id="Group_111" transform="translate(667.919 37.819)">
	
		<linearGradient id="Rectangle_293_1_" gradientUnits="userSpaceOnUse" x1="-962.3094" y1="393.9815" x2="-964.4587" y2="397.0798" gradientTransform="matrix(26.127 0 0 -26.127 24561.1875 10358.8535)">
		<stop  offset="0" style="stop-color:#3FB6F5"/>
		<stop  offset="1" style="stop-color:#3FD8F5"/>
	</linearGradient>
	<path id="Rectangle_293" class="st0" d="M-648.2-36.8h60.5c10.4,0,18.8,8.4,18.8,18.8v60.5c0,10.4-8.4,18.8-18.8,18.8h-60.5
		c-10.4,0-18.8-8.4-18.8-18.8v-60.5C-666.9-28.4-658.5-36.8-648.2-36.8z"/>
	<path id="Path_1756" class="st1" d="M-590.1,29.9l-15.4-15.4l0,0c-0.2-0.3-0.6-0.4-0.9-0.4h-0.1c-0.7,0-1.2,0.5-1.2,1.2v0.1
		c0,0.3,0.1,0.6,0.3,0.8l0,0l15.5,15.5c3.2,3.3,3.2,8.5,0,11.7c-1.6,1.5-3.6,2.4-5.8,2.4c-2.2,0-4.3-0.9-5.9-2.4L-614,33.1
		c-1.1-1.1-2.5-1.9-4-2.3c-0.1,0-0.2-0.1-0.4-0.1c-0.7-0.2-1.4-0.3-2.2-0.2c-3.2,0-6.2,1.7-7.9,4.4c-0.1,0.2-0.2,0.3-0.2,0.5
		c0,0.1-0.1,0.2-0.1,0.3c-0.6,1.3-1,2.7-1,4.1v1c0,4.6-3.7,8.3-8.3,8.3c-1.3,0-2.6-0.3-3.7-0.9c-0.1-0.1-0.3-0.2-0.4-0.3l-0.3-0.2
		c-0.4-0.2-0.7-0.5-1.1-0.8l-0.2-0.1c-0.1-0.1-0.3-0.2-0.4-0.3c-0.6-0.6-0.6-1.6,0-2.3c0,0,0,0,0,0l52.6-52.6c2.1-2,3.2-4.8,3.2-7.7
		c0-6-4.8-10.9-10.8-10.9c0,0-0.1,0-0.1,0h0c-2.9,0-5.6,1.1-7.7,3.2l-19,19l-12.7,12.7c-0.3,0.2-0.6,0.5-0.9,0.7
		c-0.4,0.2-0.7,0.3-1.1,0.5c-0.4,0.1-0.8,0.2-1.2,0.2c-2.5,0-4.6-2-4.6-4.6v-20.4c0-2.1,0.8-4,2.1-5.6c0.3-0.3,0.5-0.6,0.8-0.8
		c1.5-1.3,3.4-1.9,5.3-1.9c4.6,0,8.3,3.7,8.3,8.3v6.5h0.1c0.1,0.6,0.6,1,1.2,1.1h0.1c0.6,0,1.2-0.5,1.2-1.2h0v-6.4
		c0-6-4.9-10.9-10.9-10.9c-2.6,0-5.1,0.9-7,2.6c-0.3,0.2-0.6,0.5-0.9,0.8l-0.2,0.2c-1.8,2-2.8,4.7-2.8,7.4V4.5c0,1.5,0.5,3,1.4,4.2
		l0.2,0.3l0,0c1.4,1.7,3.4,2.7,5.6,2.7c0.4,0,0.7,0,1.1-0.1c0.5-0.1,1-0.2,1.5-0.4c0.5-0.2,0.9-0.4,1.3-0.7c0.4-0.3,0.8-0.6,1.2-0.9
		l31.7-31.7c3.2-3.2,8.5-3.2,11.7,0c3.2,3.2,3.2,8.5,0,11.7l-52.6,52.6c-0.5,0.5-0.8,1.1-1,1.7c0,0.1-0.1,0.3-0.1,0.4l-0.1,0.3
		c0,0.2,0,0.4-0.1,0.5v0.3c0.1,0.9,0.4,1.7,0.9,2.3c0.2,0.2,0.3,0.4,0.5,0.5c2,2,4.7,3.1,7.6,3.1c6,0,10.9-4.9,10.9-10.9v-1
		c0.1-3.6,3-6.4,6.6-6.4c1.6,0,3.2,0.5,4.5,1.5l2.9,2.9l0.3,0.3l0.4,0.4l7,7c4.4,4.1,11.2,4,15.4-0.4
		C-586.2,40.7-586.2,34.1-590.1,29.9L-590.1,29.9z"/>
</g>
</svg>
