<svg width="18" height="17" viewBox="0 0 18 17" fill="none" xmlns="http://www.w3.org/2000/svg">
<path d="M12.2078 8.53011C11.8811 8.37482 11.5478 8.24105 11.2086 8.12899C12.3071 7.3045 13.0189 5.99162 13.0189 4.51559C13.0189 2.02571 10.9933 0 8.50334 0C6.01342 0 3.98775 2.02571 3.98775 4.51559C3.98775 5.99325 4.70121 7.30742 5.80172 8.13174C4.79342 8.46371 3.8473 8.98024 3.01922 9.66137C1.50079 10.9104 0.445036 12.6525 0.0465025 14.5669C-0.0784067 15.1667 0.0712386 15.7828 0.456989 16.2571C0.840848 16.7292 1.41004 16.9999 2.01859 16.9999H10.1967C10.5634 16.9999 10.8607 16.7026 10.8607 16.3358C10.8607 15.969 10.5634 15.6717 10.1967 15.6717H2.01859C1.7351 15.6717 1.56407 15.5135 1.48737 15.4192C1.35493 15.2563 1.30366 15.0443 1.34673 14.8375C2.03585 11.5274 4.95558 9.10934 8.3273 9.02779C8.3857 9.03005 8.44437 9.03118 8.50334 9.03118C8.56287 9.03118 8.62214 9.03001 8.68111 9.02772C9.71438 9.05196 10.7081 9.28777 11.6376 9.72963C11.9689 9.88701 12.365 9.7462 12.5224 9.41494C12.6799 9.0837 12.539 8.68756 12.2078 8.53011ZM8.6653 7.69898C8.61141 7.69802 8.55743 7.69752 8.50334 7.69752C8.44975 7.69752 8.39616 7.69805 8.34264 7.69905C6.65942 7.61508 5.31586 6.21929 5.31586 4.51559C5.31586 2.758 6.74574 1.32811 8.50334 1.32811C10.2609 1.32811 11.6908 2.758 11.6908 4.51559C11.6908 6.21886 10.3479 7.61438 8.6653 7.69898Z" fill="#686E7B"/>
<path d="M16.6479 13.1817H14.8217V11.3555C14.8217 10.9887 14.5244 10.6914 14.1577 10.6914C13.7909 10.6914 13.4936 10.9887 13.4936 11.3555V13.1817H11.6675C11.3007 13.1817 11.0034 13.4789 11.0034 13.8457C11.0034 14.2125 11.3007 14.5098 11.6675 14.5098H13.4936V16.3359C13.4936 16.7027 13.7909 17 14.1577 17C14.5244 17 14.8217 16.7027 14.8217 16.3359V14.5098H16.6479C17.0147 14.5098 17.312 14.2125 17.312 13.8457C17.312 13.4789 17.0147 13.1817 16.6479 13.1817Z" fill="#686E7B"/>
</svg>
